<svg xmlns="http://www.w3.org/2000/svg" viewBox="0 0 480 480"><defs><style>.cls-1,.cls-10,.cls-2,.cls-4,.cls-5,.cls-6,.cls-7,.cls-8{fill-rule:evenodd;}.cls-1{fill:url(#radial-gradient);}.cls-2,.cls-9{fill:#7085b4;}.cls-3,.cls-4{fill:#a0b2da;}.cls-5{fill:#c8d5f1;}.cls-6{fill:#495c84;}.cls-7{fill:#2a3b5e;}.cls-8{fill:#fff;}.cls-10{fill:#1a1a1a;}</style><radialGradient id="radial-gradient" cx="255.56" cy="307.29" r="135.01" gradientTransform="translate(-85.3 279.56) scale(1.27 .25)" gradientUnits="userSpaceOnUse"><stop offset="0" stop-opacity=".7"/><stop offset="1" stop-opacity="0"/></radialGradient></defs><title>monster-1</title><path class="cls-1" d="M240 391.85c132.19 0 240-16.58 240-36.9s-107.81-36.9-240-36.9-240 16.58-240 36.95 107.81 36.85 240 36.85z"/><path class="cls-2" d="M308.83 277.61c12.95 8.08 36.05 17.45 43.91 8.66s-5.5-32.44 5.14-47.05c9.3-12.77 20.34-14.51 17.57-4.33s-6.89 16 1.85 42.76-15.38 43.18-42.67 43-49.77-13.9-58.5-20.64 10.45-36.29 32.7-22.4z"/><circle class="cls-3" cx="370.24" cy="236.61" r="1.59" transform="translate(-68.58 214.28) rotate(-29.67)"/><circle class="cls-3" cx="365.01" cy="242.55" r="2.45" transform="translate(-72.2 212.37) rotate(-29.65)"/><circle class="cls-3" cx="363.74" cy="252.45" r="3.31" transform="translate(-77.27 213.08) rotate(-29.66)"/><circle class="cls-3" cx="365.05" cy="263.42" r="4.17" transform="translate(-82.52 215.14) rotate(-29.66)"/><circle class="cls-3" cx="366.61" cy="278.05" r="5.64" transform="translate(-89.56 217.83) rotate(-29.66)"/><circle class="cls-3" cx="365.56" cy="296.28" r="6.5" transform="translate(-98.72 219.73) rotate(-29.66)"/><circle class="cls-3" cx="349.11" cy="303.81" r="7.6" transform="translate(-104.6 212.55) rotate(-29.66)"/><circle class="cls-3" cx="321.98" cy="305.72" r="9.07" transform="translate(-109.1 199.41) rotate(-29.66)"/><path class="cls-2" d="M191 287.3c-7.25 13.43-22.69 33-33.87 29.26s-11.28-30.91-27.76-38.34c-14.4-6.5-24.85-2.54-17.41 4.93s13.9 10.47 19.55 38.07 34.74 29.91 58.38 16.29 36.37-36.71 40.62-46.89-27.02-26.41-39.51-3.32z"/><circle class="cls-3" cx="117.37" cy="282.06" r="1.59"/><circle class="cls-3" cx="124.85" cy="284.64" r="2.45"/><circle class="cls-3" cx="130.86" cy="292.6" r="3.31"/><circle class="cls-3" cx="135.15" cy="302.78" r="4.17"/><path class="cls-4" d="M141 321.91a5.64 5.64 0 1 0-5.64-5.64 5.65 5.65 0 0 0 5.64 5.64zm10 16.18a6.5 6.5 0 1 0-6.5-6.5 6.51 6.51 0 0 0 6.5 6.5zm18-.49a7.6 7.6 0 1 0-7.6-7.6 7.62 7.62 0 0 0 7.6 7.6zm24.5-10.3a9.07 9.07 0 1 0-9.07-9.07 9.09 9.09 0 0 0 9.07 9.07z"/><path class="cls-2" d="M257.45 301.65c-2.32 10.4-15.25 58.57-33.7 63.11s-38-5.2-41.46-12.73c-4.44-9.6 9.22 0 20-7.73s24.15-44 20.35-62.15 38.28 3.85 34.81 19.5z"/><circle class="cls-3" cx="189.95" cy="353.66" r="1.59"/><circle class="cls-3" cx="198.9" cy="356.97" r="2.45"/><circle class="cls-3" cx="209.57" cy="357.34" r="3.31"/><circle class="cls-3" cx="221.7" cy="353.78" r="4.17"/><path class="cls-4" d="M230.53 348.39a5.64 5.64 0 1 0-5.64-5.64 5.65 5.65 0 0 0 5.64 5.64zm6.99-15.2a6.5 6.5 0 1 0-6.5-6.5 6.51 6.51 0 0 0 6.5 6.5z"/><path class="cls-2" d="M257.37 290.66c-1.42 10.56-5.91 60.23 9.84 70.86s37.43 8.24 43.3 2.36c7.48-7.48-8.66-3.15-16.14-14.17s-7.48-49.6 2.36-65.35-37.23-9.55-39.36 6.3z"/><circle class="cls-3" cx="304.18" cy="362" r="1.59" transform="translate(-125.55 559.26) rotate(-74.62)"/><circle class="cls-3" cx="294.67" cy="362.83" r="2.45" transform="translate(-133.25 550.86) rotate(-74.64)"/><circle class="cls-3" cx="284.29" cy="360.36" r="3.31" transform="matrix(.26 -.96 .96 .26 -138.47 539.11)"/><circle class="cls-3" cx="273.53" cy="353.71" r="4.17" transform="translate(-140 523.8) rotate(-74.64)"/><circle class="cls-3" cx="267.94" cy="340.74" r="5.64" transform="translate(-131.59 508.87) rotate(-74.64)"/><circle class="cls-3" cx="265.45" cy="323.4" r="6.5" transform="translate(-116.69 493.75) rotate(-74.65)"/><path class="cls-5" d="M276.24 115.71c13.13 4.84 15.3 6.82-4.12 5.11-45.82-4-97.36 24.78-110.92 70.41-3.2 10.77-6.63 10.08-6.07 1 3.33-54.38 70.45-95.18 121.11-76.52z"/><path class="cls-2" d="M201.58 131.11c-9.52-16.43-23.88-31.89-16.67-34.7s11.6-4.88 4.55-7a27.52 27.52 0 0 0-17.55.28c-4.21 1.64-8 3.47-28.58.43s-56.88 2.49-81.89 20.88-10.94 16.47 2 13.15 42-13.79 33.81-6.43-15.34 10.28-17.93 19.58 1.09 6.68 20.87-2.09 2.88-8.92-.08 9.2 1.49 17.28 20.47 4.68 26-25.34 21.1-14c-7.24 16.8-.34 33.76 6.36 20.76s21.18-29.7 37.23-7.23 32.31 10.12 16.31-17.51z"/><path class="cls-4" d="M201.58 131.11c-9.52-16.43-23.88-31.89-16.67-34.7s11.6-4.88 4.55-7a27.52 27.52 0 0 0-17.55.28c-4.21 1.64-8 3.47-28.58.43s-56.88 2.49-81.89 20.88 7.92-1 20.82-4.32 29.13-9.65 20.93-2.29-21.28 23.61-23.87 32.91 7.53-12.64 27.31-21.4-3.56 10.39-6.52 28.52 2.87.26 21.85-12.34 25.58-15.19 20.64-3.91-4 29.62 2.68 16.62 25.78-31.54 41.83-9.07 30.47 23.02 14.47-4.61z"/><path class="cls-2" d="M173.76 95.12c2.5-.84 2.83.35 4.13 5.69s6 23.45-1.3 17.83-12.5-1.4-16.55.65-5.47.79-9.75-3-15.47-1.05-18.35 0-6.67-.42-7.19-4.88-6.64-4-10.3-3.84-1.73-7.92-4.7-8.7c-8.69-2.3 5-6.68 22.8-6.35s33.07 5.34 41.21 2.6z"/><ellipse class="cls-3" cx="165.07" cy="104.79" rx="6.98" ry="5.02" transform="translate(-23.66 155.89) rotate(-47.56)"/><path class="cls-2" d="M295.1 131.11c9.52-16.43 23.88-31.89 16.67-34.7s-11.6-4.88-4.55-7a27.52 27.52 0 0 1 17.56.28c4.21 1.64 8 3.47 28.58.43s56.87 2.47 81.88 20.9 10.94 16.47-2 13.15-42-13.79-33.81-6.43 15.3 10.21 17.89 19.54-1.09 6.68-20.87-2.09-2.88-8.92.08 9.2-1.49 17.28-20.47 4.68-26-25.34-21.1-14c7.25 16.8.34 33.76-6.36 20.76s-21.18-29.7-37.23-7.23-32.28 10.14-16.27-17.49z"/><path class="cls-4" d="M295.1 131.11c9.52-16.43 23.88-31.89 16.67-34.7s-11.6-4.88-4.55-7a27.52 27.52 0 0 1 17.56.28c4.21 1.64 8 3.47 28.58.43s56.87 2.47 81.88 20.9-7.92-1-20.82-4.32-29.13-9.65-20.93-2.29 21.28 23.59 23.87 32.89-7.53-12.64-27.31-21.4 3.56 10.39 6.52 28.52-2.87.26-21.85-12.34-25.58-15.19-20.64-3.91 4 29.62-2.68 16.62-25.78-31.54-41.83-9.07-30.48 23.02-14.47-4.61z"/><path class="cls-2" d="M322.91 95.12c-2.5-.84-2.82.35-4.12 5.69s-6 23.45 1.3 17.83 12.5-1.4 16.55.65 5.47.79 9.75-3 15.47-1.05 18.35 0 6.67-.42 7.19-4.88 6.64-4 10.3-3.84 1.73-7.92 4.7-8.7c8.69-2.3-5-6.68-22.8-6.35s-33.07 5.34-41.22 2.6zm-74.57 221.19a104.6 104.6 0 1 0-104.6-104.6 104.8 104.8 0 0 0 104.6 104.6z"/><path class="cls-4" d="M248.34 107.12a104.6 104.6 0 0 1 104.36 97.63 104.59 104.59 0 0 1-208.72 0 104.6 104.6 0 0 1 104.36-97.63z"/><path class="cls-2" d="M253.37 205.4c-55.11 9.46-73.58 62.34-51 47.19 24.53-16.46 84.77-27.05 113.52-19.68 26.31 6.75-7.41-36.98-62.52-27.51z"/><path class="cls-6" d="M253.81 207.94c-47.49 8.15-66.75 52.32-47.3 39.27 21.14-14.19 80.22-24.38 105-18 22.67 5.79-10.21-29.42-57.7-21.27z"/><path class="cls-7" d="M251 213.31a8.18 8.18 0 1 0 7.57-1.53c-3.27-1-3.11.42-1.74 3.19.71 1.44 2.12 2.7 2.38 4.08a3 3 0 1 1-6 1.12c-.2-1.09.82-3.41.89-5.07.14-3.26-.79-3.72-3.1-1.79z"/><path class="cls-8" d="M219.56 240.65a13.14 13.14 0 0 0-1.81-2.81c-1.14-1.39-2.46-2.21-4.22-1.87a27.56 27.56 0 0 0-9 3.47 3.87 3.87 0 0 0-1.87 4.22 19.23 19.23 0 0 0 1.5 4.94 23 23 0 0 0 2.32-1.38 70.71 70.71 0 0 1 13.08-6.57zm18.44-5.94a13.29 13.29 0 0 0-1.31-2.79c-.93-1.53-2.12-2.54-3.91-2.45a27.55 27.55 0 0 0-9.39 2.16 3.87 3.87 0 0 0-2.45 3.91 20.46 20.46 0 0 0 .56 4.34 167.69 167.69 0 0 1 16.5-5.17zm18.65-4.04a13.56 13.56 0 0 0-1.07-2.64c-.83-1.59-2-2.67-3.75-2.68a27.56 27.56 0 0 0-9.5 1.58 3.87 3.87 0 0 0-2.68 3.75 21.58 21.58 0 0 0 .17 3.59c5.42-1.38 11.1-2.59 16.83-3.6zm40.19-3.33a13.09 13.09 0 0 1 .76-3.21c.61-1.69 1.58-2.91 3.35-3.17a27.58 27.58 0 0 1 9.63.28 3.87 3.87 0 0 1 3.17 3.35 19.3 19.3 0 0 1 .24 5.1 23.37 23.37 0 0 1-2.49-.51 71.13 71.13 0 0 0-14.66-1.84zm-19.41.59a13.22 13.22 0 0 1 .3-3c.37-1.76 1.15-3.1 2.87-3.61a27.58 27.58 0 0 1 9.57-1.1 3.87 3.87 0 0 1 3.61 2.87 20.51 20.51 0 0 1 .91 4.24 167.76 167.76 0 0 0-17.26.6zm-18.89 2.42a13.62 13.62 0 0 1 .13-2.85c.26-1.78 1-3.17 2.64-3.78a27.57 27.57 0 0 1 9.49-1.72 3.87 3.87 0 0 1 3.78 2.64 21.84 21.84 0 0 1 1 3.42c-5.58.56-11.3 1.32-17.04 2.29zm-40.23-7.35c.21.39.39.8.57 1.22.69 1.66.8 3.21-.34 4.6a27.55 27.55 0 0 1-7.29 6.3 3.87 3.87 0 0 1-4.6-.34l-.58-.47a72.25 72.25 0 0 1 12.24-11.31zm15.84-9.17a13.39 13.39 0 0 1 .83 2.84c.33 1.76.11 3.31-1.29 4.43a27.55 27.55 0 0 1-8.44 4.64 3.87 3.87 0 0 1-4.43-1.29 23.63 23.63 0 0 1-1.6-2.15 82.68 82.68 0 0 1 14.93-8.47zm18.42-5.66a14 14 0 0 1 .4 2.44c.14 1.79-.23 3.3-1.74 4.27a27.57 27.57 0 0 1-8.88 3.73 3.87 3.87 0 0 1-4.27-1.74 20.46 20.46 0 0 1-2.08-3.87 84.54 84.54 0 0 1 16.57-4.83zm39.71 2.1q-.09.66-.13 1.34c-.1 1.79.32 3.29 1.85 4.22a27.55 27.55 0 0 0 9 3.5 3.87 3.87 0 0 0 4.23-1.85l.39-.63a72.16 72.16 0 0 0-15.34-6.58zm-17.98-3.33a13.37 13.37 0 0 0 .16 3c.28 1.77 1 3.15 2.69 3.75a27.57 27.57 0 0 0 9.5 1.56 3.87 3.87 0 0 0 3.75-2.69 23.9 23.9 0 0 0 .8-2.56 82.77 82.77 0 0 0-16.9-3.06zm-19.3.8a13.87 13.87 0 0 0 .44 2.43c.46 1.73 1.32 3 3.07 3.45a27.56 27.56 0 0 0 9.61.56 3.87 3.87 0 0 0 3.45-3.07 20.33 20.33 0 0 0 .67-4.3 84.64 84.64 0 0 0-17.24.93z"/><ellipse class="cls-9" cx="256.9" cy="263.98" rx="9.33" ry="12.98" transform="translate(-74.2 102.56) rotate(-19.79)"/><ellipse class="cls-9" cx="275.93" cy="269.16" rx="7.36" ry="5.29" transform="translate(-70.29 438.63) rotate(-70.37)"/><path class="cls-2" d="M248.34 199.68a51.56 51.56 0 1 0-51.56-51.56 51.66 51.66 0 0 0 51.56 51.56z"/><path class="cls-8" d="M248.34 193.47a45.35 45.35 0 1 0-45.34-45.35 45.43 45.43 0 0 0 45.34 45.35z"/><path class="cls-4" d="M248.34 179.18a31.06 31.06 0 1 0-31.06-31.06 31.12 31.12 0 0 0 31.06 31.06z"/><path class="cls-10" d="M248.34 169.89a21.77 21.77 0 1 0-21.77-21.77 21.81 21.81 0 0 0 21.77 21.77z"/><path class="cls-8" d="M267.54 140.24a10.41 10.41 0 1 0-10.41-10.41 10.43 10.43 0 0 0 10.41 10.41z"/></svg>