<?xml version="1.0" encoding="utf-8" ?>
<svg version="1.1" id="Layer_1" xmlns="http://www.w3.org/2000/svg" xmlns:xlink="http://www.w3.org/1999/xlink" x="0px" y="0px"
     viewBox="0 0 512 512" style="enable-background:new 0 0 512 512;" xml:space="preserve">
<style type="text/css">
	.st0{fill:#FF9534;}
	.st1{opacity:7.000000e-02;fill:#262626;}
	.st2{fill:#FFFFFF;}
    
    @-webkit-keyframes rotateY {
        from {
            -webkit-transform: rotateY(0);
            transform: rotateY(0);
        }

        to {
            -webkit-transform: rotateY(360deg);
            transform: rotateY(360deg);
        }
    }

    @-o-keyframes rotateY {
        from {
            transform: rotateY(0);
        }

        to {
            transform: rotateY(360deg);
        }
    }

    @keyframes rotateY {
        from {
            -webkit-transform: rotateY(0);
            transform: rotateY(0);
        }

        to {
            -webkit-transform: rotateY(360deg);
            transform: rotateY(360deg);
        }
    }

    #blogger {
        -webkit-transform-origin: center;
            -ms-transform-origin: center;
             -o-transform-origin: center;
                transform-origin: center;
        -webkit-animation: rotateY 2s linear infinite;
        -o-animation: rotateY 2s linear infinite;
        animation: rotateY 2s linear infinite;
    }

</style>
<g>
<path id="hexagon" class="st0" d="M431.1,124.9l-151-87.2c-7.6-4.4-16-6.6-24.5-6.8v0c0,0,0,0,0,0c0,0,0,0,0,0v0
		c-8.5,0.1-16.9,2.4-24.5,6.8l-151,87.2c-15.7,9.1-25.3,25.8-25.3,43.9v174.3c0,18.1,9.7,34.8,25.3,43.9l151,87.2
		c7.6,4.4,16,6.6,24.5,6.8l0,0c0,0,0,0,0,0c0,0,0,0,0,0l0,0c8.5-0.2,16.9-2.4,24.5-6.8l151-87.2c15.7-9.1,25.3-25.8,25.3-43.9V168.8
		C456.4,150.7,446.8,134,431.1,124.9z" />
<path id="hexagon-shadow" class="st1" d="M257,481c8.5-0.1,16.9-2.4,24.4-6.7l150.5-86.9c15.6-9,25.3-25.7,25.3-43.8V169.8
		c0-18.1-9.6-34.7-25.3-43.8L281.4,39.1c-7.6-4.4-16-6.6-24.4-6.7V481z" />
<path id="blogger" class="st2" d="M378.8,226.2l-1.8-3.7l-2.9-2.3c-3.9-3-23.5,0.2-28.8-4.6c-3.8-3.4-4.3-9.7-5.4-18
		c-2.1-16.3-3.5-17.1-6-22.6c-9.3-19.6-34.3-34.3-51.6-36.3h-46.7c-36.7,0-66.7,30-66.7,66.5v32.5v45.1c0,36.5,30,66.4,66.7,66.4
		h76.7c36.7,0,66.5-29.9,66.7-66.4l0.3-44.2l0.1-9.5L378.8,226.2z M236.4,193.1h37c7.1,0,12.8,5.7,12.8,12.7
		c0,6.9-5.7,12.7-12.8,12.7h-37c-7,0-12.8-5.8-12.8-12.7C223.6,198.8,229.4,193.1,236.4,193.1z M311.6,294.6h-75.2
		c-7,0-12.8-5.8-12.8-12.7c0-7,5.7-12.7,12.8-12.7h75.2c7,0,12.7,5.7,12.7,12.7C324.3,288.7,318.6,294.6,311.6,294.6z" />
</g>
</svg>
