<svg xmlns="http://www.w3.org/2000/svg" viewBox="0 0 512 512" enable-background="new 0 0 512 512"><style type="text/css">.st0{fill:#333333;} .st1{opacity:0.5;fill:#262626;} .st2{fill:#FFFFFF;} @-webkit-keyframes rotateY { from { -webkit-transform: rotateY(0); transform: rotateY(0); } to { -webkit-transform: rotateY(360deg); transform: rotateY(360deg); } } @-o-keyframes rotateY { from { transform: rotateY(0); } to { transform: rotateY(360deg); } } @keyframes rotateY { from { -webkit-transform: rotateY(0); transform: rotateY(0); } to { -webkit-transform: rotateY(360deg); transform: rotateY(360deg); } } #blogger { -webkit-transform-origin: center; -ms-transform-origin: center; -o-transform-origin: center; transform-origin: center; -webkit-animation: rotateY 2s linear infinite; -o-animation: rotateY 2s linear infinite; animation: rotateY 2s linear infinite; }</style><path id="hexagon" class="st0" d="M61.1 143.5v225l194.9 112.5 194.9-112.5v-225l-194.9-112.5z"/><path id="hexagon-shadow_1_" class="st1" d="M256 481l194.9-112.5v-225l-194.9-112.5z"/><path id="blogger" class="st2" d="M360.6 238.2l-1.8-3.6-2.9-2.3c-3.9-3-23.5.2-28.8-4.6-3.8-3.4-4.3-9.7-5.4-18-2.1-16.2-3.5-17.1-6-22.6-9.2-19.5-34.3-34.2-51.5-36.3h-46.6c-36.7 0-66.7 29.9-66.7 66.5v77.6c0 36.5 30 66.4 66.7 66.4h76.6c36.7 0 66.5-29.9 66.7-66.4l.3-44.2.1-9.5-.7-3zm-142.3-33.1h37c7.1 0 12.7 5.7 12.7 12.7 0 6.9-5.7 12.7-12.7 12.7h-37c-7 0-12.8-5.8-12.8-12.7.1-7 5.8-12.7 12.8-12.7zm75.1 101.4h-75.1c-7 0-12.8-5.8-12.8-12.7 0-7 5.7-12.7 12.8-12.7h75.1c7 0 12.7 5.7 12.7 12.7.1 6.9-5.6 12.7-12.7 12.7z"/></svg>