<svg xmlns="http://www.w3.org/2000/svg" viewBox="0 0 480 480"><defs><style>.a{fill:#fff;}.b{opacity:0.2;}.c{fill:#333;}.d{fill:#d74434;}.e{fill:#ff7f00;}.f{fill:#029ecf;}.g{fill:#8f6cb0;}</style></defs><title>1</title><path class="a" d="M-199.54-154.16h879.08v791.88h-879.08z"/><g class="b"><path class="c" d="M67.69 385.98l94.16 94.13-57.78 57.77 94.87 94.87-1.39 1.42-96.29-96.29 57.75-57.75-91.32-91.32-39.95 39.93-34.91-34.91 1.39-1.41 33.52 33.51 39.95-39.95zM63.43 383.11a5.39 5.39 0 1 1 0 7.62 5.39 5.39 0 0 1 0-7.62zM25.37 424a3.36 3.36 0 0 1 4.76 4.73 3.36 3.36 0 0 1-4.76-4.73zM-105.85 160.15l94.16 94.16-57.78 57.75 94.84 94.87-1.39 1.38-96.31-96.29 57.77-57.77-91.29-91.29-39.98 39.95-34.91-34.94 1.44-1.41 33.52 33.48 39.93-39.89zM20.88 403.8a5.38 5.38 0 1 1 0 7.62 5.38 5.38 0 0 1 0-7.62zM73.87 256.14l94.16 94.17-57.78 57.75 94.87 94.87-1.45 1.46-96.28-96.28 57.77-57.79-91.29-91.28-39.93 39.92-34.96-34.94 1.45-1.46 33.51 33.51 39.93-39.93zM105.52 404.74a5.35 5.35 0 1 1-.05 0zM-2.94 260.7a4.35 4.35 0 1 1 0 6.15 4.37 4.37 0 0 1 0-6.15zM163.27 347a5.67 5.67 0 1 1-.2.22l.2-.2zM69.61 253.31a5.33 5.33 0 0 1 7.54 0 5.37 5.37 0 1 1-7.59 0h.05zM31.55 294.21a3.36 3.36 0 1 1 0 4.76 3.36 3.36 0 0 1 0-4.76zM401.95 431.61l1.42 1.39-33.51 33.55 39.93 39.95-94.13 94.11-57.76-57.75-94.87 94.86-1.41-1.42 96.28-96.29 57.76 57.77 91.29-91.28-39.96-39.94 34.96-34.95zM405.27 429.68a4.37 4.37 0 1 1-6.18 0 4.42 4.42 0 0 1 6.18 0zM99.55 129.18l1.45 1.45-33.54 33.53 39.95 39.93-94.16 94.16-57.75-57.78-94.87 94.88-1.44-1.42 96.31-96.31 57.75 57.76 91.27-91.25-39.93-39.94 34.96-35.01zM102.86 127.29a4.37 4.37 0 1 1-6.18 0 4.4 4.4 0 0 1 6.18 0zM16.59 293.53a5.33 5.33 0 1 1-.06-.06zM110.28 199.84a5.37 5.37 0 1 1-7.6 0 5.37 5.37 0 0 1 7.6 0zM69.35 161.78a3.36 3.36 0 1 1-4.75 0 3.31 3.31 0 0 1 4.68 0zM276.43 179.13l1.43 1.43-33.52 33.53 39.95 39.95-94.18 94.16-57.78-57.81-94.81 94.82-1.42-1.41 96.26-96.28 57.78 57.79 91.29-91.27-39.96-39.95 34.96-34.96zM40.62 380.71a5.39 5.39 0 1 1-7.62.2l.2-.2a5.39 5.39 0 0 1 7.42 0zM134.62 284.61a5.39 5.39 0 1 1-7.62 0 5.37 5.37 0 0 1 7.59 0zM279.8 177.24a4.33 4.33 0 0 1 0 6.12 4.38 4.38 0 1 1 0-6.19zM193.47 343.39a5.39 5.39 0 1 1-7.62.05 5.4 5.4 0 0 1 7.62-.05zM287.11 249.76a5.37 5.37 0 1 1-7.59 0 5.37 5.37 0 0 1 7.59 0zM246.19 211.72a3.36 3.36 0 1 1-.25-.25zM40.83 3.92l1.42 1.42-33.52 33.54 39.93 39.93-94.1 94.13-57.81-57.77-94.87 94.86-1.42-1.41 96.29-96.31 57.78 57.78 91.29-91.31-39.93-39.93 34.94-34.93zM44.19 2a4.36 4.36 0 1 1-6.19 0 4.36 4.36 0 0 1 6.2 0zM51.53 74.54a5.38 5.38 0 0 1-7.62 7.6 5.38 5.38 0 0 1 7.62-7.6zM10.63 36.51a3.35 3.35 0 1 1-.27-.27 3.35 3.35 0 0 1 .27.27zM227.7-20.34l1.42 1.43-33.52 33.52 39.96 39.94-94.18 94.16-57.76-57.76-94.86 94.86-1.45-1.43 96.31-96.32 57.76 57.78 91.29-91.28-39.96-39.93 34.99-34.97zM87 86.18a5.38 5.38 0 1 1-7.61 0 5.42 5.42 0 0 1 7.61 0zM144.74 144a5.39 5.39 0 1 1-7.62 0 5.42 5.42 0 0 1 7.62 0zM238.42 50.29a5.39 5.39 0 1 1-7.62 0 5.39 5.39 0 0 1 7.62 0zM197.5 12.25a3.37 3.37 0 1 1-4.77 0 3.37 3.37 0 0 1 4.77 0zM219.29 189.96l.6.63-15.11 15.1 18.03 18.06-42.53 42.55-26.08-26.08-42.85 42.84-.68-.66 43.53-43.5 26.08 26.08 41.24-41.24-18-18.02 15.77-15.76zM112.77 281a2.42 2.42 0 0 1 0 3.42 2.42 2.42 0 1 1-3.55-3.29l.13-.13a2.45 2.45 0 0 1 3.46 0zM155.7 238.06a2.36 2.36 0 0 1 .08 3.34l-.08.08a2.42 2.42 0 0 1-3.42-3.42 2.32 2.32 0 0 1 3.28-.14zM220.79 189.06a2 2 0 1 1-2.83 0 2.07 2.07 0 0 1 2.83 0zM181.8 264.14a2.42 2.42 0 1 1-3.42 0 2.42 2.42 0 0 1 3.42 0zM224.12 221.82a2.44 2.44 0 1 1-3.45 0 2.45 2.45 0 0 1 3.45 0zM205.65 204.61a1.53 1.53 0 0 1-2 2.29l-.13-.13a1.53 1.53 0 0 1 2.16-2.16zM54.89 94.58l-.63-.63 15.14-15.14-18.06-18.05 42.51-42.51 26.08 26.08 42.84-42.85.68.67-43.47 43.48-26.1-26.09-41.25 41.24 18.03 18.03-15.77 15.77zM161.4 3.53a2.41 2.41 0 0 1 0-3.41 2.42 2.42 0 0 1 3.55 3.29l-.13.13a2.41 2.41 0 0 1-3.41 0zM118.48 46.47a2.42 2.42 0 1 1 3.29-3.55l.13.13a2.42 2.42 0 0 1-3.42 3.42zM53.39 95.43a2.08 2.08 0 1 1 .61.57 2 2 0 0 1-.61-.57zM92.38 20.37a2.42 2.42 0 1 1 3.42 0 2.39 2.39 0 0 1-3.38 0zM50 62.72a2.42 2.42 0 1 1 3.42 0 2.44 2.44 0 0 1-3.42 0zM68.51 79.87a1.53 1.53 0 0 1 2.16-2.16 1.51 1.51 0 0 1 0 2.14 1.56 1.56 0 0 1-2.16.02zM198.57 583.6l-1-1 23.95-23.96-28.49-28.49 67.13-67.14 41.22 41.23 67.64-67.67 1.05 1.06-68.69 68.66-41.24-41.24-65.11 65.1 28.49 28.49-24.95 24.96zM366.81 439.79a3.84 3.84 0 1 1 5.32-5.54l.08.08a3.84 3.84 0 0 1-5.44 5.42zM257.77 466.42a3.83 3.83 0 1 1 .12.12zM198 257.14l1-1 23.89 23.9 28.52-28.53 67.16 67.19-41.21 41.23 67.63 67.63-1.03 1.02-68.68-68.69 41.22-41.19-65.12-65.14-28.46 28.5-24.92-24.92zM342 426.25a3.85 3.85 0 1 1 0 5.44 3.82 3.82 0 0 1 0-5.4zM274 357.61a3.84 3.84 0 1 1 0 5.43 3.82 3.82 0 0 1 0-5.4zM196.6 254.78a3.11 3.11 0 1 1 0 4.4 3.11 3.11 0 0 1 0-4.4zM315.19 316.35a3.83 3.83 0 1 1 0 5.42 3.82 3.82 0 0 1 0-5.4zM248.33 249.5a3.85 3.85 0 1 1 0 5.44 3.85 3.85 0 0 1 0-5.44zM221.19 278.67a2.35 2.35 0 0 1 3.32 0 2.33 2.33 0 0 1 .07 3.29l-.07.07a2.39 2.39 0 0 1-3.57-3.18l.18-.18zM127.36 52.44l1-1.02 23.92 23.92 28.5-28.5 67.16 67.18-41.22 41.23 67.66 67.65-1 1.01-68.68-68.7 41.22-41.23-65.11-65.1-28.5 28.51-24.95-24.95zM271.19 220.66a3.85 3.85 0 1 1-.23.23zM203.36 152.84a3.83 3.83 0 1 1-.12.12zM126 50.06a3.12 3.12 0 1 1 0 4.45 3.12 3.12 0 0 1 0-4.45zM244.55 111.61a3.84 3.84 0 0 1 5.66 5.2l-.21.19a3.84 3.84 0 0 1-5.41-5.44zM177.73 44.83a5.19 5.19 0 1 1-.07.12l.12-.12zM150.6 74a2.43 2.43 0 0 1 3.4 0 2.47 2.47 0 0 1 0 3.44 2.43 2.43 0 0 1-3.39-.05 2.4 2.4 0 0 1-.01-3.39zM153.86 369.88l.45-.44 10.17 10.17 12.12-12.15 28.68 28.66-17.56 17.58 28.81 28.81-.45.45-29.28-29.28 17.53-17.56-27.73-27.74-12.12 12.12-10.62-10.62zM215.13 441.61a1.65 1.65 0 0 1 2.31 0 1.68 1.68 0 0 1 0 2.34 1.66 1.66 0 0 1-2.34 0 1.6 1.6 0 0 1 0-2.26zM186.19 412.61a1.65 1.65 0 1 1 2.34 2.34 1.58 1.58 0 0 1-2.23.08l-.08-.08a1.62 1.62 0 0 1-.08-2.29zM153.26 368.89a1.33 1.33 0 1 1 0 1.88 1.29 1.29 0 0 1 0-1.82zM203.78 395.12a1.6 1.6 0 0 1 2.26 0 1.62 1.62 0 1 1-2.22 2.36l-.07-.07a1.6 1.6 0 0 1 0-2.26zM175.28 366.61a1.66 1.66 0 1 1 .09 2.35 1.64 1.64 0 0 1-.12-2.32zM163.74 379.06a1 1 0 0 1 1.41 0 1 1 0 0 1 0 1.41 1 1 0 0 1-1.45-1.47zM-44.18 292.89l.5-.47 11.64 11.64 13.91-13.91 32.73 32.73-20.09 20.12 32.96 32.95-.5.5-33.46-33.43 20.14-20.14-31.76-31.73-13.9 13.91-12.17-12.17zM25.92 374.89a1.88 1.88 0 1 1-.22.22 1.88 1.88 0 0 1 .22-.22zM12.94 321.76a1.86 1.86 0 1 1 0 2.63 1.87 1.87 0 0 1 0-2.63zM302.49 399.04l.49.5-11.43 11.44 13.64 13.64-32.17 32.17-19.69-19.72-32.39 32.38-.5-.49 32.89-32.91 19.74 19.74 31.15-31.15-13.67-13.66 11.94-11.94zM254.46 435.46a1.8 1.8 0 0 1 0 2.55 1.83 1.83 0 0 1-2.59 0 1.85 1.85 0 0 1 0-2.6 1.83 1.83 0 0 1 2.59 0zM303.64 398.38a1.55 1.55 0 0 1 0 2.13 1.53 1.53 0 0 1-2.15 0 1.51 1.51 0 0 1 2.13-2.13zM274.19 455.15a1.83 1.83 0 0 1 0 2.58 1.85 1.85 0 0 1-2.58 0 1.83 1.83 0 1 1 2.58-2.6zM306.19 423.17a1.82 1.82 0 0 1 0 2.57 1.85 1.85 0 0 1-2.58 0 1.81 1.81 0 0 1 0-2.56 1.83 1.83 0 0 1 2.58-.01zM292.19 410.18a1.13 1.13 0 0 1 .08 1.6 1.19 1.19 0 0 1-1.66 0 1.13 1.13 0 0 1 0-1.6 1.1 1.1 0 0 1 1.55-.06zM129.07 242.43l-.5-.49 11.46-11.45-13.64-13.68 32.15-32.12 19.74 19.72 32.39-32.38.47.5-32.86 32.85-19.71-19.72-31.21 31.21 13.65 13.62-11.94 11.94zM209.61 173.61a1.86 1.86 0 0 1 0-2.63 1.83 1.83 0 0 1 2.59 0 1.84 1.84 0 0 1-2.6 2.6zM177.19 206a1.79 1.79 0 0 1-.07-2.53l.07-.07a1.87 1.87 0 0 1 2.63 0 1.79 1.79 0 0 1 0 2.53 1.73 1.73 0 0 1-2.44.19zM127.94 243.06a1.49 1.49 0 0 1 2.06-2.06 1.47 1.47 0 0 1 0 2.08 1.44 1.44 0 0 1-2 .06zM157.41 186.3a1.81 1.81 0 0 1 0-2.56 1.83 1.83 0 1 1 2.58 2.6 1.83 1.83 0 0 1-2.58-.04zM125.39 218.3a1.82 1.82 0 0 1 0-2.57 1.78 1.78 0 0 1 2.52-.06l.06.06a1.76 1.76 0 0 1 .09 2.49l-.09.09a1.81 1.81 0 0 1-2.56 0zM139.4 231.28a1.1 1.1 0 0 1 0-1.56 1.14 1.14 0 0 1 1.61-.07 1.17 1.17 0 0 1 0 1.65 1.13 1.13 0 0 1-1.6 0zM45.8 476.61l-.37-.36 8.94-8.94-10.68-10.68 25.11-25.11 15.43 15.43 25.28-25.31.4.36-25.71 25.71-15.38-15.4-24.34 24.34 10.65 10.62-9.33 9.34zM108.7 422.86a1.4 1.4 0 0 1 0-2 1.42 1.42 0 0 1 2 0 1.46 1.46 0 0 1 0 2.06 1.43 1.43 0 0 1-2-.06zM83.33 448.21a1.47 1.47 0 0 1 0-2 1.64 1.64 0 1 1 0 2zM68 432.82a1.43 1.43 0 1 1 2 0 1.41 1.41 0 0 1-2 0zM43 457.82a1.43 1.43 0 1 1 2.05 0 1.47 1.47 0 0 1-2.05 0zM-2.18 255.72l-.44-.47 11.43-11.47-13.64-13.6 32.17-32.18 19.69 19.72 32.39-32.4.5.5-32.91 32.92-19.72-19.74-31.15 31.18 13.62 13.6-11.94 11.94zM78.37 186.88a1.86 1.86 0 0 1 0-2.6 1.88 1.88 0 0 1 2.6 0 1.84 1.84 0 0 1-2.49 2.72zM45.88 219.35a1.8 1.8 0 0 1 0-2.55 1.82 1.82 0 1 1 0 2.6zM26.19 199.61a1.82 1.82 0 0 1 2.58-2.61 1.78 1.78 0 0 1 .08 2.52l-.06.06a1.84 1.84 0 0 1-2.6.03zM8.19 244.61a1.19 1.19 0 0 1 0-1.66 1.17 1.17 0 0 1 1.65 0 1.17 1.17 0 0 1-1.65 1.66zM290.47 374.31l1.45 1.44-96.32 96.29-57.77-57.75-91.27 91.27 39.96 39.93-34.97 34.96-1.42-1.43 33.55-33.52-39.96-39.94 94.13-94.14 57.75 57.75 94.87-94.86zM287.37 378.88a5.39 5.39 0 1 1 7.65 0 5.39 5.39 0 0 1-7.65 0zM134.54 416.15a5.33 5.33 0 0 1 0-7.54 5.38 5.38 0 1 1 0 7.61zM-54.692 407.683l.707-.707 97.375 97.375-.707.707zM345.6 429.21l.7.72-44.89 44.89.79 30.1-1.03.02-.76-30.51 45.19-45.22zM141.98 146.72l11.75 11.75-44.58 44.57-.71-.73 43.87-43.84-11.04-11.04.71-.71zM276.04 359.63l1.05 1.08-37.51 37.52-50.47-50.48 1.08-1.07 49.42 49.38 36.43-36.43zM58.39 154.04l9.33 9.34-1.03 1.03-8.25-8.2-50.18 50.14-20.74-20.7 1.08-1.12 19.63 19.66 50.16-50.15zM222.39 279.82l1.05 1.06-33.49 33.51-42.63-42.64-16.59 16.56-1.05-1.05 17.66-17.65 42.64 42.63 32.41-32.42zM121.19 232.65l8.59 8.57-.73.72-7.89-7.88-29.41 29.42 19.26 19.23-.71.72-19.95-19.95 30.84-30.83zM76.97 375.5l32.68 32.71-.69.71-31.99-31.99-9.86 9.86-.7-.72 10.56-10.57zM128.26 51.55l1.05 1.08-10.67 10.67-3.84-3.86-31.1 31.09-1.1-1.09 32.12-32.14 3.89 3.89 9.65-9.64zM318.02 274.33l23 23-21.89 21.91-1.08-1.09 20.82-20.84-20.82-20.82-5.94 5.91-27.87-27.84 1.05-1.05 26.79 26.8 5.94-5.98z"/></g><path class="c" d="M55.6 397.88l83.7 83.68-51.34 51.32 84.3 84.34-1.26 1.26-85.59-85.6 51.34-51.32-81.15-81.16-35.49 35.52-31.04-31.04 1.26-1.27 29.78 29.76 35.49-35.49zM51.82 395.36a4.78 4.78 0 1 1 0 6.76 4.78 4.78 0 0 1 0-6.76zM18 431.71a2.79 2.79 0 1 1 0 4.2 3 3 0 0 1 0-4.2zM-98.62 197.16l83.67 83.7-51.34 51.33 84.3 84.31-1.26 1.25-85.59-85.58 51.34-51.35-81.12-81.11-35.52 35.51-31.04-31.07 1.26-1.27 29.78 29.78 35.52-35.5zM14.33 413.76a4.79 4.79 0 1 1 0 6.77 4.78 4.78 0 0 1 0-6.76zM61.1 282.54l83.64 83.66-51.34 51.35 84.35 84.3-1.28 1.28-85.59-85.58 51.34-51.35-81.12-81.14-35.52 35.51-31.04-31.07 1.29-1.29 29.8 29.79 35.47-35.46zM89.19 414.61a4.78 4.78 0 1 1 0 6.76 4.75 4.75 0 0 1 0-6.72zM140.53 363.27a4.78 4.78 0 1 1 0 6.76 4.78 4.78 0 0 1 0-6.76zM57.28 280a4.79 4.79 0 1 1 0 6.78 4.79 4.79 0 0 1 0-6.78zM23.48 316.32a3 3 0 1 1 0 4.24 3 3 0 0 1 0-4.24zM352.67 438.44l1.26 1.26-29.81 29.81 35.51 35.49-83.64 83.66-51.34-51.32-84.33 84.29-1.26-1.26 85.59-85.59 51.34 51.34 81.09-81.1-35.48-35.51 31.07-31.07zM355.61 436.76a3.88 3.88 0 1 1-5.49 0 3.92 3.92 0 0 1 5.49 0zM83.94 169.72l1.26 1.25-29.81 29.81 35.49 35.5-83.65 83.64-51.33-51.31-84.3 84.29-1.27-1.26 85.57-85.58 51.33 51.33 81.12-81.11-35.48-35.5 31.07-31.06zM86.88 168a3.89 3.89 0 1 1-5.5 0 3.89 3.89 0 0 1 5.5 0zM10.19 315.74a4.78 4.78 0 1 1-6.76 0 4.78 4.78 0 0 1 6.76 0zM93.45 232.44a4.8 4.8 0 1 1-6.79 0 4.81 4.81 0 0 1 6.79 0zM57 198.61a3 3 0 1 1-.67-.66 3 3 0 0 1 .67.66zM241.11 214.09l1.26 1.25-29.78 29.79 35.51 35.49-83.67 83.69-51.37-51.37-84.27 84.29-1.26-1.27 85.53-85.53 51.37 51.36 81.14-81.17-35.51-35.49 31.05-31.04zM31.52 393.21a4.79 4.79 0 1 1-6.77 0 4.79 4.79 0 0 1 6.77 0zM115.09 307.77a4.78 4.78 0 1 1-6.76 0 4.78 4.78 0 0 1 6.76 0z"/><circle class="c" cx="241.33" cy="215.12" r="3.88" transform="translate(-81.43 233.65) rotate(-45)"/><path class="c" d="M167.4 360.09a4.79 4.79 0 1 1-6.78 0 4.79 4.79 0 0 1 6.78 0zM250.62 276.84a4.79 4.79 0 1 1-6.77 0 4.81 4.81 0 0 1 6.77 0zM214.29 243a3 3 0 1 1-4.26 0 3 3 0 0 1 4.26 0zM31.73 58.38l1.27 1.25-29.79 29.81 35.49 35.48-83.67 83.7-51.36-51.37-84.28 84.28-1.26-1.27 85.59-85.58 51.34 51.33 81.12-81.09-35.49-35.48 31.04-31.06zM34.7 56.67a3.9 3.9 0 1 1-5.52 0 3.9 3.9 0 0 1 5.52 0zM41.19 121.11a4.79 4.79 0 1 1-6.77 0 4.78 4.78 0 0 1 6.76 0zM4.89 87.33a3 3 0 0 1 0 4.23 3.06 3.06 0 0 1-4.23 0 3 3 0 0 1 4.23-4.23zM197.81 36.8l1.26 1.28-29.83 29.8 35.51 35.48-83.64 83.65-51.34-51.32-84.3 84.31-1.29-1.26 85.59-85.56 51.34 51.31 81.12-81.13-35.51-35.48 31.09-31.08zM72.71 131.5a4.79 4.79 0 0 1-6.55 7l-.23-.24a4.79 4.79 0 0 1 6.78-6.76zM200.73 35.13a3.89 3.89 0 1 1-5.5 0 3.89 3.89 0 0 1 5.5 0zM124 182.81a4.8 4.8 0 0 1-6.78 6.78 4.86 4.86 0 0 1 0-6.78 4.81 4.81 0 0 1 6.78 0zM207.33 99.61a4.78 4.78 0 1 1-6.81 0 4.8 4.8 0 0 1 6.79 0zM170.95 65.78a3 3 0 1 1-3.64 0 3 3 0 0 1 3.64 0zM190.32 223.68l.55.56-13.43 13.45 16.03 16.03-37.8 37.84-23.18-23.19-38.06 38.06-.61-.61 38.67-38.63 23.18 23.18 36.67-36.65-16.03-16.03 14.01-14.01zM95.64 304.61a2.11 2.11 0 0 1 0 3 2.16 2.16 0 1 1-3-3 2.11 2.11 0 0 1 3 0zM133.83 266.45a2.15 2.15 0 1 1-2.51 0 2.15 2.15 0 0 1 2.51 0zM191.63 222.92a1.72 1.72 0 0 1 0 2.43 1.75 1.75 0 0 1-2.47 0 1.8 1.8 0 0 1 0-2.5 1.77 1.77 0 0 1 2.47.07zM157 289.61a2.13 2.13 0 0 1 0 3 2.16 2.16 0 0 1-3-3 2.11 2.11 0 0 1 3 0zM194.63 252a2.18 2.18 0 1 1-3.08.08l.08-.08a2.21 2.21 0 0 1 3 0zM178.19 236.75a1.33 1.33 0 0 1 0 1.88 1.3 1.3 0 1 1 0-1.89zM44.22 138.91l-.55-.53 13.46-13.46-16.04-16.06 37.77-37.78 23.19 23.2 38.06-38.08.58.6-38.61 38.62-23.22-23.17-36.64 36.64 16.04 16.03-14.04 13.99zM138.88 58a2.18 2.18 0 1 1 3.08-.08l-.08.08a2.16 2.16 0 0 1-3 0zM100.74 96.17a2.11 2.11 0 0 1 0-3 2.16 2.16 0 1 1 .05 3.05zM42.88 139.72a1.77 1.77 0 0 1 2.37-2.63l.13.13a1.77 1.77 0 0 1-2.5 2.5zM77.55 73a2.12 2.12 0 1 1 3 0 2.13 2.13 0 0 1-3 0zM39.91 110.61a2.18 2.18 0 0 1 0-3 2.56 2.56 0 1 1 0 3zM56.31 125.87a1.36 1.36 0 0 1 0-1.89 1.39 1.39 0 0 1 1.92-.05 1.42 1.42 0 0 1 0 1.95 1.4 1.4 0 0 1-1.92-.01zM171.92 573.52l-.89-.89 21.26-21.26-25.31-25.32 59.67-59.67 36.62 36.62 60.14-60.14.95.91-61.07 61.08-36.64-36.67-57.89 57.87 25.32 25.32-22.16 22.15zM321.44 445.73a3.42 3.42 0 1 1 4.84 0 3.42 3.42 0 0 1-4.84 0zM171.39 283.4l.9-.9 21.24 21.25 25.34-25.35 59.72 59.71-36.67 36.64 60.12 60.12-.9.88-61.03-61.02 36.62-36.62-57.86-57.86-25.32 25.31-22.16-22.16zM299.36 433.68a3.42 3.42 0 1 1 0 4.84 3.42 3.42 0 0 1 0-4.84zM238.92 372.61a3.41 3.41 0 1 1-.15.15zM170.19 281.3a2.75 2.75 0 1 1 0 3.89 2.75 2.75 0 0 1 0-3.89zM275.54 336a3.41 3.41 0 1 1 4.81 4.84 3.41 3.41 0 1 1-4.81-4.84zM216.13 276.61a3.41 3.41 0 0 1 4.82 0 3.42 3.42 0 1 1-4.84 0zM192 302.54a2.13 2.13 0 1 1 0 2.73 2.13 2.13 0 0 1 0-2.73zM108.65 101.47l.86-.89 21.27 21.23 25.32-25.31 59.69 59.71-36.61 36.6 60.11 60.13-.86.9-61.07-61.05 36.62-36.58-57.86-57.88-25.31 25.34-22.16-22.2zM236.45 251a3.41 3.41 0 1 1 4.81 4.84 3.41 3.41 0 1 1-4.81-4.84zM176.19 190.69a3.46 3.46 0 0 1 4.84 0 3.42 3.42 0 0 1-4.84 4.84 3.46 3.46 0 0 1 0-4.84zM107.44 99.37a2.77 2.77 0 0 1 3.92 3.92 2.77 2.77 0 1 1-3.92-3.92zM212.77 154.1a3.36 3.36 0 0 1 4.75-.09l.09.09a3.41 3.41 0 0 1 0 4.82 3.42 3.42 0 0 1-4.84-4.84zM153.39 94.7a3.41 3.41 0 1 1 0 4.84 3.41 3.41 0 0 1 0-4.84zM129.28 120.61a2.15 2.15 0 1 1 0 3 2.14 2.14 0 0 1 0-3zM132.17 383.58l.37-.37 9.05 9.04 10.82-10.8 25.48 25.48-15.62 15.61 25.61 25.59-.43.41-26.02-26 15.62-15.61-24.64-24.67-10.77 10.79-9.47-9.47zM186.61 447.33a1.47 1.47 0 0 1 2.08 2.08 1.47 1.47 0 0 1-2.08-2.08zM160.93 421.61a1.44 1.44 0 0 1 2 0 1.48 1.48 0 0 1 0 2.08 1.45 1.45 0 0 1-2.05 0 1.42 1.42 0 0 1-.05-2zM131.65 382.68a1.19 1.19 0 0 1 1.78 1.58l-.1.1a1.19 1.19 0 0 1-1.68-1.68zM176.55 406a1.44 1.44 0 0 1 2 0 1.48 1.48 0 0 1 0 2.08 1.45 1.45 0 0 1-2.05 0 1.42 1.42 0 0 1-.05-2zM151.19 380.71a1.44 1.44 0 0 1 2 0 1.48 1.48 0 0 1 0 2.08 1.45 1.45 0 0 1-2.05 0 1.42 1.42 0 0 1-.05-2zM140.95 391.79a.89.89 0 1 1 0 1.26.89.89 0 0 1 0-1.26zM-43.81 315.19l.44-.45 10.36 10.36 12.33-12.36 29.1 29.09-17.85 17.86 29.31 29.31-.45.44-29.73-29.73 17.85-17.84-28.23-28.24-12.33 12.36-10.8-10.8zM18.48 388a1.64 1.64 0 0 1 2.32 0 1.7 1.7 0 0 1 0 2.39 1.74 1.74 0 0 1-2.39 0 1.72 1.72 0 0 1 .07-2.39zM6.95 340.82a1.67 1.67 0 0 1 2.36 0 1.62 1.62 0 0 1 0 2.29 1.66 1.66 0 0 1-2.31-2.34zM264.26 409.52l.45.46-10.14 10.14 12.11 12.12-28.57 28.57-17.53-17.5-28.76 28.77-.45-.44 29.21-29.22 17.55 17.54 27.71-27.7-12.17-12.14 10.59-10.6zM221.6 441.86a1.64 1.64 0 1 1-2.32 0 1.65 1.65 0 0 1 2.32 0zM265.31 408.93a1.36 1.36 0 0 1 0 1.92 1.33 1.33 0 0 1-1.88 0 1.3 1.3 0 0 1 0-1.84 1.36 1.36 0 0 1 1.88-.08zM239.11 459.37a1.64 1.64 0 1 1-2.32 0 1.65 1.65 0 0 1 2.32 0zM267.55 430.93a1.65 1.65 0 0 1 0 2.31 1.62 1.62 0 0 1-2.29 0 1.6 1.6 0 0 1 0-2.26 1.65 1.65 0 0 1 2.29-.05zM255.12 419.4a1 1 0 0 1 .09 1.41 1.1 1.1 0 0 1-1.5 0 1 1 0 0 1 0-1.41 1 1 0 0 1 1.41 0zM110.15 270.33l-.45-.44 10.17-10.18-12.12-12.14 28.6-28.6 17.54 17.56 28.78-28.75.42.41-29.2 29.24-17.54-17.56-27.7 27.7 12.12 12.14-10.62 10.62zM181.75 209.15a1.63 1.63 0 0 1 0-2.31 1.64 1.64 0 1 1 2.31 2.31 1.62 1.62 0 0 1-2.29 0zM152.89 238a1.63 1.63 0 0 1 0-2.3 1.66 1.66 0 0 1 2.34 0 1.64 1.64 0 0 1-2.31 2.31zM109.19 270.9a1.3 1.3 0 0 1 0-1.84 1.31 1.31 0 1 1 1.84 1.87 1.27 1.27 0 0 1-1.8 0zM135.36 220.45a1.63 1.63 0 0 1 2.29-2.31 1.65 1.65 0 0 1 0 2.31 1.57 1.57 0 0 1-2.22.07zM106.91 248.89a1.65 1.65 0 0 1 0-2.31 1.62 1.62 0 0 1 2.29 0 1.65 1.65 0 0 1 0 2.31 1.62 1.62 0 0 1-2.29 0zM119.32 260.4a1 1 0 0 1 0-1.41 1 1 0 1 1 1.45 1.45 1 1 0 0 1-1.41 0zM36.18 478.44l-.35-.33 7.92-7.92-9.49-9.49 22.34-22.33 13.7 13.69 22.47-22.45.32.34-22.82 22.81-13.67-13.66-21.61 21.58 9.47 9.46-8.28 8.3zM92 430.61a1.28 1.28 0 0 1 1.81-1.81 1.3 1.3 0 0 1 0 1.84 1.29 1.29 0 0 1-1.81-.03zM69.51 453.18a1.27 1.27 0 0 1 1.79-1.79 1.27 1.27 0 1 1-1.64 1.94zM55.84 439.52a1.26 1.26 0 1 1 1.79 0 1.31 1.31 0 0 1-1.79 0zM33.63 461.71a1.23 1.23 0 0 1-.05-1.74h.05a1.27 1.27 0 1 1 1.94 1.64l-.15.15a1.23 1.23 0 0 1-1.74.05zM-6.46 282.14l-.42-.43 10.15-10.16-12.12-12.1 28.57-28.6 17.53 17.52 28.76-28.77.45.43-29.21 29.22-17.53-17.53-27.71 27.68 12.12 12.15-10.59 10.59zM65.09 221a1.65 1.65 0 0 1 0-2.31 1.63 1.63 0 1 1 0 2.31zM36.19 249.81a1.62 1.62 0 0 1 0-2.29 1.65 1.65 0 0 1 2.31 0 1.62 1.62 0 0 1 0 2.29 1.65 1.65 0 0 1-2.31 0zM18.72 232.28a1.65 1.65 0 0 1 0-2.31 1.62 1.62 0 0 1 2.28.03 1.66 1.66 0 0 1 0 2.34 1.63 1.63 0 0 1-2.28-.06zM2.71 272.29a1.06 1.06 0 0 1 0-1.47 1 1 0 0 1 1.45 1.47 1 1 0 0 1-1.41 0zM253.59 387.55l1.26 1.26-85.56 85.57-51.34-51.34-81.12 81.11 35.52 35.51-31.1 31.08-1.26-1.25 29.81-29.83-35.49-35.51 83.64-83.64 51.34 51.35 84.3-84.31zM250.86 391.61a4.79 4.79 0 1 1 6.77 0 4.81 4.81 0 0 1-6.77 0zM115 424.71a4.76 4.76 0 1 1 6.73 0 4.74 4.74 0 0 1-6.7 0zM-53.107 417.125l.629-.629 86.537 86.537-.629.629zM302.59 436.31l.63.63-39.93 39.94.71 26.73h-.89l-.71-27.11 40.19-40.19zM121.63 185.22l10.44 10.47-39.62 39.63-.63-.63 38.99-39-9.81-9.84.63-.63zM240.76 374.49l.95.95-33.36 33.32-44.82-44.82.95-.96 43.93 43.89 32.35-32.38zM47.35 191.79l8.3 8.28-.94.93-7.31-7.31-44.61 44.57-18.45-18.39.97-1 17.48 17.48 44.56-44.56zM193.05 303.6l.95.94-29.73 29.72-37.9-37.89-14.72 14.71-.95-.95 15.69-15.65 37.91 37.87 28.75-28.75zM103.13 261.62l7.65 7.62-.63.65-7.02-7.01-26.13 26.12 17.11 17.14-.63.63-17.74-17.77 27.39-27.38zM63.86 388.57l29.04 29.07-.63.63-28.41-28.44-8.78 8.79-.64-.63 9.42-9.42zM109.41 100.69l.95.95-9.47 9.45-3.41-3.42-27.68 27.67-.95-.96 28.57-28.6 3.45 3.47 8.54-8.56zM278.07 298.7l20.44 20.45-19.45 19.42-.97-.96 18.53-18.51-18.53-18.5-5.28 5.28-24.74-24.76.92-.93 23.79 23.8 5.29-5.29z"/><path class="d" d="M170.51 51.967l12.563-12.563 12.563 12.563-12.563 12.563zM-10.346 469.435l12.563-12.563 12.563 12.563-12.563 12.563zM194.246 434.978l12.563-12.563 12.563 12.563-12.563 12.563zM53.517 258.914l12.563-12.563 12.563 12.563-12.563 12.563zM58.25 470.636l12.563-12.563 12.563 12.563-12.563 12.563z"/><path class="e" d="M338.16 444.1l-12.57 12.59-12.56-12.59 12.56-12.58 12.57 12.58zM140.089 157.716l12.563-12.563 12.563 12.563-12.563 12.563z"/><path class="f" d="M211.152 233.381l12.563-12.563 12.563 12.563-12.563 12.563zM-8.107 156.819l12.563-12.563 12.563 12.563-12.563 12.563zM110.215 388.759l10.775-10.775 10.775 10.775-10.775 10.775z"/><path class="g" d="M56.11 355.071l12.563-12.563 12.563 12.563-12.563 12.563zM186.136 328.91l12.563-12.563 12.563 12.563-12.563 12.563z"/><path class="c" d="M9.44 95.49a8.66 8.66 0 1 1 0-12.25 8.66 8.66 0 0 1 0 12.25zm-11.44-11.49a7.5 7.5 0 1 0 10.63 0 7.5 7.5 0 0 0-10.63 0zM146.19 62.54a8.66 8.66 0 1 1 0-12.25 8.66 8.66 0 0 1 0 12.25zm-11.39-11.44a7.5 7.5 0 1 0 10.62 0 7.5 7.5 0 0 0-10.62 0zM162.59 103.26a8.62 8.62 0 1 1 .06-.06zm-11.4-11.4a7.5 7.5 0 1 0 10.62 0 7.5 7.5 0 0 0-10.62 0zM137 127.61a8.66 8.66 0 1 1 0-12.25 8.66 8.66 0 0 1 0 12.25zm-11.43-11.43a7.51 7.51 0 1 0 10.62 0 7.54 7.54 0 0 0-10.61 0zM12.12 345.93a6.14 6.14 0 1 1 0-8.68 6.17 6.17 0 0 1 0 8.68zm-8.12-8.1a5.33 5.33 0 1 0 7.54 0 5.35 5.35 0 0 0-7.52 0zM41.56 253.46a6.14 6.14 0 1 1 0-8.68 6.15 6.15 0 0 1 0 8.68zm-8.12-8.1a5.33 5.33 0 1 0 7.54 0 5.31 5.31 0 0 0-7.51 0zM49 142.54a6.13 6.13 0 1 1 0-8.67 6.13 6.13 0 0 1 0 8.67zm-8.1-8.1a5.33 5.33 0 1 0 7.54 0 5.32 5.32 0 0 0-7.52 0zM84.39 78.4a8.66 8.66 0 1 1 0-12.25 8.68 8.68 0 0 1 0 12.25zm-11.44-11.4a7.5 7.5 0 1 0 10.61 0 7.5 7.5 0 0 0-10.56 0zM138.72 274.68a8.67 8.67 0 1 1 0-12.26 8.7 8.7 0 0 1 0 12.26zm-11.43-11.43a7.5 7.5 0 1 0 10.61 0 7.51 7.51 0 0 0-10.6 0zM142.66 225.5a8.66 8.66 0 1 1 0-12.25 8.66 8.66 0 0 1 0 12.25zm-11.47-11.41a7.5 7.5 0 1 0 10.62 0 7.5 7.5 0 0 0-10.62 0zM231.3 307.7a8.66 8.66 0 1 1 0-12.25 8.66 8.66 0 0 1 0 12.25zm-11.43-11.43a7.51 7.51 0 1 0 10.62 0 7.51 7.51 0 0 0-10.59 0zM233.09 474.25a8.66 8.66 0 1 1 0-12.25 8.66 8.66 0 0 1 0 12.25zm-11.44-11.44a7.5 7.5 0 1 0 10.61 0 7.51 7.51 0 0 0-10.61 0zM267.58 361.82a8.66 8.66 0 1 1 0-12.25 8.66 8.66 0 0 1 0 12.25zm-11.39-11.43a7.51 7.51 0 1 0 10.62 0 7.51 7.51 0 0 0-10.62 0zM307.19 441.61a8.66 8.66 0 1 1 0-12.25 8.66 8.66 0 0 1 0 12.25zm-11.44-11.41a7.5 7.5 0 1 0 10.61 0 7.48 7.48 0 0 0-10.58 0zM330.43 476.14a8.66 8.66 0 1 1 0-12.25 8.66 8.66 0 0 1 0 12.25zm-11.43-11.43a7.5 7.5 0 1 0 10.61 0 7.51 7.51 0 0 0-10.61 0zM359.58 445.2a8.66 8.66 0 1 1 0-12.25 8.66 8.66 0 0 1 0 12.25zm-11.39-11.43a7.51 7.51 0 1 0 10.62 0 7.54 7.54 0 0 0-10.62 0zM38.38 65.73a8.66 8.66 0 1 1 0-12.25 8.66 8.66 0 0 1 0 12.25zm-11.38-11.44a7.5 7.5 0 1 0 10.61 0 7.51 7.51 0 0 0-10.61 0zM210.59 108.26a8.66 8.66 0 1 1 0-12.25 8.66 8.66 0 0 1 0 12.25zm-11.4-11.43a7.5 7.5 0 1 0 10.61 0 7.48 7.48 0 0 0-10.58 0zM127.6 191.83a8.65 8.65 0 1 1 0-12.25 8.65 8.65 0 0 1 0 12.25zm-11.41-11.44a7.5 7.5 0 1 0 10.61 0 7.51 7.51 0 0 0-10.61 0zM59.81 206.68a8.66 8.66 0 1 1 0-12.25 8.66 8.66 0 0 1 0 12.25zm-11.44-11.41a7.51 7.51 0 1 0 10.62 0 7.51 7.51 0 0 0-10.62 0zM118.4 317a8.66 8.66 0 1 1 0-12.25 8.66 8.66 0 0 1 0 12.25zm-11.4-11.39a7.51 7.51 0 1 0 10.62 0 7.51 7.51 0 0 0-10.62 0zM149.31 372.33a8.66 8.66 0 1 1 0-12.25 8.66 8.66 0 0 1 0 12.25zm-11.41-11.43a7.5 7.5 0 1 0 10.61 0 7.51 7.51 0 0 0-10.59 0zM23.85 423.25a8.66 8.66 0 1 1 0-12.27 8.66 8.66 0 0 1 0 12.27zm-11.44-11.43a7.51 7.51 0 1 0 10.62 0 7.51 7.51 0 0 0-10.62 0zM61.67 405.43a8.66 8.66 0 1 1 0-12.27 8.66 8.66 0 0 1 0 12.27zm-11.48-11.43a7.51 7.51 0 1 0 10.62 0 7.51 7.51 0 0 0-10.62 0z"/><g class="b"><path class="c" d="M412.31 94.03l-94.16-94.13 57.78-57.78-94.87-94.87 1.39-1.41 96.29 96.28-57.75 57.75 91.32 91.32 39.95-39.92 34.91 34.9-1.39 1.42-33.52-33.51-39.95 39.95zM322.91 3.24a5.37 5.37 0 0 1-7.59-.06 5.37 5.37 0 0 1 .06-7.59 5.37 5.37 0 0 1 7.54 0 5.37 5.37 0 0 1 .08 7.59zM416.57 96.9a5.39 5.39 0 1 1 0-7.62 5.39 5.39 0 0 1 0 7.62zM406.13 223.85l-94.16-94.14 57.78-57.77-94.87-94.85 1.45-1.48 96.29 96.28-57.78 57.79 91.29 91.29 39.93-39.94 34.96 34.94-1.44 1.47-33.52-33.5-39.93 39.91zM374.48 75.27a5.35 5.35 0 0 1-7.57 0 5.37 5.37 0 1 1 7.6 0zM316.73 133a5.39 5.39 0 1 1 .2-.2zM410.39 226.7a5.33 5.33 0 0 1-7.54 0 5.37 5.37 0 1 1 7.59 0h-.05zM78.05 48.4l-1.42-1.39 33.52-33.55-39.93-39.96 94.13-94.09 57.75 57.75 94.87-94.88 1.42 1.43-96.29 96.28-57.75-57.77-91.29 91.28 39.95 39.94-34.96 34.96zM74.74 50.32a4.37 4.37 0 1 1 6.18 0 4.42 4.42 0 0 1-6.18 0zM108.19 15.81a3.35 3.35 0 1 1 .27.27 3.35 3.35 0 0 1-.27-.27zM380.45 350.82l-1.44-1.44 33.54-33.55-39.96-39.93 94.16-94.15 57.75 57.78 94.87-94.87 1.45 1.41-96.32 96.33-57.75-57.78-91.27 91.26 39.93 39.93-34.96 35.01zM377.19 352.71a4.37 4.37 0 1 1 6.18 0 4.4 4.4 0 0 1-6.18 0zM369.72 280.17a5.37 5.37 0 1 1 7.6 0 5.37 5.37 0 0 1-7.6 0zM410.66 318.23a3.35 3.35 0 1 1 4.74 0 3.3 3.3 0 0 1-4.67.06zM203.57 300.88l-1.42-1.44 33.52-33.52-39.96-39.95 94.18-94.16 57.78 57.79 94.82-94.8 1.42 1.42-96.27 96.25-57.77-57.78-91.3 91.28 39.96 39.95-34.96 34.96zM439.38 99.29a5.39 5.39 0 1 1 7.62-.2l-.2.2a5.39 5.39 0 0 1-7.42 0zM345.38 195.45a5.39 5.39 0 1 1 7.62 0 5.37 5.37 0 0 1-7.59 0zM200.19 302.78a4.33 4.33 0 0 1 0-6.12 4.38 4.38 0 1 1 0 6.19zM286.53 136.61a5.39 5.39 0 1 1 7.66 0 5.39 5.39 0 0 1-7.66 0zM192.9 230.25a5.37 5.37 0 1 1 7.59 0 5.36 5.36 0 0 1-7.58 0zM233.77 268.29a3.36 3.36 0 0 1 4.51-5l.25.25a3.36 3.36 0 0 1-4.51 5zM439.17 476.08l-1.41-1.41 33.51-33.55-39.93-39.93 94.11-94.13 57.8 57.77 94.87-94.87 1.42 1.42-96.29 96.32-57.78-57.77-91.29 91.28 39.93 39.93-34.94 34.94zM428.48 405.48a5.38 5.38 0 1 1 7.61 0 5.38 5.38 0 0 1-7.61 0zM252.3 500.35l-1.42-1.42 33.52-33.53-39.96-39.95 94.19-94.15 57.75 57.75 94.87-94.85 1.44 1.43-96.31 96.31-57.75-57.79-91.29 91.3 39.95 39.93-34.99 34.97zM393 393.83a5.39 5.39 0 1 1 7.62 0 5.42 5.42 0 0 1-7.62 0zM335.26 336.06a5.39 5.39 0 1 1 7.62 0 5.42 5.42 0 0 1-7.62 0zM241.58 429.74a5.39 5.39 0 1 1 7.62 0 5.39 5.39 0 0 1-7.62 0zM260.71 290.05l-.6-.63 15.12-15.11-18.04-18.06 42.54-42.53 26.07 26.07 42.85-42.85.68.66-43.53 43.5-26.07-26.07-41.25 41.24 18.01 18-15.78 15.78zM367.19 199a2.42 2.42 0 0 1 0-3.42 2.42 2.42 0 1 1 3.55 3.29l-.13.13a2.45 2.45 0 0 1-3.46 0zM324.3 241.95a2.37 2.37 0 0 1-.11-3.34l.07-.07a2.41 2.41 0 0 1 3.41 0 2.39 2.39 0 0 1 0 3.38 2.32 2.32 0 0 1-3.28.14zM259.19 290.95a2 2 0 1 1 2.83 0 2.07 2.07 0 0 1-2.83 0zM298.19 215.87a2.42 2.42 0 1 1 3.42 0 2.42 2.42 0 0 1-3.42 0zM255.88 258.2a2.43 2.43 0 1 1 3.44 0 2.44 2.44 0 0 1-3.44 0zM274.36 275.36a1.53 1.53 0 1 1 2.19 0 1.5 1.5 0 0 1-2.12 0zM425.11 385.42l.63.63-15.14 15.14 18.06 18.06-42.51 42.5-26.07-26.07-42.85 42.84-.68-.65 43.48-43.48 26.1 26.07 41.24-41.23-18.03-18.04 15.77-15.77zM361.53 433.55a2.42 2.42 0 1 1-3.43 0 2.37 2.37 0 0 1 3.35-.07zM426.61 384.61a2.08 2.08 0 1 1-.61-.61 2 2 0 0 1 .61.61zM387.63 459.61a2.42 2.42 0 1 1-3.42 0 2.39 2.39 0 0 1 3.38 0zM430 417.31a2.42 2.42 0 1 1-3.42 0 2.44 2.44 0 0 1 3.42 0zM411.49 400.14a1.53 1.53 0 0 1-2.16 2.16 1.51 1.51 0 0 1 0-2.14 1.56 1.56 0 0 1 2.16-.02zM281.43-103.59l1 1-23.95 23.95 28.5 28.48-67.14 67.14-41.22-41.21-67.63 67.65-1.05-1.04 68.68-68.67 41.25 41.25 65.11-65.12-28.5-28.48 24.95-24.95zM113.19 40.23a3.84 3.84 0 1 1-4.94 0 3.84 3.84 0 0 1 4.94 0zM222.19 13.61a3.83 3.83 0 1 1-5.42 5.39 3.83 3.83 0 1 1 5.42-5.42zM282.01 222.87l-1 .98-23.9-23.88-28.52 28.52-67.16-67.2 41.22-41.21-67.64-67.63 1.03-1.04 68.69 68.7-41.22 41.18 65.11 65.15 28.47-28.5 24.92 24.93zM138 53.76a3.85 3.85 0 1 1 0-5.44 3.82 3.82 0 0 1 0 5.4zM206 122.45a3.84 3.84 0 1 1 0-5.43 3.82 3.82 0 0 1 0 5.4zM283.4 225.23a3.11 3.11 0 1 1 0-4.4 3.11 3.11 0 0 1 0 4.4zM164.82 163.67a3.83 3.83 0 1 1 0-5.42 3.83 3.83 0 0 1 0 5.42zM231.67 230.52a3.85 3.85 0 1 1 0-5.44 3.85 3.85 0 0 1 0 5.44zM258.79 201.34a2.39 2.39 0 1 1 .18-.18zM352.64 427.58l-1 .99-23.92-23.92-28.49 28.53-67.17-67.18 41.22-41.25-67.66-67.63 1-1.04 68.68 68.73-41.21 41.2 65.11 65.12 28.49-28.52 24.95 24.97zM208.83 259.35a3.85 3.85 0 1 1 .23-.23zM276.64 327.17a3.83 3.83 0 1 1-5.71-5.1l.26-.26a3.83 3.83 0 0 1 5.41 5.41zM354 429.95a3.12 3.12 0 1 1 0-4.44 3.12 3.12 0 0 1 0 4.44zM235.45 368.36a3.84 3.84 0 1 1-.08-5.43l.08.08a3.84 3.84 0 0 1 0 5.35zM302.27 435.18a3.83 3.83 0 1 1 0-5.42 3.83 3.83 0 0 1 0 5.42zM329.4 406a2.43 2.43 0 0 1-3.39 0 2.47 2.47 0 0 1 0-3.44 2.43 2.43 0 0 1 3.39 0 2.39 2.39 0 0 1 0 3.38zM326.14 110.11l-.44.45-10.18-10.17-12.12 12.14-28.67-28.64 17.56-17.59-28.81-28.82.44-.43 29.29 29.28-17.54 17.56 27.73 27.72 12.12-12.11 10.62 10.61zM264.87 38.44a1.65 1.65 0 0 1-2.31 0 1.68 1.68 0 0 1 0-2.34 1.66 1.66 0 0 1 2.34 0 1.6 1.6 0 0 1 0 2.26zM293.78 67.35a1.66 1.66 0 0 1-2.34-2.35 1.58 1.58 0 0 1 2.23-.08l.08.08a1.63 1.63 0 0 1 .06 2.3zM326.75 111.12a1.33 1.33 0 1 1 0-1.88 1.3 1.3 0 0 1 0 1.84zM276.19 84.89a1.6 1.6 0 0 1-2.26 0 1.62 1.62 0 1 1 2.26-2.28 1.59 1.59 0 0 1 0 2.25zM304.72 113.38a1.66 1.66 0 1 1-.09-2.35 1.63 1.63 0 0 1 .06 2.3zM316.26 100.95a1 1 0 0 1-1.41 0 1 1 0 0 1 0-1.41 1 1 0 1 1 1.45 1.46zM177.52 80.97l-.5-.5 11.43-11.44-13.64-13.65 32.17-32.17 19.69 19.73 32.39-32.4.5.5-32.89 32.91-19.74-19.74-31.15 31.16 13.67 13.66-11.93 11.94zM258 12.1a1.84 1.84 0 1 1 2.6 0 1.86 1.86 0 0 1-2.6 0zM225.54 44.54a1.79 1.79 0 0 1 0-2.53 1.83 1.83 0 0 1 2.59 0 1.86 1.86 0 0 1 0 2.6 1.83 1.83 0 0 1-2.59 0zM176.36 81.61a1.55 1.55 0 0 1 0-2.13 1.53 1.53 0 0 1 2.16 0 1.51 1.51 0 0 1-2.13 2.13zM205.86 24.85a1.82 1.82 0 0 1 0-2.57 1.85 1.85 0 0 1 2.58 0 1.83 1.83 0 0 1-2.58 2.6zM173.84 56.84a1.82 1.82 0 0 1 0-2.57 1.85 1.85 0 0 1 2.58 0 1.81 1.81 0 0 1 0 2.56 1.83 1.83 0 0 1-2.58.01zM187.82 69.83a1.14 1.14 0 0 1-.07-1.61 1.19 1.19 0 0 1 1.66 0 1.13 1.13 0 0 1 0 1.6 1.1 1.1 0 0 1-1.55.06zM350.93 237.59l.5.47-11.46 11.45 13.64 13.68-32.15 32.12-19.74-19.71-32.38 32.38-.47-.5 32.85-32.86 19.72 19.71 31.2-31.2-13.64-13.62 11.93-11.92zM270.39 306.4a1.86 1.86 0 0 1 0 2.63 1.83 1.83 0 0 1-2.59 0 1.84 1.84 0 0 1 2.6-2.6zM302.83 274a1.79 1.79 0 0 1 .07 2.53l-.07.07a1.87 1.87 0 0 1-2.63 0 1.79 1.79 0 0 1 0-2.53 1.73 1.73 0 0 1 2.44-.19zM352.06 237a1.49 1.49 0 1 1-1.89 2.3l-.17-.17a1.47 1.47 0 0 1 0-2.08 1.44 1.44 0 0 1 2-.06zM322.59 293.71a1.81 1.81 0 0 1 0 2.56 1.83 1.83 0 1 1 0-2.6zM354.61 261.71a1.82 1.82 0 0 1 0 2.57 1.78 1.78 0 0 1-2.52.06l-.06-.06a1.76 1.76 0 0 1-.09-2.49l.09-.09a1.81 1.81 0 0 1 2.56 0zM340.6 248.73a1.1 1.1 0 0 1 0 1.56 1.14 1.14 0 0 1-1.61.07 1.17 1.17 0 0 1 0-1.65 1.13 1.13 0 0 1 1.6 0zM434.21 3.4l.36.37-8.93 8.93 10.67 10.68-25.1 25.1-15.44-15.43-25.28 25.3-.4-.36 25.71-25.71 15.38 15.41 24.34-24.35-10.64-10.62 9.33-9.32zM371.3 57.16a1.4 1.4 0 0 1 0 2 1.42 1.42 0 0 1-2 0 1.46 1.46 0 0 1 0-2.06 1.43 1.43 0 0 1 2 .06zM396.67 31.79a1.47 1.47 0 0 1 0 2 1.64 1.64 0 1 1 0-2zM435.1 2.87a1.18 1.18 0 0 1 0 1.67 1.19 1.19 0 0 1-1.66 0 1.21 1.21 0 0 1 0-1.66 1.17 1.17 0 0 1 1.65 0zM412 47.19a1.43 1.43 0 1 1-2 0 1.41 1.41 0 0 1 2 0zM437 22.19a1.45 1.45 0 0 1 0 2 1.43 1.43 0 0 1-2 0 1.44 1.44 0 0 1 0-2 1.47 1.47 0 0 1 2 0zM426.19 12a.91.91 0 0 1 0 1.29.87.87 0 0 1-1.23.06l-.06-.06a.85.85 0 0 1 0-1.2.87.87 0 0 1 1.23-.11zM482.18 224.28l.45.47-11.44 11.47 13.64 13.62-32.17 32.16-19.69-19.7-32.39 32.38-.49-.5 32.91-32.92 19.71 19.74 31.15-31.16-13.61-13.62 11.93-11.94zM401.64 293.13a1.85 1.85 0 0 1 0 2.6 1.88 1.88 0 0 1-2.6 0 1.84 1.84 0 0 1 2.6-2.6zM434.13 260.67a1.8 1.8 0 0 1 0 2.55 1.82 1.82 0 1 1 0-2.58zM189.53 105.7l-1.44-1.45 96.31-96.29 57.78 57.76 91.26-91.27-39.95-39.92 34.96-34.97 1.42 1.42-33.54 33.52 39.95 39.95-94.13 94.13-57.75-57.74-94.87 94.86zM192.63 101.13a5.39 5.39 0 1 1-7.65 0 5.39 5.39 0 0 1 7.65 0zM287.69 6.08a5.36 5.36 0 1 1-7.58 0 5.36 5.36 0 0 1 7.58 0zM345.46 63.86a5.33 5.33 0 0 1 0 7.54 5.38 5.38 0 1 1 0-7.61zM436.49-24.347l.707-.707 97.375 97.375-.707.707zM134.41 50.78l-.71-.7 44.9-44.9-.79-30.09 1.02-.04.77 30.53-45.19 45.2zM338.02 333.3l-11.75-11.75 44.59-44.6.71.74-43.88 43.86 11.04 11.03-.71.72zM203.96 120.36l-1.05-1.06 37.51-37.52 50.47 50.47-1.07 1.07-49.42-49.38-36.44 36.42zM421.62 325.95l-9.34-9.32 1.03-1.02 8.25 8.2 50.18-50.17 20.74 20.73-1.07 1.09-19.64-19.65-50.15 50.14zM257.61 200.18l-1.05-1.05 33.49-33.53 42.64 42.65 16.58-16.56 1.05 1.05-17.66 17.67-42.64-42.65-32.41 32.42zM358.82 247.35l-8.6-8.56.74-.73 7.88 7.88 29.42-29.41-19.27-19.25.71-.71 19.95 19.96-30.83 30.82zM403.03 104.5l-32.67-32.7.68-.72 31.99 32 9.86-9.86.71.7-10.57 10.58zM351.75 428.44l-1.06-1.05 10.68-10.66 3.83 3.83 31.1-31.1 1.11 1.1-32.13 32.15-3.89-3.89-9.64 9.62zM161.98 205.66l-23-23 21.9-21.88 1.08 1.07-20.82 20.84 20.82 20.82 5.94-5.91 27.86 27.84-1.05 1.05-26.79-26.78-5.94 5.95z"/></g><path class="c" d="M424.4 82.13l-83.7-83.67 51.34-51.34-84.3-84.34 1.26-1.25 85.59 85.59-51.34 51.34 81.15 81.13 35.49-35.5 31.04 31.05-1.26 1.25-29.78-29.76-35.49 35.5zM345 1.43a4.8 4.8 0 0 1-6.79 0 4.8 4.8 0 0 1 0-6.79 4.8 4.8 0 0 1 6.78 0 4.81 4.81 0 0 1 .01 6.79zM428.19 84.61a4.78 4.78 0 1 1 0-6.76 4.78 4.78 0 0 1 0 6.76zM418.91 197.47l-83.65-83.67 51.34-51.33-84.35-84.31 1.29-1.29 85.58 85.6-51.33 51.33 81.12 81.14 35.51-35.5 31.04 31.06-1.28 1.29-29.81-29.79-35.46 35.47zM390.81 65.41a4.78 4.78 0 1 1 0-6.76 4.78 4.78 0 0 1 0 6.76zM339.47 116.75a4.78 4.78 0 1 1 0-6.76 4.78 4.78 0 0 1 0 6.76zM422.72 200a4.79 4.79 0 1 1 0-6.78 4.79 4.79 0 0 1 0 6.78zM127.34 41.56l-1.26-1.26 29.8-29.81-35.51-35.49 83.64-83.67 51.34 51.34 84.33-84.3 1.26 1.26-85.59 85.6-51.34-51.34-81.09 81.09 35.49 35.51-31.07 31.07zM124.39 43.25a3.88 3.88 0 1 1 5.49 0 3.92 3.92 0 0 1-5.49 0zM154.19 12.61a3 3 0 1 1 4.24 0 3 3 0 0 1-4.24 0zM396.07 310.3l-1.27-1.28 29.81-29.79-35.49-35.49 83.65-83.65 51.34 51.31 84.3-84.31 1.26 1.28-85.56 85.57-51.34-51.32-81.12 81.12 35.49 35.49-31.07 31.07zM393.12 312a3.89 3.89 0 0 1 5.52-5.49 3.89 3.89 0 0 1-5.52 5.49zM386.55 247.61a4.8 4.8 0 1 1 6.79 0 4.86 4.86 0 0 1-6.79 0zM423 281.35a2.94 2.94 0 0 1-.1-4.16 3 3 0 1 1 .08 4.24zM238.9 265.92l-1.27-1.27 29.79-29.77-35.52-35.5 83.67-83.69 51.37 51.37 84.27-84.28 1.27 1.27-85.54 85.52-51.37-51.35-81.14 81.16 35.51 35.5-31.04 31.04zM364.91 172.24a4.78 4.78 0 1 1 6.76 0 4.78 4.78 0 0 1-6.76 0zM235.93 267.61a3.88 3.88 0 1 1 5.49 0 3.88 3.88 0 0 1-5.49 0zM312.61 119.93a4.79 4.79 0 1 1 6.78 0 4.79 4.79 0 0 1-6.78 0zM229.38 203.18a4.79 4.79 0 1 1 6.77 0 4.8 4.8 0 0 1-6.77 0zM265.71 237a3 3 0 1 1 4.26 0 3 3 0 0 1-4.26 0zM438.78 358.9a4.79 4.79 0 1 1 6.77 0 4.77 4.77 0 0 1-6.75 0zM282.19 443.23l-1.26-1.29 29.83-29.81-35.51-35.5 83.65-83.63 51.33 51.31 84.31-84.31 1.28 1.26-85.59 85.56-51.33-51.31-81.13 81.12 35.52 35.5-31.1 31.1zM407.29 348.52a4.79 4.79 0 0 1 6.55-7l.23.24a4.79 4.79 0 0 1-6.78 6.76zM279.27 444.88a3.88 3.88 0 1 1 5.49 0 3.88 3.88 0 0 1-5.49 0zM355.95 297.2a4.8 4.8 0 1 1 6.4-7.16h.05a3.86 3.86 0 0 1 .33.33 4.86 4.86 0 0 1 0 6.78 4.81 4.81 0 0 1-6.78.05zM272.68 380.45a4.79 4.79 0 1 1 6.82 0 4.81 4.81 0 0 1-6.8 0zM309.06 414.23a3 3 0 1 1 3.68 0 3 3 0 0 1-3.68 0zM289.68 256.32l-.55-.54 13.43-13.47-16.03-16.03 37.8-37.82 23.18 23.17 38.07-38.06.6.61-38.67 38.64-23.18-23.19-36.67 36.65 16.03 16.03-14.01 14.01zM384.37 175.39a2.11 2.11 0 0 1 0-3 2.16 2.16 0 1 1 3 3 2.11 2.11 0 0 1-3 0zM346.19 213.61a2.15 2.15 0 1 1 2.51 0 2.15 2.15 0 0 1-2.51 0zM288.37 257.09a1.72 1.72 0 0 1 0-2.43 1.75 1.75 0 0 1 2.47 0 1.8 1.8 0 0 1 0 2.5 1.77 1.77 0 0 1-2.47-.07zM323 190.38a2.56 2.56 0 1 1 3 0 2.11 2.11 0 0 1-3 0zM285.37 228a2.18 2.18 0 1 1 3.08-.08l-.08.08a2.2 2.2 0 0 1-3 0zM301.8 243.26a1.33 1.33 0 0 1 0-1.88 1.3 1.3 0 1 1 0 1.89zM435.78 341.1l.56.53-13.46 13.45 16.03 16.06-37.77 37.78-23.19-23.18-38.06 38.06-.58-.59 38.62-38.64 23.21 23.19 36.64-36.64-16.03-16.04 14.03-13.98zM341.12 422a2.17 2.17 0 1 1-3.07.07l.07-.07a2.18 2.18 0 0 1 3 0zM379.27 383.85a2.11 2.11 0 0 1 0 3 2.56 2.56 0 1 1 0-3zM437.12 340.29a1.77 1.77 0 1 1-2.5.13l.13-.13a1.77 1.77 0 0 1 2.37 0zM402.45 407a1.93 1.93 0 1 1-3 0 2.14 2.14 0 0 1 3 0zM440.09 369.4a2.18 2.18 0 0 1 0 3 2.13 2.13 0 0 1-3 0 2.16 2.16 0 0 1 3-3zM423.69 354.14a1.35 1.35 0 0 1 0 1.89 1.39 1.39 0 0 1-1.92 0 1.42 1.42 0 0 1 0-2 1.39 1.39 0 0 1 1.92.11zM308.08-93.53l.9.9-21.27 21.27 25.32 25.31-59.67 59.68-36.62-36.63-60.14 60.15-.95-.92 61.06-61.07 36.65 36.68 57.88-57.89-25.31-25.31 22.15-22.17zM158.57 34.29a3.42 3.42 0 1 1-4.84 0 3.42 3.42 0 0 1 4.84 0z"/><circle class="c" cx="253.06" cy="12.99" r="3.42" transform="translate(64.93 182.74) rotate(-45)"/><path class="c" d="M308.61 196.6l-.9.9-21.23-21.25-25.34 25.34-59.73-59.69 36.67-36.65-60.11-60.12.89-.89 61.04 61.04-36.62 36.62 57.86 57.85 25.31-25.31 22.16 22.16zM180.65 46.33a3.42 3.42 0 1 1 0-4.84 3.42 3.42 0 0 1 0 4.84zM241.08 107.36a3.41 3.41 0 1 1 0-4.82 3.41 3.41 0 0 1 0 4.82zM309.82 198.71a2.75 2.75 0 1 1 0-3.89 2.75 2.75 0 0 1 0 3.89zM204.46 144a3.41 3.41 0 1 1 0-4.82 3.41 3.41 0 0 1 0 4.82zM263.87 203.39a3.41 3.41 0 0 1-4.82 0 3.42 3.42 0 1 1 4.84 0zM288 177.47a2.12 2.12 0 1 1 0-3 2.14 2.14 0 0 1 0 3zM371.36 378.54l-.87.89-21.27-21.24-25.31 25.31-59.7-59.69 36.62-36.62-60.12-60.13.87-.88 61.06 61.03-36.62 36.6 57.86 57.88 25.31-25.34 22.17 22.19zM243.55 229a3.41 3.41 0 1 1 0-4.82 3.41 3.41 0 0 1 0 4.82zM303.85 289.32a3.46 3.46 0 0 1-4.84 0 3.42 3.42 0 0 1 4.84-4.84 3.46 3.46 0 0 1 0 4.84zM372.56 380.61a2.77 2.77 0 1 1 0-3.92 2.77 2.77 0 0 1 0 3.92zM267.19 325.9a3.37 3.37 0 0 1-4.77.07l-.07-.07a3.41 3.41 0 0 1 0-4.82 3.42 3.42 0 0 1 5.09 4.57zM326.62 385.32a3.41 3.41 0 1 1 0-4.84 3.41 3.41 0 0 1 0 4.84zM350.72 359.4a2.15 2.15 0 1 1 0-3 2.14 2.14 0 0 1 0 3zM347.83 96.42l-.37.38-9.04-9.05-10.83 10.81-25.47-25.48 15.61-15.61-25.6-25.61.42-.4 26.02 26.01-15.61 15.61 24.63 24.65 10.78-10.76 9.46 9.45zM293.39 32.68a1.47 1.47 0 0 1-2.2-1.94l.13-.13a1.47 1.47 0 0 1 2.08 2.08zM319.07 58.36a1.44 1.44 0 0 1-2 0 1.48 1.48 0 0 1 0-2.08 1.45 1.45 0 0 1 2 .05 1.42 1.42 0 0 1 .1 2zM348.35 97.32a1.19 1.19 0 0 1-1.78-1.58l.1-.1a1.19 1.19 0 0 1 1.68 1.68zM303.46 74a1.44 1.44 0 0 1-2 0 1.48 1.48 0 0 1 0-2.08 1.45 1.45 0 0 1 2 .05 1.42 1.42 0 0 1 0 2zM328.77 99.29a1.44 1.44 0 0 1-2 0 1.48 1.48 0 0 1 0-2.08 1.45 1.45 0 0 1 2 .05 1.42 1.42 0 0 1 0 2zM339 88.23a.89.89 0 1 1 0-1.23.89.89 0 0 1 0 1.26zM215.74 70.47l-.45-.44 10.15-10.15-12.12-12.11 28.57-28.57 17.54 17.5 28.75-28.78.45.45-29.2 29.22-17.56-17.55-27.71 27.7 12.17 12.14-10.59 10.59zM287.27 9.31a1.65 1.65 0 0 1 0-2.31 1.63 1.63 0 1 1 0 2.31zM258.4 38.15a1.64 1.64 0 1 1 2.32 0 1.65 1.65 0 0 1-2.32 0zM214.69 71.09a1.36 1.36 0 0 1 0-1.92 1.33 1.33 0 0 1 1.88 0 1.3 1.3 0 0 1 0 1.84 1.36 1.36 0 0 1-1.88.08zM240.89 20.61a1.64 1.64 0 1 1 2.32 0 1.65 1.65 0 0 1-2.32 0zM212.45 49.09a1.65 1.65 0 0 1 0-2.31 1.62 1.62 0 0 1 2.29 0 1.6 1.6 0 0 1 0 2.26 1.65 1.65 0 0 1-2.29.05zM224.89 60.61a1 1 0 0 1-.09-1.41 1.1 1.1 0 0 1 1.5 0 1 1 0 0 1 0 1.41 1 1 0 0 1-1.41 0zM369.86 209.66l.44.46-10.17 10.16 12.12 12.15-28.6 28.59-17.53-17.55-28.79 28.76-.42-.42 29.21-29.24 17.53 17.56 27.71-27.7-12.12-12.15 10.62-10.62zM298.25 270.87a1.63 1.63 0 0 1 0 2.31 1.64 1.64 0 1 1-2.31-2.31 1.62 1.62 0 0 1 2.29 0zM327.11 242a1.64 1.64 0 0 1 0 2.32 1.66 1.66 0 0 1-2.34 0 1.64 1.64 0 0 1 2.31-2.31zM370.85 209.12a1.3 1.3 0 0 1 0 1.84 1.31 1.31 0 1 1-1.84-1.87 1.27 1.27 0 0 1 1.8 0zM344.65 259.61a1.63 1.63 0 0 1-2.29 2.31 1.65 1.65 0 0 1 0-2.31 1.57 1.57 0 0 1 2.22-.07zM373.09 231.12a1.65 1.65 0 0 1 0 2.31 1.62 1.62 0 0 1-2.29 0 1.65 1.65 0 0 1 0-2.31 1.62 1.62 0 0 1 2.29 0zM360.68 219.61a1 1 0 0 1 0 1.41 1 1 0 0 1-1.49-1.41 1 1 0 0 1 1.41-.08zM443.83 1.55l.34.35-7.91 7.9 9.49 9.5-22.35 22.35-13.69-13.7-22.48 22.45-.31-.35 22.82-22.82 13.66 13.68 21.61-21.59-9.46-9.45 8.28-8.32zM388 49.35a1.28 1.28 0 0 1-1.78 1.81 1.3 1.3 0 0 1 0-1.84 1.29 1.29 0 0 1 1.78.03zM410.5 26.82a1.27 1.27 0 1 1-.15-.15zM424.19 40.49a1.26 1.26 0 1 1-1.79 0 1.31 1.31 0 0 1 1.79 0zM436.68 9.29a.78.78 0 1 1-1 1.18l-.08-.08a.78.78 0 0 1 1.1-1.1zM486.46 197.87l.43.41-10.15 10.18 12.12 12.08-28.58 28.61-17.53-17.5-28.76 28.74-.44-.41 29.2-29.23 17.53 17.53 27.71-27.68-12.12-12.14 10.59-10.59zM414.91 259a1.65 1.65 0 0 1 0 2.31 1.63 1.63 0 1 1 0-2.31zM226.41 92.45l-1.26-1.26 85.56-85.56 51.34 51.34 81.12-81.13-35.51-35.5 31.09-31.07 1.27 1.26-29.81 29.81 35.48 35.5-83.64 83.65-51.34-51.34-84.3 84.3zM229.19 88.44a4.79 4.79 0 1 1-6.77 0 4.81 4.81 0 0 1 6.77 0zM313.66 3.95a4.76 4.76 0 1 1-6.73 0 4.74 4.74 0 0 1 6.7 0zM365 55.29a4.76 4.76 0 1 1-6.73 0 4.74 4.74 0 0 1 6.7 0zM177.41 43.7l-.63-.64 39.93-39.93-.71-26.74h.89l.72 27.11-40.2 40.2zM358.37 294.79l-10.43-10.48 39.61-39.63.63.63-38.99 39 9.81 9.84-.63.64zM239.24 105.52l-.95-.94 33.36-33.33 44.82 44.81-.95.97-43.92-43.89-32.36 32.38zM432.65 288.21l-8.3-8.28.95-.93 7.3 7.31 44.61-44.57 18.46 18.39-.98 1-17.48-17.47-44.56 44.55zM286.95 176.41l-.95-.94 29.73-29.73 37.91 37.91 14.72-14.72.95.94-15.7 15.66-37.9-37.87-28.76 28.75zM376.88 218.4l-7.65-7.64.63-.64 7.02 7.01 26.12-26.13-17.11-17.13.63-.63 17.74 17.76-27.38 27.4zM416.15 91.42l-29.05-29.07.63-.62 28.42 28.44 8.78-8.78.63.63-9.41 9.4zM370.59 379.31l-.94-.93 9.46-9.48 3.42 3.42 27.68-27.64.94.94-28.57 28.59-3.44-3.46-8.55 8.56zM201.94 181.31l-20.45-20.46 19.45-19.42.97.97-18.53 18.51 18.53 18.5 5.29-5.28 24.73 24.75-.92.93-23.79-23.8-5.28 5.3z"/><path class="d" d="M284.273 428.029l12.563-12.563 12.563 12.563-12.563 12.563zM260.532 45.036l12.563-12.563 12.563 12.563-12.563 12.563zM401.239 221.083l12.563-12.563 12.563 12.563-12.563 12.563zM396.524 9.354l12.563-12.563 12.563 12.563-12.563 12.563z"/><path class="e" d="M141.85 35.91l12.56-12.59 12.57 12.59-12.57 12.57-12.56-12.57zM314.69 322.34l12.563-12.563 12.563 12.563-12.563 12.563z"/><path class="f" d="M243.633 246.636l12.563-12.563 12.563 12.563-12.563 12.563zM348.121 91.245l10.775-10.775 10.775 10.775-10.775 10.775z"/><path class="g" d="M398.667 124.953l12.563-12.563 12.563 12.563-12.563 12.563zM268.633 151.066l12.563-12.563 12.563 12.563-12.563 12.563z"/><path class="c" d="M333.77 417.49a8.66 8.66 0 1 1 0 12.25 8.66 8.66 0 0 1 0-12.25zm11.42 11.44a7.51 7.51 0 1 0-10.62 0 7.49 7.49 0 0 0 10.59 0zM317.42 376.75a8.62 8.62 0 1 1-.06.06zm11.43 11.41a7.5 7.5 0 1 0-10.62 0 7.5 7.5 0 0 0 10.62 0zM343 352.35a8.66 8.66 0 1 1 0 12.25 8.66 8.66 0 0 1 0-12.25zm11.43 11.43a7.51 7.51 0 1 0-10.62 0 7.54 7.54 0 0 0 10.63 0zM438.44 226.55a6.14 6.14 0 1 1 0 8.68 6.15 6.15 0 0 1 0-8.68zm8.12 8.1a5.32 5.32 0 1 0-7.52 0 5.31 5.31 0 0 0 7.51 0zM431 337.48a6.13 6.13 0 1 1 0 8.67 6.13 6.13 0 0 1 0-8.67zm8.1 8.1a5.33 5.33 0 1 0-7.54 0 5.32 5.32 0 0 0 7.51 0zM395.62 401.61a8.66 8.66 0 1 1 0 12.25 8.66 8.66 0 0 1 0-12.25zm11.38 11.39a7.51 7.51 0 1 0-10.62 0 7.52 7.52 0 0 0 10.62 0zM341.28 205.33a8.67 8.67 0 1 1 0 12.26 8.7 8.7 0 0 1 0-12.26zm11.43 11.43a7.5 7.5 0 1 0-10.61 0 7.51 7.51 0 0 0 10.6 0zM337.34 254.52a8.62 8.62 0 1 1-.06.06zm11.43 11.41a7.5 7.5 0 1 0-10.62 0 7.5 7.5 0 0 0 10.62 0zM248.7 172.32a8.66 8.66 0 1 1 0 12.25 8.66 8.66 0 0 1 0-12.25zm11.49 11.43a7.51 7.51 0 1 0-10.62 0 7.51 7.51 0 0 0 10.59 0zM246.91 5.77a8.67 8.67 0 1 1 0 12.26 8.67 8.67 0 0 1 0-12.26zm11.43 11.43a7.5 7.5 0 1 0-10.61 0 7.51 7.51 0 0 0 10.6 0zM212.43 118.19a8.66 8.66 0 1 1 0 12.25 8.66 8.66 0 0 1 0-12.25zm11.43 11.42a7.51 7.51 0 1 0-10.67 0 7.51 7.51 0 0 0 10.62 0zM172.76 38.39a8.66 8.66 0 1 1 0 12.25 8.66 8.66 0 0 1 0-12.25zm11.43 11.41a7.5 7.5 0 1 0-10.61 0 7.48 7.48 0 0 0 10.58 0zM149.57 3.87a8.66 8.66 0 1 1 0 12.25 8.66 8.66 0 0 1 0-12.25zm11.43 11.44a7.5 7.5 0 1 0-10.61 0 7.51 7.51 0 0 0 10.61 0zM120.42 34.81a8.66 8.66 0 1 1 0 12.25 8.66 8.66 0 0 1 0-12.25zm11.43 11.43a7.51 7.51 0 1 0-10.62 0 7.54 7.54 0 0 0 10.6 0zM335.32-8a8.66 8.66 0 0 1 12.25 0 8.66 8.66 0 0 1 0 12.25 8.66 8.66 0 0 1-12.24 0 8.66 8.66 0 0 1 0-12.25zm11.43 11.4a7.5 7.5 0 0 0 0-10.61 7.5 7.5 0 0 0-10.61 0 7.5 7.5 0 0 0 0 10.6 7.48 7.48 0 0 0 10.58 0zM441.62 414.29a8.66 8.66 0 1 1 0 12.25 8.66 8.66 0 0 1 0-12.25zm11.38 11.42a7.5 7.5 0 1 0-10.61 0 7.51 7.51 0 0 0 10.61 0zM269.42 371.75a8.66 8.66 0 1 1 0 12.25 8.66 8.66 0 0 1 0-12.25zm11.43 11.43a7.5 7.5 0 1 0-10.61 0 7.48 7.48 0 0 0 10.58 0zM352.4 288.18a8.65 8.65 0 1 1 0 12.25 8.65 8.65 0 0 1 0-12.25zm11.41 11.42a7.5 7.5 0 1 0-10.62 0 7.5 7.5 0 0 0 10.62 0zM420.19 273.34a8.63 8.63 0 1 1-.07.07zm11.43 11.41a7.51 7.51 0 1 0-10.62 0 7.51 7.51 0 0 0 10.6 0zM361.6 163a8.66 8.66 0 1 1 0 12.25 8.66 8.66 0 0 1 0-12.25zm11.4 11.42a7.51 7.51 0 1 0-10.62 0 7.51 7.51 0 0 0 10.6 0zM330.69 107.68a8.66 8.66 0 1 1 0 12.25 8.66 8.66 0 0 1 0-12.25zm11.41 11.43a7.5 7.5 0 1 0-10.61 0 7.51 7.51 0 0 0 10.61 0zM418.33 74.61a8.66 8.66 0 1 1 0 12.28 8.66 8.66 0 0 1 0-12.28zm11.43 11.39a7.51 7.51 0 1 0-10.62 0 7.51 7.51 0 0 0 10.62 0z"/></svg>