<svg xmlns="http://www.w3.org/2000/svg" xmlns:xlink="http://www.w3.org/1999/xlink" viewBox="0 0 1000 1000"><defs><style>.cls-1{mask:url(#mask);filter:url(#luminosity-noclip-3);}.cls-2,.cls-4{mix-blend-mode:multiply;}.cls-2{fill:url(#linear-gradient);}.cls-3{mask:url(#mask-2);filter:url(#luminosity-noclip-4);}.cls-4{fill:url(#linear-gradient-2);}.cls-5{fill:#fbfbfb;}.cls-6{fill:#fff;}.cls-13,.cls-15,.cls-29,.cls-32,.cls-46,.cls-7{opacity:0.6;}.cls-7{fill:url(#linear-gradient-3);}.cls-11,.cls-14,.cls-17,.cls-21,.cls-23,.cls-31,.cls-45,.cls-8{opacity:0.7;}.cls-8{fill:url(#linear-gradient-4);}.cls-10,.cls-18,.cls-20,.cls-22,.cls-42,.cls-43,.cls-44,.cls-9{opacity:0.8;}.cls-9{fill:url(#linear-gradient-5);}.cls-10{fill:url(#linear-gradient-6);}.cls-11{fill:url(#linear-gradient-7);}.cls-12,.cls-28,.cls-47{opacity:0.4;}.cls-12{fill:url(#linear-gradient-8);}.cls-13,.cls-19{fill:#36b5ff;}.cls-14{fill:url(#linear-gradient-9);}.cls-15{fill:url(#linear-gradient-10);}.cls-16,.cls-35{opacity:0.5;}.cls-16{fill:url(#linear-gradient-11);}.cls-17{fill:url(#linear-gradient-12);}.cls-18{fill:url(#linear-gradient-13);}.cls-20{fill:url(#linear-gradient-14);}.cls-21{fill:url(#linear-gradient-15);}.cls-22{fill:url(#linear-gradient-16);}.cls-23{fill:url(#linear-gradient-17);}.cls-24,.cls-27,.cls-36{opacity:0.9;}.cls-24{fill:url(#linear-gradient-18);}.cls-25{mask:url(#mask-3);}.cls-26{fill:url(#linear-gradient-19);}.cls-27{fill:url(#linear-gradient-20);}.cls-28{fill:url(#linear-gradient-21);}.cls-29{fill:url(#linear-gradient-22);}.cls-30{fill:#58afe2;}.cls-31{fill:url(#linear-gradient-23);}.cls-32{fill:url(#linear-gradient-24);}.cls-33{opacity:0.3;fill:url(#linear-gradient-25);}.cls-34{opacity:0.1;fill:url(#linear-gradient-26);}.cls-35{fill:url(#linear-gradient-27);}.cls-36{fill:url(#linear-gradient-28);}.cls-37{mask:url(#mask-4);}.cls-38{fill:url(#linear-gradient-29);}.cls-39{fill:url(#linear-gradient-30);}.cls-40{fill:url(#linear-gradient-31);}.cls-41{fill:url(#linear-gradient-32);}.cls-42{fill:url(#linear-gradient-33);}.cls-43{fill:url(#linear-gradient-34);}.cls-44{fill:url(#linear-gradient-35);}.cls-45{fill:url(#linear-gradient-36);}.cls-46{fill:url(#linear-gradient-37);}.cls-47{fill:url(#linear-gradient-38);}.cls-48{filter:url(#luminosity-noclip-2);}.cls-49{filter:url(#luminosity-noclip);}</style><filter id="luminosity-noclip" x="0" y="-8692" width="78.35" height="32766" filterUnits="userSpaceOnUse" color-interpolation-filters="sRGB"><feFlood flood-color="#fff" result="bg"/><feBlend in="SourceGraphic" in2="bg"/></filter><linearGradient id="linear-gradient" y1="645.38" x2="78.35" y2="645.38" gradientUnits="userSpaceOnUse"><stop offset=".14" stop-color="#fff"/><stop offset=".39" stop-color="#dedede"/><stop offset=".8" stop-color="#acacac"/><stop offset="1" stop-color="#999"/></linearGradient><filter id="luminosity-noclip-2" x="78.35" y="-8692" width="153.03" height="32766" filterUnits="userSpaceOnUse" color-interpolation-filters="sRGB"><feFlood flood-color="#fff" result="bg"/><feBlend in="SourceGraphic" in2="bg"/></filter><linearGradient id="linear-gradient-2" x1="78.35" y1="955.51" x2="231.39" y2="955.51" xlink:href="#linear-gradient"/><linearGradient id="linear-gradient-3" x1="138.92" y1="439.97" x2="260.05" y2="318.84" gradientUnits="userSpaceOnUse"><stop offset="0" stop-color="#fff815"/><stop offset=".07" stop-color="#fff112"/><stop offset=".33" stop-color="#ffdc08"/><stop offset=".59" stop-color="#ffcf02"/><stop offset=".83" stop-color="#ffcb00"/></linearGradient><linearGradient id="linear-gradient-4" x1="231.96" y1="379.41" x2="385.57" y2="379.41" gradientUnits="userSpaceOnUse"><stop offset="0" stop-color="#ffc415"/><stop offset=".09" stop-color="#ffc511"/><stop offset=".47" stop-color="#ffca04"/><stop offset=".83" stop-color="#ffcb00"/></linearGradient><linearGradient id="linear-gradient-5" x1="270.36" y1="623.13" x2="193.56" y2="490.1" gradientUnits="userSpaceOnUse"><stop offset="0" stop-color="#14ccea"/><stop offset=".12" stop-color="#28ccd6"/><stop offset=".36" stop-color="#5dcca1"/><stop offset=".7" stop-color="#b1cb4d"/><stop offset="1" stop-color="#ffcb00"/></linearGradient><linearGradient id="linear-gradient-6" x1="39.18" y1="356.79" x2=".01" y2="424.64" gradientUnits="userSpaceOnUse"><stop offset="0" stop-color="#ff5c00"/><stop offset="0" stop-color="#ff5c00"/><stop offset=".1" stop-color="#ff7c07"/><stop offset=".2" stop-color="#ff960c"/><stop offset=".32" stop-color="#ffaa10"/><stop offset=".45" stop-color="#ffb813"/><stop offset=".6" stop-color="#ffc014"/><stop offset=".87" stop-color="#ffc315"/></linearGradient><linearGradient id="linear-gradient-7" x1="385.57" y1="202.1" x2="692.78" y2="202.1" gradientUnits="userSpaceOnUse"><stop offset="0" stop-color="#ffb715"/><stop offset=".09" stop-color="#fb1"/><stop offset=".47" stop-color="#ffc704"/><stop offset=".83" stop-color="#ffcb00"/></linearGradient><linearGradient id="linear-gradient-8" x1="577.58" y1="445.92" x2="500.77" y2="312.89" gradientUnits="userSpaceOnUse"><stop offset="0" stop-color="#6ee9ea"/><stop offset=".33" stop-color="#6fe9e8"/><stop offset=".47" stop-color="#74e8e1"/><stop offset=".58" stop-color="#7be6d4"/><stop offset=".66" stop-color="#86e4c3"/><stop offset=".74" stop-color="#95e1ac"/><stop offset=".8" stop-color="#a6dd90"/><stop offset=".86" stop-color="#bbd96e"/><stop offset=".92" stop-color="#d3d446"/><stop offset=".97" stop-color="#eecf1c"/><stop offset="1" stop-color="#ffcb00"/></linearGradient><linearGradient id="linear-gradient-9" x1="385.55" y1="556.73" x2="308.76" y2="423.72" gradientUnits="userSpaceOnUse"><stop offset="0" stop-color="#6ee9ea"/><stop offset=".2" stop-color="#70e9e7"/><stop offset=".34" stop-color="#75e7de"/><stop offset=".46" stop-color="#7fe5cf"/><stop offset=".57" stop-color="#8ce3b9"/><stop offset=".67" stop-color="#9edf9d"/><stop offset=".76" stop-color="#b3db7a"/><stop offset=".86" stop-color="#cdd551"/><stop offset=".94" stop-color="#eacf22"/><stop offset="1" stop-color="#ffcb00"/></linearGradient><linearGradient id="linear-gradient-10" x1="539.18" y1="468.06" x2="692.78" y2="468.06" gradientUnits="userSpaceOnUse"><stop offset=".19" stop-color="#14ccea"/><stop offset=".33" stop-color="#14c8ea"/><stop offset=".46" stop-color="#14bdec"/><stop offset=".58" stop-color="#14aaee"/><stop offset=".71" stop-color="#148ff2"/><stop offset=".83" stop-color="#156df6"/><stop offset=".95" stop-color="#1543fc"/><stop offset=".99" stop-color="#1533fe"/></linearGradient><linearGradient id="linear-gradient-11" x1="539.18" y1="955.67" x2="692.78" y2="955.67" gradientUnits="userSpaceOnUse"><stop offset="0" stop-color="#e8668e"/><stop offset=".18" stop-color="#e86392"/><stop offset=".37" stop-color="#e6599f"/><stop offset=".56" stop-color="#e449b4"/><stop offset=".75" stop-color="#e133d1"/><stop offset=".95" stop-color="#dd16f7"/><stop offset=".98" stop-color="#dc11fe"/></linearGradient><linearGradient id="linear-gradient-12" x1="231.96" y1="290.75" x2="385.57" y2="290.75" gradientUnits="userSpaceOnUse"><stop offset="0" stop-color="#ff8515"/><stop offset=".01" stop-color="#ff8714"/><stop offset=".23" stop-color="#ffa50b"/><stop offset=".43" stop-color="#ffba05"/><stop offset=".64" stop-color="#ffc701"/><stop offset=".83" stop-color="#ffcb00"/></linearGradient><linearGradient id="linear-gradient-13" x1="78.35" y1="145.38" x2="385.57" y2="145.38" gradientUnits="userSpaceOnUse"><stop offset=".1" stop-color="#ff6315"/><stop offset=".88" stop-color="#ffae00"/></linearGradient><linearGradient id="linear-gradient-14" x1="231.98" y1="822.68" x2="308.77" y2="955.68" gradientUnits="userSpaceOnUse"><stop offset=".09" stop-color="#140fea"/><stop offset=".28" stop-color="#170fea"/><stop offset=".42" stop-color="#200feb"/><stop offset=".54" stop-color="#2f0fed"/><stop offset=".65" stop-color="#4510ef"/><stop offset=".75" stop-color="#6210f3"/><stop offset=".85" stop-color="#8510f6"/><stop offset=".94" stop-color="#ad11fb"/><stop offset="1" stop-color="#ca11fe"/></linearGradient><linearGradient id="linear-gradient-15" x1="231.96" y1="645.38" x2="385.57" y2="645.38" gradientUnits="userSpaceOnUse"><stop offset=".13" stop-color="#157ffe"/><stop offset=".45" stop-color="#2579f5"/><stop offset=".85" stop-color="#3673eb"/></linearGradient><linearGradient id="linear-gradient-16" x1="385.55" y1="911.35" x2="308.76" y2="778.35" gradientUnits="userSpaceOnUse"><stop offset="0" stop-color="#1511fe"/><stop offset=".12" stop-color="#1616fd"/><stop offset=".26" stop-color="#1824fc"/><stop offset=".42" stop-color="#1c3cfa"/><stop offset=".58" stop-color="#225ef6"/><stop offset=".75" stop-color="#2a88f2"/><stop offset=".92" stop-color="#32bced"/><stop offset="1" stop-color="#37d7ea"/></linearGradient><linearGradient id="linear-gradient-17" x1="251.16" y1="1033.26" x2="404.76" y2="944.58" gradientUnits="userSpaceOnUse"><stop offset="0" stop-color="#144aea"/><stop offset="0" stop-color="#1749ea"/><stop offset=".05" stop-color="#403dee"/><stop offset=".1" stop-color="#6533f2"/><stop offset=".15" stop-color="#852af5"/><stop offset=".21" stop-color="#a022f8"/><stop offset=".28" stop-color="#b71cfa"/><stop offset=".36" stop-color="#c717fc"/><stop offset=".46" stop-color="#d313fd"/><stop offset=".6" stop-color="#da12fe"/><stop offset=".98" stop-color="#dc11fe"/></linearGradient><linearGradient id="linear-gradient-18" y1="101.05" x2="78.35" y2="101.05" gradientUnits="userSpaceOnUse"><stop offset=".14" stop-color="#ff2a00"/><stop offset=".5" stop-color="#ff2e03"/><stop offset=".83" stop-color="#ff390d"/><stop offset="1" stop-color="#ff4215"/></linearGradient><filter id="luminosity-noclip-3" x="0" y="556.72" width="78.35" height="177.31" filterUnits="userSpaceOnUse" color-interpolation-filters="sRGB"><feFlood flood-color="#fff" result="bg"/><feBlend in="SourceGraphic" in2="bg"/></filter><mask id="mask-3" x="0" y="556.72" width="78.35" height="177.31" maskUnits="userSpaceOnUse"><path class="cls-2" d="M78.35 734.03v-177.31l-76.8 44.33-1.55.89v86.87l1.55.89 76.8 44.33z"/></mask><linearGradient id="linear-gradient-19" y1="645.38" x2="78.35" y2="645.38" gradientUnits="userSpaceOnUse"><stop offset=".08" stop-color="#37d7ea"/><stop offset=".27" stop-color="#36d3eb"/><stop offset=".44" stop-color="#31c8ed"/><stop offset=".61" stop-color="#2ab6f2"/><stop offset=".78" stop-color="#209bf8"/><stop offset=".92" stop-color="#157ffe"/></linearGradient><linearGradient id="linear-gradient-20" y1="955.67" x2="78.35" y2="955.67" gradientUnits="userSpaceOnUse"><stop offset=".09" stop-color="#1443ea"/><stop offset=".32" stop-color="#143feb"/><stop offset=".53" stop-color="#1434f0"/><stop offset=".74" stop-color="#1521f8"/><stop offset=".87" stop-color="#1511fe"/></linearGradient><linearGradient id="linear-gradient-21" x1="664.69" y1="407.5" x2="874.48" y2="617.29" gradientUnits="userSpaceOnUse"><stop offset=".19" stop-color="#144aea"/><stop offset=".31" stop-color="#1849ea"/><stop offset=".42" stop-color="#2346ec"/><stop offset=".53" stop-color="#3640ed"/><stop offset=".64" stop-color="#5139f0"/><stop offset=".74" stop-color="#732ff4"/><stop offset=".85" stop-color="#9d23f8"/><stop offset=".95" stop-color="#cf15fd"/><stop offset=".98" stop-color="#dc11fe"/></linearGradient><linearGradient id="linear-gradient-22" x1="462.38" y1="512.4" x2="385.59" y2="379.4" gradientUnits="userSpaceOnUse"><stop offset="0" stop-color="#6ec9ea"/><stop offset=".15" stop-color="#70c9e6"/><stop offset=".28" stop-color="#77c9db"/><stop offset=".41" stop-color="#82c9c9"/><stop offset=".53" stop-color="#92caaf"/><stop offset=".65" stop-color="#a7ca8e"/><stop offset=".77" stop-color="#c0ca65"/><stop offset=".89" stop-color="#decb36"/><stop offset="1" stop-color="#ffcb00"/></linearGradient><linearGradient id="linear-gradient-23" x1="385.57" y1="955.67" x2="539.18" y2="955.67" gradientUnits="userSpaceOnUse"><stop offset="0" stop-color="#ce2cea"/><stop offset=".05" stop-color="#d125ef"/><stop offset=".2" stop-color="#d81af8"/><stop offset=".41" stop-color="#db13fd"/><stop offset=".98" stop-color="#dc11fe"/></linearGradient><linearGradient id="linear-gradient-24" x1="385.57" y1="290.75" x2="539.18" y2="290.75" gradientUnits="userSpaceOnUse"><stop offset="0" stop-color="#ffec15"/><stop offset=".24" stop-color="#ffdc0b"/><stop offset=".54" stop-color="#ffcf03"/><stop offset=".83" stop-color="#ffcb00"/></linearGradient><linearGradient id="linear-gradient-25" x1="539.19" y1="113.46" x2="462.39" y2="-19.57" gradientUnits="userSpaceOnUse"><stop offset=".1" stop-color="#ffa215"/><stop offset=".88" stop-color="#ff5c00"/></linearGradient><linearGradient id="linear-gradient-26" x1="692.78" y1="734.03" x2="846.39" y2="734.03" gradientUnits="userSpaceOnUse"><stop offset="0" stop-color="#144aea"/><stop offset=".04" stop-color="#3640ed"/><stop offset=".1" stop-color="#5d35f1"/><stop offset=".17" stop-color="#7f2bf5"/><stop offset=".24" stop-color="#9c23f8"/><stop offset=".32" stop-color="#b41cfa"/><stop offset=".41" stop-color="#c617fc"/><stop offset=".52" stop-color="#d314fd"/><stop offset=".66" stop-color="#da12fe"/><stop offset=".98" stop-color="#dc11fe"/></linearGradient><linearGradient id="linear-gradient-27" y1="468.06" x2="231.96" y2="468.06" gradientUnits="userSpaceOnUse"><stop offset=".17" stop-color="#ffc315"/><stop offset=".83" stop-color="#ffcb00"/></linearGradient><linearGradient id="linear-gradient-28" x1="155.15" y1="867" x2="231.94" y2="1000.01" gradientUnits="userSpaceOnUse"><stop offset="0" stop-color="#1511fe"/><stop offset=".12" stop-color="#1c13fd"/><stop offset=".29" stop-color="#3119fb"/><stop offset=".5" stop-color="#5323f7"/><stop offset=".74" stop-color="#8231f1"/><stop offset="1" stop-color="#be43ea"/></linearGradient><filter id="luminosity-noclip-4" x="78.35" y="911.34" width="153.61" height="88.66" filterUnits="userSpaceOnUse" color-interpolation-filters="sRGB"><feFlood flood-color="#fff" result="bg"/><feBlend in="SourceGraphic" in2="bg"/></filter><mask id="mask-4" x="78.35" y="911.34" width="153.61" height="88.66" maskUnits="userSpaceOnUse"><path class="cls-4" d="M78.35 911.34v88.32h153l-76.23-44zm88.31 87.94v.11l-.09-.05zm-.09.05l.09.05-.09.05-.09-.05z"/></mask><linearGradient id="linear-gradient-29" x1="78.35" y1="955.67" x2="231.96" y2="955.67" gradientUnits="userSpaceOnUse"><stop offset=".04" stop-color="#1443ea"/><stop offset=".19" stop-color="#1443ea"/><stop offset=".34" stop-color="#143feb"/><stop offset=".49" stop-color="#1434f0"/><stop offset=".63" stop-color="#1521f8"/><stop offset=".72" stop-color="#1511fe"/></linearGradient><linearGradient id="linear-gradient-30" x1="78.35" y1="734.03" x2="231.96" y2="734.03" gradientUnits="userSpaceOnUse"><stop offset="0" stop-color="#157ffe"/><stop offset=".22" stop-color="#1f99f8"/><stop offset=".55" stop-color="#2cbbf0"/><stop offset=".82" stop-color="#34d0ec"/><stop offset="1" stop-color="#37d7ea"/></linearGradient><linearGradient id="linear-gradient-31" x1="155.16" y1="734.03" x2="155.16" y2="911.34" gradientUnits="userSpaceOnUse"><stop offset=".19" stop-color="#1495ea"/><stop offset=".34" stop-color="#1491eb"/><stop offset=".47" stop-color="#1486ec"/><stop offset=".61" stop-color="#1473ef"/><stop offset=".74" stop-color="#1458f3"/><stop offset=".87" stop-color="#1536f8"/><stop offset=".99" stop-color="#1511fe"/></linearGradient><linearGradient id="linear-gradient-32" x1="78.35" y1="645.38" x2="231.96" y2="645.38" xlink:href="#linear-gradient-30"/><linearGradient id="linear-gradient-33" x1="78.35" y1="290.75" x2="231.96" y2="290.75" xlink:href="#linear-gradient-6"/><linearGradient id="linear-gradient-34" x1="78.35" y1="101.05" x2="231.96" y2="101.05" gradientUnits="userSpaceOnUse"><stop offset=".07" stop-color="#ff2a00"/><stop offset=".11" stop-color="#ff3002"/><stop offset=".38" stop-color="#ff4c0c"/><stop offset=".61" stop-color="#ff5d13"/><stop offset=".78" stop-color="#ff6315"/></linearGradient><linearGradient id="linear-gradient-35" x1="385.57" y1="689.7" x2="539.18" y2="689.7" xlink:href="#linear-gradient-31"/><linearGradient id="linear-gradient-36" x1="539.18" y1="689.7" x2="692.78" y2="689.7" gradientUnits="userSpaceOnUse"><stop offset=".19" stop-color="#144aea"/><stop offset=".41" stop-color="#1446eb"/><stop offset=".61" stop-color="#143bef"/><stop offset=".81" stop-color="#1528f6"/><stop offset=".99" stop-color="#1511fe"/></linearGradient><linearGradient id="linear-gradient-37" x1="385.57" y1="911.43" x2="539.18" y2="911.43" gradientUnits="userSpaceOnUse"><stop offset="0" stop-color="#14b3ea"/><stop offset="0" stop-color="#17b0ea"/><stop offset=".05" stop-color="#408fee"/><stop offset=".1" stop-color="#6572f2"/><stop offset=".15" stop-color="#8557f5"/><stop offset=".21" stop-color="#a041f8"/><stop offset=".28" stop-color="#b72ffa"/><stop offset=".36" stop-color="#c722fc"/><stop offset=".46" stop-color="#d318fd"/><stop offset=".6" stop-color="#da13fe"/><stop offset=".98" stop-color="#dc11fe"/></linearGradient><linearGradient id="linear-gradient-38" x1="539.18" y1="911.43" x2="692.78" y2="911.43" gradientUnits="userSpaceOnUse"><stop offset="0" stop-color="#f53eea"/><stop offset=".85" stop-color="#e034fb"/><stop offset=".98" stop-color="#dc32fe"/></linearGradient></defs><title>3</title><path class="cls-5" d="M0 0h1000v1000h-1000z"/><path class="cls-6" d="M231.96 1000v-.33h-.57l.57.33zM231.96 1000l.57-.33h-.57v.33zM538.6 999.67l.58.33v-.33h-.58zM539.18 1000l.57-.33h-.57v.33zM539.75 999.67l-.57.33.57-.33zM232.53 999.67l-.57.33.58-.33h-.01zM538.6 999.67l.58.33-.58-.33zM231.39 999.67l.57.33-.57-.33zM78.35 556.72l-76.8-44.33-1.55-.89 1.55.89 76.8 44.33zM231.96 645.38v-177.32l76.8 44.33 76.81 44.33-76.81-44.33-76.8-44.33-76.8 44.33-76.81 44.33 76.81-44.33 76.8-44.33v177.32zM231.96 734.03v-88.65l76.8 44.32 76.81 44.33-76.81-44.33-76.8-44.32-76.8 44.32-76.81 44.33 76.81-44.33 76.8-44.32v177.31-88.66zM539.18 822.69l-76.81 44.33-76.8 44.32 76.8-44.32 76.81-44.33 76.8 44.33 76.8 44.32-76.8-44.32-76.8-44.33zM231.96 822.69l76.8 44.33 76.81 44.32-76.81-44.32-76.8-44.33-76.8 44.33-76.81 44.32 76.81-44.32 76.8-44.33v176.98000000000002-88.33-88.65zM231.96 113.44l76.8-44.33 76.81-44.33-76.81 44.33-76.8 44.33v-113.44 24.78 88.66l-76.8-44.33-76.81-44.33 76.81 44.33 76.8 44.33zM231.96 468.06v-177.31l76.8 44.33 76.81 44.33-76.81-44.33-76.8-44.33-76.8 44.33-76.81 44.33 76.81-44.33 76.8-44.33v177.31zM78.35 734.03l-76.8-44.33-1.55-.89 1.55.89 76.8 44.33zM78.35 911.34l-76.8-44.32-1.55-.9 1.55.9 76.8 44.32zM539.18 290.75l-76.81 44.33-76.8 44.33 76.8-44.33 76.81-44.33 76.8 44.33 76.8 44.33-76.8-44.33-76.8-44.33zM539.18 645.38l-76.81 44.32-76.8 44.33 76.8-44.33 76.81-44.32 76.8 44.32 76.8 44.33-76.8-44.33-76.8-44.32zM539.18 468.06l-76.81 44.33-76.8 44.33 76.8-44.33 76.81-44.33 76.8 44.33 76.8 44.33-76.8-44.33-76.8-44.33zM78.35 24.78l-76.8 44.33-1.55.89 1.55-.89 76.8-44.33zM78.35 379.41l-76.8-44.33-1.55-.89 1.55.89 76.8 44.33zM539.18 113.44l76.8-44.33 76.8-44.33-76.8 44.33-76.8 44.33-76.81-44.33-76.8-44.33 76.8 44.33 76.81 44.33z"/><path class="cls-7" d="M231.96 290.75l-76.8 44.33-76.81 44.33 76.81 44.33 76.8 44.32v-177.31z"/><path class="cls-8" d="M385.57 379.41l-76.81-44.33-76.8-44.33v177.31l76.8-44.32 76.81-44.33z"/><path class="cls-9" d="M308.76 512.29l-76.8-44.33-76.8 44.33-76.81 44.33 76.81 44.33 76.8 44.32 76.8-44.32 76.81-44.33-76.81-44.33z"/><path class="cls-10" d="M1.55 423.74l76.8-44.33-76.8-44.33-1.55-.89v90.44l1.55-.89z"/><path class="cls-11" d="M615.98 157.77l-76.8-44.33-76.81 44.33-76.8 44.32 76.8 44.33 76.81 44.33 76.8-44.33 76.8-44.33-76.8-44.32z"/><path class="cls-12" d="M615.98 335.08l-76.8-44.33-76.81 44.33-76.8 44.33 76.8 44.33 76.81 44.32 76.8-44.32 76.8-44.33-76.8-44.33z"/><path class="cls-13" d="M615.98 512.39l-76.8-44.33-76.81 44.33-76.8 44.33 76.8 44.33 76.81 44.33 76.8-44.33 76.8-44.33-76.8-44.33z"/><path class="cls-14" d="M385.57 468.06v-88.65l-76.81 44.33-76.8 44.32 76.8 44.33 76.81 44.33v-88.66z"/><path class="cls-15" d="M692.78 379.41l-76.8 44.33-76.8 44.32 76.8 44.33 76.8 44.33v-177.31z"/><path class="cls-16" d="M539.18 1000h153.6v-88.66l-76.8 44.33-76.8 44.33z"/><path class="cls-17" d="M385.57 290.75v-88.66l-76.81 44.33-76.8 44.33 76.8 44.33 76.81 44.33v-88.66z"/><path class="cls-18" d="M385.57 24.78v-24.78h-153.61v113.44l-76.8 44.33-76.81 44.32 76.81 44.33 76.8 44.33 76.8-44.33 76.81-44.33v-177.31z"/><path class="cls-19" d="M385.57 734.03l-76.81-44.33-76.8-44.32v177.31l76.8-44.33 76.81-44.33z"/><path class="cls-20" d="M231.96 822.69v177.31000000000003l76.8-44.33 76.81-44.33-76.81-44.32-76.8-44.33z"/><path class="cls-21" d="M308.76 601.05l-76.8 44.33 76.8 44.32 76.81 44.33v-177.31l-76.81 44.33z"/><path class="cls-22" d="M231.96 822.69l76.8 44.33 76.81 44.32v-177.31l-76.81 44.33-76.8 44.33z"/><path class="cls-23" d="M308.76 955.67l-76.8 44.33h153.61v-88.66l-76.81 44.33z"/><path class="cls-24" d="M1.55 69.11l76.8-44.33-42.94-24.78h-35.41v156.87l1.55.9 76.8 44.32v-177.31"/><path class="cls-26" d="M78.35 734.03v-177.31l-76.8 44.33-1.55.89v86.87l1.55.89 76.8 44.33z"/><path class="cls-19" d="M78.35 734.03l-76.8-44.33-1.55-.89v177.31l1.55.9 76.8 44.32v-177.31z"/><path class="cls-27" d="M1.55 955.67l-1.55.9v43.43h78.35v-88.66l-76.8 44.33z"/><path class="cls-28" d="M769.59 512.39l76.8-44.33-76.8-44.32-76.81-44.33v177.31l76.81 44.33 76.8 44.33v-177.32l-76.8 44.33z"/><path class="cls-29" d="M462.37 512.39l76.81-44.33-76.81-44.32-76.8-44.33v177.31l76.8-44.33z"/><path class="cls-30" d="M462.37 867.02l76.81-44.33-76.81-44.33-76.8-44.33v177.31l76.8-44.32z"/><path class="cls-31" d="M385.57 911.34v88.66h153.61l-76.81-44.33-76.8-44.33z"/><path class="cls-32" d="M462.37 335.08l76.81-44.33-76.81-44.33-76.8-44.33v177.32l76.8-44.33z"/><path class="cls-33" d="M539.18 113.44l76.8-44.33 76.8-44.33-42.93-24.78h-221.34l-42.94 24.78v177.31l76.8-44.32 76.81-44.33-76.81-44.33 76.81 44.33z"/><path class="cls-34" d="M692.78 734.03l76.81 44.33 76.8 44.33v-177.31l-76.8 44.32-76.81 44.33z"/><path class="cls-35" d="M155.16 423.74l-76.81-44.33-76.8 44.33-1.55.89v86.87l1.55.89 76.8 44.33 76.81-44.33 76.8-44.33-76.8-44.32z"/><path class="cls-36" d="M155.16 867.02l-76.81 44.32 76.81 44.33 76.8 44.33v-177.31l-76.8 44.33z"/><path class="cls-38" d="M78.35 911.34v88.66h153.65l-76.8-44.33zm88.31 87.94v.11l-.09-.05zm-.09.05l.09.05-.09.05-.09-.05z"/><path class="cls-6" d="M166.67 999.39v-.11l-.09.06.09.05zM166.49 999.39h.18l-.09-.05-.09.05zM166.58 999.44l.09-.05h-.18l.09.05z"/><path class="cls-39" d="M155.16 689.7l-76.81 44.33 76.81 44.33 76.8 44.33v-177.31l-76.8 44.32z"/><path class="cls-40" d="M78.35 734.03v177.31l76.81-44.32 76.8-44.33-76.8-44.33-76.81-44.33z"/><path class="cls-41" d="M231.96 645.38l-76.8-44.33-76.81-44.33v177.31l76.81-44.33 76.8-44.32z"/><path class="cls-42" d="M155.16 335.08l76.8-44.33-76.8-44.33-76.81-44.33v177.32l76.81-44.33z"/><path class="cls-43" d="M155.16 69.11l76.8 44.33v-113.44h-110.67l-42.94 24.78v177.31l76.81-44.32 76.8-44.33-76.8-44.33z"/><path class="cls-44" d="M539.17 645.38h.01l-76.81-44.33-76.8-44.33v177.31l76.8 44.33 76.81 44.33v-177.31h-.01z"/><path class="cls-45" d="M615.98 601.05l-76.8 44.33v177.31l76.8-44.33 76.8-44.33v-177.31l-76.8 44.33z"/><path class="cls-46" d="M462.37 867.18l-76.8 44.16 76.8 44.5 76.81 44.16v-177.14999999999998l-76.81 44.33z"/><path class="cls-47" d="M615.98 867.18l-76.8-44.33v177.14999999999998l76.8-44.16 76.8-44.33-76.8-44.33z"/></svg>