<svg xmlns="http://www.w3.org/2000/svg" viewBox="0 0 800 800"><defs><style>.cls-1{fill:none;}.cls-2{isolation:isolate;}.cls-3{fill:#fff;}.cls-4{clip-path:url(#clip-path);}.cls-5{opacity:0.6;}.cls-6{fill:#f67b2d;}.cls-10,.cls-6,.cls-7,.cls-8,.cls-9{mix-blend-mode:multiply;}.cls-7{fill:#27aae1;}.cls-8{fill:#ee2a7b;}.cls-9{fill:#00a79d;}.cls-10{fill:#ed2a26;}.cls-11{opacity:0.3;}</style><clipPath id="clip-path"><path class="cls-1" d="M0 0h800v800h-800z"/></clipPath></defs><title>4</title><g id="Layer_1" class="cls-2"><path class="cls-3" d="M0 0h800v800h-800z"/><g class="cls-4"><g class="cls-5"><path class="cls-6" d="M346.76 824.4l130.24 130.24a7.78 7.78 0 0 0 11 0l130.25-130.24a7.79 7.79 0 0 0 0-11l-130.25-130.25a7.78 7.78 0 0 0-11 0l-130.24 130.24a7.78 7.78 0 0 0 0 11.01zm131.93-99.73a5.4 5.4 0 0 1 7.64 0l90.4 90.4a5.41 5.41 0 0 1 0 7.64l-90.4 90.4a5.4 5.4 0 0 1-7.64 0l-90.4-90.4a5.4 5.4 0 0 1 0-7.64z"/><path class="cls-7" d="M493.48 680.15l130.24 130.25a7.79 7.79 0 0 0 11 0l130.28-130.25a7.79 7.79 0 0 0 0-11l-130.27-130.25a7.79 7.79 0 0 0-11 0l-130.25 130.24a7.78 7.78 0 0 0 0 11.01zm131.92-99.73a5.4 5.4 0 0 1 7.64 0l90.4 90.4a5.41 5.41 0 0 1 0 7.64l-90.44 90.41a5.4 5.4 0 0 1-7.64 0l-90.36-90.4a5.4 5.4 0 0 1 0-7.64z"/><path class="cls-8" d="M356.65 688.76l130.24 130.24a7.79 7.79 0 0 0 11 0l130.26-130.24a7.79 7.79 0 0 0 0-11l-130.24-130.25a7.79 7.79 0 0 0-11 0l-130.26 130.24a7.79 7.79 0 0 0 0 11.01zm131.93-99.76a5.4 5.4 0 0 1 7.64 0l90.4 90.4a5.4 5.4 0 0 1 0 7.64l-90.4 90.4a5.4 5.4 0 0 1-7.64 0l-90.4-90.4a5.41 5.41 0 0 1 0-7.65z"/><path class="cls-9" d="M639 688.06l96 96a5.73 5.73 0 0 0 8.11 0l96-96a5.73 5.73 0 0 0 0-8.11l-96.02-95.95a5.73 5.73 0 0 0-8.11 0l-96 96a5.73 5.73 0 0 0 .02 8.06zm97.19-73.47a4 4 0 0 1 5.63 0l66.6 66.6a4 4 0 0 1 0 5.63l-66.6 66.6a4 4 0 0 1-5.63 0l-66.6-66.6a4 4 0 0 1 0-5.63zM377.83 570.09l96.72 96.72a5.78 5.78 0 0 0 8.18 0l96.72-96.72a5.78 5.78 0 0 0 0-8.18l-96.73-96.71a5.78 5.78 0 0 0-8.18 0l-96.72 96.72a5.78 5.78 0 0 0 .01 8.17zm98-74.06a4 4 0 0 1 5.67 0l67.13 67.13a4 4 0 0 1 0 5.68l-67.16 67.16a4 4 0 0 1-5.68 0l-67.13-67.13a4 4 0 0 1 0-5.68z"/><path class="cls-8" d="M489.44 458.57l63.76 63.75a3.81 3.81 0 0 0 5.39 0l63.76-63.75a3.81 3.81 0 0 0 0-5.39l-63.76-63.76a3.81 3.81 0 0 0-5.39 0l-63.76 63.76a3.81 3.81 0 0 0 0 5.39zm64.56-48.82a2.64 2.64 0 0 1 3.74 0l44.26 44.25a2.65 2.65 0 0 1 0 3.74l-44.23 44.26a2.64 2.64 0 0 1-3.74 0l-44.26-44.25a2.65 2.65 0 0 1 0-3.74z"/><path class="cls-10" d="M431.87 401l45.42 45.42a2.71 2.71 0 0 0 3.84 0l45.41-45.42a2.71 2.71 0 0 0 0-3.84l-45.42-45.41a2.71 2.71 0 0 0-3.84 0l-45.41 45.42a2.71 2.71 0 0 0 0 3.83zm46-34.78a1.88 1.88 0 0 1 2.66 0l31.53 31.52a1.89 1.89 0 0 1 0 2.66l-31.53 31.52a1.88 1.88 0 0 1-2.66 0l-31.52-31.53a1.88 1.88 0 0 1 0-2.66z"/><path class="cls-6" d="M783.16 759.25l59.24 59.24a3.54 3.54 0 0 0 5 0l59.24-59.24a3.54 3.54 0 0 0 0-5l-59.23-59.25a3.54 3.54 0 0 0-5 0l-59.24 59.24a3.54 3.54 0 0 0-.01 5.01zm60-45.36a2.46 2.46 0 0 1 3.47 0l41.13 41.11a2.46 2.46 0 0 1 0 3.48l-41.12 41.12a2.46 2.46 0 0 1-3.48 0l-41.16-41.12a2.46 2.46 0 0 1 0-3.48z"/></g><g class="cls-5"><path class="cls-6" d="M30.51-169.56l-177.77 177.77a10.63 10.63 0 0 0 0 15l177.77 177.79a10.62 10.62 0 0 0 15 0l177.8-177.76a10.62 10.62 0 0 0 0-15l-177.77-177.8a10.63 10.63 0 0 0-15.03 0zm136.13 180.07a7.37 7.37 0 0 1 0 10.43l-123.4 123.39a7.38 7.38 0 0 1-10.43 0l-123.39-123.39a7.37 7.37 0 0 1 0-10.43l123.4-123.4a7.38 7.38 0 0 1 10.43 0z"/><path class="cls-7" d="M227.4 30.7l-177.77 177.77a10.63 10.63 0 0 0 0 15l177.77 177.81a10.63 10.63 0 0 0 15 0l177.81-177.78a10.63 10.63 0 0 0 0-15l-177.78-177.8a10.63 10.63 0 0 0-15.03 0zm136.13 180.07a7.38 7.38 0 0 1 0 10.43l-123.4 123.4a7.38 7.38 0 0 1-10.43 0l-123.39-123.4a7.38 7.38 0 0 1 0-10.43l123.39-123.39a7.38 7.38 0 0 1 10.43 0z"/><path class="cls-8" d="M215.66-156.06l-177.78 177.77a10.63 10.63 0 0 0 0 15l177.78 177.81a10.63 10.63 0 0 0 15 0l177.8-177.77a10.63 10.63 0 0 0 0-15l-177.77-177.81a10.63 10.63 0 0 0-15.03 0zm136.12 180.06a7.38 7.38 0 0 1 0 10.43l-123.39 123.41a7.38 7.38 0 0 1-10.43 0l-123.4-123.39a7.38 7.38 0 0 1 0-10.43l123.44-123.4a7.38 7.38 0 0 1 10.43 0z"/><path class="cls-9" d="M216.61 229.36l-131 131a7.83 7.83 0 0 0 0 11.07l131 131a7.83 7.83 0 0 0 11.07 0l131-131a7.83 7.83 0 0 0 0-11.07l-131-131a7.83 7.83 0 0 0-11.07 0zm100.29 132.64a5.43 5.43 0 0 1 0 7.68l-90.9 90.93a5.43 5.43 0 0 1-7.69 0l-90.91-90.9a5.44 5.44 0 0 1 0-7.69l90.91-90.91a5.43 5.43 0 0 1 7.69 0zM377.63-127.16l-132 132a7.89 7.89 0 0 0 0 11.16l132 132a7.89 7.89 0 0 0 11.16 0l132-132a7.9 7.9 0 0 0 0-11.16l-132-132a7.89 7.89 0 0 0-11.16 0zm101.08 133.72a5.47 5.47 0 0 1 0 7.75l-91.63 91.64a5.48 5.48 0 0 1-7.75 0l-91.63-91.64a5.48 5.48 0 0 1 0-7.75l91.64-91.64a5.48 5.48 0 0 1 7.75 0z"/><path class="cls-8" d="M529.85 25.19l-87 87a5.2 5.2 0 0 0 0 7.36l87 87a5.2 5.2 0 0 0 7.36 0l87-87a5.2 5.2 0 0 0 0-7.36l-87-87a5.2 5.2 0 0 0-7.36 0zm66.64 88.15a3.61 3.61 0 0 1 0 5.11l-60.41 60.41a3.61 3.61 0 0 1-5.11 0l-60.41-60.41a3.61 3.61 0 0 1 0-5.11l60.44-60.4a3.61 3.61 0 0 1 5.1 0z"/><path class="cls-10" d="M608.42-53.39l-62 62a3.71 3.71 0 0 0 0 5.24l62 62a3.71 3.71 0 0 0 5.24 0l62-62a3.71 3.71 0 0 0 0-5.24l-62-62a3.71 3.71 0 0 0-5.24 0zm47.47 62.8a2.57 2.57 0 0 1 0 3.63l-43 43a2.57 2.57 0 0 1-3.64 0l-43-43a2.57 2.57 0 0 1 0-3.64l43-43a2.57 2.57 0 0 1 3.64 0z"/><path class="cls-6" d="M364.53 382.16l-80.85 80.84a4.83 4.83 0 0 0 0 6.84l80.85 80.86a4.84 4.84 0 0 0 6.84 0l80.86-80.86a4.83 4.83 0 0 0 0-6.84l-80.86-80.86a4.83 4.83 0 0 0-6.84.02zm61.91 81.9a3.35 3.35 0 0 1 0 4.74l-56.12 56.13a3.35 3.35 0 0 1-4.75 0l-56.12-56.12a3.36 3.36 0 0 1 0-4.75l56.12-56.12a3.35 3.35 0 0 1 4.74 0z"/></g><g class="cls-11"><g class="cls-5"><path class="cls-7" d="M575.13 909.71l234 234a14 14 0 0 0 19.79 0l234-234a14 14 0 0 0 0-19.79l-234-234a14 14 0 0 0-19.79 0l-234 234a14 14 0 0 0 0 19.79zm237.07-179.21a9.71 9.71 0 0 1 13.74 0l162.44 162.45a9.71 9.71 0 0 1 0 13.73l-162.45 162.46a9.72 9.72 0 0 1-13.74 0l-162.45-162.46a9.71 9.71 0 0 1 0-13.73z"/><path class="cls-8" d="M329.25 925.17l234 234a14 14 0 0 0 19.79 0l234-234a14 14 0 0 0 0-19.79l-234-234a14 14 0 0 0-19.79 0l-234 234a14 14 0 0 0 0 19.79zm237.07-179.17a9.72 9.72 0 0 1 13.74 0l162.45 162.41a9.71 9.71 0 0 1 0 13.73l-162.45 162.46a9.71 9.71 0 0 1-13.73 0l-162.46-162.45a9.71 9.71 0 0 1 0-13.74z"/><path class="cls-9" d="M367.3 711.93l173.8 173.8a10.39 10.39 0 0 0 14.7 0l173.8-173.8a10.39 10.39 0 0 0 0-14.7l-173.8-173.8a10.38 10.38 0 0 0-14.7 0l-173.8 173.81a10.39 10.39 0 0 0 0 14.69zm176.05-133.08a7.21 7.21 0 0 1 10.2 0l120.64 120.63a7.22 7.22 0 0 1 0 10.2l-120.65 120.64a7.21 7.21 0 0 1-10.2 0l-120.63-120.64a7.22 7.22 0 0 1 0-10.2z"/><path class="cls-8" d="M567.87 511.53l114.57 114.57a6.85 6.85 0 0 0 9.69 0l114.57-114.57a6.85 6.85 0 0 0 0-9.69l-114.57-114.57a6.85 6.85 0 0 0-9.69 0l-114.57 114.57a6.85 6.85 0 0 0 0 9.69zm116.06-87.73a4.75 4.75 0 0 1 6.72 0l79.52 79.52a4.76 4.76 0 0 1 0 6.73l-79.53 79.52a4.75 4.75 0 0 1-6.72 0l-79.52-79.52a4.76 4.76 0 0 1 0-6.73z"/><path class="cls-10" d="M464.42 408.08l81.58 81.61a4.88 4.88 0 0 0 6.9 0l81.61-81.61a4.88 4.88 0 0 0 0-6.9l-81.61-81.61a4.88 4.88 0 0 0-6.9 0l-81.61 81.61a4.88 4.88 0 0 0 .03 6.9zm82.67-62.49a3.38 3.38 0 0 1 4.79 0l56.65 56.65a3.39 3.39 0 0 1 0 4.79l-56.65 56.65a3.39 3.39 0 0 1-4.79 0l-56.65-56.68a3.38 3.38 0 0 1 0-4.79z"/></g><g class="cls-5"><path class="cls-6" d="M-256.81-617.22l-319.46 319.45a19.1 19.1 0 0 0 0 27l319.46 319.46a19.09 19.09 0 0 0 27 0l319.45-319.45a19.09 19.09 0 0 0 0-27l-319.45-319.46a19.1 19.1 0 0 0-27 0zm244.61 323.59a13.25 13.25 0 0 1 0 18.74l-221.74 221.74a13.25 13.25 0 0 1-18.74 0l-221.75-221.75a13.25 13.25 0 0 1 0-18.74l221.74-221.74a13.25 13.25 0 0 1 18.74 0z"/><path class="cls-7" d="M97-257.34l-319.46 319.44a19.11 19.11 0 0 0 0 27l319.46 319.47a19.1 19.1 0 0 0 27 0l319.46-319.45a19.1 19.1 0 0 0 0-27l-319.46-319.46a19.1 19.1 0 0 0-27 0zm244.61 323.58a13.26 13.26 0 0 1 0 18.75l-221.74 221.73a13.26 13.26 0 0 1-18.75 0l-221.73-221.72a13.26 13.26 0 0 1 0-18.75l221.73-221.75a13.26 13.26 0 0 1 18.75 0z"/><path class="cls-8" d="M75.88-593l-319.45 319.5a19.1 19.1 0 0 0 0 27l319.45 319.5a19.1 19.1 0 0 0 27 0l319.46-319.49a19.1 19.1 0 0 0 0-27l-319.45-319.46a19.1 19.1 0 0 0-27.01-.05zm244.62 323.63a13.26 13.26 0 0 1 0 18.75l-221.74 221.74a13.26 13.26 0 0 1-18.75 0l-221.73-221.74a13.26 13.26 0 0 1 0-18.75l221.72-221.73a13.26 13.26 0 0 1 18.75 0z"/><path class="cls-9" d="M77.6 99.63l-235.35 235.37a14.07 14.07 0 0 0 0 19.9l235.35 235.32a14.07 14.07 0 0 0 19.9 0l235.34-235.34a14.07 14.07 0 0 0 0-19.9l-235.35-235.35a14.07 14.07 0 0 0-19.89 0zm180.21 238.37a9.76 9.76 0 0 1 0 13.81l-163.36 163.38a9.76 9.76 0 0 1-13.81 0l-163.36-163.35a9.77 9.77 0 0 1 0-13.81l163.36-163.37a9.77 9.77 0 0 1 13.81 0z"/><path class="cls-8" d="M640.48-267.25l-156.38 156.38a9.35 9.35 0 0 0 0 13.22l156.38 156.38a9.35 9.35 0 0 0 13.22 0l156.39-156.38a9.35 9.35 0 0 0 0-13.22l-156.39-156.38a9.35 9.35 0 0 0-13.22 0zm119.74 158.4a6.49 6.49 0 0 1 0 9.17l-108.54 108.56a6.49 6.49 0 0 1-9.18 0l-108.5-108.55a6.49 6.49 0 0 1 0-9.18l108.5-108.54a6.49 6.49 0 0 1 9.17 0z"/><path class="cls-6" d="M343.42 374.23l-145.3 145.3a8.69 8.69 0 0 0 0 12.29l145.3 145.29a8.69 8.69 0 0 0 12.28 0l145.3-145.3a8.69 8.69 0 0 0 0-12.29l-145.3-145.29a8.69 8.69 0 0 0-12.28 0zm111.26 147.18a6 6 0 0 1 0 8.52l-100.86 100.85a6 6 0 0 1-8.53 0l-100.85-100.85a6 6 0 0 1 0-8.53l100.86-100.85a6 6 0 0 1 8.53 0z"/></g></g></g></g></svg>