<svg xmlns="http://www.w3.org/2000/svg" viewBox="0 0 25 25"><defs><style>.cls-1{fill:none;}.cls-2{isolation:isolate;}.cls-3{fill:#fff;}.cls-4{clip-path:url(#clip-path);}.cls-5{fill:#c9edff;}.cls-5,.cls-6{mix-blend-mode:multiply;}.cls-6{fill:#fff2c9;}</style><clipPath id="clip-path"><path class="cls-1" d="M0 0h25v25h-25z"/></clipPath></defs><title>6</title><g id="Layer_1" class="cls-2"><path class="cls-3" d="M0 0h25v25h-25z"/><g class="cls-4"><path class="cls-5" d="M18.52 13.62a10.67 10.67 0 0 0-2.83-2.88 7 7 0 0 0-3.12-1.13 7.48 7.48 0 0 0-.79 0 10.18 10.18 0 0 0-3.78.76 23.3 23.3 0 0 0-4.78 2.73c-1.45 1-2.94 2.23-4.43 3.53 1.5-1.3 3-2.51 4.44-3.54 3.7-2.59 6.77-3.72 9.34-3.45 2.29.24 4.23 1.55 5.93 4 3.23 4.64 5.27 5.42 7.62 5.06-2.34.3-4.38-.44-7.6-5.08zM18.56 13.68a10.68 10.68 0 0 0-2.83-2.88 7 7 0 0 0-3.12-1.13 7.49 7.49 0 0 0-.79 0 10.19 10.19 0 0 0-3.74.79 23.3 23.3 0 0 0-4.82 2.73c-1.47 1-3 2.25-4.47 3.56 1.51-1.31 3-2.53 4.48-3.57 3.73-2.62 6.73-3.76 9.34-3.49 2.29.24 4.23 1.55 5.93 4 3.21 4.62 5.25 5.41 7.58 5.07-2.33.32-4.35-.47-7.56-5.08zM18.6 13.73a10.68 10.68 0 0 0-2.83-2.88 7 7 0 0 0-3.12-1.13 7.48 7.48 0 0 0-.79 0 10.19 10.19 0 0 0-3.74.79 23.3 23.3 0 0 0-4.82 2.7c-1.48 1-3 2.27-4.5 3.59 1.52-1.32 3-2.55 4.52-3.6 3.68-2.59 6.74-3.72 9.33-3.45 2.29.24 4.23 1.55 5.93 4 3.19 4.59 5.22 5.4 7.55 5.07-2.32.31-4.34-.5-7.53-5.09zM18.64 13.79a10.69 10.69 0 0 0-2.83-2.88 7 7 0 0 0-3.12-1.13 7.49 7.49 0 0 0-.79 0 10.19 10.19 0 0 0-3.74.79 23.31 23.31 0 0 0-4.82 2.73c-1.49 1.05-3 2.29-4.54 3.62 1.53-1.33 3.06-2.58 4.56-3.63 3.64-2.62 6.74-3.76 9.32-3.48 2.29.24 4.23 1.55 5.93 4 3.18 4.57 5.2 5.39 7.51 5.08-2.29.28-4.31-.54-7.48-5.1zM18.67 13.84a10.68 10.68 0 0 0-2.83-2.84 7 7 0 0 0-3.12-1.13 7.46 7.46 0 0 0-.79 0 10.19 10.19 0 0 0-3.74.79 23.36 23.36 0 0 0-4.82 2.73c-1.5 1.06-3 2.31-4.58 3.66a58.77 58.77 0 0 1 4.59-3.67c3.69-2.61 6.75-3.75 9.34-3.48 2.29.24 4.23 1.55 5.93 4 3.16 4.54 5.18 5.38 7.47 5.08-2.28.24-4.29-.6-7.45-5.14zM18.71 13.9a10.68 10.68 0 0 0-2.83-2.9 7 7 0 0 0-3.12-1.13 7.47 7.47 0 0 0-.79 0 10.18 10.18 0 0 0-3.74.79 23.33 23.33 0 0 0-4.82 2.73c-1.51 1.05-3.06 2.32-4.62 3.67a59.2 59.2 0 0 1 4.63-3.7c3.69-2.61 6.75-3.75 9.34-3.48 2.29.24 4.23 1.55 5.93 4 3.14 4.52 5.16 5.38 7.43 5.09-2.26.29-4.27-.56-7.41-5.07zM18.75 14a10.67 10.67 0 0 0-2.84-2.88 7 7 0 0 0-3.11-1.17 7.47 7.47 0 0 0-.79 0 10.19 10.19 0 0 0-3.74.79 23.29 23.29 0 0 0-4.82 2.73 59.49 59.49 0 0 0-4.66 3.72 59.6 59.6 0 0 1 4.67-3.73c3.7-2.63 6.75-3.76 9.34-3.46 2.29.24 4.23 1.55 5.93 4 3.12 4.49 5.13 5.37 7.4 5.09-2.26.22-4.26-.66-7.38-5.09zM18.79 14a10.69 10.69 0 0 0-2.79-2.87 7 7 0 0 0-3.16-1.13 7.36 7.36 0 0 0-.79 0 10.18 10.18 0 0 0-3.74.79 23.31 23.31 0 0 0-4.82 2.73 59.82 59.82 0 0 0-4.69 3.76 59.84 59.84 0 0 1 4.7-3.78c3.69-2.61 6.75-3.75 9.34-3.47 2.29.24 4.23 1.55 5.93 4 3.11 4.47 5.11 5.36 7.36 5.1-2.24.22-4.24-.67-7.34-5.13zM18.83 14.06a10.68 10.68 0 0 0-2.83-2.88 7 7 0 0 0-3.12-1.13 7.5 7.5 0 0 0-.79 0 10.18 10.18 0 0 0-3.74.79 23.3 23.3 0 0 0-4.82 2.73 59.72 59.72 0 0 0-4.73 3.79c4.65-4.07 9.2-7.36 13.31-7.36a7.16 7.16 0 0 1 .77 0c2.29.24 4.23 1.55 5.93 4 3.09 4.44 5.09 5.35 7.32 5.1-2.23.3-4.22-.61-7.3-5.04zM18.87 14.12a10.7 10.7 0 0 0-2.87-2.88 7 7 0 0 0-3.12-1.13 7.5 7.5 0 0 0-.79 0 10.19 10.19 0 0 0-3.74.79 23.31 23.31 0 0 0-4.82 2.73 60 60 0 0 0-4.77 3.82c4.67-4.08 9.27-7.35 13.35-7.35a7.48 7.48 0 0 1 .77 0c2.29.24 4.23 1.55 5.93 4 3.07 4.42 5.07 5.34 7.28 5.11-2.17.23-4.16-.69-7.22-5.09zM18.9 14.17a10.68 10.68 0 0 0-2.83-2.88 7 7 0 0 0-3.07-1.12 7.5 7.5 0 0 0-.79 0 10.19 10.19 0 0 0-3.74.79 23.32 23.32 0 0 0-4.87 2.69 60.27 60.27 0 0 0-4.81 3.85c5-4.36 9.88-7.79 14.16-7.34 2.29.24 4.23 1.55 5.93 4 3.06 4.39 5 5.32 7.24 5.11-2.19.21-4.12-.72-7.22-5.1zM18.94 14.23a10.68 10.68 0 0 0-2.83-2.88 7 7 0 0 0-3.11-1.13 7.47 7.47 0 0 0-.79 0 10.18 10.18 0 0 0-3.75.78 23.31 23.31 0 0 0-4.82 2.7 60.41 60.41 0 0 0-4.85 3.89c5-4.37 9.91-7.83 14.19-7.37 2.29.24 4.23 1.55 5.93 4 3 4.37 5 5.31 7.21 5.11-2.17.2-4.12-.75-7.18-5.1zM19 14.28a10.67 10.67 0 0 0-2.83-2.88 7 7 0 0 0-3.17-1.12 7.48 7.48 0 0 0-.79 0 10.19 10.19 0 0 0-3.71.72 23.31 23.31 0 0 0-4.82 2.73 60.73 60.73 0 0 0-4.88 3.92c5-4.33 9.93-7.8 14.2-7.35 2.29.24 4.23 1.55 5.93 4 3 4.34 5 5.3 7.17 5.12-2.1.15-4.1-.81-7.1-5.14zM19 14.34a10.67 10.67 0 0 0-2.83-2.88 7 7 0 0 0-3.12-1.13 7.45 7.45 0 0 0-.79 0 10.18 10.18 0 0 0-3.74.79 23.25 23.25 0 0 0-4.82 2.73 60.87 60.87 0 0 0-4.92 4c4.72-4.14 9.38-7.48 13.5-7.48a7.21 7.21 0 0 1 .77 0c2.29.24 4.23 1.55 5.93 4 3 4.32 5 5.29 7.13 5.12-2.11.12-4.11-.85-7.11-5.15zM19.06 14.39a10.67 10.67 0 0 0-2.83-2.88 7 7 0 0 0-3.12-1.13 7.51 7.51 0 0 0-.79 0 10.18 10.18 0 0 0-3.74.79 23.29 23.29 0 0 0-4.82 2.73 61.3 61.3 0 0 0-5 4c4.73-4.16 9.41-7.52 13.54-7.52a7.34 7.34 0 0 1 .77 0c2.29.24 4.23 1.55 5.93 4 3 4.29 5 5.28 7.09 5.12-2.09.16-4.09-.83-7.03-5.11zM19.09 14.45a10.67 10.67 0 0 0-2.83-2.88 7 7 0 0 0-3.12-1.13 7.48 7.48 0 0 0-.79 0 10.19 10.19 0 0 0-3.74.79 23.26 23.26 0 0 0-4.82 2.73 61.38 61.38 0 0 0-5 4c4.75-4.18 9.43-7.55 13.58-7.55a7.34 7.34 0 0 1 .77 0c2.29.24 4.23 1.55 5.93 4 3 4.27 4.93 5.27 7.05 5.13-2.12.16-4.07-.84-7.03-5.09zM19.13 14.5a10.67 10.67 0 0 0-2.83-2.88 7 7 0 0 0-3.12-1.13 7.51 7.51 0 0 0-.79 0 10.19 10.19 0 0 0-3.74.79 23.3 23.3 0 0 0-4.82 2.72 61.56 61.56 0 0 0-5 4.06c5.06-4.45 10-8 14.38-7.54 2.29.24 4.23 1.55 5.93 4 3 4.24 4.91 5.26 7 5.13-2.14.1-4.07-.92-7.01-5.15zM19.17 14.56a10.67 10.67 0 0 0-2.83-2.88 7 7 0 0 0-3.12-1.13 7.49 7.49 0 0 0-.79 0 10.2 10.2 0 0 0-3.74.79 23.33 23.33 0 0 0-4.82 2.66 61.79 61.79 0 0 0-5.07 4.09c5.07-4.47 10.07-8 14.42-7.58 2.29.24 4.23 1.55 5.93 4 2.93 4.21 4.88 5.24 7 5.13-2.15.15-4.06-.88-6.98-5.08zM19.21 14.61a10.7 10.7 0 0 0-2.84-2.88 7 7 0 0 0-3.12-1.13 7.46 7.46 0 0 0-.79 0 10.19 10.19 0 0 0-3.74.79 23.32 23.32 0 0 0-4.82 2.69 62 62 0 0 0-5.11 4.12c5.08-4.48 10.1-8.07 14.46-7.61 2.29.24 4.23 1.55 5.93 4 2.91 4.19 4.86 5.23 6.94 5.13-2.07.11-4.01-.93-6.91-5.11zM19.25 14.67a10.69 10.69 0 0 0-2.83-2.88 7 7 0 0 0-3.12-1.13 7.47 7.47 0 0 0-.79 0 10.2 10.2 0 0 0-3.74.79 23.32 23.32 0 0 0-4.82 2.73 62.32 62.32 0 0 0-5.15 4.16c4.8-4.24 9.54-7.68 13.73-7.68a7.34 7.34 0 0 1 .77 0c2.29.24 4.23 1.55 5.93 4 2.9 4.16 4.83 5.22 6.9 5.13-2.06.08-4-.97-6.88-5.12zM19.29 14.72a10.69 10.69 0 0 0-2.84-2.88 7 7 0 0 0-3.12-1.13 7.47 7.47 0 0 0-.79 0 10.19 10.19 0 0 0-3.74.79 23.32 23.32 0 0 0-4.8 2.69 62.54 62.54 0 0 0-5.19 4.19c4.79-4.22 9.55-7.68 13.75-7.68a7.43 7.43 0 0 1 .77 0c2.29.24 4.23 1.55 5.93 4 2.88 4.14 4.81 5.21 6.87 5.14-2.05.07-3.98-.99-6.84-5.12zM19.32 14.78a10.69 10.69 0 0 0-2.83-2.88 7 7 0 0 0-3.12-1.13 7.47 7.47 0 0 0-.79 0 10.2 10.2 0 0 0-3.74.79 23.34 23.34 0 0 0-4.84 2.69 63 63 0 0 0-5.22 4.22c4.82-4.27 9.6-7.75 13.81-7.75a7.18 7.18 0 0 1 .77 0c2.29.24 4.23 1.55 5.93 4 2.86 4.11 4.79 5.19 6.83 5.14-2.03.14-3.95-.98-6.8-5.08zM19.36 14.83a10.68 10.68 0 0 0-2.83-2.83 7 7 0 0 0-3.12-1.13 7.5 7.5 0 0 0-.79 0 10.19 10.19 0 0 0-3.74.79 23.31 23.31 0 0 0-4.82 2.64 63 63 0 0 0-5.26 4.26c4.84-4.28 9.62-7.78 13.84-7.78a7.43 7.43 0 0 1 .77 0c2.29.24 4.23 1.55 5.93 4 2.84 4.15 4.76 5.22 6.79 5.22-2.02 0-3.93-1.1-6.77-5.17zM19.4 14.89a10.7 10.7 0 0 0-2.84-2.89 7 7 0 0 0-3.12-1.13 7.5 7.5 0 0 0-.79 0 10.19 10.19 0 0 0-3.74.79 23.31 23.31 0 0 0-4.82 2.73 63.24 63.24 0 0 0-5.3 4.29c4.85-4.3 9.65-7.82 13.88-7.82a7.21 7.21 0 0 1 .77 0c2.29.24 4.23 1.55 5.93 4 2.83 4.14 4.74 5.21 6.76 5.14-2.01 0-3.91-1.07-6.73-5.11zM19.44 14.94a10.7 10.7 0 0 0-2.83-2.88 7 7 0 0 0-3.12-1.13 7.5 7.5 0 0 0-.79 0 10.19 10.19 0 0 0-3.7.76 23.3 23.3 0 0 0-4.82 2.73 63.49 63.49 0 0 0-5.34 4.32c4.86-4.31 9.68-7.85 13.92-7.85a7.33 7.33 0 0 1 .77 0c2.29.24 4.23 1.55 5.93 4 2.81 4 4.71 5.15 6.71 5.14-2.03.05-3.93-1.03-6.73-5.09zM19.48 15a10.7 10.7 0 0 0-2.83-2.88 7 7 0 0 0-3.13-1.12 7.34 7.34 0 0 0-.79 0 10.19 10.19 0 0 0-3.73.74 23.31 23.31 0 0 0-4.82 2.73 63.86 63.86 0 0 0-5.38 4.36c5.2-4.56 10.28-8.28 14.72-7.83 2.29.24 4.23 1.55 5.93 4 2.79 4 4.69 5.14 6.68 5.14-1.98-.02-3.87-1.14-6.65-5.14zM19.51 15.05a10.67 10.67 0 0 0-2.84-2.88 7 7 0 0 0-3.11-1.17 7.34 7.34 0 0 0-.79 0 10.19 10.19 0 0 0-3.77.8 23.35 23.35 0 0 0-4.82 2.73 64.11 64.11 0 0 0-5.41 4.39c5.23-4.58 10.34-8.32 14.79-7.85 2.29.24 4.23 1.55 5.93 4 2.77 4 4.67 5.12 6.64 5.14-1.97-.05-3.85-1.21-6.62-5.16zM19.55 15.11a10.68 10.68 0 0 0-2.83-2.88 7 7 0 0 0-3.12-1.13 7.24 7.24 0 0 0-.77 0c-4.28 0-9.13 3.59-14 7.94 4.9-4.36 9.76-8 14-8a7.42 7.42 0 0 1 .77 0c2.29.24 4.23 1.55 5.93 4 2.75 4 4.64 5.11 6.6 5.14-1.95.02-3.83-1.13-6.58-5.07zM19.59 15.16a10.69 10.69 0 0 0-2.83-2.88 7 7 0 0 0-3.12-1.13 7.25 7.25 0 0 0-.77 0c-4.29 0-9.16 3.6-14.07 8 5.2-4.66 10.37-8.44 14.83-7.97 2.29.24 4.23 1.55 5.93 4 2.74 3.93 4.62 5.09 6.56 5.14-1.93-.08-3.8-1.24-6.53-5.16zM19.63 15.21a10.68 10.68 0 0 0-2.83-2.88 7 7 0 0 0-3.12-1.13 7.27 7.27 0 0 0-.77 0c-4.3 0-9.18 3.62-14.11 8 4.93-4.39 9.81-8 14.11-8a7.29 7.29 0 0 1 .77 0c2.29.24 4.23 1.55 5.93 4 2.72 3.91 4.59 5.08 6.52 5.14-1.92-.06-3.79-1.23-6.5-5.13zM19.67 15.27a10.68 10.68 0 0 0-2.83-2.88 7 7 0 0 0-3.12-1.13 7.25 7.25 0 0 0-.77 0c-4.31 0-9.21 3.64-14.15 8 4.94-4.41 9.84-8.05 14.15-8.05a7.42 7.42 0 0 1 .77 0c2.29.24 4.23 1.55 5.93 4 2.7 3.88 4.57 5.06 6.49 5.14-1.92-.03-3.78-1.21-6.47-5.08zM19.7 15.32a10.68 10.68 0 0 0-2.83-2.88 7 7 0 0 0-3.12-1.13 7.28 7.28 0 0 0-.77 0c-4.33 0-9.24 3.66-14.19 8.08 4.96-4.39 9.87-8.08 14.21-8.08a7.29 7.29 0 0 1 .77 0c2.29.24 4.23 1.55 5.93 4 2.68 3.86 4.54 5 6.45 5.14-1.92-.09-3.77-1.28-6.45-5.13zM19.74 15.38a10.68 10.68 0 0 0-2.83-2.88 7 7 0 0 0-3.12-1.13 7.34 7.34 0 0 0-.77 0c-4.34 0-9.26 3.68-14.22 8.11 4.96-4.48 9.89-8.12 14.2-8.12a7.31 7.31 0 0 1 .77 0c2.29.24 4.23 1.55 5.93 4 2.67 3.83 4.52 5 6.41 5.13-1.87-.1-3.71-1.29-6.37-5.11zM19.78 15.43a10.67 10.67 0 0 0-2.83-2.88 7 7 0 0 0-3.12-1.13 7.35 7.35 0 0 0-.77 0c-4.35 0-9.29 3.7-14.26 8.15 5.28-4.72 10.51-8.6 15-8.12 2.29.24 4.23 1.55 5.93 4 2.65 3.81 4.5 5 6.37 5.13-1.84-.15-3.68-1.36-6.32-5.15zM19.82 15.49a10.68 10.68 0 0 0-2.82-2.88 7 7 0 0 0-3.12-1.13 7.21 7.21 0 0 0-.77 0c-4.36 0-9.31 3.72-14.3 8.18 5-4.47 9.95-8.19 14.3-8.19a7.31 7.31 0 0 1 .77 0c2.29.24 4.23 1.55 5.93 4 2.63 3.78 4.47 5 6.33 5.13-1.87-.13-3.7-1.35-6.32-5.11zM19.86 15.54a10.7 10.7 0 0 0-2.86-2.88 7 7 0 0 0-3.12-1.13 7.49 7.49 0 0 0-.77 0c-4.37 0-9.34 3.74-14.34 8.21 5-4.48 10-8.22 14.34-8.22a7.46 7.46 0 0 1 .77 0c2.29.24 4.23 1.55 5.93 4 2.61 3.75 4.45 5 6.3 5.13-1.83-.14-3.65-1.37-6.25-5.11zM19.89 15.6a10.67 10.67 0 0 0-2.83-2.88 7 7 0 0 0-3.12-1.13 7.52 7.52 0 0 0-.77 0c-4.38 0-9.36 3.75-14.38 8.25 5-4.5 10-8.26 14.38-8.26a7.21 7.21 0 0 1 .77 0c2.29.24 4.23 1.55 5.93 4 2.59 3.73 4.42 5 6.26 5.12-1.83-.16-3.65-1.39-6.24-5.1zM19.93 15.65a10.69 10.69 0 0 0-2.84-2.88 7 7 0 0 0-3.09-1.13 7.53 7.53 0 0 0-.77 0c-4.39 0-9.39 3.77-14.41 8.28 5-4.51 10-8.29 14.41-8.29a7.35 7.35 0 0 1 .77 0c2.29.24 4.23 1.55 5.93 4 2.58 3.7 4.39 4.95 6.22 5.12-1.84-.17-3.65-1.41-6.22-5.1zM20 15.71a10.69 10.69 0 0 0-2.84-2.88 7 7 0 0 0-3.16-1.13 7.38 7.38 0 0 0-.77 0c-4.4 0-9.41 3.79-14.45 8.31 5-4.53 10.05-8.33 14.45-8.33a7.31 7.31 0 0 1 .77 0c2.29.24 4.23 1.55 5.93 4 2.56 3.68 4.37 4.93 6.18 5.12-1.79-.18-3.59-1.43-6.11-5.09zM20 15.76a10.71 10.71 0 0 0-2.84-2.88 7 7 0 0 0-3.12-1.13 7.23 7.23 0 0 0-.77 0c-4.41 0-9.44 3.81-14.49 8.35 5.06-4.54 10.08-8.36 14.49-8.36a7.32 7.32 0 0 1 .77 0c2.29.24 4.23 1.55 5.93 4 2.54 3.65 4.34 4.92 6.14 5.11-1.77-.19-3.57-1.45-6.11-5.09zM20 15.82a10.7 10.7 0 0 0-2.84-2.88 7 7 0 0 0-3.12-1.13 7.36 7.36 0 0 0-.77 0c-4.43 0-9.46 3.83-14.53 8.38 5.37-4.82 10.7-8.84 15.3-8.35 2.29.24 4.23 1.55 5.93 4 2.52 3.63 4.32 4.89 6.11 5.11-1.73-.26-3.52-1.52-6.08-5.13zM20.09 15.87a10.71 10.71 0 0 0-2.84-2.87 7 7 0 0 0-3.12-1.13 7.23 7.23 0 0 0-.77 0c-4.44 0-9.49 3.85-14.57 8.42 5.08-4.57 10.14-8.43 14.57-8.43a7.31 7.31 0 0 1 .77 0c2.29.24 4.23 1.55 5.93 4 2.5 3.6 4.29 4.88 6.07 5.1-1.77-.23-3.55-1.5-6.04-5.09zM20.12 15.93a10.71 10.71 0 0 0-2.83-2.93 7 7 0 0 0-3.12-1.13 7.25 7.25 0 0 0-.77 0c-4.45 0-9.51 3.87-14.6 8.45 5.09-4.53 10.2-8.41 14.6-8.41a7.31 7.31 0 0 1 .77 0c2.29.24 4.23 1.55 5.93 4 2.49 3.58 4.27 4.86 6 5.1-1.73-.24-3.5-1.52-5.98-5.08zM20.16 16a10.71 10.71 0 0 0-2.84-2.88 7 7 0 0 0-3.11-1.12 7.25 7.25 0 0 0-.77 0c-4.44-.07-9.54 3.82-14.65 8.42 5.41-4.82 10.78-8.9 15.41-8.42 2.29.24 4.23 1.55 5.93 4 2.47 3.55 4.24 4.84 6 5.09-1.75-.29-3.51-1.57-5.97-5.09zM20.2 16a10.69 10.69 0 0 0-2.84-2.88 7 7 0 0 0-3.11-1.12 7.39 7.39 0 0 0-.77 0c-4.48 0-9.57 3.9-14.69 8.51 5.42-4.88 10.81-9 15.45-8.49 2.29.24 4.23 1.55 5.93 4 2.45 3.53 4.22 4.82 6 5.09-1.77-.27-3.53-1.57-5.97-5.11zM20.24 16.09a10.69 10.69 0 0 0-2.84-2.88 7 7 0 0 0-3.12-1.13 7.25 7.25 0 0 0-.77 0c-4.51-.08-9.59 3.92-14.72 8.52 5.43-4.9 10.83-9 15.49-8.53 2.29.24 4.23 1.55 5.93 4 2.43 3.5 4.19 4.8 5.92 5.08-1.72-.28-3.47-1.58-5.89-5.06zM20.28 16.15a10.67 10.67 0 0 0-2.84-2.88 7 7 0 0 0-3.12-1.13 7.39 7.39 0 0 0-.77 0c-4.49-.04-9.61 3.86-14.76 8.55 5.44-4.92 10.86-9.05 15.52-8.56 2.29.24 4.23 1.55 5.93 4 2.42 3.47 4.16 4.79 5.88 5.08-1.7-.3-3.44-1.61-5.84-5.06zM20.31 16.2a10.7 10.7 0 0 0-2.84-2.88 7 7 0 0 0-3.12-1.13 7.36 7.36 0 0 0-.77 0c-4.5 0-9.64 4-14.79 8.62 5.45-4.93 10.89-9.09 15.56-8.6 2.29.24 4.23 1.55 5.93 4 2.4 3.45 4.14 4.76 5.84 5.07-1.69-.34-3.42-1.65-5.81-5.08zM20.35 16.26a10.68 10.68 0 0 0-2.84-2.88 7 7 0 0 0-3.12-1.13 7.38 7.38 0 0 0-.77 0c-4.51 0-9.66 4-14.83 8.66 5.47-4.91 10.92-9.12 15.6-8.63 2.29.24 4.23 1.55 5.93 4 2.38 3.42 4.11 4.74 5.8 5.06-1.67-.34-3.4-1.68-5.77-5.08zM20.39 16.31a10.68 10.68 0 0 0-2.84-2.88 7 7 0 0 0-3.12-1.13 7.49 7.49 0 0 0-.77 0c-4.53 0-9.69 4-14.87 8.69 5.48-5 10.94-9.16 15.64-8.66 2.29.24 4.23 1.55 5.93 4 2.36 3.4 4.09 4.72 5.77 5.05-1.67-.38-3.39-1.69-5.74-5.07zM20.43 16.37a10.69 10.69 0 0 0-2.84-2.88 7 7 0 0 0-3.12-1.13 7.55 7.55 0 0 0-.77 0c-4.54 0-9.71 4-14.91 8.73 5.21-4.7 10.38-8.74 14.91-8.74a7.32 7.32 0 0 1 .77 0c2.29.24 4.23 1.55 5.93 4 2.35 3.37 4.06 4.7 5.73 5-1.66-.35-3.37-1.63-5.7-4.98zM20.47 16.42a10.66 10.66 0 0 0-2.84-2.88 7 7 0 0 0-3.12-1.13 7.52 7.52 0 0 0-.77 0c-4.55 0-9.74 4-14.95 8.76v.05c5.21-4.76 10.41-8.81 14.95-8.81a7.31 7.31 0 0 1 .77 0c2.29.24 4.23 1.55 5.93 4 2.33 3.35 4 4.68 5.69 5-1.65-.33-3.35-1.66-5.66-4.99zM20.51 16.48a10.71 10.71 0 0 0-2.84-2.88 7 7 0 0 0-3.12-1.13 7.56 7.56 0 0 0-.77 0c-4.56 0-9.76 4.06-15 8.79v.05c5.52-5 11-9.27 15.75-8.77 2.29.24 4.23 1.55 5.93 4 2.31 3.32 4 4.66 5.65 5-1.62-.42-3.31-1.76-5.6-5.06zM20.54 16.53a10.68 10.68 0 0 0-2.84-2.88 7 7 0 0 0-3.12-1.13 7.36 7.36 0 0 0-.77 0c-4.57 0-9.79 4.08-15 8.83v.05c5.53-5 11.05-9.3 15.79-8.8 2.29.24 4.23 1.55 5.93 4 2.29 3.29 4 4.64 5.62 5-1.64-.45-3.33-1.79-5.61-5.07zM20.58 16.59a10.69 10.69 0 0 0-2.84-2.88 7 7 0 0 0-3.12-1.13 7.23 7.23 0 0 0-.77 0c-4.58 0-9.81 4.1-15.06 8.86v.05c5.54-5 11.08-9.34 15.83-8.84 2.29.24 4.23 1.55 5.93 4 2.27 3.27 4 4.62 5.58 5-1.61-.46-3.29-1.81-5.55-5.06zM20.62 16.64a10.7 10.7 0 0 0-2.84-2.88 7 7 0 0 0-3.12-1.13 7.5 7.5 0 0 0-.77 0c-4.59 0-9.84 4.12-15.1 8.9v.05c5.56-5 11.11-9.38 15.87-8.87 2.29.24 4.23 1.55 5.93 4 2.26 3.24 3.93 4.6 5.54 5-1.6-.49-3.27-1.85-5.51-5.07zM20.66 16.69a10.68 10.68 0 0 0-2.84-2.88 7 7 0 0 0-3.12-1.13 7.25 7.25 0 0 0-.77 0c-4.6 0-9.87 4.14-15.14 8.93v.05c5.57-5.07 11.13-9.41 15.9-8.91 2.29.24 4.23 1.55 5.93 4 2.24 3.22 3.9 4.58 5.5 5-1.58-.5-3.24-1.86-5.46-5.06zM20.7 16.75a10.7 10.7 0 0 0-2.84-2.88 7 7 0 0 0-3.12-1.13 7.39 7.39 0 0 0-.77 0c-4.61 0-9.89 4.16-15.17 9v.05c5.58-5.15 11.2-9.52 15.94-9.01 2.29.24 4.23 1.55 5.93 4 2.22 3.19 3.88 4.56 5.46 5-1.58-.5-3.23-1.86-5.43-5.03zM20.73 16.8a10.68 10.68 0 0 0-2.84-2.88 7 7 0 0 0-3.12-1.13 7.25 7.25 0 0 0-.77 0c-4.62 0-9.92 4.18-15.21 9v.05c5.3-4.82 10.59-9 15.21-9a7.44 7.44 0 0 1 .77 0c2.29.24 4.23 1.55 5.93 4 2.2 3.17 3.85 4.53 5.43 5-1.57-.52-3.21-1.84-5.4-5.04zM20.77 16.86a10.69 10.69 0 0 0-2.83-2.86 7 7 0 0 0-3.12-1.13 7.25 7.25 0 0 0-.77 0c-4.64 0-9.94 4.2-15.25 9v.05c5.61-5.11 11.21-9.52 16-9 2.29.24 4.23 1.55 5.93 4 2.19 3.14 3.83 4.51 5.39 5-1.54-.57-3.18-1.92-5.35-5.06zM20.81 16.91c-1.71-2.46-3.66-3.77-6-4a7.36 7.36 0 0 0-.77 0c-4.65 0-10 4.22-15.29 9.07v.02c5.37-4.86 10.69-9.1 15.33-9.1a7.31 7.31 0 0 1 .77 0c2.29.24 4.23 1.55 5.93 4 2.17 3.12 3.8 4.49 5.35 5-1.54-.52-3.13-1.9-5.32-4.99zM20.85 17c-1.71-2.46-3.66-3.77-6-4a7.39 7.39 0 0 0-.77 0c-4.66 0-10 4.24-15.33 9.1v.06c5.63-5.14 11.27-9.59 16.1-9.08 2.29.24 4.23 1.55 5.93 4 2.15 3.09 3.77 4.47 5.31 4.94-1.49-.61-3.09-2.02-5.24-5.02zM20.89 17c-1.71-2.45-3.66-3.77-6-4a7.36 7.36 0 0 0-.77 0c-4.67 0-10 4.26-15.36 9.14v.06c5.68-5.2 11.33-9.66 16.17-9.15 2.29.24 4.23 1.55 5.93 4 2.14 3.06 3.74 4.44 5.27 4.95-1.52-.55-3.13-1.93-5.24-5zM20.92 17.08c-1.71-2.46-3.66-3.77-6-4a7.25 7.25 0 0 0-.77 0c-4.68 0-10 4.28-15.4 9.17v.06c5.7-5.22 11.37-9.71 16.25-9.2 2.29.24 4.23 1.55 5.93 4 2.12 3 3.72 4.42 5.24 4.92-1.55-.55-3.17-1.93-5.25-4.95zM21 17.13c-1.71-2.46-3.66-3.77-6-4a7.52 7.52 0 0 0-.77 0c-4.69 0-10.07 4.3-15.44 9.21v.06c5.37-4.91 10.76-9.22 15.44-9.22a7.18 7.18 0 0 1 .77 0c2.29.24 4.23 1.55 5.93 4 2.1 3 3.69 4.4 5.2 4.9-1.5-.57-3.13-1.95-5.13-4.95zM21 17.19c-1.71-2.46-3.66-3.77-6-4a7.56 7.56 0 0 0-.77 0c-4.7 0-10.09 4.32-15.48 9.24v.06c5.39-4.92 10.78-9.26 15.48-9.26a7.45 7.45 0 0 1 .77 0c2.29.24 4.23 1.55 5.93 4 2.08 3 3.66 4.38 5.16 4.89-1.45-.58-3.02-1.96-5.09-4.93zM21 17.24c-1.71-2.46-3.66-3.77-6-4a7.56 7.56 0 0 0-.77 0c-4.71 0-10.12 4.34-15.52 9.28v.06c5.7-5.21 11.4-9.77 16.28-9.25 2.29.24 4.23 1.55 5.93 4 2.06 3 3.64 4.35 5.12 4.88-1.39-.64-2.95-2.02-5.04-4.97zM21.08 17.3c-1.71-2.46-3.66-3.77-6-4a7.53 7.53 0 0 0-.77 0c-4.72 0-10.14 4.36-15.55 9.31v.06c5.71-5.22 11.43-9.81 16.32-9.29 2.29.24 4.23 1.55 5.93 4 2 2.94 3.61 4.33 5.08 4.87-1.42-.65-2.98-2.03-5.01-4.95zM21.12 17.35c-1.71-2.45-3.66-3.77-6-4a7.5 7.5 0 0 0-.77 0c-4.74 0-10.17 4.38-15.59 9.35v.06c5.72-5.24 11.46-9.84 16.36-9.32 2.29.24 4.23 1.55 5.93 4 2 2.91 3.58 4.31 5 4.85-1.37-.66-2.92-2.04-4.93-4.94zM21.15 17.41c-1.71-2.46-3.66-3.77-6-4a7.53 7.53 0 0 0-.77 0c-4.75 0-10.2 4.4-15.63 9.38v.06c5.44-5 10.89-9.4 15.63-9.4a7.44 7.44 0 0 1 .77 0c2.29.24 4.23 1.55 5.93 4 2 2.89 3.56 4.28 5 4.84-1.39-.63-2.93-2.02-4.93-4.88zM21.19 17.46c-1.71-2.46-3.66-3.77-6-4a7.25 7.25 0 0 0-.77 0c-4.76 0-10.22 4.42-15.67 9.42v.06c5.79-5.32 11.56-9.94 16.48-9.45 2.29.24 4.23 1.55 5.93 4 2 2.86 3.53 4.26 5 4.82v-.05c-1.46-.57-2.99-1.96-4.97-4.8zM21.23 17.52c-1.71-2.46-3.66-3.77-6-4a7.25 7.25 0 0 0-.77 0c-4.77 0-10.25 4.45-15.71 9.45v.03c5.8-5.31 11.58-10 16.52-9.45 2.29.24 4.23 1.55 5.93 4 2 2.84 3.5 4.23 4.93 4.81v-.06c-1.42-.58-2.94-1.97-4.9-4.78zM21.27 17.57c-1.71-2.46-3.66-3.77-6-4a7.25 7.25 0 0 0-.77 0c-4.74-.05-10.23 4.43-15.71 9.43v.06c5.77-5.3 11.57-10 16.51-9.46 2.29.24 4.22 1.55 5.93 4 2 2.81 3.48 4.21 4.89 4.79v-.05c-1.4-.59-2.91-1.98-4.85-4.77zM21.31 17.63c-1.71-2.46-3.66-3.77-6-4a7.25 7.25 0 0 0-.77 0c-4.79 0-10.3 4.49-15.78 9.52v.06c5.79-5.31 11.6-10 16.55-9.5 2.29.24 4.23 1.55 5.93 4 1.94 2.79 3.45 4.18 4.86 4.78v-.05c-1.37-.66-2.87-2.05-4.79-4.81zM21.34 17.68c-1.71-2.45-3.66-3.77-6-4a7.5 7.5 0 0 0-.77 0c-4.8 0-10.32 4.51-15.82 9.56v.06c5.8-5.33 11.62-10.06 16.59-9.53 2.29.24 4.22 1.55 5.92 4 1.92 2.76 3.42 4.16 4.82 4.76v-.05c-1.34-.67-2.83-2.06-4.74-4.8zM21.38 17.74c-1.71-2.46-3.66-3.77-6-4a7.5 7.5 0 0 0-.77 0c-4.81 0-10.35 4.53-15.86 9.59v.06c5.51-5.07 11.05-9.61 15.86-9.61a7.42 7.42 0 0 1 .77 0c2.29.24 4.23 1.55 5.93 4 1.91 2.74 3.4 4.13 4.78 4.74v-.05c-1.34-.63-2.82-2.02-4.71-4.73zM21.42 17.79c-1.71-2.46-3.66-3.77-6-4a7.51 7.51 0 0 0-.77 0c-4.82 0-10.37 4.55-15.9 9.63v.06c5.82-5.35 11.67-10.13 16.66-9.6 2.29.24 4.23 1.55 5.93 4 1.89 2.71 3.37 4.11 4.74 4.73v-.05c-1.32-.69-2.79-2.08-4.66-4.77zM21.46 17.85c-1.71-2.46-3.66-3.77-6-4a7.5 7.5 0 0 0-.77 0c-4.84 0-10.4 4.57-15.93 9.66v.06c5.83-5.37 11.7-10.17 16.7-9.64 2.29.24 4.22 1.55 5.93 4 1.87 2.69 3.34 4.08 4.71 4.71v-.05c-1.33-.69-2.79-2.08-4.64-4.74zM21.5 17.9c-1.71-2.46-3.66-3.77-6-4a7.54 7.54 0 0 0-.77 0c-4.85 0-10.43 4.59-16 9.7v.06c5.85-5.38 11.73-10.2 16.74-9.67 2.29.24 4.23 1.55 5.92 4 1.85 2.66 3.31 4.05 4.67 4.69v-.05c-1.28-.7-2.72-2.09-4.56-4.73zM21.54 18c-1.71-2.46-3.66-3.77-6-4a7.26 7.26 0 0 0-.77 0c-4.86 0-10.45 4.61-16 9.73v.06c5.88-5.49 11.78-10.33 16.8-9.79 2.29.24 4.22 1.55 5.92 4 1.84 2.64 3.29 4 4.63 4.67v-.07c-1.33-.6-2.76-2.03-4.58-4.6zM21.57 18c-1.71-2.46-3.66-3.77-6-4a7.54 7.54 0 0 0-.77 0c-4.87 0-10.48 4.63-16 9.77v.06c5.57-5.18 11.2-9.83 16.04-9.83a7.42 7.42 0 0 1 .77 0c2.29.24 4.22 1.55 5.92 4 1.82 2.61 3.26 4 4.59 4.65v-.05c-1.31-.6-2.74-2-4.55-4.6zM21.61 18.06c-1.71-2.46-3.66-3.77-6-4a7.24 7.24 0 0 0-.77 0c-4.84-.06-10.46 4.61-16.05 9.75v.06c5.89-5.42 11.81-10.3 16.86-9.77 2.29.24 4.22 1.55 5.92 4s3.23 4 4.55 4.64v-.06c-1.3-.68-2.72-2.05-4.51-4.62zM21.65 18.12c-1.71-2.46-3.66-3.77-6-4a7.26 7.26 0 0 0-.77 0c-4.88-.05-10.49 4.62-16.09 9.78v.1c5.9-5.44 11.84-10.35 16.89-9.81 2.29.24 4.22 1.55 5.92 4s3.2 3.95 4.52 4.62v-.06c-1.29-.75-2.7-2.09-4.47-4.63zM21.69 18.18c-1.71-2.46-3.66-3.77-6-4a7.26 7.26 0 0 0-.77 0c-4.9 0-10.55 4.7-16.16 9.87v.06c5.91-5.45 11.87-10.38 16.93-9.85 2.29.24 4.22 1.55 5.92 4s3.18 3.92 4.48 4.6v-.06c-1.25-.73-2.65-2.11-4.4-4.62zM21.73 18.23c-1.71-2.46-3.66-3.77-6-4a7.26 7.26 0 0 0-.77 0c-4.91 0-10.58 4.72-16.2 9.91v.06c5.92-5.47 11.89-10.42 17-9.88 2.29.24 4.22 1.55 5.92 4s3.15 3.9 4.44 4.58v-.06c-1.27-.74-2.66-2.12-4.39-4.61zM21.76 18.28c-1.71-2.46-3.66-3.77-6-4a7.25 7.25 0 0 0-.77 0c-4.92 0-10.6 4.74-16.24 9.94v.07c5.93-5.48 11.92-10.45 17-9.92 2.29.24 4.22 1.55 5.92 4s3.12 3.87 4.4 4.56v-.06c-1.21-.75-2.59-2.12-4.31-4.59zM21.8 18.34c-1.71-2.46-3.66-3.77-6-4a7.29 7.29 0 0 0-.77 0c-4.93 0-10.63 4.76-16.28 10v.07c5.95-5.49 11.95-10.49 17-10 2.29.24 4.22 1.55 5.92 4s3.09 3.84 4.36 4.54v-.06a14.28 14.28 0 0 1-4.23-4.55zM21.84 18.39c-1.71-2.46-3.66-3.77-6-4a7.25 7.25 0 0 0-.77 0c-4.95 0-10.65 4.78-16.31 10v.07c6-5.51 12-10.53 17.08-10 2.29.24 4.22 1.55 5.92 4a14.38 14.38 0 0 0 4.33 4.52v-.06a14.38 14.38 0 0 1-4.25-4.53zM21.88 18.45c-1.71-2.46-3.66-3.77-6-4a7.28 7.28 0 0 0-.77 0c-5 0-10.68 4.8-16.35 10v.07c6-5.52 12-10.56 17.12-10 2.29.24 4.22 1.55 5.92 4a14.51 14.51 0 0 0 4.33 4.48v-.06a14.52 14.52 0 0 1-4.25-4.49zM21.92 18.5c-1.71-2.46-3.66-3.77-6-4a7.23 7.23 0 0 0-.77 0c-5 0-10.71 4.82-16.39 10.08v.07c6-5.54 12-10.6 17.16-10.06 2.29.24 4.22 1.55 5.92 4a14.67 14.67 0 0 0 4.29 4.41v-.06a14.67 14.67 0 0 1-4.21-4.44zM22 18.56c-1.71-2.46-3.66-3.77-6-4a7.23 7.23 0 0 0-.77 0c-5 0-10.73 4.85-16.43 10.12v.07c5.7-5.28 11.46-10.13 16.43-10.13a7.42 7.42 0 0 1 .77 0c2.29.24 4.22 1.55 5.92 4a14.79 14.79 0 0 0 4.21 4.38 14.79 14.79 0 0 1-4.13-4.44zM22 18.61c-1.71-2.46-3.66-3.77-6-4a7.24 7.24 0 0 0-.77 0c-5 0-10.76 4.87-16.47 10.15v.07c6.04-5.61 12.12-10.72 17.24-10.18 2.29.24 4.22 1.55 5.92 4a14.94 14.94 0 0 0 4.17 4.43v-.08a14.94 14.94 0 0 1-4.09-4.39zM22 18.67c-1.71-2.46-3.66-3.77-6-4a7.23 7.23 0 0 0-.77 0c-5 0-10.78 4.89-16.51 10.19v.07c6-5.58 12.11-10.71 17.27-10.16 2.29.24 4.22 1.55 5.92 4a15.1 15.1 0 0 0 4.14 4.41v-.18a15.12 15.12 0 0 1-4.05-4.33zM22.07 18.72c-1.71-2.46-3.66-3.77-6-4a7.54 7.54 0 0 0-.77 0c-5 0-10.81 4.91-16.54 10.22v.06c5.74-5.32 11.54-10.24 16.54-10.24a7.18 7.18 0 0 1 .77 0c2.29.24 4.22 1.55 5.92 4a15.22 15.22 0 0 0 4.1 4.38v-.06a15.22 15.22 0 0 1-4.02-4.36zM22.11 18.78c-1.71-2.46-3.66-3.77-6-4a7.54 7.54 0 0 0-.77 0c-5 0-10.83 4.93-16.58 10.26v.07c6-5.6 12.16-10.78 17.35-10.24 2.29.24 4.22 1.55 5.92 4a15.35 15.35 0 0 0 4.06 4.36v-.13a15.37 15.37 0 0 1-3.98-4.32zM22.15 18.83c-1.71-2.46-3.66-3.77-6-4a7.51 7.51 0 0 0-.77 0c-5 0-10.86 5-16.62 10.29v.07c6.09-5.67 12.24-10.87 17.42-10.32 2.29.24 4.22 1.55 5.92 4a15.51 15.51 0 0 0 4 4.34v-.06a15.54 15.54 0 0 1-3.95-4.32zM22.18 18.89c-1.71-2.46-3.66-3.77-6-4a7.51 7.51 0 0 0-.77 0c-5 0-10.89 5-16.66 10.33v.07c6.11-5.69 12.25-10.91 17.47-10.36 2.29.24 4.22 1.55 5.92 4a15.65 15.65 0 0 0 4 4.31v-.07a15.64 15.64 0 0 1-3.96-4.28zM22.22 18.94c-1.71-2.46-3.66-3.77-6-4a7.52 7.52 0 0 0-.77 0c-5.06 0-10.91 5-16.69 10.36v.07c6.12-5.69 12.24-10.94 17.5-10.37 2.29.24 4.22 1.55 5.92 4a15.78 15.78 0 0 0 3.95 4.29v-.06a15.82 15.82 0 0 1-3.91-4.29zM22.26 19c-1.71-2.46-3.66-3.77-6-4h-.77c-5.07 0-10.94 5-16.73 10.4v.07c5.83-5.47 11.71-10.47 16.77-10.47a7.17 7.17 0 0 1 .77 0c2.29.24 4.22 1.55 5.92 4a16 16 0 0 0 3.91 4.26v-.07a16 16 0 0 1-3.87-4.19zM22.3 19.05c-1.71-2.46-3.66-3.77-6-4a7.29 7.29 0 0 0-.77 0c-5.08 0-11 5-16.77 10.43v.07c6.11-5.67 12.3-11 17.54-10.41 2.29.24 4.22 1.55 5.92 4a16.1 16.1 0 0 0 3.87 4.24v-.07a16.14 16.14 0 0 1-3.79-4.26zM22.34 19.11c-1.71-2.46-3.66-3.77-6-4a7.29 7.29 0 0 0-.77 0c-5.09 0-11 5.06-16.81 10.47v.07c6.12-5.68 12.33-11 17.58-10.45 2.29.24 4.22 1.55 5.92 4a16.29 16.29 0 0 0 3.83 4.21v-.07a16.31 16.31 0 0 1-3.75-4.23zM22.38 19.16c-1.71-2.46-3.66-3.77-6-4a7.29 7.29 0 0 0-.77 0c-5.1 0-11 5.08-16.85 10.5v.07c6.13-5.7 12.35-11 17.61-10.48 2.29.24 4.22 1.55 5.92 4a16.39 16.39 0 0 0 3.8 4.18v-.07a16.41 16.41 0 0 1-3.71-4.2zM22.43 19.19c-1.73-2.49-3.69-3.81-6-4.06a7.39 7.39 0 0 0-.77 0c-5.12 0-11 5.13-16.86 10.57v.07c6.12-5.77 12.34-11.14 17.62-10.58 2.3.24 4.25 1.56 6 4a16.79 16.79 0 0 0 3.74 4.15v-.04a16.84 16.84 0 0 1-3.73-4.11zM22.49 19.22c-1.75-2.52-3.73-3.86-6.06-4.1a7.28 7.28 0 0 0-.76 0c-5.14 0-11.06 5.18-16.88 10.64v.07c6.11-5.74 12.33-11.17 17.63-10.62 2.32.24 4.29 1.57 6 4.08a17.14 17.14 0 0 0 3.68 4.11v-.07a17.19 17.19 0 0 1-3.61-4.11zM22.55 19.24c-1.76-2.55-3.76-3.9-6.11-4.14a7.14 7.14 0 0 0-.75 0c-5.16 0-11.08 5.22-16.89 10.72v.07c6.1-5.81 12.31-11.29 17.64-10.74 2.33.24 4.32 1.59 6.07 4.12a17.45 17.45 0 0 0 3.62 4.08v-.07a17.53 17.53 0 0 1-3.58-4.04zM22.61 19.27c-1.78-2.58-3.8-3.95-6.16-4.19a7.32 7.32 0 0 0-.75 0c-5.18-.08-11.1 5.24-16.91 10.76h.06c6.07-5.77 12.26-11.26 17.59-10.71 2.35.24 4.35 1.6 6.12 4.17a17.7 17.7 0 0 0 3.56 4v-.06a17.89 17.89 0 0 1-3.51-3.97zM-1.08 25.85c6-5.77 12.2-11.27 17.54-10.73 2.36.24 4.38 1.62 6.17 4.21a18.1 18.1 0 0 0 3.5 4v-.07a18.12 18.12 0 0 1-3.45-4c-1.8-2.61-3.83-4-6.21-4.23h-.74c-5.2-.03-11.1 5.29-16.89 10.82zM-1 25.85c5.74-5.51 11.59-10.78 16.76-10.78a7.25 7.25 0 0 1 .73 0c2.38.24 4.42 1.63 6.22 4.25a18.57 18.57 0 0 0 3.44 4v-.07a18.6 18.6 0 0 1-3.39-3.92c-1.82-2.64-3.87-4-6.26-4.28h-.73c-5.2 0-11.07 5.3-16.83 10.83zM-1 25.85c6-5.77 12.09-11.29 17.43-10.76 2.39.24 4.45 1.64 6.28 4.3a18.8 18.8 0 0 0 3.38 3.92v-.07a19 19 0 0 1-3.33-3.88c-1.76-2.68-3.87-4.09-6.28-4.36h-.73c-5.2 0-11.05 5.31-16.75 10.85zM-.9 25.85c6-5.77 12-11.31 17.38-10.78 2.41.24 4.48 1.66 6.33 4.34a19.21 19.21 0 0 0 3.32 3.86v-.07a19.31 19.31 0 0 1-3.27-3.82c-1.86-2.7-3.94-4.13-6.37-4.38h-.72c-5.2 0-11 5.33-16.74 10.87zM-.83 25.85c5.93-5.78 12-11.32 17.33-10.8 2.42.24 4.51 1.67 6.37 4.39a19.51 19.51 0 0 0 3.26 3.81v-.07a19.53 19.53 0 0 1-3.21-3.77c-1.87-2.73-4-4.17-6.41-4.41h-.71c-5.2 0-11 5.34-16.7 10.88zM-.77 25.85c5.64-5.53 11.4-10.85 16.57-10.85h.7c2.44.24 4.54 1.68 6.43 4.43a19.76 19.76 0 0 0 3.2 3.77v-.07a20 20 0 0 1-3.13-3.7c-1.89-2.76-4-4.22-6.46-4.45h-.71c-5.21 0-11 5.35-16.65 10.9zM-.71 25.85c5.62-5.53 11.35-10.85 16.53-10.85h.69c2.45.23 4.57 1.7 6.48 4.48a20.1 20.1 0 0 0 3.14 3.73v-.07a20.13 20.13 0 0 1-3.13-3.68c-1.91-2.79-4-4.26-6.52-4.5h-.7c-5.21 0-11 5.36-16.61 10.92zM-.65 25.85c5.84-5.78 11.82-11.36 17.17-10.85 2.47.23 4.6 1.71 6.53 4.52a20.53 20.53 0 0 0 3.08 3.68v-.07a20.54 20.54 0 0 1-3-3.63c-1.93-2.82-4.08-4.31-6.57-4.54h-.69c-5.21 0-10.95 5.38-16.56 10.93zM-.58 25.85c5.58-5.54 11.25-10.85 16.43-10.85h.68c2.48.23 4.63 1.73 6.58 4.56a20.82 20.82 0 0 0 3 3.63v-.07a20.9 20.9 0 0 1-3-3.59c-2-2.85-4.12-4.35-6.62-4.59h-.68c-5.21 0-10.93 5.39-16.51 10.95zM-.52 25.85c5.78-5.79 11.7-11.38 17.06-10.85 2.5.23 4.66 1.74 6.63 4.61a21 21 0 0 0 3 3.57v-.07a21.14 21.14 0 0 1-2.91-3.53c-2-2.88-4.15-4.4-6.67-4.63h-.67c-5.21 0-10.91 5.4-16.47 11zM-.46 25.85c5.52-5.55 11.17-10.93 16.35-10.93h.66c2.51.23 4.7 1.75 6.68 4.65a21.37 21.37 0 0 0 2.9 3.52v-.07a21.42 21.42 0 0 1-2.85-3.48c-2-2.92-4.19-4.45-6.72-4.68h-.67c-5.22 0-10.89 5.41-16.42 11zM-.39 25.85c5.72-5.79 11.59-11.4 17-10.92 2.53.23 4.73 1.76 6.73 4.7a21.66 21.66 0 0 0 2.84 3.47v-.1a21.84 21.84 0 0 1-2.79-3.43c-2-2.95-4.22-4.49-6.76-4.72h-.66c-5.22 0-10.87 5.42-16.38 11zM-.33 25.85c5.69-5.79 11.53-11.41 16.9-10.93 2.54.23 4.76 1.78 6.78 4.74a21.9 21.9 0 0 0 2.78 3.41v-.07a22.11 22.11 0 0 1-2.73-3.37c-2-3-4.26-4.54-6.82-4.77h-.65c-5.22 0-10.84 5.44-16.33 11zM-.26 25.85c5.67-5.79 11.48-11.43 16.85-11 2.56.23 4.79 1.79 6.83 4.79a22.23 22.23 0 0 0 2.71 3.36 22.24 22.24 0 0 1-2.67-3.32c-2-3-4.29-4.59-6.87-4.81h-.64c-5.22 0-10.82 5.45-16.28 11zM-.2 25.85c5.42-5.57 11-11 16.16-11h.63c2.57.22 4.82 1.8 6.88 4.83a22.77 22.77 0 0 0 2.66 3.32v-.08a22.74 22.74 0 0 1-2.62-3.27c-2.07-3-4.33-4.63-6.91-4.86h-.63c-5.23 0-10.8 5.46-16.24 11.05zM-.13 25.85c5.39-5.57 10.92-11 16.11-11h.62c2.58.22 4.85 1.82 6.92 4.88a23 23 0 0 0 2.61 3.27v-.07a23.28 23.28 0 0 1-2.56-3.21c-2.08-3.08-4.36-4.68-7-4.9h-.63c-5.23 0-10.78 5.47-16.19 11.07zM-.07 25.85c5.37-5.58 10.87-11 16.07-11h.61c2.6.22 4.88 1.83 7 4.92a23.21 23.21 0 0 0 2.52 3.23v-.07a23.48 23.48 0 0 1-2.5-3.15c-2.11-3.11-4.4-4.73-7-4.95h-.62c-5.23 0-10.76 5.49-16.14 11.09zM0 25.85c5.55-5.8 11.25-11.47 16.63-11 2.61.22 4.91 1.84 7 5a23.67 23.67 0 0 0 2.48 3.14v-.08a23.8 23.8 0 0 1-2.44-3.09c-2.12-3.14-4.44-4.77-7.06-5h-.61c-5.23 0-10.73 5.5-16.09 11.1zM.06 25.85c5.32-5.59 10.78-11.07 16-11.07h.6c2.62.22 4.94 1.86 7.07 5a23.84 23.84 0 0 0 2.42 3.08v-.08a24.07 24.07 0 0 1-2.38-3c-2.14-3.17-4.47-4.82-7.11-5h-.6c-5.23 0-10.71 5.51-16 11.12zM.13 25.85c5.29-5.59 10.73-11.08 15.93-11.08h.59c2.64.21 5 1.87 7.12 5.06a24.15 24.15 0 0 0 2.36 3v-.08a24.35 24.35 0 0 1-2.32-3c-2.16-3.2-4.51-4.87-7.16-5.08h-.59c-5.23 0-10.69 5.52-16 11.14zM.2 25.85c5.27-5.6 10.68-11.1 15.88-11.1h.58c2.65.21 5 1.88 7.17 5.11a24.65 24.65 0 0 0 2.3 3v-.08a24.39 24.39 0 0 1-2.26-2.91c-2.18-3.24-4.54-4.91-7.21-5.13h-.58c-5.23 0-10.67 5.54-16 11.15zM.27 25.85c5.24-5.61 10.63-11.12 15.83-11.12h.57c2.67.21 5 1.9 7.22 5.15a24.76 24.76 0 0 0 2.24 2.89v-.08a24.8 24.8 0 0 1-2.2-2.84c-2.2-3.27-4.58-5-7.26-5.17h-.57c-5.23 0-10.64 5.55-15.9 11.17zM.33 25.85c5.4-5.81 11-11.54 16.34-11.12 2.68.21 5.06 1.91 7.27 5.2a25.15 25.15 0 0 0 2.18 2.84v-.09a25.27 25.27 0 0 1-2.12-2.78c-2.22-3.3-4.61-5-7.31-5.22h-.56c-5.25-.02-10.63 5.54-15.87 11.17zM.4 25.85c5.38-5.85 10.91-11.55 16.29-11.14 2.69.21 5.09 1.92 7.32 5.24a25.45 25.45 0 0 0 2.12 2.77v-.08a25.65 25.65 0 0 1-2.08-2.72c-2.24-3.34-4.65-5.06-7.36-5.27h-.56c-5.24 0-10.6 5.57-15.81 11.21zM.47 25.85c5.16-5.62 10.53-11.17 15.68-11.17h.54c2.7.21 5.12 1.94 7.37 5.29a25.85 25.85 0 0 0 2.06 2.71v-.08a25.75 25.75 0 0 1-2-2.65c-2.26-3.37-4.69-5.11-7.41-5.31h-.54c-2.38 0-5 1.17-8 3.57a75.24 75.24 0 0 0-7.77 7.64zM.54 25.85c5.14-5.63 10.46-11.19 15.63-11.19h.53c2.72.2 5.14 1.95 7.42 5.34a26 26 0 0 0 2 2.64v-.08a26.41 26.41 0 0 1-2-2.59c-2.28-3.4-4.72-5.16-7.46-5.36h-.53c-2.38 0-5 1.17-8 3.58a74.88 74.88 0 0 0-7.67 7.66zM.61 25.85c5.11-5.63 10.39-11.21 15.59-11.21h.52c2.73.2 5.17 2 7.47 5.38a26.47 26.47 0 0 0 1.94 2.57v-.08a26.5 26.5 0 0 1-1.9-2.51c-2.3-3.44-4.76-5.2-7.51-5.41h-.52c-2.38 0-5 1.17-8 3.58a74.39 74.39 0 0 0-7.67 7.68zM.67 25.85a73.87 73.87 0 0 1 7.65-7.65c3.16-2.57 5.91-3.74 8.41-3.56 2.74.2 5.2 2 7.52 5.43a26.36 26.36 0 0 0 1.88 2.5v-.07a26.87 26.87 0 0 1-1.84-2.5c-2.32-3.47-4.79-5.25-7.56-5.45h-.51c-2.37 0-5 1.18-7.94 3.59a74 74 0 0 0-7.68 7.71zM.74 25.85a73.45 73.45 0 0 1 7.62-7.67c3.15-2.57 5.89-3.74 8.38-3.56 2.76.2 5.23 2 7.56 5.47a27.05 27.05 0 0 0 1.82 2.44v-.08a27.07 27.07 0 0 1-1.78-2.38c-2.34-3.5-4.83-5.3-7.6-5.5h-.5c-2.37 0-5 1.18-7.92 3.59a73.84 73.84 0 0 0-7.65 7.69zM.81 25.85a73 73 0 0 1 7.59-7.68c3.13-2.57 5.86-3.74 8.35-3.56 2.77.19 5.26 2 7.61 5.52a27.65 27.65 0 0 0 1.76 2.37v-.08a27.51 27.51 0 0 1-1.72-2.32c-2.36-3.54-4.87-5.35-7.65-5.54h-.49c-2.37 0-5 1.18-7.9 3.59a73.42 73.42 0 0 0-7.62 7.7zM.88 25.85a72.85 72.85 0 0 1 7.56-7.7c3.11-2.57 5.84-3.74 8.32-3.57 2.78.19 5.29 2 7.66 5.57a28 28 0 0 0 1.7 2.3v-.08c-.54-.66-1.1-1.41-1.66-2.25-2.38-3.57-4.9-5.4-7.7-5.59h-.48c-2.37 0-5 1.18-7.88 3.6a73.18 73.18 0 0 0-7.6 7.74zM1 25.85a72.52 72.52 0 0 1 7.53-7.71c3.1-2.57 5.81-3.74 8.29-3.57 2.79.19 5.32 2 7.71 5.61.56.83 1.1 1.57 1.64 2.23v-.09c-.53-.64-1.06-1.36-1.6-2.17-2.4-3.6-4.94-5.45-7.75-5.64h-.47c-2.37 0-4.94 1.18-7.86 3.6a72.79 72.79 0 0 0-7.61 7.74zM1 25.85a72.24 72.24 0 0 1 7.5-7.72c3.08-2.57 5.79-3.74 8.26-3.58 2.81.19 5.34 2 7.76 5.66.53.8 1.06 1.51 1.58 2.15v-.08c-.51-.63-1-1.32-1.54-2.1-2.42-3.64-5-5.5-7.8-5.68h-.46c-2.37 0-4.94 1.18-7.84 3.61a72.46 72.46 0 0 0-7.46 7.74zM1.1 25.85a71.8 71.8 0 0 1 7.47-7.74c3.07-2.57 5.76-3.75 8.23-3.58 2.82.18 5.37 2 7.81 5.71.51.77 1 1.46 1.52 2.08v-.08c-.49-.61-1-1.28-1.48-2-2.44-3.67-5-5.55-7.85-5.73h-.45c-2.36 0-4.93 1.19-7.82 3.61a72.36 72.36 0 0 0-7.53 7.73zM1.17 25.85a71.5 71.5 0 0 1 7.44-7.75c3.05-2.57 5.73-3.74 8.2-3.59 2.83.18 5.4 2.06 7.85 5.75q.74 1.1 1.46 2v-.09q-.71-.88-1.42-2c-2.47-3.71-5-5.59-7.9-5.78h-.44c-2.36 0-4.92 1.19-7.8 3.62a72 72 0 0 0-7.46 7.84zM1.24 25.85a71.35 71.35 0 0 1 7.41-7.76c2.86-2.42 5.4-3.61 7.75-3.61h.43c2.84.18 5.43 2.07 7.9 5.8.48.72.94 1.36 1.4 1.94v-.09c-.44-.56-.9-1.19-1.36-1.88-2.49-3.74-5.08-5.64-7.94-5.82h-.43c-2.36 0-4.91 1.19-7.78 3.62a71.53 71.53 0 0 0-7.44 7.8zM1.31 25.85a70.83 70.83 0 0 1 7.38-7.78c3-2.57 5.69-3.75 8.15-3.6 2.85.17 5.45 2.09 8 5.85.46.69.9 1.31 1.34 1.87v-.09q-.64-.81-1.3-1.81c-2.51-3.77-5.12-5.69-8-5.87h-.42c-2.36 0-4.9 1.19-7.76 3.63a71.3 71.3 0 0 0-7.41 7.82zM1.38 25.85a70.68 70.68 0 0 1 7.35-7.79c2.84-2.43 5.37-3.62 7.71-3.62h.41c2.87.17 5.48 2.1 8 5.89.43.65.86 1.24 1.28 1.79v-.12q-.61-.79-1.24-1.73c-2.53-3.81-5.16-5.74-8-5.91h-.41c-2.36 0-4.89 1.19-7.74 3.63a71 71 0 0 0-7.38 7.83zM1.45 25.85a70.46 70.46 0 0 1 7.32-7.85c3-2.57 5.63-3.75 8.09-3.61 2.88.17 5.51 2.11 8 5.94.41.62.82 1.18 1.22 1.71v-.04c-.39-.51-.78-1.06-1.18-1.65-2.55-3.84-5.19-5.79-8.09-6h-.4c-2.35 0-4.89 1.19-7.73 3.64a70.77 70.77 0 0 0-7.35 7.85zM1.53 25.85a70.1 70.1 0 0 1 7.28-7.85c3-2.57 5.61-3.76 8.06-3.62 2.89.16 5.54 2.12 8.1 6 .39.59.78 1.13 1.16 1.63v-.09c-.37-.49-.75-1-1.12-1.58-2.57-3.88-5.23-5.84-8.14-6h-.39c-2.35 0-4.88 1.19-7.71 3.64a70.48 70.48 0 0 0-7.32 7.86zM1.6 25.85a69.86 69.86 0 0 1 7.25-7.85c3-2.57 5.59-3.76 8-3.62 2.9.16 5.56 2.13 8.14 6 .37.56.74 1.07 1.1 1.56v-.09c-.35-.47-.71-1-1.06-1.5-2.59-3.91-5.27-5.89-8.18-6.06h-.35c-2.35 0-4.87 1.2-7.69 3.65a70.13 70.13 0 0 0-7.28 7.87zM1.67 25.85a69.63 69.63 0 0 1 7.22-7.85c2.94-2.57 5.56-3.76 8-3.63 2.91.16 5.59 2.15 8.19 6.08.35.53.7 1 1 1.48v-.09q-.5-.67-1-1.42c-2.61-3.95-5.3-5.94-8.23-6.1h-.37c-2.35 0-4.86 1.2-7.67 3.65a69.86 69.86 0 0 0-7.21 7.88zM1.75 25.85a69.26 69.26 0 0 1 7.18-7.85c2.93-2.58 5.54-3.77 8-3.64 2.92.15 5.62 2.16 8.24 6.13q.5.75 1 1.4v-.09c-.31-.42-.63-.87-.94-1.34-2.63-4-5.34-6-8.28-6.15h-.36c-2.35 0-4.85 1.2-7.65 3.66a69.65 69.65 0 0 0-7.22 7.9zM1.82 25.85a69 69 0 0 1 7.18-7.85c2.91-2.58 5.51-3.76 7.94-3.64 2.93.15 5.64 2.17 8.29 6.17q.47.71.92 1.32v-.09c-.29-.39-.58-.81-.88-1.26-2.65-4-5.38-6-8.33-6.2h-.35c-2.34 0-4.85 1.2-7.63 3.66a69.4 69.4 0 0 0-7.19 7.91zM1.9 25.85a68.74 68.74 0 0 1 7.1-7.85c2.9-2.58 5.49-3.77 7.91-3.65 2.94.15 5.67 2.18 8.33 6.22.29.44.58.85.86 1.24v-.09q-.41-.56-.82-1.18c-2.67-4.05-5.41-6.1-8.37-6.24h-.34c-2.34 0-4.84 1.2-7.61 3.67a69.11 69.11 0 0 0-7.15 7.92zM2 25.85a68.52 68.52 0 0 1 7.09-7.9c2.88-2.58 5.46-3.77 7.88-3.66 3 .14 5.7 2.19 8.38 6.27.27.41.54.79.8 1.16v-.09c-.25-.35-.51-.71-.76-1.1-2.69-4.09-5.45-6.15-8.42-6.29h-.33c-2.34 0-4.83 1.21-7.59 3.68a68.71 68.71 0 0 0-7.15 7.93zM2 25.85a68.34 68.34 0 0 1 7.1-7.92c2.9-2.57 5.44-3.77 7.9-3.66 3 .14 5.72 2.2 8.43 6.31.25.38.5.73.74 1.08v-.09l-.7-1c-2.71-4.12-5.49-6.2-8.47-6.34h-.32c-2.34 0-4.82 1.21-7.57 3.68a68.45 68.45 0 0 0-7.09 8zM2.12 25.85a68.06 68.06 0 0 1 7-7.92c2.73-2.47 5.2-3.67 7.52-3.67h.36c3 .14 5.75 2.22 8.47 6.36l.68 1v-.09c-.21-.3-.43-.61-.64-.93-2.76-4.17-5.51-6.26-8.51-6.4h-.31c-2.34 0-4.81 1.21-7.56 3.69a68.35 68.35 0 0 0-7.05 8zM2.2 25.85a67.78 67.78 0 0 1 7-7.94c2.84-2.58 5.39-3.79 7.8-3.68 3 .13 5.77 2.23 8.52 6.41.21.32.42.62.63.91v-.09c-.19-.27-.39-.56-.58-.85a18.42 18.42 0 0 0-4.35-4.85 7.75 7.75 0 0 0-4.22-1.58h-.3c-2.34 0-4.81 1.21-7.54 3.7a68.1 68.1 0 0 0-7 8zM2.27 25.85c4.42-5.61 9.41-11.85 14.73-11.64 3 .13 5.8 2.24 8.57 6.46q.28.43.56.83v-.09l-.52-.77a18.59 18.59 0 0 0-4.38-4.89 7.76 7.76 0 0 0-4.23-1.59h-.29c-2.33 0-4.8 1.21-7.52 3.7a67.75 67.75 0 0 0-7 8zM2.35 25.85c4.39-5.62 9.35-11.85 14.65-11.66 3 .12 5.83 2.25 8.62 6.5l.5.75v-.09l-.46-.68a18.72 18.72 0 0 0-4.41-4.93 7.77 7.77 0 0 0-4.25-1.6h-.28c-2.33 0-4.79 1.22-7.5 3.71a67.62 67.62 0 0 0-7 8zM2.42 25.85c4.29-5.52 9.13-11.68 14.33-11.68h.25c3 .12 5.85 2.26 8.66 6.55l.45.66v-.09l-.4-.59a18.94 18.94 0 0 0-4.44-5 7.78 7.78 0 0 0-4.27-1.58h-.27c-2.33 0-4.78 1.22-7.48 3.72a67.29 67.29 0 0 0-6.92 8zM2.5 25.85c4.26-5.53 9.08-11.7 14.28-11.7h.22c3 .12 5.87 2.27 8.71 6.6l.39.57v-.09l-.34-.5a19.05 19.05 0 0 0-4.47-5 7.77 7.77 0 0 0-4.29-1.63h-.25c-5.24 0-10.07 6.21-14.35 11.75zM2.58 25.85c4.24-5.53 9-11.72 14.23-11.72h.19c3 .11 5.9 2.29 8.75 6.64l.33.48v-.09l-.28-.42a19.25 19.25 0 0 0-4.5-5 7.77 7.77 0 0 0-4.3-1.66h-.24c-5.24 0-10 6.22-14.29 11.77zM2.66 25.85c4.28-5.62 9.11-11.92 14.4-11.73 3 .11 5.92 2.3 8.8 6.69l.27.39v-.1l-.22-.33a19.42 19.42 0 0 0-4.53-5.09 7.77 7.77 0 0 0-4.32-1.63h-.23c-5.24 0-10 6.23-14.24 11.79zM2.73 25.85c4.19-5.54 8.92-11.76 14.12-11.76h.22c3.06.1 5.95 2.31 8.85 6.74l.21.3v-.13l-.13-.2a19.59 19.59 0 0 0-4.55-5.13 7.78 7.78 0 0 0-4.37-1.67h-.22c-5.23 0-10 6.25-14.19 11.81zM2.81 25.85c4.19-5.55 8.87-11.78 14.07-11.78h.21c3.07.1 6 2.32 8.89 6.79l.15.22v-.08l-.1-.15a19.78 19.78 0 0 0-4.58-5.17 7.78 7.78 0 0 0-4.36-1.68h-.21c-5.23 0-10 6.26-14.13 11.83zM2.89 25.85c4.14-5.55 8.82-11.8 14-11.8h.2c3.07.09 6 2.33 8.94 6.83l.09.13v-.16a19.93 19.93 0 0 0-4.61-5.21 7.79 7.79 0 0 0-4.41-1.64h-.2c-5.23 0-9.9 6.27-14.08 11.85zM3 25.85c4.08-5.56 8.73-11.85 13.93-11.85h.19c3.08.09 6 2.34 9 6.88v-.1a20.07 20.07 0 0 0-4.62-5.22 7.79 7.79 0 0 0-4.38-1.56h-.19c-5.23 0-9.93 6.27-14.03 11.85zM3 25.85c4.13-5.63 8.82-12 14.08-11.83 3.08.09 6 2.34 9 6.88v-.1a20.11 20.11 0 0 0-4.59-5.17 7.77 7.77 0 0 0-4.36-1.63h-.13c-5.23 0-9.87 6.3-14 11.89zM3.13 25.85c4.06-5.57 8.66-11.85 13.87-11.85h.17c3.07.08 6 2.32 9 6.84v-.1a20.14 20.14 0 0 0-4.56-5.12 7.78 7.78 0 0 0-4.42-1.67h-.19c-5.23 0-9.84 6.32-13.91 11.91zM3.21 25.85c4.03-5.58 8.6-11.85 13.79-11.85h.16c3.06.08 6 2.3 9 6.8v-.1a20.16 20.16 0 0 0-4.53-5.07 7.78 7.78 0 0 0-4.43-1.68h-.2c-5.22 0-9.81 6.33-13.86 11.93h.06zM3.29 25.85c4.01-5.58 8.55-11.85 13.71-11.85h.15c3 .07 6 2.29 9 6.75v-.1a20.22 20.22 0 0 0-4.5-5 7.78 7.78 0 0 0-4.45-1.68h-.2c-5.22 0-9.77 6.34-13.79 11.93zM3.37 25.85c4-5.59 8.5-11.91 13.68-11.91h.14c3 .07 6 2.27 8.94 6.71v-.1a20.21 20.21 0 0 0-4.47-5 7.79 7.79 0 0 0-4.47-1.69h-.19c-5.21 0-9.73 6.34-13.73 11.94zM3.45 25.85c4-5.59 8.44-11.92 13.62-11.92h.13c3 .06 5.95 2.25 8.92 6.67v-.1a20.23 20.23 0 0 0-4.44-4.93 7.78 7.78 0 0 0-4.48-1.7h-.13c-5.21 0-9.69 6.34-13.66 11.94zM3.53 25.85c3.93-5.59 8.38-11.92 13.55-11.92h.12c3 .05 5.93 2.22 8.91 6.62v-.09a20.27 20.27 0 0 0-4.41-4.88 7.78 7.78 0 0 0-4.5-1.7h-.1c-5.2 0-9.66 6.34-13.59 11.95v.06zM3.61 25.85c3.93-5.64 8.39-11.98 13.52-11.98h.11c3 .05 5.92 2.21 8.89 6.58v-.09a20.32 20.32 0 0 0-4.38-4.83 7.78 7.78 0 0 0-4.51-1.71h-.11c-5.19 0-9.62 6.35-13.53 12l-.05.08zM3.69 25.85v-.06c3.92-5.6 8.31-11.94 13.46-11.94h.09c3 0 5.9 2.19 8.88 6.54v-.09a20.34 20.34 0 0 0-4.35-4.79 7.78 7.78 0 0 0-4.53-1.71h-.1c-5.19 0-9.58 6.35-13.46 12l-.06.09zM3.77 25.85l.05-.07c3.85-5.6 8.2-11.94 13.35-11.94h.08c3 0 5.88 2.17 8.87 6.5v-.09a20.36 20.36 0 0 0-4.32-4.74 7.78 7.78 0 0 0-4.54-1.72h-.09c-5.18 0-9.54 6.35-13.4 12l-.07.11zM3.85 25.85l.06-.09c3.82-5.6 8.14-12 13.29-12h.07c3 0 5.87 2.15 8.85 6.46v-.09a20.39 20.39 0 0 0-4.29-4.7 7.78 7.78 0 0 0-4.56-1.73h-.07c-5.17 0-9.51 6.36-13.33 12l-.08.12zM3.94 25.85l.07-.1c3.79-5.61 8.08-12 13.22-12h.06c3 0 5.85 2.14 8.83 6.42v-.09a20.44 20.44 0 0 0-4.26-4.65 7.78 7.78 0 0 0-4.57-1.73h-.06c-5.17 0-9.47 6.36-13.27 12l-.09.13zM4 25.85l.08-.12c3.76-5.61 8-12 13.16-12h.05c2.94 0 5.84 2.12 8.82 6.38v-.09a20.45 20.45 0 0 0-4.23-4.61 7.77 7.77 0 0 0-4.59-1.74h-.05c-5.16 0-9.43 6.37-13.2 12l-.1.14zM4.1 25.85l.08-.13c3.74-5.61 8-12 13.09-12 2.93 0 5.82 2.1 8.8 6.35v-.07a20.46 20.46 0 0 0-4.2-4.56 7.77 7.77 0 0 0-4.6-1.75c-5.16 0-9.4 6.37-13.14 12l-.1.16zM4.19 25.85l.09-.14c3.71-5.62 7.91-12 13-12a7.72 7.72 0 0 1 4.59 1.74 20.56 20.56 0 0 1 4.26 4.55v-.09a20.45 20.45 0 0 0-4.13-4.48 7.76 7.76 0 0 0-4.62-1.75c-5.15 0-9.36 6.38-13.07 12l-.11.17zM4.27 25.85l.1-.15c3.68-5.62 7.85-12 13-12a7.7 7.7 0 0 1 4.63 1.75 20.55 20.55 0 0 1 4.13 4.55v-.09a20.52 20.52 0 0 0-4.13-4.5 7.75 7.75 0 0 0-4.63-1.76c-5.14 0-9.32 6.38-13 12l-.12.18zM4.35 25.85l.11-.16c3.65-5.62 7.79-12 12.9-12a7.71 7.71 0 0 1 4.64 1.75 20.62 20.62 0 0 1 4.14 4.48v-.09a20.53 20.53 0 0 0-4.14-4.43 7.75 7.75 0 0 0-4.65-1.76c-5.14 0-9.29 6.39-12.95 12l-.13.19zM4.44 25.85l.11-.18c3.63-5.63 7.73-12 12.84-12a7.69 7.69 0 0 1 4.61 1.76 20.6 20.6 0 0 1 4.11 4.44v-.09a20.55 20.55 0 0 0-4.11-4.4 7.75 7.75 0 0 0-4.66-1.77c-2.29 0-4.59 1.29-7 3.93a60.33 60.33 0 0 0-5.86 8.1l-.13.21zM4.52 25.85l.12-.19c3.6-5.63 7.67-12 12.76-12a7.7 7.7 0 0 1 4.6 1.75 20.66 20.66 0 0 1 4.08 4.4v-.09a20.58 20.58 0 0 0-4-4.35 7.75 7.75 0 0 0-4.66-1.78c-2.28 0-4.57 1.29-7 3.94a61 61 0 0 0-5.82 8.1l-.14.22zM4.61 25.85l.13-.2a60.61 60.61 0 0 1 5.76-8.09c2.4-2.64 4.66-3.93 6.93-3.94a7.7 7.7 0 0 1 4.63 1.77 20.66 20.66 0 0 1 4.05 4.35v-.09a20.58 20.58 0 0 0-4-4.3 7.75 7.75 0 0 0-4.67-1.78c-2.28 0-4.56 1.3-7 4a60.71 60.71 0 0 0-5.76 8.1l-.14.23zM4.69 25.85l.13-.21a60.41 60.41 0 0 1 5.71-8.09c2.38-2.64 4.64-3.94 6.9-3.95a7.7 7.7 0 0 1 4.64 1.78 20.66 20.66 0 0 1 4 4.31v-.09a20.61 20.61 0 0 0-4-4.26 7.76 7.76 0 0 0-4.67-1.79c-2.27 0-4.54 1.31-6.94 4a60.49 60.49 0 0 0-5.72 8.09l-.15.23h.06zM4.78 25.85l.13-.22a60.27 60.27 0 0 1 5.67-8.09c2.37-2.65 4.62-3.94 6.87-4a7.7 7.7 0 0 1 4.64 1.78 20.72 20.72 0 0 1 4 4.27v-.09a20.62 20.62 0 0 0-4-4.22 7.76 7.76 0 0 0-4.67-1.79c-2.27 0-4.53 1.32-6.91 4a60.11 60.11 0 0 0-5.64 8.11l-.13.21zM4.86 25.85l.12-.2a59.9 59.9 0 0 1 5.62-8.09c2.36-2.65 4.59-4 6.84-4h.05a7.7 7.7 0 0 1 4.64 1.79 20.68 20.68 0 0 1 4 4.23v-.09a20.68 20.68 0 0 0-3.93-4.18 7.76 7.76 0 0 0-4.68-1.8h-.05c-2.26 0-4.51 1.33-6.88 4a59.89 59.89 0 0 0-5.59 8.08l-.12.2v.06zM4.95 25.85v-.06l.11-.18a59.55 59.55 0 0 1 5.58-8.08c2.34-2.66 4.57-4 6.81-4h.06a7.71 7.71 0 0 1 4.65 1.79 20.72 20.72 0 0 1 3.93 4.19v-.09a20.69 20.69 0 0 0-3.9-4.14 7.75 7.75 0 0 0-4.68-1.81h-.06c-2.26 0-4.5 1.33-6.85 4a59.63 59.63 0 0 0-5.58 8.09l-.11.18-.06.09zM5 25.85l.06-.09.09-.16a59.43 59.43 0 0 1 5.53-8.08c2.33-2.66 4.55-4 6.78-4h.07a7.7 7.7 0 0 1 4.65 1.8 20.7 20.7 0 0 1 3.9 4.14v-.09a20.72 20.72 0 0 0-3.87-4.1 7.76 7.76 0 0 0-4.68-1.81h-.03c-2.25 0-4.49 1.34-6.83 4a59.37 59.37 0 0 0-5.54 8.09l-.13.18v.12zM5.12 25.85l.08-.12.08-.14a59.15 59.15 0 0 1 5.48-8.08c2.31-2.66 4.52-4 6.76-4a7.65 7.65 0 0 1 4.74 1.81 20.8 20.8 0 0 1 3.87 4.1v-.09a20.79 20.79 0 0 0-3.84-4.06 7.76 7.76 0 0 0-4.69-1.82h-.08c-2.25 0-4.47 1.35-6.8 4a59.11 59.11 0 0 0-5.49 8.09l-.08.14-.1.15zM5.2 25.85l.1-.15.07-.11a58.88 58.88 0 0 1 5.44-8.09c2.3-2.67 4.5-4 6.73-4h.09a7.7 7.7 0 0 1 4.66 1.81 20.76 20.76 0 0 1 3.84 4.06v-.09a20.76 20.76 0 0 0-3.81-4 7.77 7.77 0 0 0-4.69-1.82h-.09c-2.24 0-4.46 1.36-6.77 4a58.92 58.92 0 0 0-5.45 8.09l-.07.11-.12.18zM5.29 25.85l.12-.18.06-.09a58.67 58.67 0 0 1 5.39-8.08c2.29-2.67 4.48-4 6.7-4a7.64 7.64 0 0 1 4.76 1.82 20.82 20.82 0 0 1 3.81 4v-.09a20.73 20.73 0 0 0-3.78-4 7.76 7.76 0 0 0-4.69-1.83h-.1c-2.24 0-4.44 1.37-6.74 4a58.62 58.62 0 0 0-5.4 8.09l-.06.09-.13.21zM5.38 25.85l.13-.21v-.07a58.42 58.42 0 0 1 5.35-8.09c2.27-2.67 4.45-4 6.67-4h.11a7.71 7.71 0 0 1 4.66 1.82 20.82 20.82 0 0 1 3.78 4v-.09a20.76 20.76 0 0 0-3.75-3.94 7.76 7.76 0 0 0-4.69-1.83h-.11c-2.23 0-4.43 1.37-6.71 4.06a58.51 58.51 0 0 0-5.35 8.09v.07l-.15.24zM5.46 25.85l.15-.24v-.05a58.09 58.09 0 0 1 5.3-8.09c2.26-2.68 4.43-4 6.64-4.05h.12a7.71 7.71 0 0 1 4.66 1.83 20.85 20.85 0 0 1 3.75 3.94v-.09a20.78 20.78 0 0 0-3.72-3.9 7.76 7.76 0 0 0-4.7-1.84h-.12c-2.23 0-4.41 1.38-6.68 4.07a58.32 58.32 0 0 0-5.26 8.1l-.17.27zM-1.21 24.57v.08c.41.43.82.84 1.22 1.2h.08c-.42-.38-.86-.85-1.3-1.28zM5.55 25.85l.17-.27a58 58 0 0 1 5.28-8.12c2.24-2.68 4.41-4 6.61-4.07a7.62 7.62 0 0 1 4.8 1.83 20.88 20.88 0 0 1 3.72 3.91v-.13a20.81 20.81 0 0 0-3.69-3.86 7.76 7.76 0 0 0-4.7-1.85h-.13c-2.22.05-4.4 1.39-6.65 4.09a57.87 57.87 0 0 0-5.26 8.1l-.18.3zM-1.21 24.39v.08c.47.51.94 1 1.38 1.38h.1c-.48-.43-.98-.93-1.48-1.46zM5.64 25.85l.19-.3a57.78 57.78 0 0 1 5.17-8.1c2.23-2.69 4.38-4 6.59-4.08a7.6 7.6 0 0 1 4.81 1.84 20.88 20.88 0 0 1 3.69 3.87v-.08a20.84 20.84 0 0 0-3.66-3.82 7.76 7.76 0 0 0-4.7-1.85h-.14c-2.22.06-4.39 1.4-6.63 4.1a57.76 57.76 0 0 0-5.22 8.1l-.2.33zM-1.21 24.21v.08c.53.58 1.05 1.1 1.55 1.56h.1c-.54-.48-1.09-1.04-1.65-1.64zM5.73 25.85l.2-.33c3-5.36 6.78-12 11.72-12.16a7.6 7.6 0 0 1 4.82 1.84 20.94 20.94 0 0 1 3.66 3.8v-.09a20.88 20.88 0 0 0-3.63-3.78 7.76 7.76 0 0 0-4.7-1.86h-.15c-2.21.06-4.37 1.4-6.59 4.1a57.31 57.31 0 0 0-5.17 8.09l-.22.36zM-1.21 24v.08c.59.65 1.17 1.24 1.72 1.74h.09c-.6-.49-1.18-1.11-1.81-1.82zM-1.21 23.85v.08c.66.72 1.28 1.38 1.89 1.92h.09a27.31 27.31 0 0 1-1.98-2zM5.81 25.85l.19-.36c3-5.35 6.7-12 11.63-12.16a7.59 7.59 0 0 1 4.83 1.85 20.91 20.91 0 0 1 3.67 3.82v-.09a20.89 20.89 0 0 0-3.6-3.74 7.76 7.76 0 0 0-4.7-1.86h-.16c-4.97.11-8.67 6.79-11.67 12.15l-.23.39zM5.9 25.85l.23-.39c3-5.34 6.63-12 11.55-12.15h.17a7.7 7.7 0 0 1 4.67 1.86 20.92 20.92 0 0 1 3.6 3.75v-.09a20.89 20.89 0 0 0-3.57-3.71 7.75 7.75 0 0 0-4.71-1.87h-.17c-4.94.16-8.67 6.83-11.58 12.18-.08.15-.16.29-.25.42zM-1.21 23.66v.08a28.17 28.17 0 0 0 2.07 2.11h.08a28.2 28.2 0 0 1-2.15-2.19zM-1.21 23.48v.08a29.4 29.4 0 0 0 2.21 2.29h.08a29.4 29.4 0 0 1-2.29-2.37zM6 25.85l.25-.42c2.92-5.33 6.55-12 11.46-12.14h.18a7.7 7.7 0 0 1 4.67 1.86 20.93 20.93 0 0 1 3.57 3.71v-.09a20.88 20.88 0 0 0-3.54-3.67 7.75 7.75 0 0 0-4.71-1.87h-.18c-4.94.17-8.58 6.82-11.51 12.17l-.27.45zM6.08 25.85l.27-.45c2.89-5.33 6.48-12 11.38-12.13a7.56 7.56 0 0 1 4.87 1.86 21 21 0 0 1 3.54 3.67v-.09a20.88 20.88 0 0 0-3.5-3.63 7.75 7.75 0 0 0-4.71-1.88h-.19c-4.95.19-8.55 6.8-11.44 12.17-.09.17-.19.33-.29.48zM-1.21 23.29v.08a30.71 30.71 0 0 0 2.4 2.48h.08a30.45 30.45 0 0 1-2.48-2.56zM6.16 25.85l.29-.48c2.85-5.37 6.4-11.94 11.29-12.12a7.57 7.57 0 0 1 4.88 1.87 21 21 0 0 1 3.51 3.64v-.09a21 21 0 0 0-3.47-3.59 7.75 7.75 0 0 0-4.71-1.88h-.2c-4.93.18-8.49 6.8-11.35 12.14l-.3.51zM-1.21 23.1v.08a31.72 31.72 0 0 0 2.57 2.67h.08a31.68 31.68 0 0 1-2.65-2.75z"/></g><g class="cls-4"><path class="cls-6" d="M6.29 25.85c-.25-2.23.64-4.23 5.09-7.33a10.67 10.67 0 0 0 2.88-2.83 7 7 0 0 0 1.13-3.11 7.46 7.46 0 0 0 0-.79 10.2 10.2 0 0 0-.76-3.79 23.31 23.31 0 0 0-2.73-4.78c-.94-1.33-2-2.68-3.19-4 1.14 1.33 2.23 2.68 3.18 4.01 2.61 3.69 3.75 6.75 3.47 9.34-.24 2.29-1.55 4.23-4 5.93-4.46 3.1-5.35 5.1-5.1 7.34zM6.23 25.85c-.24-2.22.67-4.21 5.1-7.29a10.68 10.68 0 0 0 2.88-2.83 7 7 0 0 0 1.13-3.12 7.5 7.5 0 0 0 0-.79 10.2 10.2 0 0 0-.79-3.74 23.33 23.33 0 0 0-2.73-4.82c-.92-1.34-2.02-2.71-3.19-4.08 1.15 1.38 2.25 2.75 3.2 4.09 2.61 3.73 3.75 6.73 3.47 9.34-.24 2.29-1.55 4.23-4 5.93-4.42 3.09-5.3 5.08-5.1 7.31zM6.17 25.85c-.22-2.2.7-4.19 5.1-7.25a10.68 10.68 0 0 0 2.88-2.83 7 7 0 0 0 1.13-3.12 7.5 7.5 0 0 0 0-.79 10.18 10.18 0 0 0-.79-3.74 23.31 23.31 0 0 0-2.7-4.82c-.95-1.35-2.06-2.73-3.25-4.12 1.16 1.39 2.28 2.82 3.24 4.13 2.61 3.69 3.75 6.75 3.47 9.34-.24 2.29-1.55 4.23-4 5.93-4.41 3.07-5.33 5.06-5.11 7.27zM6.11 25.85c-.21-2.19.73-4.17 5.1-7.21a10.68 10.68 0 0 0 2.88-2.83 7 7 0 0 0 1.13-3.12 7.49 7.49 0 0 0 0-.79 10.18 10.18 0 0 0-.79-3.74 23.3 23.3 0 0 0-2.73-4.82c-.93-1.34-2.05-2.76-3.25-4.16 1.18 1.4 2.3 2.82 3.27 4.17 2.61 3.65 3.75 6.75 3.48 9.33-.24 2.29-1.55 4.23-4 5.93-4.38 3-5.32 5-5.11 7.23zM6.05 25.85c-.19-2.17.76-4.15 5.1-7.17a10.68 10.68 0 0 0 2.85-2.84 7 7 0 0 0 1.13-3.12 7.47 7.47 0 0 0 0-.79 10.18 10.18 0 0 0-.79-3.74 23.3 23.3 0 0 0-2.73-4.82c-.9-1.37-2.03-2.78-3.25-4.19 1.19 1.42 2.33 2.82 3.31 4.21 2.61 3.69 3.75 6.75 3.47 9.34-.24 2.29-1.55 4.23-4 5.93-4.36 3-5.31 5-5.12 7.19zM6 25.85c-.18-2.16.79-4.13 5.11-7.13a10.68 10.68 0 0 0 2.89-2.84 7 7 0 0 0 1.13-3.12 7.47 7.47 0 0 0 0-.79 10.18 10.18 0 0 0-.79-3.74 23.3 23.3 0 0 0-2.73-4.82c-.96-1.41-2.11-2.8-3.33-4.23 1.2 1.43 2.35 2.82 3.33 4.24 2.61 3.69 3.75 6.75 3.47 9.34-.24 2.29-1.55 4.23-4 5.93-4.33 3-5.3 5-5.12 7.15zM5.94 25.85c-.16-2.14.82-4.11 5.11-7.1a10.67 10.67 0 0 0 2.88-2.83 7 7 0 0 0 1.13-3.12 7.47 7.47 0 0 0 0-.79 10.18 10.18 0 0 0-.79-3.74 23.3 23.3 0 0 0-2.73-4.82c-.96-1.45-2.11-2.83-3.35-4.27 1.24 1.44 2.4 2.88 3.4 4.28 2.58 3.7 3.71 6.75 3.41 9.34-.24 2.29-1.55 4.23-4 5.93-4.31 3-5.29 5-5.12 7.12zM5.88 25.85c-.15-2.13.84-4.09 5.11-7.06a10.68 10.68 0 0 0 2.88-2.79 7 7 0 0 0 1.13-3.16 7.46 7.46 0 0 0 0-.79 10.18 10.18 0 0 0-.79-3.74 23.32 23.32 0 0 0-2.73-4.82c-.96-1.42-2.13-2.86-3.38-4.31 1.23 1.46 2.4 2.9 3.4 4.32 2.61 3.69 3.75 6.75 3.47 9.34-.24 2.29-1.55 4.23-4 5.93-4.28 3-5.28 4.94-5.12 7.08zM5.82 25.85c-.14-2.11.87-4.07 5.12-7a10.67 10.67 0 0 0 2.88-2.85 7 7 0 0 0 1.13-3.12 7.49 7.49 0 0 0 0-.79 10.18 10.18 0 0 0-.79-3.74 23.29 23.29 0 0 0-2.73-4.82c-.97-1.43-2.15-2.89-3.43-4.35 3.91 4.52 7 9 7 12.92a7.45 7.45 0 0 1 0 .77c-.24 2.29-1.55 4.23-4 5.93-4.26 3-5.26 4.92-5.13 7zM5.76 25.85c-.12-2.1.9-4 5.12-7a10.68 10.68 0 0 0 2.88-2.85 7 7 0 0 0 1.13-3.12 7.48 7.48 0 0 0 0-.79 10.18 10.18 0 0 0-.79-3.74 23.28 23.28 0 0 0-2.73-4.82c-.98-1.41-2.17-2.87-3.45-4.35 3.92 4.54 7 9 7 13a7.2 7.2 0 0 1 0 .77c-.24 2.29-1.55 4.23-4 5.93-4.23 2.94-5.25 4.9-5.13 7zM5.71 25.85c-.11-2.09.93-4 5.12-6.94a10.68 10.68 0 0 0 2.88-2.84 7 7 0 0 0 1.12-3.07 7.49 7.49 0 0 0 0-.79 10.18 10.18 0 0 0-.79-3.74 23.3 23.3 0 0 0-2.68-4.87c-1.03-1.45-2.23-2.93-3.52-4.42 4.16 4.82 7.41 9.61 6.97 13.82-.24 2.29-1.55 4.23-4 5.93-4.21 2.93-5.24 4.87-5.13 7zM5.65 25.85c-.09-2.07 1-4 5.12-6.91a10.68 10.68 0 0 0 2.88-2.83 7 7 0 0 0 1.13-3.11 7.49 7.49 0 0 0 0-.79 10.16 10.16 0 0 0-.78-3.75 23.28 23.28 0 0 0-2.7-4.82c-1-1.46-2.25-3-3.55-4.46 4.18 4.82 7.45 9.63 7 13.82-.24 2.29-1.55 4.23-4 5.93-4.18 2.91-5.23 4.85-5.13 6.93zM5.59 25.85c-.08-2.06 1-4 5.12-6.87a10.69 10.69 0 0 0 2.88-2.84 7 7 0 0 0 1.13-3.14 7.46 7.46 0 0 0 0-.79 10.16 10.16 0 0 0-.72-3.71 23.25 23.25 0 0 0-2.73-4.82c-1.07-1.48-2.27-2.99-3.61-4.5 4.2 4.87 7.48 9.66 7.04 13.82-.24 2.29-1.55 4.23-4 5.93-4.15 2.89-5.21 4.83-5.14 6.89zM5.54 25.85c-.06-2 1-4 5.12-6.83a10.68 10.68 0 0 0 2.88-2.83 7 7 0 0 0 1.13-3.12 7.47 7.47 0 0 0 0-.79 10.19 10.19 0 0 0-.79-3.74 23.32 23.32 0 0 0-2.73-4.82c-1.01-1.49-2.25-3.01-3.58-4.54 4 4.59 7.14 9.11 7.14 13.11a7.43 7.43 0 0 1 0 .77c-.24 2.29-1.55 4.23-4 5.93-4.13 2.87-5.2 4.8-5.14 6.85zM10.59 19c-4.1 2.85-5.19 4.78-5.14 6.81 0-2 1-3.95 5.13-6.79a10.69 10.69 0 0 0 2.88-2.83 7 7 0 0 0 1.13-3.12 7.47 7.47 0 0 0 0-.79 10.18 10.18 0 0 0-.79-3.74 23.32 23.32 0 0 0-2.73-4.82c-1.06-1.5-2.31-3-3.65-4.57 4 4.6 7.18 9.13 7.18 13.15a7.44 7.44 0 0 1 0 .77c-.25 2.32-1.6 4.26-4.01 5.93zM10.54 19.07c-4.08 2.84-5.17 4.75-5.14 6.78 0-2 1.06-3.93 5.13-6.75a10.69 10.69 0 0 0 2.88-2.83 7 7 0 0 0 1.13-3.12 7.47 7.47 0 0 0 0-.79 10.18 10.18 0 0 0-.79-3.74 23.31 23.31 0 0 0-2.73-4.82c-1.02-1.52-2.27-3.07-3.62-4.62 4 4.61 7.21 9.16 7.21 13.19a7.47 7.47 0 0 1 0 .77c-.32 2.29-1.61 4.23-4.07 5.93zM10.48 19.11c-4.05 2.82-5.16 4.73-5.14 6.74 0-2 1.09-3.9 5.13-6.71a10.7 10.7 0 0 0 2.88-2.83 7 7 0 0 0 1.13-3.12 7.49 7.49 0 0 0 0-.79 10.19 10.19 0 0 0-.79-3.74 23.31 23.31 0 0 0-2.69-4.83 59.34 59.34 0 0 0-3.69-4.65c4.29 4.92 7.65 9.77 7.2 14-.27 2.29-1.58 4.23-4.03 5.93zM14.42 13.22c-.24 2.29-1.55 4.23-4 5.93-4 2.8-5.15 4.71-5.14 6.7 0-2 1.11-3.88 5.13-6.68a10.67 10.67 0 0 0 2.88-2.83 7 7 0 0 0 1.13-3.12 7.5 7.5 0 0 0 0-.79 10.19 10.19 0 0 0-.79-3.74 23.29 23.29 0 0 0-2.63-4.82 59.55 59.55 0 0 0-3.78-4.69c4.28 4.94 7.65 9.82 7.2 14.04zM14.37 13.25c-.24 2.29-1.55 4.23-4 5.93-4 2.78-5.13 4.68-5.14 6.66 0-2 1.14-3.86 5.13-6.64a10.7 10.7 0 0 0 2.88-2.84 7 7 0 0 0 1.13-3.12 7.48 7.48 0 0 0 0-.79 10.17 10.17 0 0 0-.79-3.74 23.31 23.31 0 0 0-2.66-4.81 59.77 59.77 0 0 0-3.79-4.72c4.29 4.95 7.69 9.82 7.24 14.07zM14.31 13.29c-.24 2.29-1.55 4.23-4 5.93-4 2.77-5.12 4.66-5.14 6.62 0-2 1.16-3.84 5.13-6.6a10.69 10.69 0 0 0 2.88-2.84 7 7 0 0 0 1.13-3.12 7.44 7.44 0 0 0 0-.79 10.19 10.19 0 0 0-.79-3.74 23.3 23.3 0 0 0-2.73-4.82 59.85 59.85 0 0 0-3.79-4.75c4.08 4.67 7.34 9.27 7.34 13.34a7.21 7.21 0 0 1-.03.77zM14.26 13.33c-.24 2.29-1.55 4.23-4 5.93-3.95 2.74-5.1 4.63-5.13 6.59 0-1.95 1.19-3.82 5.13-6.56a10.67 10.67 0 0 0 2.88-2.84 7 7 0 0 0 1.13-3.12 7.49 7.49 0 0 0 0-.79 10.19 10.19 0 0 0-.79-3.74 23.3 23.3 0 0 0-2.67-4.8 60.27 60.27 0 0 0-3.81-4.82c4 4.68 7.3 9.29 7.3 13.38a7.21 7.21 0 0 1-.04.77zM14.2 13.37c-.24 2.29-1.55 4.23-4 5.93-3.92 2.7-5.08 4.61-5.13 6.55.05-1.93 1.21-3.8 5.12-6.52a10.69 10.69 0 0 0 2.88-2.83 7 7 0 0 0 1.13-3.12 7.44 7.44 0 0 0 0-.79 10.19 10.19 0 0 0-.79-3.74 23.34 23.34 0 0 0-2.66-4.85 60.49 60.49 0 0 0-3.88-4.82c4.11 4.69 7.41 9.32 7.41 13.42a7.45 7.45 0 0 1-.08.77zM14.15 13.41c-.24 2.29-1.55 4.23-4 5.93-3.9 2.71-5.07 4.58-5.15 6.51.07-1.92 1.24-3.78 5.12-6.49a10.68 10.68 0 0 0 2.88-2.83 7 7 0 0 0 1.13-3.12 7.52 7.52 0 0 0 0-.79 10.16 10.16 0 0 0-.79-3.74 23.31 23.31 0 0 0-2.64-4.82 60.68 60.68 0 0 0-3.92-4.88c4.13 4.71 7.44 9.35 7.44 13.46a7.16 7.16 0 0 1-.07.77zM14.09 13.44c-.24 2.29-1.55 4.23-4 5.93-3.86 2.7-5.09 4.57-5.09 6.48.08-1.9 1.26-3.76 5.12-6.45a10.68 10.68 0 0 0 2.88-2.84 7 7 0 0 0 1.13-3.12 7.47 7.47 0 0 0 0-.79 10.2 10.2 0 0 0-.79-3.74 23.3 23.3 0 0 0-2.73-4.82 60.88 60.88 0 0 0-3.92-4.91c4.14 4.72 7.48 9.38 7.48 13.5a7.45 7.45 0 0 1-.08.76zM14 13.48c-.24 2.29-1.55 4.23-4 5.93-3.85 2.68-5 4.53-5.14 6.43.14-1.84 1.37-3.74 5.2-6.4a10.68 10.68 0 0 0 2.88-2.84 7 7 0 0 0 1.13-3.12 7.52 7.52 0 0 0 0-.79 10.21 10.21 0 0 0-.76-3.69 23.32 23.32 0 0 0-2.73-4.82 61.19 61.19 0 0 0-4-5c4.16 4.73 7.51 9.4 7.51 13.53a7.45 7.45 0 0 1-.09.77zM14 13.52c-.24 2.29-1.55 4.23-4 5.93-3.83 2.66-5 4.55-5.14 6.4.14-1.85 1.34-3.73 5.14-6.37a10.68 10.68 0 0 0 2.88-2.84 7 7 0 0 0 1.12-3.12 7.48 7.48 0 0 0 0-.79 10.21 10.21 0 0 0-.74-3.73 23.36 23.36 0 0 0-2.73-4.82 61.34 61.34 0 0 0-4-5c4.39 5.04 7.91 10.01 7.47 14.34zM13.93 13.56c-.24 2.29-1.55 4.23-4 5.93-3.8 2.64-5 4.48-5.13 6.36.2-1.85 1.37-3.71 5.2-6.34a10.69 10.69 0 0 0 2.88-2.84 7 7 0 0 0 1.12-3.11 7.46 7.46 0 0 0 0-.79 10.21 10.21 0 0 0-.79-3.77 23.36 23.36 0 0 0-2.73-4.82 61.46 61.46 0 0 0-4-5c4.36 5.05 7.91 10.04 7.45 14.38zM13.87 13.6c-.24 2.29-1.55 4.23-4 5.93-3.77 2.62-5 4.46-5.13 6.32.14-1.85 1.36-3.68 5.11-6.3a10.7 10.7 0 0 0 2.88-2.84 7 7 0 0 0 1.17-3.11 7.49 7.49 0 0 0 0-.77c0-4.17-3.4-8.88-7.6-13.65 4.21 4.77 7.61 9.48 7.61 13.65a7.19 7.19 0 0 1-.04.77zM13.82 13.63c-.24 2.29-1.55 4.23-4 5.93-3.75 2.6-5 4.43-5.12 6.28.15-1.84 1.38-3.66 5.11-6.26a10.68 10.68 0 0 0 2.88-2.83 7 7 0 0 0 1.13-3.12 7.49 7.49 0 0 0 0-.77c.07-4.17-3.35-8.86-7.57-13.68 4.45 5.08 8.03 10.1 7.57 14.45zM13.76 13.67c-.24 2.29-1.55 4.23-4 5.93-3.76 2.59-4.95 4.4-5.11 6.25.16-1.83 1.4-3.64 5.11-6.22a10.7 10.7 0 0 0 2.88-2.84 7 7 0 0 0 1.13-3.12 7.25 7.25 0 0 0 0-.77c.06-4.19-3.37-8.9-7.6-13.72 4.19 4.82 7.63 9.54 7.63 13.72a7.48 7.48 0 0 1-.04.77zM13.71 13.71c-.24 2.29-1.55 4.23-4 5.93-3.71 2.57-4.94 4.36-5.12 6.21.18-1.81 1.42-3.62 5.1-6.18a10.68 10.68 0 0 0 2.88-2.83 7 7 0 0 0 1.13-3.12 7.25 7.25 0 0 0 0-.77c0-4.2-3.45-9-7.7-13.76 4.29 4.81 7.75 9.55 7.75 13.75a7.18 7.18 0 0 1-.04.77zM13.65 13.75c-.24 2.29-1.55 4.23-4 5.93-3.65 2.55-4.92 4.32-5.11 6.17.23-1.85 1.46-3.6 5.14-6.15a10.69 10.69 0 0 0 2.88-2.84 7 7 0 0 0 1.13-3.12 7.53 7.53 0 0 0 0-.77c0-4.21-3.47-9-7.73-13.8 4.25 4.83 7.73 9.6 7.73 13.83a7.42 7.42 0 0 1-.04.75zM13.6 13.79c-.24 2.29-1.55 4.23-4 5.93-3.6 2.53-4.9 4.33-5.11 6.13.21-1.79 1.47-3.58 5.09-6.11a10.68 10.68 0 0 0 2.88-2.84 7 7 0 0 0 1.13-3.12 7.23 7.23 0 0 0 0-.77c0-4.22-3.49-9-7.77-13.84 4.32 4.83 7.82 9.63 7.82 13.83a7.21 7.21 0 0 1-.04.79zM13.54 13.82c-.24 2.29-1.55 4.23-4 5.93-3.62 2.52-4.89 4.31-5.11 6.09.27-1.77 1.57-3.55 5.14-6.06a10.69 10.69 0 0 0 2.88-2.84 7 7 0 0 0 1.13-3.12 7.24 7.24 0 0 0 0-.77c0-4.23-3.51-9-7.8-13.87 4.55 5.14 8.22 10.23 7.76 14.64zM13.49 13.86c-.24 2.29-1.55 4.23-4 5.93-3.59 2.5-4.87 4.28-5.1 6.05.23-1.76 1.51-3.54 5.08-6a10.7 10.7 0 0 0 2.92-2.84 7 7 0 0 0 1.13-3.12 7.23 7.23 0 0 0 0-.77c.04-4.26-3.52-9.11-7.8-13.93 4.28 4.82 7.81 9.67 7.81 13.91a7.48 7.48 0 0 1-.04.77zM13.43 13.9c-.24 2.29-1.55 4.23-4 5.93-3.57 2.48-4.85 4.26-5.1 6 .25-1.75 1.53-3.52 5.08-6a10.7 10.7 0 0 0 2.93-2.83 7 7 0 0 0 1.13-3.12 7.24 7.24 0 0 0 0-.77c0-4.26-3.55-9.08-7.87-14 4.33 4.87 7.88 9.7 7.88 14a7.15 7.15 0 0 1-.05.79zM13.38 13.94c-.24 2.29-1.55 4.23-4 5.93-3.54 2.46-4.83 4.23-5.09 6 .26-1.74 1.55-3.5 5.07-6a10.69 10.69 0 0 0 2.88-2.84 7 7 0 0 0 1.13-3.12 7.25 7.25 0 0 0 0-.77c0-4.27-3.56-9.11-7.9-14 4.34 4.89 7.91 9.73 7.91 14a7.42 7.42 0 0 1 0 .8zM13.32 14c-.24 2.29-1.55 4.23-4 5.93-3.51 2.45-4.81 4.21-5.08 5.94.27-1.73 1.57-3.48 5.07-5.91a10.69 10.69 0 0 0 2.88-2.84 7 7 0 0 0 1.17-3.12 7.28 7.28 0 0 0 0-.77c0-4.28-3.58-9.13-7.94-14 4.36 4.9 7.95 9.75 7.95 14a7.18 7.18 0 0 1-.05.77zM13.27 14c-.24 2.29-1.55 4.23-4 5.93-3.49 2.43-4.8 4.18-5.08 5.9.29-1.71 1.59-3.46 5.06-5.88a10.69 10.69 0 0 0 2.88-2.84 7 7 0 0 0 1.17-3.11 7.25 7.25 0 0 0 0-.77c0-4.29-3.6-9.16-8-14.07 4.37 4.91 8 9.78 8 14.07a7.19 7.19 0 0 1-.03.77zM13.21 14.05c-.24 2.29-1.55 4.23-4 5.93-3.46 2.41-4.78 4.16-5.07 5.87.3-1.7 1.61-3.44 5.06-5.84a10.68 10.68 0 0 0 2.88-2.84 7 7 0 0 0 1.13-3.12 7.52 7.52 0 0 0 0-.77c0-4.3-3.62-9.18-8-14.1 4.39 4.92 8 9.81 8 14.1a7.42 7.42 0 0 1 0 .77zM13.16 14.09c-.24 2.29-1.55 4.23-4 5.93-3.44 2.39-4.76 4.13-5.07 5.83.31-1.69 1.63-3.42 5-5.8a10.68 10.68 0 0 0 2.88-2.84 7 7 0 0 0 1.13-3.12 7.2 7.2 0 0 0 0-.77c0-4.31-3.64-9.21-8-14.14 4.72 5.23 8.53 10.42 8.06 14.91zM13.1 14.13c-.24 2.29-1.55 4.23-4 5.93-3.4 2.37-4.73 4.1-5.1 5.79.32-1.68 1.64-3.4 5-5.76a10.68 10.68 0 0 0 3-2.84 7 7 0 0 0 1.13-3.12 7.23 7.23 0 0 0 0-.77c.05-4.36-3.61-9.23-8.02-14.18 4.42 5 8.08 9.86 8.08 14.18a7.45 7.45 0 0 1-.09.77zM13 14.17c-.24 2.29-1.55 4.23-4 5.93-3.33 2.35-4.66 4.07-5 5.75.34-1.67 1.66-3.38 5-5.72a10.69 10.69 0 0 0 3-2.84 7 7 0 0 0 1.13-3.12 7.23 7.23 0 0 0 0-.77c-.01-4.34-3.68-9.26-8.13-14.22 4.43 5 8.12 9.89 8.12 14.22a7.21 7.21 0 0 1-.12.77zM13 14.2c-.24 2.29-1.55 4.23-4 5.93-3.36 2.34-4.7 4.05-5 5.71.35-1.65 1.68-3.36 5-5.69a10.68 10.68 0 0 0 2.88-2.84 7 7 0 0 0 1.12-3.1 7.5 7.5 0 0 0 0-.77c0-4.34-3.69-9.28-8.14-14.25 4.74 5.26 8.61 10.49 8.14 15.01zM12.94 14.24c-.24 2.29-1.55 4.23-4 5.93-3.34 2.32-4.68 4-5 5.68.36-1.64 1.7-3.34 5-5.65a10.7 10.7 0 0 0 2.88-2.84 7 7 0 0 0 1.18-3.11 7.66 7.66 0 0 0 0-.77c0-4.36-3.7-9.31-8.16-14.3 4.68 5.29 8.58 10.53 8.1 15.06zM12.88 14.28c-.24 2.29-1.55 4.23-4 5.93-3.31 2.3-4.66 4-5 5.64.37-1.63 1.72-3.32 5-5.61a10.69 10.69 0 0 0 2.88-2.84 7 7 0 0 0 1.13-3.12 7.53 7.53 0 0 0 0-.77c.11-4.37-3.66-9.33-8.14-14.33 4.7 5.3 8.61 10.56 8.13 15.1zM12.83 14.32c-.24 2.29-1.55 4.23-4 5.93-3.28 2.28-4.64 4-5 5.6.39-1.62 1.73-3.3 5-5.57a10.7 10.7 0 0 0 2.88-2.84 7 7 0 0 0 1.13-3.12 7.25 7.25 0 0 0 0-.77c0-4.38-3.75-9.36-8.24-14.37 4.77 5.31 8.71 10.59 8.23 15.14zM12.77 14.36c-.24 2.29-1.55 4.23-4 5.93-3.26 2.27-4.61 3.95-5 5.56.4-1.61 1.75-3.28 5-5.53a10.68 10.68 0 0 0 2.88-2.84 7 7 0 0 0 1.13-3.12 7.36 7.36 0 0 0 0-.77c0-4.39-3.77-9.38-8.27-14.41 4.79 5.32 8.74 10.61 8.26 15.18zM12.72 14.39c-.24 2.29-1.55 4.23-4 5.93-3.23 2.25-4.59 3.92-5 5.52.41-1.59 1.76-3.26 5-5.49a10.71 10.71 0 0 0 2.88-2.84 7 7 0 0 0 1.13-3.12 7.35 7.35 0 0 0 0-.77c.06-4.4-3.73-9.4-8.25-14.44 4.75 5.34 8.72 10.64 8.24 15.21zM12.66 14.43c-.24 2.29-1.55 4.23-4 5.93-3.21 2.23-4.57 3.89-5 5.49.42-1.58 1.78-3.24 5-5.46a10.68 10.68 0 0 0 2.88-2.84 7 7 0 0 0 1.13-3.12 7.23 7.23 0 0 0 0-.77c0-4.41-3.81-9.43-8.34-14.48 4.82 5.35 8.82 10.67 8.33 15.25zM12.61 14.47c-.24 2.29-1.55 4.23-4 5.93-3.18 2.21-4.55 3.87-5 5.45.43-1.57 1.79-3.22 5-5.42a10.7 10.7 0 0 0 2.88-2.84 7 7 0 0 0 1.13-3.12 7.25 7.25 0 0 0 0-.77c0-4.42-3.83-9.46-8.38-14.52h.02c4.56 5.07 8.39 10.1 8.39 14.52a7.15 7.15 0 0 1-.04.77zM12.55 14.51c-.24 2.29-1.55 4.23-4 5.93-3.16 2.2-4.53 3.84-5 5.41.44-1.56 1.81-3.2 4.95-5.38a10.68 10.68 0 0 0 2.88-2.84 7 7 0 0 0 1.13-3.12 7.25 7.25 0 0 0 0-.77c0-4.43-3.85-9.48-8.41-14.56h.07c4.57 5.08 8.42 10.13 8.42 14.56a7.33 7.33 0 0 1-.04.77zM12.5 14.55c-.24 2.29-1.55 4.23-4 5.93-3.13 2.18-4.5 3.81-5 5.37.5-1.55 1.91-3.18 5.02-5.34a10.7 10.7 0 0 0 2.88-2.84 7 7 0 0 0 1.13-3.12 7.25 7.25 0 0 0 0-.77c0-4.45-3.87-9.51-8.45-14.6 4.85 5.39 8.92 10.75 8.42 15.37zM12.44 14.58c-.24 2.29-1.55 4.23-4 5.93-3.1 2.16-4.44 3.79-4.94 5.34.47-1.54 1.84-3.16 4.93-5.3a10.68 10.68 0 0 0 2.88-2.84 7 7 0 0 0 1.13-3.12 7.39 7.39 0 0 0 0-.77c.08-4.46-3.81-9.54-8.44-14.64 4.86 5.4 8.93 10.82 8.44 15.4zM12.39 14.62c-.24 2.29-1.55 4.23-4 5.93-3.08 2.14-4.46 3.76-4.94 5.3.48-1.53 1.85-3.13 4.92-5.27a10.7 10.7 0 0 0 2.88-2.84 7 7 0 0 0 1.13-3.12 7.39 7.39 0 0 0 0-.77c.08-4.46-3.82-9.55-8.38-14.67h-.1c4.88 5.42 8.98 10.82 8.49 15.44zM12.33 14.66c-.24 2.29-1.55 4.23-4 5.93-3.06 2.13-4.44 3.74-4.92 5.26.49-1.51 1.87-3.12 4.9-5.23a10.69 10.69 0 0 0 2.88-2.84 7 7 0 0 0 1.13-3.12 7.34 7.34 0 0 0 0-.77c0-4.48-3.92-9.58-8.55-14.71h.04c4.9 5.43 9.02 10.82 8.52 15.48zM12.28 14.7c-.24 2.29-1.55 4.23-4 5.93-3 2.11-4.41 3.71-4.91 5.22.5-1.5 1.88-3.09 4.89-5.19a10.71 10.71 0 0 0 2.88-2.84 7 7 0 0 0 1.13-3.12 7.52 7.52 0 0 0 0-.77c0-4.49-3.94-9.61-8.58-14.75h.03c4.91 5.44 9.05 10.82 8.56 15.52zM12.22 14.74c-.22 2.26-1.55 4.26-3.99 5.92-3 2.09-4.39 3.68-4.9 5.18.51-1.49 1.89-3.07 4.88-5.15a10.68 10.68 0 0 0 2.88-2.84 7 7 0 0 0 1.13-3.12 7.35 7.35 0 0 0 0-.77c0-4.5-4-9.63-8.62-14.79h.03c4.93 5.46 9.09 10.89 8.59 15.57zM12.17 14.77c-.24 2.29-1.55 4.23-4 5.93-3 2.07-4.37 3.66-4.89 5.15.52-1.48 1.9-3.05 4.86-5.11a10.7 10.7 0 0 0 2.88-2.84 7 7 0 0 0 1.13-3.12 7.42 7.42 0 0 0 0-.77c0-4.51-4-9.66-8.65-14.83h.04c4.68 5.17 8.67 10.32 8.67 14.82a7.16 7.16 0 0 1-.04.77zM12.11 14.81c-.24 2.29-1.55 4.23-4 5.93-3 2.05-4.34 3.63-4.87 5.11.53-1.47 1.92-3 4.85-5.07a10.7 10.7 0 0 0 2.91-2.84 7 7 0 0 0 1.13-3.12 7.38 7.38 0 0 0 0-.77c0-4.52-4-9.69-8.68-14.86 4.96 5.47 9.16 10.93 8.66 15.62zM12.06 14.85c-.24 2.29-1.55 4.23-4 5.93-2.93 2-4.32 3.6-4.86 5.07.54-1.46 1.93-3 4.84-5 2.46-1.71 3.77-3.66 4-6a7.25 7.25 0 0 0 0-.77c0-4.53-4-9.71-8.72-14.9h.04c4.7 5.19 8.73 10.37 8.73 14.9a7.32 7.32 0 0 1-.03.77zM12 14.89c-.24 2.29-1.55 4.23-4 5.93-2.9 2-4.3 3.57-4.85 5 .55-1.45 1.94-3 4.82-5 2.45-1.71 3.77-3.66 4-6a7.36 7.36 0 0 0 0-.77c0-4.54-4-9.74-8.75-14.94h.05c4.99 5.57 9.23 11.06 8.73 15.78zM11.95 14.93c-.24 2.29-1.55 4.23-4 5.93-2.88 2-4.27 3.55-4.83 5 .56-1.44 1.95-3 4.81-5 2.45-1.71 3.77-3.66 4-6a7.39 7.39 0 0 0 0-.77c.07-4.49-3.93-9.69-8.69-14.91h-.06c5.01 5.52 9.27 11.02 8.77 15.75zM11.89 15c-.24 2.29-1.55 4.23-4 5.93-2.85 2-4.25 3.52-4.82 5 .57-1.43 2-3 4.79-4.92 2.46-1.71 3.77-3.66 4-6a7.22 7.22 0 0 0 0-.77c0-4.57-4.08-9.79-8.82-15h.05c5.02 5.47 9.3 10.99 8.8 15.76zM11.84 15c-.24 2.29-1.55 4.23-4 5.93-2.84 1.97-4.22 3.49-4.84 4.92.58-1.42 2-2.93 4.78-4.88 2.46-1.71 3.77-3.66 4-6a7.25 7.25 0 0 0 0-.77c0-4.58-4.1-9.81-8.86-15.05h.08c4.76 5.25 8.87 10.48 8.87 15.05a7.44 7.44 0 0 1-.03.8zM11.78 15c-.24 2.29-1.55 4.23-4 5.93-2.8 2-4.2 3.47-4.78 4.88.59-1.4 2-2.91 4.76-4.85 2.46-1.71 3.77-3.66 4-6a7.25 7.25 0 0 0 0-.77c.1-4.51-4.02-9.76-8.76-15.01h-.09c4.78 5.26 8.91 10.51 8.91 15.09a7.33 7.33 0 0 1-.04.73zM11.73 15.08c-.24 2.29-1.55 4.23-4 5.93-2.73 1.93-4.17 3.43-4.73 4.84.61-1.4 2-2.85 4.76-4.85 2.46-1.71 3.77-3.66 4-6a7.25 7.25 0 0 0 0-.77c0-4.6-4.14-9.86-8.93-15.13h-.01c5.07 5.65 9.41 11.21 8.91 15.98zM11.67 15.12c-.24 2.29-1.55 4.23-4 5.93-2.75 1.95-4.14 3.4-4.74 4.8h.07c.58-1.39 2-2.85 4.7-4.77 2.46-1.71 3.77-3.66 4-6a7.4 7.4 0 0 0 0-.77c0-4.61-4.16-9.89-9-15.17h.03c5.08 5.62 9.45 11.2 8.94 15.98zM11.62 15.15c-.24 2.29-1.55 4.23-4 5.93-2.73 1.92-4.12 3.38-4.73 4.77.62-1.37 2-2.85 4.71-4.73 2.46-1.71 3.77-3.66 4-6a7.36 7.36 0 0 0 0-.77c0-4.62-4.18-9.91-9-15.21h.04c5.1 5.63 9.48 11.22 8.98 16.01zM11.56 15.19c-.24 2.29-1.55 4.23-4 5.93-2.7 1.88-4.1 3.36-4.72 4.73h.06c.62-1.36 2-2.83 4.7-4.69 2.46-1.71 3.77-3.66 4-6a7.39 7.39 0 0 0 0-.77c0-4.63-4.2-9.94-9-15.24h-.05c4.84 5.31 9 10.62 9 15.24a7.42 7.42 0 0 1 .01.8zM11.51 15.23c-.24 2.29-1.55 4.23-4 5.93-2.68 1.84-4.07 3.33-4.7 4.69h.05c.63-1.35 2-2.81 4.68-4.66 2.46-1.71 3.77-3.66 4-6a7.36 7.36 0 0 0 0-.77c0-4.65-4.22-10-9.06-15.28h-.01c5.12 5.66 9.53 11.28 9.04 16.09zM11.45 15.27c-.24 2.29-1.55 4.23-4 5.93-2.65 1.85-4 3.3-4.68 4.65h.05c.64-1.34 2-2.79 4.66-4.62 2.46-1.71 3.77-3.66 4-6a7.39 7.39 0 0 0 0-.77c0-4.66-4.24-10-9.1-15.32 5.13 5.67 9.62 11.3 9.07 16.13zM11.4 15.31c-.24 2.29-1.55 4.22-4 5.93-2.63 1.83-4 3.28-4.67 4.62h.05c.65-1.33 2-2.77 4.64-4.58 2.46-1.71 3.77-3.66 4-6a7.4 7.4 0 0 0 0-.77c0-4.67-4.26-10-9.13-15.36 5.15 5.67 9.62 11.32 9.11 16.16zM11.34 15.34c-.24 2.29-1.55 4.23-4 5.93-2.6 1.81-4 3.25-4.65 4.58h.05c.66-1.32 2-2.74 4.62-4.54s3.77-3.66 4-6a7.7 7.7 0 0 0 0-.77c0-4.68-4.28-10-9.17-15.4h.01c5.16 5.7 9.65 11.36 9.14 16.2zM11.29 15.38c-.24 2.29-1.55 4.22-4 5.93s-4 3.22-4.63 4.54h.05c.66-1.31 2-2.72 4.6-4.5s3.77-3.66 4-6a7.42 7.42 0 0 0 0-.77c0-4.69-4.3-10.07-9.2-15.43 5.18 5.7 9.69 11.37 9.18 16.23zM11.23 15.42c-.24 2.29-1.55 4.22-4 5.92s-3.94 3.19-4.61 4.5h.05c.67-1.3 2-2.7 4.58-4.46s3.77-3.66 4-6a7.39 7.39 0 0 0 0-.77c.07-4.61-4.25-10.05-9.17-15.43h-.08c4.94 5.39 9.27 10.82 9.27 15.47a7.33 7.33 0 0 1-.04.77zM11.17 15.46c-.24 2.29-1.55 4.22-4 5.93s-3.91 3.17-4.59 4.46h.05c.68-1.29 2.05-2.68 4.56-4.43s3.77-3.66 4-6a7.39 7.39 0 0 0 0-.77c.07-4.65-4.27-10.08-9.19-15.47h-.07c5.21 5.69 9.76 11.4 9.24 16.28zM11.12 15.5c-.24 2.29-1.55 4.22-4 5.92s-3.89 3.14-4.57 4.43h.06c.69-1.28 2.06-2.66 4.54-4.39s3.77-3.66 4-6a7.39 7.39 0 0 0 0-.77c.06-4.69-4.3-10.1-9.25-15.51h-.06c5.22 5.71 9.8 11.43 9.28 16.32zM11.06 15.53c-.24 2.29-1.55 4.22-4 5.92s-3.86 3.11-4.55 4.39h.06c.69-1.27 2.06-2.64 4.52-4.35s3.77-3.66 4-6a7.36 7.36 0 0 0 0-.77c.06-4.72-4.32-10.12-9.28-15.54h-.06c5.25 5.72 9.83 11.45 9.31 16.35zM11 15.57c-.24 2.29-1.55 4.22-4 5.93s-3.83 3.08-4.53 4.35h.06a14.3 14.3 0 0 1 4.47-4.32c2.46-1.71 3.77-3.66 4-6a7.28 7.28 0 0 0 0-.77c0-4.75-4.4-10.19-9.38-15.62h.04c5.25 5.77 9.87 11.52 9.34 16.43zM11 15.61c-.24 2.29-1.55 4.22-4 5.92a14.43 14.43 0 0 0-4.51 4.31h.06a14.43 14.43 0 0 1 4.45-4.27c2.46-1.71 3.77-3.66 4-6a7.25 7.25 0 0 0 0-.77c0-4.71-4.38-10.17-9.37-15.62h-.06c4.99 5.45 9.43 10.91 9.43 15.66a7.33 7.33 0 0 1 0 .77zM10.9 15.65c-.24 2.29-1.55 4.22-4 5.92a14.56 14.56 0 0 0-4.49 4.27h.06a14.58 14.58 0 0 1 4.46-4.24c2.46-1.71 3.77-3.66 4-6a7.39 7.39 0 0 0 0-.77c.07-4.72-4.39-10.19-9.39-15.65h-.06c5.28 5.76 9.94 11.53 9.42 16.47zM10.84 15.69c-.24 2.29-1.55 4.22-4 5.92a14.7 14.7 0 0 0-4.46 4.24h.06a14.71 14.71 0 0 1 4.43-4.2c2.46-1.71 3.77-3.66 4-6a7.25 7.25 0 0 0 0-.77c0-4.78-4.46-10.27-9.48-15.74 5.29 5.86 9.98 11.6 9.45 16.55zM10.79 15.72c-.24 2.29-1.55 4.22-4 5.92a14.84 14.84 0 0 0-4.44 4.2h.06a14.84 14.84 0 0 1 4.41-4.16c2.46-1.71 3.77-3.66 4-6a7.36 7.36 0 0 0 0-.77c0-4.79-4.48-10.29-9.52-15.78 5.31 5.87 10.02 11.64 9.49 16.59zM10.73 15.76c-.24 2.29-1.55 4.22-4 5.92a15 15 0 0 0-4.42 4.16h.06a15 15 0 0 1 4.39-4.12c2.46-1.71 3.77-3.66 4-6a7.37 7.37 0 0 0 0-.77c0-4.8-4.5-10.32-9.55-15.81 5.32 5.86 10.05 11.66 9.52 16.62zM10.68 15.8c-.24 2.29-1.55 4.22-4 5.92a15.15 15.15 0 0 0-4.4 4.12h.06a15.15 15.15 0 0 1 4.37-4.08c2.46-1.71 3.77-3.66 4-6a7.51 7.51 0 0 0 0-.77c0-4.81-4.52-10.34-9.59-15.85 5.33 5.86 10.08 11.69 9.56 16.66zM10.62 15.84c-.24 2.29-1.55 4.22-4 5.92a15.27 15.27 0 0 0-4.37 4.08h.06a15.29 15.29 0 0 1 4.34-4c2.46-1.71 3.77-3.66 4-6a7.54 7.54 0 0 0 0-.77c0-4.82-4.55-10.37-9.62-15.89h-.03c5.38 5.82 10.15 11.67 9.62 16.66zM10.57 15.88c-.24 2.29-1.55 4.22-4 5.92a15.4 15.4 0 0 0-4.35 4h.06a15.42 15.42 0 0 1 4.32-4c2.46-1.71 3.77-3.66 4-6a7.54 7.54 0 0 0 0-.77c.06-4.76-4.51-10.32-9.6-15.85h-.06c5.36 5.82 10.16 11.7 9.63 16.7zM10.51 15.91c-.24 2.29-1.55 4.22-4 5.92a15.55 15.55 0 0 0-4.33 4h.06a15.57 15.57 0 0 1 4.29-4c2.46-1.71 3.77-3.66 4-6a7.42 7.42 0 0 0 0-.77c.07-4.76-4.53-10.33-9.62-15.88h-.06c5.38 5.82 10.15 11.72 9.66 16.73zM10.46 16c-.24 2.29-1.55 4.22-4 5.92a15.69 15.69 0 0 0-4.3 4h.06a15.73 15.73 0 0 1 4.28-4c2.46-1.71 3.77-3.66 4-6a7.38 7.38 0 0 0 0-.77c0-4.86-4.61-10.45-9.73-16h-.01c5.39 5.85 10.24 11.78 9.7 16.85zM10.4 16c-.24 2.29-1.55 4.22-4 5.92a15.86 15.86 0 0 0-4.28 3.93h.08a15.87 15.87 0 0 1 4.24-3.85c2.46-1.71 3.77-3.66 4-6a7.39 7.39 0 0 0 0-.77c0-4.87-4.63-10.47-9.76-16h-.01c5.14 5.57 9.78 11.18 9.78 16a7.28 7.28 0 0 1-.05.77zM10.35 16c-.24 2.29-1.55 4.22-4 5.92a16 16 0 0 0-4.25 3.9h.06a16 16 0 0 1 4.23-3.82c2.46-1.71 3.77-3.66 4-6a7.25 7.25 0 0 0 0-.77c0-4.88-4.65-10.5-9.79-16.08h-.02c5.42 5.91 10.3 11.85 9.77 16.85zM10.29 16.07c-.24 2.29-1.55 4.22-4 5.92a16.16 16.16 0 0 0-4.23 3.86h.06a16.19 16.19 0 0 1 4.21-3.85c2.46-1.71 3.77-3.66 4-6a7.39 7.39 0 0 0 0-.77c.05-4.82-4.62-10.45-9.78-16.05h-.06c5.43 5.9 10.34 11.82 9.8 16.89zM10.24 16.1c-.24 2.29-1.55 4.22-4 5.92a16.34 16.34 0 0 0-4.24 3.83h.06a16.33 16.33 0 0 1 4.17-3.78c2.46-1.71 3.77-3.66 4-6a7.42 7.42 0 0 0 0-.77c0-4.9-4.69-10.55-9.86-16.16h.03c5.18 5.61 9.88 11.26 9.88 16.16a7.31 7.31 0 0 1-.04.8zM10.18 16.14c-.24 2.29-1.55 4.22-4 5.92a16.45 16.45 0 0 0-4.18 3.79h.07a16.47 16.47 0 0 1 4.14-3.74c2.46-1.71 3.77-3.66 4-6a7.42 7.42 0 0 0 0-.77c.07-4.88-4.65-10.54-9.83-16.16h-.07c5.46 5.92 10.41 11.89 9.87 16.96zM10.13 16.18c-.24 2.29-1.55 4.22-4 5.92a16.61 16.61 0 0 0-4.13 3.75h.07a16.62 16.62 0 0 1 4.11-3.7c2.46-1.71 3.77-3.66 4-6a7.42 7.42 0 0 0 0-.77c0-4.92-4.73-10.6-9.93-16.23h-.04c5.48 5.96 10.45 11.95 9.92 17.03zM10.07 16.22c-.24 2.29-1.55 4.22-4 5.92a16.78 16.78 0 0 0-4.07 3.71 16.8 16.8 0 0 1 4.08-3.66c2.46-1.71 3.77-3.66 4-6a7.29 7.29 0 0 0 0-.77c0-4.93-4.76-10.62-10-16.27h.05c5.49 5.98 10.48 11.97 9.94 17.07zM10 16.26c-.24 2.29-1.55 4.22-4 5.92a16.94 16.94 0 0 0-4.09 3.67h.09a16.94 16.94 0 0 1 4.05-3.62c2.46-1.71 3.77-3.66 4-6a7.36 7.36 0 0 0 0-.77c0-4.94-4.78-10.65-10-16.31h-.05c5.54 5.99 10.56 12 10 17.11zM10 16.29c-.24 2.29-1.55 4.22-4 5.92a17.08 17.08 0 0 0-4.06 3.63h.06a17.15 17.15 0 0 1 4-3.59c2.46-1.71 3.77-3.66 4-6a7.39 7.39 0 0 0 0-.77c0-5-4.8-10.68-10-16.35h-.06c5.25 5.72 10.06 11.45 10.06 16.4a7.44 7.44 0 0 1 0 .76zM9.91 16.33c-.24 2.29-1.55 4.22-4 5.92a17.23 17.23 0 0 0-4 3.59h.07a17.32 17.32 0 0 1 4-3.55c2.46-1.71 3.77-3.66 4-6a7.37 7.37 0 0 0 0-.77c.02-4.92-4.8-10.66-10.05-16.34h-.08c5.54 5.98 10.6 12.02 10.06 17.15zM9.85 16.37c-.24 2.29-1.55 4.22-4 5.92a17.41 17.41 0 0 0-4 3.55h.07a17.48 17.48 0 0 1 4-3.51c2.46-1.71 3.77-3.66 4-6a7.4 7.4 0 0 0 0-.77c0-5-4.84-10.73-10.11-16.42h-.05c5.55 6.04 10.64 12.09 10.09 17.23zM9.8 16.41c-.24 2.29-1.55 4.22-4 5.92a17.6 17.6 0 0 0-4 3.52h.1a17.63 17.63 0 0 1 3.94-3.47c2.46-1.71 3.77-3.66 4-6a7.55 7.55 0 0 0 0-.77c.05-4.96-4.84-10.72-10.09-16.43h-.08c5.57 6.01 10.67 12.08 10.13 17.23zM9.81 16.42c-.24 2.3-1.56 4.25-4 6a18 18 0 0 0-3.94 3.46h.07a18 18 0 0 1 3.9-3.41c2.49-1.73 3.81-3.69 4.06-6a7.3 7.3 0 0 0 0-.77c.01-5.05-4.9-10.82-10.21-16.52h-.07c5.59 6 10.74 12.07 10.19 17.24zM9.83 16.43c-.24 2.32-1.57 4.29-4.08 6a18.27 18.27 0 0 0-3.9 3.4h.07a18.38 18.38 0 0 1 3.86-3.35c2.52-1.75 3.86-3.73 4.1-6.06a7.27 7.27 0 0 0 0-.76c0-5-5-10.8-10.28-16.49h-.03c5.6 6 10.8 12.07 10.26 17.26zM9.85 16.44c-.24 2.33-1.59 4.32-4.12 6.07a18.58 18.58 0 0 0-3.86 3.34h.07a18.69 18.69 0 0 1 3.82-3.29c2.55-1.76 3.9-3.76 4.14-6.11a7.43 7.43 0 0 0 0-.75c0-5-5-10.82-10.35-16.51h-.04c5.63 5.97 10.87 12.03 10.34 17.25zM9.86 16.45c-.24 2.35-1.6 4.35-4.17 6.12a18.89 18.89 0 0 0-3.81 3.28h.12a19.12 19.12 0 0 1 3.78-3.23c2.58-1.78 3.95-3.8 4.19-6.16a7.29 7.29 0 0 0 0-.75c.03-5.08-5.06-10.85-10.44-16.53h-.07c5.65 5.97 10.94 12.03 10.4 17.27zM9.88 16.46c-.24 2.36-1.62 4.38-4.21 6.17a19.29 19.29 0 0 0-3.76 3.22h.09a19.3 19.3 0 0 1 3.7-3.18c2.61-1.8 4-3.83 4.23-6.21v-.74c.07-5.09-5.05-10.86-10.45-16.54h-.08c5.68 5.96 11.01 12.02 10.48 17.28zM9.9 16.46c-.24 2.38-1.63 4.42-4.25 6.23a19.69 19.69 0 0 0-3.72 3.16h.07a19.72 19.72 0 0 1 3.68-3.11c2.64-1.82 4-3.87 4.28-6.26v-.73c.04-5.13-5.11-10.9-10.54-16.57h-.08c5.44 5.68 10.59 11.45 10.59 16.56a7.24 7.24 0 0 1-.03.72zM9.91 16.47c-.24 2.39-1.64 4.45-4.3 6.28a20 20 0 0 0-3.68 3.1h.07a20.2 20.2 0 0 1 3.64-3.05c2.67-1.8 4.09-3.91 4.36-6.32a7.22 7.22 0 0 0 0-.73c0-5.13-5.18-10.9-10.64-16.57h-.07c5.71 5.94 11.15 12 10.62 17.29zM9.93 16.48c-.24 2.41-1.66 4.52-4.34 6.33a20.27 20.27 0 0 0-3.62 3h.03a20.43 20.43 0 0 1 3.58-3c2.74-1.81 4.17-3.9 4.42-6.32v-.72c0-5.16-5.21-10.93-10.7-16.59h-.07c5.77 5.93 11.23 11.98 10.7 17.3zM9.95 16.49c-.24 2.43-1.67 4.51-4.39 6.38a20.67 20.67 0 0 0-3.57 3h.07a20.7 20.7 0 0 1 3.53-2.93c2.73-1.94 4.17-4 4.41-6.44v-.71c0-5.18-5.25-10.95-10.76-16.61h-.07c5.77 5.92 11.3 11.97 10.78 17.31zM10 16.5c-.27 2.44-1.72 4.5-4.47 6.43a20.9 20.9 0 0 0-3.53 2.92h.07a21.07 21.07 0 0 1 3.49-2.85c2.76-1.89 4.22-4 4.45-6.46v-.71c0-5.2-5.33-11-10.87-16.62h-.03c5.54 5.63 10.89 11.41 10.89 16.59v.7zM10 16.51c-.25 2.49-1.72 4.58-4.49 6.49a21.23 21.23 0 0 0-3.51 2.85h.07a21.33 21.33 0 0 1 3.47-2.85c2.79-1.91 4.26-4 4.5-6.51v-.7c0-5.22-5.38-11-10.95-16.64h-.09c5.61 5.68 11 11.46 11 16.67v.69zM10 16.52c-.23 2.48-1.71 4.61-4.52 6.48a21.7 21.7 0 0 0-3.42 2.8h.08a21.62 21.62 0 0 1 3.37-2.75c2.82-1.93 4.31-4.08 4.54-6.57v-.69c0-5.24-5.44-11-11-16.66h-.05c5.82 5.94 11.51 11.98 11 17.39zM10 16.53c-.21 2.47-1.71 4.64-4.55 6.58a21.92 21.92 0 0 0-3.36 2.74h.07a22.13 22.13 0 0 1 3.32-2.7c2.85-2 4.35-4.11 4.59-6.61v-.68c.03-5.27-5.46-11.04-11.07-16.68h-.07c5.61 5.64 11.07 11.42 11.07 16.68v.67zM10 16.54c-.2 2.46-1.7 4.67-4.57 6.63a22.2 22.2 0 0 0-3.31 2.68h.08a22.26 22.26 0 0 1 3.26-2.63c2.88-2 4.4-4.15 4.63-6.66v-.67c0-5.29-5.54-11.06-11.19-16.69h-.08c5.92 5.86 11.72 11.89 11.18 17.34zM-1.14-.82h-.07c5.67 5.63 11.29 11.41 11.29 16.7v.66c-.23 2.51-1.75 4.7-4.65 6.68a22.54 22.54 0 0 0-3.25 2.62h.08a22.48 22.48 0 0 1 3.21-2.57c2.92-2 4.45-4.19 4.68-6.72v-.67c-.02-5.3-5.62-11.07-11.29-16.7zM-1.2-.82v.07c5.91 5.84 11.76 11.84 11.27 17.31-.23 2.53-1.77 4.73-4.7 6.73a22.79 22.79 0 0 0-3.19 2.56h.08a22.89 22.89 0 0 1 3.14-2.52c2.95-2 4.49-4.22 4.72-6.76v-.66c.03-5.33-5.63-11.11-11.32-16.73zM-1.21-.76v.07c5.92 5.81 11.78 11.78 11.3 17.26-.23 2.54-1.78 4.76-4.74 6.78a23.09 23.09 0 0 0-3.14 2.5h.07a23.26 23.26 0 0 1 3.09-2.46c3-2 4.54-4.26 4.77-6.82v-.65c.03-5.33-5.64-11.08-11.35-16.68zM-1.21-.69v.07c5.92 5.78 11.8 11.72 11.31 17.2-.22 2.56-1.79 4.79-4.79 6.83a23.43 23.43 0 0 0-3.08 2.44h.08a23.5 23.5 0 0 1 3-2.4c3-2 4.59-4.29 4.81-6.86v-.64c.07-5.34-5.62-11.07-11.33-16.64zM-1.21-.62v.07c5.69 5.55 11.36 11.21 11.36 16.55v.63c-.22 2.57-1.81 4.82-4.83 6.88a23.81 23.81 0 0 0-3 2.38h.08a24 24 0 0 1 3-2.34c3-2.07 4.63-4.33 4.86-6.91v-.63c-.06-5.38-5.75-11.09-11.47-16.63zM-1.21-.56v.07c5.7 5.49 11.38 11.17 11.38 16.49v.62c-.22 2.58-1.82 4.85-4.88 6.92a24.13 24.13 0 0 0-3 2.32h.08a24.36 24.36 0 0 1 2.92-2.28c3.08-2.09 4.68-4.36 4.9-7v-.63c.03-5.31-5.68-10.95-11.4-16.51zM-1.21-.49v.07c5.7 5.48 11.39 11.11 11.39 16.42v.61c-.22 2.6-1.83 4.88-4.92 7a24.33 24.33 0 0 0-2.9 2.26h.08a24.64 24.64 0 0 1 2.85-2.22c3.11-2.1 4.73-4.4 4.95-7v-.62c0-5.37-5.73-11.03-11.45-16.52zM-1.21-.42v.07c5.92 5.66 11.84 11.48 11.38 17-.22 2.61-1.84 4.91-5 7a24.69 24.69 0 0 0-2.84 2.2h.08a24.81 24.81 0 0 1 2.79-2.16c3.14-2.12 4.77-4.44 5-7.06v-.61c.05-5.34-5.68-11.02-11.41-16.44zM-1.21-.35v.07c5.71 5.43 11.43 11.01 11.43 16.28v.6c-.22 2.63-1.86 4.94-5 7.07a25.18 25.18 0 0 0-2.82 2.18h.08a25.3 25.3 0 0 1 2.73-2.1c3.17-2.14 4.82-4.47 5-7.11v-.6c.06-5.35-5.69-10.95-11.42-16.39zM-1.21-.28v.07c5.71 5.4 11.44 11 11.44 16.27v.59c-.21 2.64-1.87 5-5.06 7.12a25.37 25.37 0 0 0-2.71 2.08h.08a25.37 25.37 0 0 1 2.66-2c3.21-2.16 4.87-4.51 5.08-7.16v-.59c.01-5.39-5.75-10.97-11.49-16.38zM-1.21-.21v.07c5.72 5.37 11.46 10.91 11.46 16.22v.58c-.21 2.65-1.88 5-5.11 7.17a25.27 25.27 0 0 0-2.64 2h.08a25.61 25.61 0 0 1 2.59-2c3.24-2.18 4.91-4.54 5.13-7.21v-.58c.01-5.31-5.77-10.86-11.51-16.25zM-1.21-.14v.07c5.73 5.35 11.48 10.85 11.48 16.17v.57c-.21 2.67-1.9 5-5.15 7.22a25.92 25.92 0 0 0-2.58 2h.06a25.8 25.8 0 0 1 2.53-1.92c3.27-2.2 5-4.58 5.18-7.26v-.57c.02-5.39-5.77-10.92-11.52-16.28zM-1.21-.07v.07c5.93 5.51 11.91 11.19 11.48 16.68-.21 2.68-1.91 5.06-5.2 7.27a26.13 26.13 0 0 0-2.52 1.9h.08a26.31 26.31 0 0 1 2.47-1.85c3.3-2.22 5-4.61 5.22-7.31v-.57c.02-5.35-5.78-10.85-11.53-16.19zM-1.21 0v.07c5.94 5.48 11.92 11.13 11.5 16.62-.21 2.69-1.93 5.08-5.29 7.31a26.33 26.33 0 0 0-2.45 1.84h.08a26.72 26.72 0 0 1 2.4-1.8c3.34-2.24 5.06-4.65 5.27-7.36v-.56c.06-5.33-5.75-10.81-11.51-16.12zM6.8 8.17a78.55 78.55 0 0 0-8-8.1v.07c5.74 5.27 11.53 10.7 11.53 16v.54c-.23 2.72-1.96 5.13-5.33 7.39a26.91 26.91 0 0 0-2.38 1.78h.08a26.87 26.87 0 0 1 2.3-1.74c3.37-2.26 5.11-4.69 5.31-7.41v-.54c.07-2.38-1.11-5-3.51-7.99zM6.82 8.21a78.12 78.12 0 0 0-8-8.07v.07c5.74 5.24 11.55 10.65 11.55 16v.53c-.2 2.72-1.95 5.14-5.34 7.42a27.41 27.41 0 0 0-2.31 1.72h.08a27.37 27.37 0 0 1 2.2-1.71c3.4-2.28 5.16-4.72 5.36-7.46v-.53c.04-2.37-1.14-4.99-3.54-7.97zM6.83 8.25a77.87 77.87 0 0 0-8-8v.03c5.71 5.22 11.53 10.6 11.53 15.91v.52c-.2 2.73-2 5.17-5.38 7.47a27.75 27.75 0 0 0-2.24 1.66h.06c.64-.53 1.37-1.07 2.19-1.62 3.44-2.3 5.2-4.76 5.41-7.51v-.52c.01-2.36-1.16-4.97-3.57-7.94zM6.85 8.29a77.48 77.48 0 0 0-8.05-8v.06a77 77 0 0 1 8 8c2.57 3.16 3.74 5.91 3.55 8.41-.2 2.74-2 5.2-5.43 7.52-.82.55-1.54 1.08-2.17 1.6h.08c.63-.51 1.33-1 2.12-1.56 3.47-2.32 5.25-4.79 5.45-7.56v-.51c.03-2.4-1.15-5-3.55-7.96zM6.86 8.33a77.12 77.12 0 0 0-8.07-8v.09a76.73 76.73 0 0 1 8 7.94c2.57 3.15 3.74 5.89 3.56 8.38-.2 2.76-2 5.23-5.47 7.56-.79.53-1.49 1-2.1 1.54h.08c.6-.49 1.28-1 2-1.5 3.5-2.34 5.3-4.83 5.5-7.6v-.5c.09-2.37-1.09-4.96-3.5-7.91zM6.88 8.37a76.83 76.83 0 0 0-8.09-7.95v.07a76.4 76.4 0 0 1 8 7.91c2.57 3.13 3.74 5.86 3.56 8.35-.19 2.77-2 5.26-5.52 7.61-.75.5-1.42 1-2 1.48h.09c.58-.47 1.24-.95 2-1.44 3.54-2.36 5.35-4.87 5.54-7.65v-.49c.01-2.36-1.17-4.95-3.58-7.89zM6.89 8.41a76.54 76.54 0 0 0-8.1-7.92v.07a76.16 76.16 0 0 1 8.06 7.88c2.57 3.11 3.74 5.84 3.57 8.32-.19 2.78-2 5.29-5.57 7.66-.72.48-1.37 1-2 1.42h.15q.86-.68 1.9-1.38c3.57-2.38 5.4-4.9 5.59-7.7v-.48c0-2.36-1.18-4.94-3.6-7.87zM6.9 8.45a76.13 76.13 0 0 0-8.11-7.88v.07a75.86 75.86 0 0 1 8.07 7.84c2.57 3.1 3.74 5.81 3.57 8.29-.19 2.79-2 5.32-5.61 7.71q-1 .69-1.88 1.36h.06c.55-.44 1.16-.88 1.82-1.32 3.6-2.4 5.45-4.94 5.64-7.75v-.47c.04-2.36-1.14-4.94-3.56-7.85zM6.92 8.49a75.8 75.8 0 0 0-8.13-7.85v.07a75.52 75.52 0 0 1 8.09 7.81c2.57 3.08 3.74 5.79 3.58 8.26-.18 2.8-2 5.34-5.66 7.76-.65.44-1.25.87-1.8 1.3h.09c.53-.42 1.11-.84 1.75-1.26 3.64-2.42 5.5-5 5.68-7.8v-.46c0-2.32-1.18-4.93-3.6-7.83zM6.93 8.53a75.52 75.52 0 0 0-8.14-7.82v.07a75.21 75.21 0 0 1 8.1 7.78c2.57 3.07 3.75 5.76 3.58 8.23-.18 2.82-2 5.37-5.71 7.81-.62.42-1.2.83-1.73 1.24h.09c.51-.4 1.07-.8 1.67-1.2 3.67-2.45 5.55-5 5.73-7.85v-.45c.02-2.34-1.16-4.92-3.59-7.81zM6.94 8.57a75.17 75.17 0 0 0-8.15-7.79v.08a74.89 74.89 0 0 1 8.11 7.75c2.57 3.05 3.74 5.73 3.59 8.2-.18 2.83-2.06 5.4-5.75 7.85-.6.4-1.14.79-1.65 1.18h.09c.49-.38 1-.76 1.59-1.14 3.71-2.46 5.6-5 5.78-7.9v-.44c.01-2.36-1.18-4.91-3.61-7.79zM7 8.61a75 75 0 0 0-8.21-7.75v.07a74.61 74.61 0 0 1 8.13 7.72c2.42 2.86 3.61 5.4 3.61 7.75v.43c-.18 2.84-2.07 5.43-5.8 7.9-.57.38-1.1.75-1.58 1.12h.09q.7-.53 1.52-1.08c3.74-2.49 5.64-5.08 5.82-7.94v-.43c0-2.4-1.19-4.92-3.58-7.79zM7 8.65a74.66 74.66 0 0 0-8.21-7.72v.07a74.25 74.25 0 0 1 8.14 7.69c2.57 3 3.75 5.69 3.6 8.15-.17 2.85-2.09 5.45-5.85 8q-.81.54-1.5 1.06h.09q.67-.5 1.44-1c3.77-2.51 5.69-5.12 5.87-8v-.42c.02-2.42-1.17-4.97-3.58-7.83zM7 8.69a74.34 74.34 0 0 0-8.21-7.69v.07a73.92 73.92 0 0 1 8.15 7.66c2.43 2.84 3.62 5.37 3.62 7.71v.41c-.17 2.87-2.1 5.48-5.89 8q-.76.5-1.42 1h.09c.42-.32.88-.63 1.36-1 3.81-2.53 5.74-5.16 5.92-8v-.41c0-2.36-1.2-4.9-3.62-7.75zM7 8.73a74 74 0 0 0-8.2-7.65v.07a73.67 73.67 0 0 1 8.2 7.62c2.57 3 3.75 5.63 3.61 8.09-.17 2.88-2.11 5.51-5.94 8q-.71.47-1.34.94h.09c.4-.3.83-.6 1.28-.9 3.84-2.55 5.79-5.19 6-8.09v-.4c-.07-2.3-1.26-4.84-3.7-7.68zM7 8.77a73.68 73.68 0 0 0-8.21-7.61v.07a73.45 73.45 0 0 1 8.21 7.58c2.57 3 3.76 5.61 3.62 8.06-.16 2.89-2.12 5.54-6 8.09-.45.3-.86.59-1.26.88h.09c.38-.28.78-.56 1.2-.84 3.88-2.57 5.84-5.23 6-8.14v-.39c0-2.34-1.19-4.87-3.65-7.7zM7 8.82a73.46 73.46 0 0 0-8.21-7.59v.07a73.07 73.07 0 0 1 8.21 7.55c2.57 3 3.76 5.59 3.62 8-.16 2.9-2.13 5.56-6 8.14-.42.28-.81.55-1.18.82h.09c.36-.26.73-.52 1.12-.78 3.91-2.59 5.89-5.27 6.06-8.18v-.38c-.04-2.32-1.23-4.84-3.71-7.65zM7 8.86a73.07 73.07 0 0 0-8.19-7.54v.07a72.79 72.79 0 0 1 8.19 7.5c2.57 2.94 3.76 5.56 3.63 8-.16 2.91-2.15 5.59-6.08 8.19-.39.25-.75.51-1.1.76h.09l1-.72c3.95-2.61 5.94-5.3 6.1-8.23v-.37c.05-2.34-1.15-4.86-3.64-7.66zM7.05 8.9a72.64 72.64 0 0 0-8.23-7.49v.07a72.61 72.61 0 0 1 8.18 7.45c2.58 2.93 3.77 5.53 3.64 8-.15 2.92-2.16 5.62-6.13 8.24l-1 .7h.09l1-.66c4-2.63 6-5.34 6.15-8.28v-.36c-.04-2.37-1.24-4.88-3.7-7.67zM7.06 8.94a72.14 72.14 0 0 0-8.22-7.44h-.05v.07a72.16 72.16 0 0 1 8.21 7.43c2.58 2.91 3.76 5.51 3.64 7.94-.15 2.93-2.17 5.64-6.17 8.29l-.94.64h.09l.88-.6c4-2.65 6-5.38 6.2-8.33v-.35c.03-2.36-1.17-4.86-3.64-7.65zM7.08 9a71.7 71.7 0 0 0-8.22-7.41l-.07-.06v.07a71.7 71.7 0 0 1 8.21 7.4c2.58 2.9 3.77 5.49 3.65 7.91-.15 2.94-2.18 5.67-6.22 8.33l-.85.58h.09l.79-.54c4.05-2.67 6.1-5.41 6.24-8.37v-.34c.05-2.32-1.16-4.81-3.62-7.57zM7.09 9a71.22 71.22 0 0 0-8.21-7.32l-.09-.07v.07h.06a71.21 71.21 0 0 1 8.2 7.33c2.58 2.88 3.77 5.46 3.66 7.88-.14 3-2.19 5.7-6.27 8.38l-.77.53h.09l.71-.48c4.09-2.69 6.15-5.45 6.29-8.42v-.33c.01-2.3-1.2-4.78-3.67-7.57zM7.1 9.06a70.79 70.79 0 0 0-8.2-7.29l-.11-.09v.07l.07.06a70.79 70.79 0 0 1 8.2 7.29c2.58 2.9 3.78 5.44 3.67 7.9-.14 3-2.21 5.72-6.31 8.43l-.68.46h.09l.62-.42c4.12-2.72 6.2-5.49 6.34-8.47v-.32c0-2.38-1.21-4.86-3.69-7.62zM7.12 9.11a70.41 70.41 0 0 0-8.2-7.24l-.13-.1v.07l.09.07a70.4 70.4 0 0 1 8.2 7.23c2.47 2.73 3.68 5.2 3.68 7.52v.3c-.14 3-2.22 5.75-6.36 8.47l-.6.4h.09l.53-.36c4.15-2.72 6.24-5.47 6.38-8.47v-.31c.01-2.37-1.2-4.84-3.68-7.58zM7.13 9.15a70 70 0 0 0-8.19-7.15l-.14-.11v.07l.1.04a70 70 0 0 1 8.19 7.18c2.58 2.82 3.79 5.39 3.68 7.82-.13 3-2.23 5.77-6.41 8.52l-.51.35h.09l.44-.3a18.44 18.44 0 0 0 4.86-4.37 7.76 7.76 0 0 0 1.58-4.2v-.3c.01-2.35-1.21-4.82-3.69-7.55zM7.14 9.19a69.66 69.66 0 0 0-8.14-7.19l-.16-.13v.13l.13.1c5.62 4.45 12.03 9.51 11.82 14.9-.13 3-2.24 5.8-6.45 8.57l-.42.29h.08l.35-.24a18.59 18.59 0 0 0 4.89-4.38 7.76 7.76 0 0 0 1.6-4.24v-.29c.01-2.34-1.21-4.8-3.7-7.52zM7.15 9.23a69.1 69.1 0 0 0-8.15-7.09l-.21-.14v.07l.15.12c5.67 4.42 12.06 9.45 11.87 14.81-.12 3-2.25 5.82-6.5 8.61l-.31.24h.1l.27-.18a18.75 18.75 0 0 0 4.93-4.41 7.76 7.76 0 0 0 1.56-4.26v-.28c0-2.32-1.21-4.78-3.71-7.49zM7.17 9.27a68.78 68.78 0 0 0-8.17-7.04l-.2-.15v.07l.17.13c5.56 4.32 11.86 9.21 11.86 14.48v.26c-.12 3-2.26 5.85-6.55 8.66l-.28.17h.1l.18-.12a18.91 18.91 0 0 0 5-4.44 7.76 7.76 0 0 0 1.6-4.29v-.27c0-2.3-1.21-4.73-3.71-7.46zM-1 2.32l-.22-.17v.07l.18.14c5.57 4.3 11.87 9.16 11.87 14.42v.25c-.12 3-2.27 5.87-6.6 8.71l-.16.11h.1l.09-.06a19.09 19.09 0 0 0 5-4.47 7.77 7.77 0 0 0 1.64-4.32v-.25c0-5.25-6.31-10.12-11.9-14.43zM-1 2.41l-.23-.18v.07l.2.15c5.57 4.27 11.88 9.1 11.88 14.35v.24c-.11 3-2.29 5.9-6.64 8.75h-.07.1a19.23 19.23 0 0 0 5-4.49 7.77 7.77 0 0 0 1.68-4.3v-.24c0-5.23-6.31-10.07-11.92-14.35zM-1 2.51l-.25-.19v.07l.22.17c5.66 4.3 12.06 9.18 11.87 14.51-.11 3-2.29 5.92-6.67 8.79h.09a19.3 19.3 0 0 0 5-4.47 7.78 7.78 0 0 0 1.63-4.32v-.23c.05-5.28-6.26-10.09-11.89-14.33zM-.94 2.6l-.27-.2v.07l.23.18c5.57 4.21 11.88 9 11.88 14.21v.22c-.1 3-2.27 5.9-6.63 8.77h.1a19.35 19.35 0 0 0 5-4.44 7.78 7.78 0 0 0 1.63-4.33v-.22c0-5.27-6.36-10.04-11.94-14.26zM-.92 2.69l-.28-.21v.07l.25.19c5.58 4.18 11.89 8.92 11.89 14.15v.21c-.1 3-2.26 5.88-6.59 8.76h.1a19.36 19.36 0 0 0 4.9-4.41 7.77 7.77 0 0 0 1.65-4.36v-.21c0-5.26-6.34-10-11.92-14.19zM-.91 2.78l-.3-.22v.07l.27.2c5.58 4.17 11.89 8.85 11.89 14.07v.2c-.09 3-2.24 5.87-6.55 8.75h.1a19.38 19.38 0 0 0 4.85-4.37 7.78 7.78 0 0 0 1.65-4.38v-.2c0-5.25-6.32-9.96-11.91-14.12zM-.89 2.87l-.32-.23v.06l.28.21c5.59 4.09 11.93 8.8 11.93 14.02v.19c-.09 3-2.22 5.85-6.5 8.73h.1a19.41 19.41 0 0 0 4.8-4.34 7.79 7.79 0 0 0 1.6-4.39v-.19c0-5.25-6.3-9.93-11.89-14.06zM-.88 3l-.33-.24v.07l.3.22c5.64 4.14 12 8.84 11.89 14.13-.08 3-2.2 5.84-6.46 8.72h.1a19.44 19.44 0 0 0 4.75-4.31 7.78 7.78 0 0 0 1.63-4.46v-.18c0-5.24-6.29-9.88-11.88-13.95zM-.86 3.05l-.35-.25v.07l.32.23c5.58 4.06 11.89 8.67 11.89 13.9v.17c-.08 3-2.18 5.82-6.42 8.7h.1a19.48 19.48 0 0 0 4.71-4.28 7.78 7.78 0 0 0 1.67-4.42v-.17c0-5.26-6.33-9.87-11.92-13.95zM-.84 3.14l-.36-.26v.07l.33.24c5.58 4.04 11.87 8.61 11.87 13.81v.16c-.07 3-2.17 5.81-6.38 8.69h.1a19.5 19.5 0 0 0 4.68-4.26 7.78 7.78 0 0 0 1.68-4.43v-.16c0-5.22-6.33-9.81-11.92-13.86zM-.83 3.23l-.38-.23.35.25c5.59 4.04 11.86 8.58 11.86 13.75v.15c0 2.97-2.1 5.85-6.29 8.7h.1a19.54 19.54 0 0 0 4.61-4.22 7.79 7.79 0 0 0 1.68-4.45v-.15c0-5.22-6.33-9.77-11.93-13.8zM-.81 3.32l-.4-.32v.07l.36.26c5.59 4 11.91 8.5 11.91 13.68v.14c-.06 2.98-2.12 5.85-6.29 8.7h.09a19.56 19.56 0 0 0 4.57-4.19 7.78 7.78 0 0 0 1.69-4.47v-.14c0-5.21-6.34-9.73-11.93-13.73zM-.8 3.42l-.41-.29v.07l.38.27c5.59 4 11.92 8.44 11.92 13.62v.13c-.09 2.91-2.09 5.78-6.26 8.63h.09a19.58 19.58 0 0 0 4.52-4.16 7.78 7.78 0 0 0 1.69-4.48v-.13c.01-5.21-6.33-9.7-11.93-13.66zM-.78 3.51l-.42-.3v.07l.39.28c5.59 3.92 11.92 8.37 11.92 13.54v.12c-.06 2.91-2.11 5.78-6.22 8.63h.11a19.63 19.63 0 0 0 4.48-4.13 7.78 7.78 0 0 0 1.7-4.5v-.12c-.02-5.2-6.36-9.66-11.96-13.59zM-.77 3.6l-.44-.3v.06l.41.28c5.59 3.9 11.93 8.36 11.93 13.49v.11c0 2.91-2.07 5.73-6.18 8.62h.05a19.63 19.63 0 0 0 4.43-4.1 7.78 7.78 0 0 0 1.71-4.51v-.11c.04-5.21-6.3-9.63-11.91-13.54zM-.76 3.69l-.44-.31v.07l.42.29c5.59 3.87 11.93 8.26 11.93 13.41v.09c0 2.9-2.06 5.72-6.14 8.6h.09a19.68 19.68 0 0 0 4.39-4.07 7.79 7.79 0 0 0 1.71-4.53v-.1c0-5.14-6.35-9.57-11.96-13.45zM-.74 3.78l-.43-.29v.07l.43.29c5.57 3.82 11.91 8.15 11.91 13.33v.09c0 2.88-2 5.7-6.1 8.59h.09a19.66 19.66 0 0 0 4.34-4 7.78 7.78 0 0 0 1.72-4.54v-.09c0-5.23-6.35-9.6-11.96-13.45zM-.73 3.87l-.41-.28h-.07v.07l.41.28c5.6 3.82 11.95 8.14 11.95 13.29v.07c0 2.88-2 5.69-6.06 8.57h.09a19.72 19.72 0 0 0 4.3-4 7.78 7.78 0 0 0 1.73-4.56v-.11c.04-5.2-6.33-9.5-11.94-13.33zM-.72 4l-.39-.27-.1-.07v.07h.07l.39.27c5.61 3.79 12 8.09 12 13.22v.06c0 2.86-2 5.67-6 8.55h.09a19.75 19.75 0 0 0 4.26-4 7.77 7.77 0 0 0 1.73-4.57v-.06c-.06-5.14-6.43-9.44-12.05-13.2zM-.7 4.05l-.38-.25-.13-.09v.07l.1.07.38.25c5.61 3.76 12 8 12 13.16v.05c0 2.85-2 5.66-6 8.54h.09a19.77 19.77 0 0 0 4.22-4 7.77 7.77 0 0 0 1.74-4.59v-.05c-.03-5.12-6.4-9.39-12.02-13.16zM-.69 4.14l-.36-.24-.16-.11v.07l.13.09.36.24c5.61 3.74 12 8 12 13.1 0 2.84-2 5.64-6 8.52h.09a19.79 19.79 0 0 0 4.17-3.92 7.77 7.77 0 0 0 1.75-4.6c.02-5.16-6.36-9.4-11.98-13.15zM-.68 4.23l-.32-.23-.19-.13v.07l.16.11.34.23c5.62 3.71 12 7.91 12 13a7.71 7.71 0 0 1-1.74 4.59 19.89 19.89 0 0 1-4.18 3.92h.09a19.8 19.8 0 0 0 4.09-3.79 7.76 7.76 0 0 0 1.75-4.62c.01-5.22-6.37-9.43-12-13.15zM-.66 4.32l-.34-.21-.21-.11.19.13.33.21c5.62 3.68 12 7.85 12 13a7.71 7.71 0 0 1-1.76 4.66 19.9 19.9 0 0 1-4.14 3.89h.09a19.8 19.8 0 0 0 4.09-3.89 7.76 7.76 0 0 0 1.76-4.63c0-5.18-6.35-9.37-12.01-13.05zM-.65 4.42l-.35-.2-.21-.22v.06l.22.15.31.2c5.62 3.65 12 7.79 12 12.9a7.7 7.7 0 0 1-1.76 4.69 19.91 19.91 0 0 1-4.09 3.86h.09a19.86 19.86 0 0 0 4.04-3.86 7.75 7.75 0 0 0 1.76-4.65c.01-5.13-6.36-9.27-12.01-12.93zM7.45 10.36a60.29 60.29 0 0 0-8.09-5.85l-.29-.19-.27-.19v.06l.25.17.29.19c5.63 3.63 12 7.73 12 12.84a7.7 7.7 0 0 1-1.76 4.61 19.94 19.94 0 0 1-4.05 3.83h.09a19.86 19.86 0 0 0 4-3.8 7.75 7.75 0 0 0 1.77-4.66c0-2.27-1.29-4.57-3.94-7.01zM7.46 10.41a61 61 0 0 0-8.09-5.81l-.27-.18-.3-.21v.06l.27.19.27.17c5.63 3.6 12 7.67 12 12.76a7.7 7.7 0 0 1-1.75 4.61 19.94 19.94 0 0 1-4 3.8h.09a19.88 19.88 0 0 0 4-3.77 7.76 7.76 0 0 0 1.78-4.66c-.06-2.25-1.35-4.54-4-6.96zM11.43 17.42c0-2.28-1.3-4.56-4-7a60.81 60.81 0 0 0-8.05-5.73l-.25-.16-.33-.23v.06l.3.21.25.16a60.65 60.65 0 0 1 8.09 5.76c2.64 2.4 3.93 4.67 3.94 6.93a7.7 7.7 0 0 1-1.77 4.63 20 20 0 0 1-4 3.77h.09a20 20 0 0 0 3.93-3.74 7.76 7.76 0 0 0 1.78-4.67zM7.48 10.5a60.43 60.43 0 0 0-8.09-5.72l-.23-.15-.36-.25v.06l.33.23.23.15a60.31 60.31 0 0 1 8.09 5.71c2.65 2.38 3.94 4.64 3.95 6.9a7.71 7.71 0 0 1-1.78 4.64 20 20 0 0 1-3.93 3.74h.09a19.94 19.94 0 0 0 3.89-3.71 7.75 7.75 0 0 0 1.79-4.67c-.02-2.27-1.32-4.54-3.98-6.93zM7.49 10.54a60.21 60.21 0 0 0-8.09-5.67l-.22-.13-.39-.26v.06l.36.24.22.13a60.14 60.14 0 0 1 8.09 5.67c2.65 2.37 3.94 4.62 4 6.87a7.7 7.7 0 0 1-1.78 4.64 20 20 0 0 1-3.89 3.71h.09a20 20 0 0 0 3.85-3.68 7.76 7.76 0 0 0 1.79-4.67c-.06-2.27-1.37-4.53-4.03-6.91zM11.49 17.47c0-2.26-1.33-4.52-4-6.88a59.93 59.93 0 0 0-8.08-5.59l-.2-.12-.42-.28v.06l.39.26.2.12a59.83 59.83 0 0 1 8.09 5.62c2.65 2.36 4 4.59 4 6.84v.05a7.71 7.71 0 0 1-1.79 4.64 20 20 0 0 1-3.88 3.66h.09a20 20 0 0 0 3.8-3.65 7.75 7.75 0 0 0 1.8-4.68zM11.51 17.49c0-2.26-1.33-4.5-4-6.85a59.61 59.61 0 0 0-8.09-5.59l-.18-.11-.45-.3v.07l.43.29.18.11a59.68 59.68 0 0 1 8.08 5.58c2.65 2.34 4 4.57 4 6.81v.06a7.7 7.7 0 0 1-1.8 4.65 20 20 0 0 1-3.81 3.65h.09a20 20 0 0 0 3.77-3.62 7.76 7.76 0 0 0 1.81-4.68l-.03-.07zM11.53 17.5c0-2.25-1.34-4.49-4-6.82a59.41 59.41 0 0 0-8.1-5.54l-.16-.14-.48-.32v.07l.45.3.16.09a59.34 59.34 0 0 1 8.08 5.53c2.66 2.33 4 4.55 4 6.79v.07a7.71 7.71 0 0 1-1.8 4.65 20.06 20.06 0 0 1-3.77 3.62h.09a20 20 0 0 0 3.73-3.59 7.76 7.76 0 0 0 1.81-4.68zM11.55 17.52c0-2.25-1.35-4.47-4-6.8a59.21 59.21 0 0 0-8.11-5.49l-.14-.08c-.18-.15-.3-.22-.51-.34v.07c.15.11.31.22.48.32l.14.08a59.06 59.06 0 0 1 8.09 5.49c2.66 2.31 4 4.52 4 6.76a7.64 7.64 0 0 1-1.8 4.73 20.09 20.09 0 0 1-3.7 3.59 20 20 0 0 0 3.69-3.56 7.76 7.76 0 0 0 1.82-4.68l.04-.09zM11.58 17.54c0-2.24-1.36-4.46-4-6.77a58.91 58.91 0 0 0-8.13-5.44l-.11-.07c-.2-.12-.34-.26-.55-.36v.1c.16.12.33.23.51.34l.11.07a58.78 58.78 0 0 1 8.08 5.44c2.67 2.3 4 4.5 4 6.73v.09a7.7 7.7 0 0 1-1.81 4.65 20.08 20.08 0 0 1-3.68 3.53h.1a20.05 20.05 0 0 0 3.65-3.53 7.76 7.76 0 0 0 1.82-4.69zM11.6 17.56c0-2.24-1.36-4.44-4-6.74a58.7 58.7 0 0 0-8.14-5.4l-.09-.06a6.37 6.37 0 0 1-.58-.36c.17.12.34.24.54.36l.09.06a58.66 58.66 0 0 1 8.08 5.39c2.67 2.29 4 4.48 4 6.7a7.65 7.65 0 0 1-1.82 4.76 20.11 20.11 0 0 1-3.66 3.53h.09a20 20 0 0 0 3.61-3.5 7.76 7.76 0 0 0 1.83-4.69l.05-.05zM11.62 17.57c0-2.23-1.37-4.43-4.06-6.71a58.44 58.44 0 0 0-8.1-5.35h-.07a6.62 6.62 0 0 1-.6-.4v.07a6.54 6.54 0 0 0 .57.38h.07a58.38 58.38 0 0 1 8.09 5.34c2.67 2.27 4 4.45 4 6.67v.11a7.71 7.71 0 0 1-1.82 4.66 20.16 20.16 0 0 1-3.62 3.5h.09a20.13 20.13 0 0 0 3.57-3.47 7.76 7.76 0 0 0 1.83-4.69l.05-.11zM-1.21.51a17.38 17.38 0 0 1 1.21-1.33c-.47.43-.87.82-1.21 1.26zM11.64 17.59c0-2.23-1.38-4.41-4.07-6.68a58.15 58.15 0 0 0-8.1-5.31 6.31 6.31 0 0 1-.63-.42v.07a6.49 6.49 0 0 0 .6.4 58.12 58.12 0 0 1 8.09 5.3c2.68 2.26 4 4.43 4.05 6.64v.12a7.7 7.7 0 0 1-1.83 4.66 20.14 20.14 0 0 1-3.58 3.47h.09a20.11 20.11 0 0 0 3.54-3.43 7.76 7.76 0 0 0 1.84-4.69v-.13zM-1.21.69a17.83 17.83 0 0 1 1.41-1.51h-.08a18.15 18.15 0 0 0-1.33 1.41zM11.66 17.61c-.05-2.22-1.39-4.4-4.08-6.66a58 58 0 0 0-8.1-5.26 6.43 6.43 0 0 1-.66-.43v.04a6.42 6.42 0 0 0 .63.41 58 58 0 0 1 8.09 5.29c2.68 2.24 4 4.41 4.07 6.62a7.61 7.61 0 0 1-1.83 4.8 20.15 20.15 0 0 1-3.54 3.44h.09a20.17 20.17 0 0 0 3.5-3.41 7.76 7.76 0 0 0 1.85-4.7l-.02-.14zM11.68 17.63c-.06-2.22-1.4-4.39-4.1-6.63a57.75 57.75 0 0 0-8.09-5.22 6.4 6.4 0 0 1-.69-.46v.07a6.35 6.35 0 0 0 .66.43 57.73 57.73 0 0 1 8.09 5.18c2.69 2.23 4 4.38 4.08 6.59a7.6 7.6 0 0 1-1.84 4.81 20.18 20.18 0 0 1-3.5 3.41h.09a20.16 20.16 0 0 0 3.46-3.38 7.76 7.76 0 0 0 1.85-4.7l-.01-.1zM-1.21.86a18.58 18.58 0 0 1 1.59-1.68h-.08a18.63 18.63 0 0 0-1.51 1.59zM-1.21 1a19.4 19.4 0 0 1 1.76-1.82h-.07a19.38 19.38 0 0 0-1.69 1.76zM11.7 17.64c-.06-2.21-1.4-4.37-4.1-6.59a57.31 57.31 0 0 0-8.09-5.17 6.26 6.26 0 0 1-.72-.47v.07a6.37 6.37 0 0 0 .69.45c5.36 3 12 6.78 12.16 11.72a7.6 7.6 0 0 1-1.84 4.82 20.24 20.24 0 0 1-3.47 3.38h.09a20.23 20.23 0 0 0 3.43-3.35 7.76 7.76 0 0 0 1.86-4.7l-.01-.16zM-1.21 1.19a20 20 0 0 1 1.94-2h-.08a20.07 20.07 0 0 0-1.86 1.92zM11.72 17.66c-.14-4.96-6.82-8.66-12.18-11.66a6.17 6.17 0 0 1-.75-.49v.06a6.2 6.2 0 0 0 .72.43c5.35 3 12 6.7 12.16 11.63a7.61 7.61 0 0 1-1.85 4.87 20.26 20.26 0 0 1-3.43 3.35h.09a20.21 20.21 0 0 0 3.39-3.32 7.76 7.76 0 0 0 1.86-4.7l-.01-.17zM11.74 17.68c-.15-4.95-6.82-8.68-12.17-11.59a6.08 6.08 0 0 1-.78-.5v.07a6.08 6.08 0 0 0 .75.48c5.34 3 12 6.63 12.15 11.55v.17a7.7 7.7 0 0 1-1.86 4.67 20.27 20.27 0 0 1-3.39 3.32h.09a20.21 20.21 0 0 0 3.35-3.29 7.76 7.76 0 0 0 1.87-4.71l-.01-.17zM-1.21 1.36a20.62 20.62 0 0 1 2.12-2.18h-.08a20.8 20.8 0 0 0-2 2.1zM-1.21 1.54a21.44 21.44 0 0 1 2.31-2.36h-.1a21.54 21.54 0 0 0-2.21 2.27zM11.77 17.7c-.17-4.94-6.82-8.58-12.17-11.51a5.81 5.81 0 0 1-.81-.52v.07a6.08 6.08 0 0 0 .78.5c5.33 2.92 12 6.55 12.14 11.46v.18a7.7 7.7 0 0 1-1.86 4.67 20.24 20.24 0 0 1-3.35 3.3h.09a20.2 20.2 0 0 0 3.31-3.26 7.76 7.76 0 0 0 1.87-4.71v-.18zM-1.21 1.71a22.11 22.11 0 0 1 2.49-2.53h-.08a22.25 22.25 0 0 0-2.41 2.45zM11.79 17.72c-.18-4.93-6.79-8.53-12.16-11.42a5.89 5.89 0 0 1-.84-.54v.07a5.93 5.93 0 0 0 .81.52c5.33 2.89 12 6.48 12.13 11.37a7.56 7.56 0 0 1-1.86 4.87 20.28 20.28 0 0 1-3.32 3.26h.09a20.22 20.22 0 0 0 3.28-3.23 7.76 7.76 0 0 0 1.88-4.71l-.01-.19zM-1.21 1.89a23 23 0 0 1 2.68-2.71h-.08a23.16 23.16 0 0 0-2.6 2.62zM11.81 17.74c-.19-4.92-6.81-8.48-12.15-11.34a5.68 5.68 0 0 1-.87-.56v.07a5.9 5.9 0 0 0 .84.54c5.37 2.85 11.94 6.41 12.12 11.29a7.56 7.56 0 0 1-1.87 4.88 20.29 20.29 0 0 1-3.28 3.23h.09a20.24 20.24 0 0 0 3.24-3.2 7.75 7.75 0 0 0 1.88-4.71v-.2z"/></g></g></svg>