<svg xmlns="http://www.w3.org/2000/svg" viewBox="0 0 1200 1200"><defs><style>.cls-1{fill:#86d1ca;}.cls-2{fill:#1571b8;}.cls-3{fill:#3a271f;}.cls-4{fill:#4189c9;}.cls-5{fill:#f16822;}.cls-6{fill:#bcd530;}.cls-7{fill:#ffd31a;}.cls-8{fill:#79ccd1;}.cls-9{fill:#fff;}.cls-10{fill:#f37826;}.cls-11{fill:#ed302f;}.cls-12{fill:#ec8dba;}.cls-13{fill:#f4ea0b;}</style></defs><title>7</title><path class="cls-1" d="M-1.08-2.17h1202.17v1202.17h-1202.17z"/><path class="cls-2" d="M59.53 543.45c31.65 22.61 73.24 50.64 101.27 81.38 23.51-19 44.31-44.31 72.34-56.06-19-37.07-41.59-80.48-66.91-113.93-34.36 28-74.15 61.49-107.6 85"/><path class="cls-3" d="M58.94 544.47c35.08 25 71.71 49.26 101 81.2a1.2 1.2 0 0 0 1.66 0c23.54-19.15 43.64-43.67 72.1-55.88a1.18 1.18 0 0 0 .42-1.61c-20.02-39.18-40.34-78.69-66.87-113.93a1.21 1.21 0 0 0-1.85-.24c-35.31 28.82-70.08 58.54-107.4 84.81-1.23.87-.06 2.91 1.19 2 37.45-26.39 72.37-56.24 107.84-85.18l-1.85-.24c26.53 35.24 46.86 74.79 66.91 113.93l.42-1.61c-28.6 12.28-48.84 37.01-72.51 56.28h1.66c-29.45-32.08-66.28-56.42-101.51-81.56-1.24-.88-2.41 1.16-1.19 2z"/><path class="cls-4" d="M45.07 530.79c3.62 5.43 10.85 13.56 16.28 19h-.9c38.88-26.22 80.47-57.87 114.84-89.52-5.43-7.23-10.85-14.47-15.37-21.7-40.69 27.13-76.86 66-114.84 91.33"/><path class="cls-3" d="M44.05 531.39a140.81 140.81 0 0 0 16.46 19.23l.83-2h-.9l.56 2.18c40.3-27.22 79.24-56.78 115.07-89.7a1.16 1.16 0 0 0 .18-1.42c-5.32-7.1-10.62-14.2-15.37-21.7a1.19 1.19 0 0 0-1.61-.42c-40.73 27.32-74.13 64-114.84 91.33-1.25.84-.08 2.88 1.19 2 40.71-27.31 74.1-64 114.84-91.33l-1.61-.42c3.78 6 7.91 11.69 12.12 17.36.38.51 3.11 3.21 2.2 4q-1.86 1.7-3.73 3.39-3.77 3.42-7.61 6.77c-10.45 9.2-21.18 18.09-32.06 26.78-22.6 18-46 35.08-70 51.26a1.18 1.18 0 0 0 .59 2.19h.9a1.19 1.19 0 0 0 .83-2 137.57 137.57 0 0 1-16.01-18.69c-.85-1.24-2.89-.07-2 1.19zM49.87 539.38c-1.78.71-3.64 1.1-5.43 1.81-1.55.61-2.45 2.62-1 3.93 16.06 14.93 34.26 28 56.36 31.64 20.88 3.41 44.56-1.35 62.81-11.94a70.06 70.06 0 0 0 33.52-45.82c4.71-22.54-3.7-46-16.2-64.65a77.31 77.31 0 0 0-6.61-8.41c-2-2.26-5.34 1.07-3.33 3.33 14.84 16.57 24.46 40.65 22.43 63-1.78 19.61-13.87 36.67-30.12 47.19-17.34 11.23-41 15.73-61.29 12.76-21.25-3.1-39-16.18-54.28-30.43l-1 3.93c1.78-.71 3.64-1.1 5.43-1.81 2.79-1.1 1.57-5.65-1.25-4.54z"/><path class="cls-5" d="M936.62 825.63c32.33-24.29 60.71-63.94 95.87-85.29 3.24 5.15 8.4 14.55 9.42 20.11-14.15 10.62-101.91 102.48-105.5 64.06"/><path class="cls-3" d="M937.11 826.47c34.18-25.86 59.06-62.71 95.87-85.29l-1.34-.35a118.49 118.49 0 0 1 6.3 11.48 47 47 0 0 1 2.62 6.71c.38 1.26.87.53-.31 1.49-2.53 2-4.91 4.26-7.3 6.46-8 7.3-15.82 14.73-23.83 22-9.52 8.62-19.21 17.08-29.35 25-8.35 6.5-17.27 13.23-27.18 17.17-3.15 1.25-6.86 2.39-10.24 1.44s-4.63-4.81-5-8c-.13-1.24-2.09-1.25-2 0 2 19.26 24.12 5.94 33 .07 20.35-13.5 38.34-30.63 56.18-47.2 5.82-5.41 11.48-11.29 17.82-16.1a1 1 0 0 0 .45-1.11c-1.53-7.24-5.65-14.13-9.52-20.34a1 1 0 0 0-1.34-.35c-36.83 22.6-61.68 59.42-95.87 85.29-1 .75 0 2.45 1 1.69z"/><path class="cls-5" d="M974.37 887.67c16.76-21.44 11.5-25.08-7-44.68-12.85-13.74-43.91-51.72-65.24-49-20 3.65-52.63 45.23-68.39 59.6l-3.13 1.72c27.52 24.85 56.66 58.59 79.43 88.9 21.3-15.37 48.68-35.3 64.33-56.54z"/><path class="cls-3" d="M975.06 888.36c4.5-5.81 9.86-12.39 10.39-20 .43-6.2-4.16-11.56-8-15.91-10.39-11.88-21.32-23.71-32.55-34.8-10.05-9.92-22.52-21.86-37-24.41-12.41-2.18-24.2 9.06-32.62 16.62-9 8.06-17.21 16.93-25.45 25.73-6 6.43-12 14.64-19.79 18.92a1 1 0 0 0-.2 1.54c29.38 26.62 55.46 57.06 79.27 88.7a1 1 0 0 0 1.34.35c23.13-16.69 47.48-33.81 64.7-56.91.76-1-.94-2-1.69-1-17 22.81-41.17 39.73-64 56.21l1.34.35c-23.92-31.78-50.07-62.36-79.58-89.1l-.2 1.54c5-2.73 8.59-6.94 12.48-11 5.65-5.93 11.18-12 16.84-17.89 10.71-11.19 22.32-24 36.64-30.59 14-6.42 29.24 6.68 39 15.32 11.42 10.06 21.15 21.72 31.58 32.75 5.46 5.77 13 12 15.4 19.83 2.47 8-4.89 16.61-9.39 22.41-.65.98.72 2.34 1.49 1.34z"/><path class="cls-5" d="M835.16 858.53c10.21-.77 21.9-15 29.95-21.16 12.63-9.28 28.8-27.27 45.95-24.75s38.48 27.26 47.41 41.11c10.67 17 5.61 32.87-8.82 44.79-16 12.79-30.53 24.15-44.55 38.28"/><path class="cls-3" d="M835.16 859.51c7.87-.88 14.27-6.8 19.9-11.88 6.51-5.88 13.21-11.36 20-17 7.78-6.47 15.89-13.27 25.74-16.27 9.18-2.79 17.61.8 25.15 5.9 7.89 5.34 14.68 12.35 20.87 19.53 6 7 12.24 14.66 15.12 23.5 7.86 24.14-19 39-34.33 51.77-8 6.67-15.79 13.62-23.16 21a1 1 0 0 0 1.38 1.38c8.37-8.4 17.28-16.19 26.43-23.72 8.72-7.17 18.88-13.6 25.89-22.55a31.56 31.56 0 0 0 6.73-23.61c-1.1-8.56-6.16-15.77-11.25-22.46-9.76-12.82-22.47-27.06-38.12-32.48-17.25-6-33.2 9.48-45.31 19.47-5.31 4.39-10.57 8.65-15.65 13.32-5.35 4.92-11.76 11.23-19.35 12.08-1.24.14-1.25 2.1 0 2z"/><path class="cls-5" d="M1034.74 708.85c-6.74 1.05-15.74 13.63-20.74 18.44s-5.21 5.67-.75 10.93c5 5.94 12.42 13.73 15 21.23 3.48-2.81 5.27-7.06 9.46-9.17a45.93 45.93 0 0 1-10-14.72c4.51-3.35 8.47-8.35 12.46-12.16a128.62 128.62 0 0 1 19.29 22.74c-3.79 3.89-9.3 8.38-14.22 10.5a20.21 20.21 0 0 1-5.36-4.86c-1.12 5.11-7.94 6.2-8.52 10.88-.47 3.79 5.23 9.82 7.17 13 4.68 7.57 5.88 4.4 11.29-2.17 7.84-9.51 17.82-17.4 25.16-27.24-4.71-3.44-7.08-9.3-10.26-14-2.39-3.55-5.72-5.57-8.4-8.82-2.06-2.48-3-5.68-5.24-8-3.41-3.48-10.39-6.78-15-8"/><path class="cls-3" d="M1034.48 707.9c-4.63 1-8.3 4.81-11.46 8.07-4.15 4.29-8.23 8.79-12.2 13.24-3.47 3.88-.24 7.35 2.5 10.57 5.24 6.15 11.14 12.24 14 19.94a1 1 0 0 0 1.64.43c3.29-2.87 5.39-6.81 9.26-9a1 1 0 0 0 .2-1.54 46.39 46.39 0 0 1-9-12.57c-.91-1.83 3.79-5 4.95-6.18 2.19-2.23 4.27-4.56 6.51-6.74h-1.38a135 135 0 0 1 17.6 20.25c1.37 2 .62 2.2-1 3.66a56.22 56.22 0 0 1-6 4.75 37.16 37.16 0 0 1-4.33 2.55c-1.48.76-4.44-3.19-5.24-4.22-.47-.61-1.45-.2-1.64.43-1.66 5.62-10.13 6.78-8.2 13.73.91 3.28 3.54 6.16 5.53 8.83 1.69 2.26 3 5.3 5.58 6.65 1.64.85 3.23-.35 4.38-1.42 3.26-3 5.8-7 8.84-10.3 6.93-7.46 14.58-14.17 20.77-22.3a1 1 0 0 0-.15-1.19c-4-3.16-6.3-7.59-8.87-11.89-2.77-4.62-7.17-7.48-10.36-11.72-2.57-3.41-3.78-6.76-7.29-9.43a38.8 38.8 0 0 0-12.77-6 1 1 0 0 0-.52 1.89c5.67 1.6 12.32 4.46 15.85 9.4 1.44 2 2.26 4.43 3.91 6.31 1.87 2.14 4 4 6 6 3.9 3.86 5.91 9.38 9.29 13.68a20.73 20.73 0 0 0 2.42 2.48c.48.44-3.06 4.22-3.41 4.63-2.11 2.42-4.36 4.71-6.61 7-4.52 4.58-9.14 9-13.35 13.91-1.76 2-3.33 4.24-5.18 6.21-2.75 2.94-5-2.24-6.35-4.1-2.6-3.69-8.71-9.4-4.61-13.86 2.54-2.76 5.81-4.07 6.95-7.92l-1.64.43a22.81 22.81 0 0 0 4.56 4.31c1.72 1.29 2.23.64 4.13-.34 4.59-2.37 8.67-6 12.28-9.61a1 1 0 0 0 .15-1.19 133.17 133.17 0 0 0-19.44-22.94 1 1 0 0 0-1.38 0c-4.16 4.06-7.86 8.58-12.46 12.16a.94.94 0 0 0-.25 1 46 46 0 0 0 10.31 15.05l.2-1.54c-4 2.3-6.23 6.34-9.65 9.32l1.64.43c-1.83-4.9-4.82-9.1-8.06-13.18-1.83-2.31-3.78-4.52-5.71-6.74-2.62-3-5.9-5.73-2.56-9.47s6.71-7.25 10-10.89 7.16-8.1 12.07-9.13c1.23-.26.71-2.15-.52-1.89z"/><path class="cls-6" d="M586.12 124.42c-7.8 3.12-21.84 11.7-32.76 6.24-31.2-14.82 18.72-62.39 37.44-34.32 8.58 12.48 0 24.18-10.92 32"/><path class="cls-3" d="M585.78 123.19c-12 4.95-29.42 14.53-39.14.41-5.47-7.94.75-18.19 6.37-24.05 6.45-6.74 16.45-12.15 26-10.21 5.79 1.18 9.75 5.63 12.41 10.63 5.73 10.79-4.15 21.33-12.2 27.25-1.31 1 0 3.19 1.29 2.21 7.28-5.36 13.89-12.09 15-21.44.88-7.44-4.32-15.08-10.38-18.92-10.13-6.44-23.13-.62-31.36 6.26-7.81 6.57-14.93 18.05-10.06 28.3 2.55 5.38 9.33 9.42 15.1 9.93 10 .89 18.73-4.21 27.65-7.91 1.5-.62.84-3.1-.68-2.46z"/><path class="cls-6" d="M509.81 205.83c2.34-16.38 27.3-68.63 42.9-81.89 6.24-4.68 16.38-5.46 25-5.46-3.95 22.62-18.77 45.24-29.71 65.52-12.48 24.18-15.6 17.94-39 23.4"/><path class="cls-3" d="M511 206.17c1.11-7.16 4-14.1 6.67-20.77a295.38 295.38 0 0 1 13.67-28.67 174.68 174.68 0 0 1 15.77-24.94c2.45-3.13 5.09-6.22 8.55-8.24 6.37-3.72 14.81-3.75 22-3.79l-1.23-1.62c-4.67 25.35-19.88 48.29-32.34 70.45-3.28 5.83-7.11 11.51-13.77 13.57-6.94 2.15-14.55 2.39-21.63 4-1.61.37-.93 2.83.68 2.47 7.33-1.67 15.12-2 22.3-4.21 6.16-1.91 10.05-7.05 13.32-12.32 6.87-11.06 12.92-22.91 19-34.4 6.53-12.27 12.33-25.13 14.87-38.88a1.3 1.3 0 0 0-1.23-1.62c-10.69.06-21.66 1-29.29 9.2-6.68 7.21-11.82 16-16.66 24.45a300.18 300.18 0 0 0-15.42 31.37c-3.14 7.42-6.47 15.24-7.71 23.26-.25 1.61 2.21 2.3 2.46.68z"/><path class="cls-6" d="M479.9 298.55c-8.78-4.68-15.8-31.55-20.48-41.55-14.62-29.83 2.92-36.85 30.42-48 25.15-9.94 50.3-17.55 74.87-27.49 28.66-12.28 40.95-15.21 54.4 14.62 9.36 21.06 33.34 45.62 4.68 60.25-4.68-12.28-18.72-65.51-35.1-49.13 5.85 17.55 17 33.93 21.06 52.64-5.26 1.17-11.11 3.51-16.38 5.26-8.19-17-15.21-33.93-21.64-51.47-14 9.94-17.55 7.6-9.36 25.15 5.26 10.53 11.11 21.06 13.45 32.76-7 1.75-13.45 5.85-20.47 7-3.51-12.87-10.53-25.74-15.79-37.44-7-15.79-9.36-11.11-25.15-5.26 4.09 13.45 15.79 36.85 25.15 48-25.74 21.06-32.17-21.64-42.7-39.19-15.79 7.6-18.13 2.92-9.94 19.89 5.85 11.11 5.26 23.4 11.7 33.34a116.83 116.83 0 0 0-17 1.75"/><path class="cls-3" d="M480.54 297.45c-3.7-2.21-5.82-6.46-7.71-10.18a149.65 149.65 0 0 1-6.74-16.44c-3.4-9.28-8.64-18.7-10.37-28.42-1.8-10.1 4.21-17.15 12.35-22.07 10.85-6.56 23.49-10.7 35.32-15.08 15.56-5.76 31.3-11 46.86-16.74 11.75-4.34 23.19-10.13 35.33-13.31 8.6-2.25 16.38-1.13 22.66 5.46 7.54 7.92 11.12 19.47 16.47 28.87 4.17 7.32 8.65 14.67 10.75 22.9 2.71 10.6-3.29 18.08-12.31 22.89l1.88.76c-3.82-10.18-18.31-67.68-37.23-49.7a1.26 1.26 0 0 0-.33 1.24c6.15 17.92 16.76 34.05 21.06 52.64l.89-1.57c-5 1.21-9.89 3-14.78 4.72-1.42.5-6.77-13.13-7.46-14.68-5.18-11.6-9.83-23.42-14.18-35.34a1.29 1.29 0 0 0-1.88-.76c-5.79 4-15.57 7.47-14.06 16 1.06 6 4.74 11.87 7.44 17.2 4.24 8.39 8.14 16.89 10.13 26.12l.89-1.57c-7 1.94-13.34 5.59-20.47 7l1.57.89a163.63 163.63 0 0 0-9.74-24.57c-3.2-6.81-5.89-14.43-10.19-20.64-5.6-8.07-15.81-.94-22.59 1.62a1.3 1.3 0 0 0-.89 1.57c5.33 17.05 14.09 34.71 25.48 48.53v-1.79c-4.58 3.63-10.37 6.95-16.23 4.36-4.82-2.13-7.87-7.38-10.27-11.79-5.51-10.13-8.35-21.53-14.19-31.49a1.3 1.3 0 0 0-1.75-.46c-5.07 2.39-16.94 3.92-14.77 11.78 1.85 6.69 6 12.58 8 19.28 2.42 8.17 3.58 16.52 8.08 23.92l1.1-1.92a103.67 103.67 0 0 0-17.3 1.8c-1.62.3-.93 2.77.68 2.46a99.58 99.58 0 0 1 16.62-1.71 1.29 1.29 0 0 0 1.1-1.92c-3.76-6.18-5.22-13.08-6.94-20a91.19 91.19 0 0 0-6.72-17.31c-1.17-2.46-4.24-7-1-8.9 3.81-2.19 8.38-3.35 12.38-5.23l-1.75-.46c6.81 11.63 9.62 25.22 17.18 36.46 2.74 4.07 6.42 7.68 11.32 8.81 6 1.38 11.76-2.3 16.21-5.82a1.29 1.29 0 0 0 0-1.81c-11.08-13.44-19.64-30.83-24.82-47.4l-.89 1.57c4.27-1.61 8.41-3.63 12.76-5s6.53 1.26 8.57 4.79c3.29 5.72 5.74 12.08 8.56 18a156.64 156.64 0 0 1 9.48 24 1.3 1.3 0 0 0 1.57.89c7.13-1.43 13.49-5.08 20.47-7a1.3 1.3 0 0 0 .89-1.57c-3-13.81-10.54-25.45-15.92-38.32-1.42-3.39-3.07-7.37-.12-10.35 3.13-3.16 7.73-5.27 11.36-7.8l-1.88-.76c6.48 17.59 13.66 34.89 21.77 51.78a1.27 1.27 0 0 0 1.44.59c5.43-1.85 10.79-3.92 16.38-5.26a1.29 1.29 0 0 0 .89-1.57c-3.39-14.69-10.64-27.89-16.72-41.56-.29-.65-4.76-9.75-4.07-10.4a7.44 7.44 0 0 1 4.95-2.16c3.24-.08 5.94 3 7.82 5.24 10.57 12.77 13.91 30.87 19.6 46.06a1.3 1.3 0 0 0 1.88.76c8.39-4.48 14.65-11.06 14.22-21-.42-9.67-6.42-18.93-11.07-27.07-7.83-13.72-13.9-36.93-32.92-37.93-9-.47-18.13 3.74-26.18 7.09-14.83 6.15-29.94 11.49-45.08 16.8-14.48 5.08-28.93 10.24-43.08 16.19-8 3.35-16.47 7-22.38 13.53-10 11.05-2.53 24.88 2 36.45 2.94 7.46 5.41 15.07 8.56 22.45 2.37 5.54 5.31 12.41 10.73 15.64a1.28 1.28 0 0 0 1.29-2.21z"/><path class="cls-7" d="M823.69 395.54q-1.15-.89-2.33-1.75a84.83 84.83 0 0 0-12.91 7c-29.14 19.87-47.68 48.34-54.3 81.46-5.15 25.85 2.85 52.92 24.14 70.22q1.77.68 3.55 1.34l1.06 1.06c21.27 7.45 40.42 8.51 61.69 2.13q2.51-.68 5-1.46c10.58-15.13 18.32-31.88 17.14-50.74-3.31-39.73-9.93-82.8-43.04-109.26z"/><path class="cls-3" d="M824.33 394.43q-1.15-.89-2.33-1.75a1.29 1.29 0 0 0-1.29 0c-23.4 10.59-42.6 30.69-54.81 53-11.52 21.09-18 46.37-12.29 70.13a71 71 0 0 0 16.82 31 69.65 69.65 0 0 0 7 6.49c1.37 1.14 3.3 1.09 4.62 2.41 1.57 1.57 5.88 2.07 8 2.69a108.84 108.84 0 0 0 12.7 2.83c14.18 2.37 28.51.93 42.25-3.06 1.54-.45 4.77-.61 5.76-2 2-2.84 3.84-5.72 5.61-8.68a93.91 93.91 0 0 0 8.59-18.78c4.1-12.38 3.19-24.7 1.83-37.43a263.24 263.24 0 0 0-6.18-36.3c-5.85-23.29-17.12-45-36-60.37-1.27-1-3.09.77-1.81 1.81 20.73 16.88 31.45 41 37 66.62 2.78 12.76 4.23 25.77 5.39 38.76 1.37 15.4-2.75 29.54-10.24 42.91-1.68 3-3.57 5.89-5.49 8.74-1.69 2.51-8.09 3.12-10.8 3.81a90.84 90.84 0 0 1-24.92 2.56c-13.2-.39-29.49-3.13-39.32-12.53-20.69-19.78-23.88-48.83-16.5-75.22a125.19 125.19 0 0 1 23.55-45 130.36 130.36 0 0 1 17.6-17.61 119.72 119.72 0 0 1 11.58-8.53c3-2 9-6.85 12.38-4.28 1.33.99 2.6-1.23 1.3-2.22z"/><path class="cls-7" d="M871.12 384.92h-3.06c-15.11 0-30.57 2.17-44.82 8.06 25.27 3.56 48.48 17.62 66.67 36.31 17.4 18.38 27.14 44.09 27.79 69.54a77.42 77.42 0 0 0 5.6-23.75c2-37.86-21.23-72.01-52.18-90.16z"/><path class="cls-3" d="M871.12 383.65c-16.58.13-32.7 1.89-48.22 8.12-1 .41-1.4 2.25 0 2.47 25.1 3.76 47.1 17.1 64.94 34.76 18.29 18.18 27.74 44.36 28.59 69.82a1.28 1.28 0 0 0 2.51.34c17.66-44.37-8.47-92.32-47.18-115.37a1.28 1.28 0 0 0-1.29 2.21c37.81 22.52 63.26 69.15 46 112.48l2.51.34c-.87-26-10.39-51.31-28.17-70.44-17.51-18.84-41.71-32.82-67.24-36.64v2.47c15.29-6.14 31.18-7.9 47.54-8a1.28 1.28 0 0 0 .01-2.56z"/><path class="cls-8" d="M823.24 393c-.63.26-1.26.52-1.88.79q1.17.86 2.33 1.75c33.11 26.49 39.73 69.54 43 109.27 1.18 18.86-6.56 35.61-17.14 50.74 29.6-9.22 56.63-28.74 68.11-56.7-.65-25.45-10.4-51.15-27.79-69.54-18.15-18.69-41.35-32.75-66.63-36.31z"/><path class="cls-3" d="M822.9 391.77l-2.18.92c-1 .42-.67 1.71 0 2.21 23.43 17.4 34.57 44.83 40 72.64 2.69 13.77 5 28.47 4.84 42.52-.16 16.42-7.94 31.64-17.07 44.85a1.29 1.29 0 0 0 1.44 1.88c18.84-6 36.39-15.72 50.41-29.77a88.21 88.21 0 0 0 16.66-23.4c2.29-4.66 2-7.9 1.48-13.07a112.73 112.73 0 0 0-3-16.76c-10.55-42-49.19-75.63-91.87-82-1.61-.24-2.31 2.22-.68 2.47 41.07 6.16 77.3 37.33 89.2 77a110.66 110.66 0 0 1 3.22 14.68c.86 5.51 1.87 11.23-.55 16.41a85.31 85.31 0 0 1-16.23 22.87c-13.41 13.86-31 23.31-49.28 29.11l1.44 1.88c9.24-13.37 16.27-28 17.35-44.41.51-7.77-.77-15.79-1.65-23.5q-1.22-10.77-3.21-21.43c-5.37-28.51-17.29-56.44-41.18-74.17v2.21l1.57-.66c1.47-.64.81-3.11-.71-2.48z"/><path class="cls-8" d="M799.19 392.89c-27 3.85-53.91 19.87-69.44 42.7-8.59 26-9.07 56.47 4.23 82.06 9 18 25.55 27.55 44.31 34.82-21.29-17.3-29.29-44.37-24.14-70.18 6.62-33.11 25.17-61.59 54.3-81.46a84.83 84.83 0 0 1 12.91-7l-1.7-1.22a87.52 87.52 0 0 0-20.47.28z"/><path class="cls-3" d="M798.85 391.66a108.18 108.18 0 0 0-51.51 23 99.65 99.65 0 0 0-10.56 10c-2.51 2.71-7.1 7-8.26 10.6a129.37 129.37 0 0 0-5.95 30.32c-1.48 19.94 2.66 40.93 13.31 58 9.47 15.18 25.92 23.8 42.07 30.13a1.29 1.29 0 0 0 1.24-2.14c-54.58-45.48-11.19-132.22 42.81-156.68 1-.43.69-1.71 0-2.21-2.51-1.82-4.73-1.63-7.86-1.78a87.28 87.28 0 0 0-15 .7c-1.61.2-1.63 2.76 0 2.56a103.37 103.37 0 0 1 11.25-.77c3.22 0 7.57-.47 10.28 1.5v-2.21c-55.53 25.12-99.14 114.19-43.33 160.69l1.24-2.14c-15.8-6.19-31-14.46-40.54-29-10.86-16.42-14.1-37.42-13-56.72a119.45 119.45 0 0 1 5.34-28c1.41-4.57 6-8.8 9.22-12.24a99.35 99.35 0 0 1 9.46-8.8 103.69 103.69 0 0 1 50.38-22.35c1.71-.25 1.02-2.71-.59-2.46z"/><path class="cls-7" d="M730.79 432.56c-.36 1-.7 2-1 3 15.52-22.82 42.48-38.85 69.44-42.7a87.52 87.52 0 0 1 20.48-.32 96.22 96.22 0 0 0-35.19-15.89c-23.95 9.09-43.76 28.09-53.73 55.91z"/><path class="cls-3" d="M729.56 432.22q-.54 1.51-1 3c-.49 1.45 1.55 2.11 2.34 1 19.56-28.19 54.5-45.48 88.81-42.38 1.38.12 1.59-1.73.65-2.38a104.27 104.27 0 0 0-30.36-14.72c-1.34-.39-4.51-1.82-5.88-1.29-1.87.73-3.71 1.49-5.55 2.3a89.35 89.35 0 0 0-13.57 7.65c-16.69 11.22-28.55 28.09-35.43 46.81-.57 1.55 1.9 2.21 2.47.68 6.54-17.81 17.63-33.35 33.08-44.47a88.83 88.83 0 0 1 9.68-6c4.9-2.65 8.95-4.77 14.55-3.26 10.65 2.94 20.65 8.21 29.65 14.51l.65-2.38c-35.24-3.18-71 14.75-91 43.65l2.34 1q.5-1.52 1-3c.58-1.6-1.89-2.27-2.43-.72z"/><path class="cls-8" d="M871.12 384.92q-3.11-1.82-6.31-3.42c-26.94-12.93-55.79-14.12-80.33-4.82a96.22 96.22 0 0 1 35.19 15.89q1.8.18 3.58.43c14.24-5.89 29.71-8.06 44.82-8.06z"/><path class="cls-3" d="M871.76 383.82c-26.43-15.21-58.86-19-87.63-8.37-1.1.41-1.33 2.16 0 2.47a96.21 96.21 0 0 1 22.9 8.39 104.75 104.75 0 0 1 9.08 5.38c1.92 1.25 4.85 3.6 7.47 2.55 15.29-6.14 31.18-7.9 47.54-8a1.28 1.28 0 0 0 0-2.56c-14.71.12-29 1.46-43 6.16-2.09.7-4.33 2-6.62 1.68-2-.26-3.88-1.9-5.53-3a103.9 103.9 0 0 0-10.75-6 92.06 92.06 0 0 0-20.36-7.07v2.47c28.16-10.37 59.77-6.78 85.66 8.11a1.28 1.28 0 0 0 1.24-2.21zM822 394.89l1.57-.66a1.32 1.32 0 0 0 .94-1.23 1.27 1.27 0 0 0-.94-1.23c-1.3-.18-2.61-.34-3.92-.48a1.27 1.27 0 0 0-1.23.94 1.31 1.31 0 0 0 .59 1.44l1.7 1.22a1.28 1.28 0 0 0 1.75-.46 1.31 1.31 0 0 0-.46-1.75l-1.7-1.22-.65 2.38c1.08.11 2.16.24 3.24.39v-2.47c-.73.3-1.46.6-2.18.92a1.28 1.28 0 0 0-.46 1.75 1.31 1.31 0 0 0 1.75.46z"/><ellipse class="cls-9" cx="822.81" cy="393.97" rx="21.77" ry="14.82"/><path class="cls-3" d="M799.75 394c1.17 21.72 44.93 21.72 46.1 0 .61-11.37-14.32-15.87-23.05-16.09-9.71-.24-22.45 5-23.05 16.09-.09 1.65 2.47 1.64 2.56 0 1-18.36 40-18.36 41 0 .53 9.83-13.15 13.35-20.5 13.54-8.16.2-20-4-20.5-13.54-.09-1.67-2.64-1.68-2.56 0z"/><path class="cls-7" d="M207.88 858.28q-.19-1.22-.41-2.43a71.81 71.81 0 0 0-12-3.18c-29.47-4.75-57.45 2-80.79 18.45-18.2 12.86-29 34.18-26 57.18q.69 1.45 1.4 2.89v1.27c8.74 17 19.89 28.76 36.67 37.22q1.94 1 3.92 2c15.31-3.14 29.82-8.93 40.07-21.2 21.08-26.34 42.07-56.64 37.14-92.2z"/><path class="cls-3" d="M208.92 858q-.19-1.22-.41-2.43a1.09 1.09 0 0 0-.79-.75c-20.55-7.12-44-5.94-64.56.69-19.36 6.25-38 18-48.38 35.94a60.08 60.08 0 0 0-7.73 28.86 59 59 0 0 0 .49 8c.18 1.5 1.39 2.59 1.44 4.17.05 1.88 2.41 4.7 3.34 6.3a92.14 92.14 0 0 0 6.16 9.13c7.34 9.71 17 17.17 27.74 22.71 1.21.62 3.29 2.4 4.73 2.1 2.86-.6 5.69-1.28 8.5-2.07a79.49 79.49 0 0 0 16.21-6.54c9.73-5.22 16.34-13.32 22.92-21.93a222.82 222.82 0 0 0 17.33-25.91c10-17.72 15.69-37.64 13-58-.18-1.37-2.34-1.33-2.16.06 2.91 22.44-4.54 43.5-16 62.5a263.63 263.63 0 0 1-19.25 27c-8.12 10.26-18.89 16.55-31.27 20.41-2.78.87-5.62 1.54-8.46 2.18-2.5.56-6.79-2.79-8.85-3.95a76.89 76.89 0 0 1-16.81-12.93c-7.89-7.92-16.3-19.09-16.87-30.59-1.2-24.2 13.75-43.91 33.65-55.83a106 106 0 0 1 40.69-14 110.34 110.34 0 0 1 21.07-.57 101.34 101.34 0 0 1 12.09 1.45c3 .56 9.52 1 10.1 4.57.23 1.43 2.3.77 2.08-.57z"/><path class="cls-7" d="M243.21 879.37l-1.89-1.77c-9.29-8.8-20.05-16.47-32.23-21.14 13.46 16.9 19.54 39 19.83 61.13 0 21.43-9 42.9-23.4 58.91a65.54 65.54 0 0 0 17.27-11.33c23.28-22.17 28.87-56.63 20.42-85.8z"/><path class="cls-3" d="M244 878.58c-10.27-9.57-21.2-17.88-34.36-23.08-.86-.34-2.17.57-1.44 1.51 13.22 16.91 19 38 19.65 59.19.66 21.82-8.78 43.41-23.08 59.55a1.09 1.09 0 0 0 1.35 1.67c36.68-17 48.53-61.66 38.17-98.36a1.08 1.08 0 0 0-2.08.61c10.13 35.85-1.38 79.32-37.21 95.9l1.35 1.67c14.59-16.47 23.49-37.58 23.7-59.69.21-21.77-6.53-44.45-20-61.66l-1.44 1.51c13 5.13 23.76 13.3 33.89 22.74.99.97 2.5-.61 1.5-1.56z"/><path class="cls-10" d="M209.09 856.46c-.54-.21-1.07-.41-1.61-.61q.22 1.21.41 2.43c4.93 35.55-16.06 65.86-37.16 92.21-10.25 12.27-24.76 18.07-40.07 21.2 23.56 11.56 51.53 15.3 74.87 4.81 14.41-16 23.39-37.49 23.4-58.91-.3-22.08-6.38-44.23-19.84-61.13z"/><path class="cls-3" d="M209.59 855.5l-1.88-.71c-.85-.31-1.41.66-1.28 1.36 4.28 24.33-4.85 47.67-17.7 67.93-6.36 10-13.52 20.39-21.78 28.95-9.66 10-23.3 14.82-36.6 17.62a1.09 1.09 0 0 0-.21 2c15.06 7.29 31.52 11.53 48.31 11.05a74.67 74.67 0 0 0 23.84-4.7c4.12-1.53 5.81-3.71 8.52-7.17a95.42 95.42 0 0 0 7.91-12c18-32 13.8-75.11-8.71-103.89-.85-1.09-2.71 0-1.85 1.12 21.66 27.69 25.77 67.94 10 99.26a93.69 93.69 0 0 1-6.57 10.89c-2.68 3.89-5.39 8-9.89 9.76a72.21 72.21 0 0 1-23.28 4.61c-16.31.71-32.65-3.74-47.24-10.8l-.21 2c13.46-2.84 26.29-7.74 36.52-17.19 4.84-4.48 8.72-10.15 12.67-15.4q5.52-7.33 10.5-15c13.3-20.64 22.23-44.75 17.87-69.55l-1.28 1.36 1.35.51c1.26.4 2.3-1.51.99-2.01z"/><path class="cls-10" d="M194.37 842.39c-18.81-13.33-44.7-19.17-67.53-14.18-20.39 11-38.45 29.42-45.17 52.89-5 16.31-.34 31.81 7 47.19-3-23 7.82-44.32 26-57.18 23.35-16.49 51.32-23.2 80.79-18.45a71.81 71.81 0 0 1 12 3.18c-.11-.58-.22-1.16-.34-1.74a74.1 74.1 0 0 0-12.75-11.71z"/><path class="cls-3" d="M194.88 841.43a91.57 91.57 0 0 0-45-15.85 84.34 84.34 0 0 0-12.3 0c-3.12.2-8.43.16-11.25 1.7a109.5 109.5 0 0 0-21.33 15.17c-12.52 11.4-22.19 26.7-25.59 43.4-3 14.84 2.08 29.72 8.32 43a1.09 1.09 0 0 0 2-.59c-7.07-59.73 70.06-87.8 117.52-71.36.84.29 1.42-.65 1.28-1.36-.48-2.58-2-3.75-3.8-5.67a73.88 73.88 0 0 0-9.6-8.27c-1.11-.82-2.61.74-1.49 1.57a87.52 87.52 0 0 1 7.36 6.07c2 1.85 4.93 4.12 5.45 6.91l1.28-1.36c-48.73-16.88-127.41 12.47-120.18 73.53l2-.59c-6.1-13-10.61-26.91-8.06-41.39 2.89-16.41 13.11-31.21 25.05-42.4a101.12 101.12 0 0 1 19.61-14.13c3.53-2 8.82-1.9 12.79-2.16a84.09 84.09 0 0 1 10.94.1 87.77 87.77 0 0 1 44 15.59c1.12.8 2.12-1.12 1-1.91z"/><path class="cls-7" d="M129.24 826.95c-.8.41-1.6.83-2.4 1.26 22.83-5 48.72.86 67.53 14.18a74.1 74.1 0 0 1 12.77 11.72 81.45 81.45 0 0 0-12.37-30.25c-19.97-8.34-43.21-8.2-65.53 3.09z"/><path class="cls-3" d="M128.68 826q-1.21.61-2.4 1.26c-1.15.61-.28 2.2.86 2 28.43-5.94 60 3.78 79.25 25.65.77.88 2-.14 1.78-1.09a88.27 88.27 0 0 0-10-26.68c-.6-1-1.71-3.74-2.86-4.21q-2.36-1-4.75-1.81a75.65 75.65 0 0 0-12.82-3.22c-16.79-2.82-33.9.64-49 8.15-1.25.62-.12 2.47 1.12 1.85 14.38-7.14 30.25-10.23 46.22-8.07a75.19 75.19 0 0 1 9.42 2c4.55 1.22 8.28 2.27 10.84 6.47a82.05 82.05 0 0 1 9.82 26.17l1.78-1.09c-19.8-22.47-52.2-32.25-81.34-26.16l.86 2q1.19-.64 2.4-1.26c1.14-.72.06-2.57-1.18-1.96z"/><path class="cls-10" d="M243.21 879.37q-.85-2.93-1.88-5.78c-9-23.63-26.07-41.16-46.56-49.73a81.45 81.45 0 0 1 12.37 30.25q1 1.16 1.95 2.35c12.18 4.67 22.95 12.34 32.23 21.14z"/><path class="cls-3" d="M244.25 879.07c-7.39-24.73-25.13-45.92-49-56.16-.91-.39-2.08.56-1.44 1.51a81.43 81.43 0 0 1 9.19 18.49 88.68 88.68 0 0 1 2.45 8.59c.45 1.88.89 5 3.11 5.91 13 5.13 23.76 13.3 33.89 22.74 1 1 2.51-.62 1.49-1.57-9.11-8.49-18.68-16-30-21.27-1.69-.78-3.82-1.3-5.05-2.82-1.09-1.34-1.28-3.42-1.67-5a88 88 0 0 0-3.11-9.95 77.92 77.92 0 0 0-8.4-16.2l-1.44 1.51c23.34 10 40.68 30.63 47.92 54.85a1.08 1.08 0 0 0 2.06-.63zM207.23 856.91l1.35.51a1.12 1.12 0 0 0 1.29-.21 1.07 1.07 0 0 0 .14-1.3q-1-1.31-2.13-2.57a1.08 1.08 0 0 0-1.3-.14 1.11 1.11 0 0 0-.48 1.23c.12.58.23 1.16.34 1.74a1.08 1.08 0 0 0 1.34.74 1.1 1.1 0 0 0 .74-1.34c-.11-.58-.22-1.16-.34-1.74l-1.78 1.09q.9 1 1.77 2.12l1.44-1.51-1.88-.71a1.08 1.08 0 0 0-1.3.81 1.11 1.11 0 0 0 .8 1.28z"/><ellipse class="cls-9" cx="208.26" cy="856.8" rx="12.54" ry="18.43" transform="translate(-556.99 418.76) rotate(-46.55)"/><path class="cls-3" d="M194.09 843.38c-11.92 14 15 39.5 28.33 26.84 7-6.63.44-18.09-4.8-23.31-5.83-5.8-16.72-10-23.53-3.53-1 1 .56 2.44 1.57 1.49 11.3-10.7 35.27 12 25.19 23.86-5.4 6.35-15.86.55-20.48-3.61-5.13-4.62-10-14.06-4.71-20.25.9-1.06-.66-2.55-1.57-1.49z"/><path class="cls-9" d="M331.83 437.9c-19.61-5-40.41-13.32-58.14-25.85-48-33.94-95-97.19-75.21-142.82 19.85-49.29 116.28-27.89 162 9.8 41.75 34.46 72.4 99.14 52.1 136.65-14.15 24.48-46.82 30.79-80.75 22.22z"/><path class="cls-11" d="M350.86 354q.36 1.89.64 3.75t.5 3.7a156.44 156.44 0 0 1-7.69 38.06q-.67 2-1.4 4.07c-5.28 9.31-9.75 19-18.43 26.31-1.35 1.67-2.57 4.55-.56 6.17 6.63 4.79 15.29 2.94 23 4.55q2.21.29 4.49.49c19.71 1.74 42.36-1.6 55.34-18.13 10.25-13.5 13.38-30.57 11.12-47q-.28-2.06-.67-4.11c1.3-16.83-12.88-29.36-29-22.3-1.23.26-2.45.54-3.67.83-8.49 2-16.94 4.77-25.77 4.87a55.91 55.91 0 0 1-8.19-.34M310.95 329.7c-8.16-5-16-9.69-23.39-15.93-3.92-3.33-9.55-7.29-11.37-12.32-1.44-4 .92-6.81 2.89-10.07 3.52-5.83 7.26-11.84 8-18.71a70.46 70.46 0 0 0-.05-10c-.08-2.91.91-6 0-8.86-.58-1.82-5.35-6.31-4.45-8.14 1-2.12 6.69.36 8.15.87 3.16-.59 4.8 1.46 7.51 2.48 2.43.91 5.15 1 7.65 1.84s5.45 1.05 8 2 4.38 2.92 6.86 3.9c5.31 2.11 10.87 3.6 16 6.35 2.28 1.23 4 3.17 6.37 4.29 4 1.93 14 5.09 11.63 11.23-.93 2.42-3.34 4.74-4.57 7.11a87.5 87.5 0 0 1-6.28 10.83c-2.29 3.23-5 6.09-7.27 9.46s-4 6.85-6.73 9.7-5.69 5.56-8.5 8.28-4.1 7.26-7.14 9.27c-4.19-2.86-8.73-8.86-13.91-7.67a36.11 36.11 0 0 0-14.89 7.72 27.17 27.17 0 0 0-2.68 2.55c-.83.9-1.61 1.83-2.38 2.78-7.87 12.55-19.2 21.74-28.4 33-.67 1-1.28 2-1.84 2.94a41.72 41.72 0 0 0-4.64 12.93c-7.2-8.41-15.52-15.35-22.82-23.64q-1.22-1.38-2.39-2.82c-4.7-6.83-8.94-13.31-13.52-20.05-2-3.71-4.4-7.69-3.17-12.18a23.16 23.16 0 0 1 .82-3.77 30.47 30.47 0 0 1 12.06-16.14q1.36-1.35 2.77-2.56 1.42-1.39 2.91-2.7a69.53 69.53 0 0 1 12.73-8.92c12.2-6.54 32.59-13 41.35 2 3.5 6.27 5.45 13.17 11.77 17.63 4.55 3.48 10 5.81 14.41 9.92"/><path class="cls-3" d="M331.94 437c-22.18-5.68-43.2-14.92-61.67-28.54a237.23 237.23 0 0 1-38.17-35.46c-20.1-23.22-39.83-54.27-37.1-86.32 1.13-13.21 6.84-26.14 17.58-34.22s25-10.62 38.26-11c32.18-.94 65.75 10.41 93 27 30.14 18.29 53.51 48.43 66.27 81.09 6 15.26 9.56 32.1 7.24 48.49-2.36 16.64-12.51 29.8-27.76 36.76-17.89 8.17-39.07 6.82-57.69 2.21-1.16-.29-1.38 1.56-.23 1.85 30.33 7.51 72.3 4.53 84.82-29.63 5.09-13.88 4-29.41.63-43.54-3.94-16.73-11.52-32.51-20.71-47a174.11 174.11 0 0 0-35.37-40.4c-11.69-9.76-25.32-17.29-39.28-23.29-27.15-11.79-59.9-19.83-89.39-13.14-11.53 2.61-22.41 8.28-29.62 17.85-7.64 10.14-10.28 23.69-9.77 36.13 1.28 31.36 21.43 60.56 41.79 83a238.44 238.44 0 0 0 37.56 33.46c17.76 12.74 38.29 21.2 59.39 26.6 1.16.22 1.37-1.63.22-1.9zM271.8 286.78c1.1 8 6.69 15.32 11.69 21.39 7 8.54 16.08 15.09 24.82 21.77 4.82 3.69 9.46 7.58 14.6 10.83a152.35 152.35 0 0 0 15.45 8.18c10.21 4.92 19.91 11.26 31.42 12.51a.93.93 0 0 0 .23-1.85c-10.94-1.19-20-7.14-29.71-11.8-5.13-2.46-10.24-4.94-15.14-7.84-5.2-3.08-9.79-7-14.56-10.63-8.45-6.52-17.27-12.75-24.35-20.81-5.33-6.07-11.48-13.76-12.6-22a.93.93 0 0 0-1.85.25zM301.52 324.91c-6.75.14-12.46 4.81-17.13 9.23-5.73 5.42-10.52 11.73-15.49 17.82s-10.33 11.32-15 17.46c-4.38 5.79-8.79 12.83-8.41 20.36.06 1.2 1.91.94 1.85-.25-.39-7.68 4.79-14.8 9.26-20.58 4.14-5.35 9-10.09 13.28-15.29 4.53-5.47 8.85-11.1 13.78-16.22 4.72-4.91 10.87-10.52 18.07-10.68 1.2 0 .94-1.87-.25-1.85zM317.17 435c5.89 0 10.55-6.68 13.71-10.86a107 107 0 0 0 11-17.48 119.63 119.63 0 0 0 8.6-25.49c1.91-8.37 3.23-17.51 1.41-26-.25-1.17-2.1-.93-1.85.25 1.65 7.72.56 15.8-1 23.46a121.85 121.85 0 0 1-7.87 24.81 98.42 98.42 0 0 1-9.17 15.65 81.23 81.23 0 0 1-6.44 8.34c-2 2.19-4.95 5.43-8.16 5.43-1.19 0-1.43 1.85-.23 1.85zM272.54 289.48c-11.9-8.64-28.39.34-39.2 6.63-13.86 8.06-28.93 19.26-31.47 36.33a.93.93 0 0 0 1.85.23c2.34-15.7 16-26.13 28.6-33.8 10.34-6.28 27.41-16.38 39.09-7.91 1 .7 2.1-.78 1.13-1.48zM355.21 275.37c-2.93 4.68-4.82 9.88-7.56 14.65-3 5.3-7.06 10.16-10.76 15-3.89 5.11-7.79 10.2-11.94 15.09-3.69 4.35-8.16 7.89-11.39 12.64-.67 1 .81 2.13 1.48 1.13 2.93-4.32 6.85-7.73 10.41-11.51 4.4-4.67 8.19-10 12.07-15.11 3.74-4.9 7.46-9.81 10.87-14.95 3.31-5 5.13-10.77 8.3-15.83.63-1-.84-2.15-1.48-1.13zM281.13 246.49c5.92 5.81 5.11 15.69 4.2 23.22a51.73 51.73 0 0 1-3.14 12.79c-1.74 4.47-4.74 10.64-8.63 13.49-1 .71.16 2.19 1.13 1.48 4.12-3 6.6-8.66 8.75-13.17a46.9 46.9 0 0 0 3.74-14.36c1.07-8.3 1.53-18.6-4.92-24.93-.86-.84-2 .65-1.13 1.48zM358.65 358.67a114.77 114.77 0 0 1 27.28-8.17c4.52-.79 9.23-1.76 13.84-1.46 3.19.21 9.55 1.58 11.35 4.48.64 1 2.11-.12 1.48-1.13-1.91-3.07-5.95-3.49-9.1-4.56-4-1.36-8.62-.66-12.69 0-11.38 1.93-22.28 4.32-32.87 9.07-1.1.49-.39 2.22.71 1.72z"/><path class="cls-7" d="M657.11 816.92c-27.44 4-58.17 4.38-87.21-2.16-78.65-17.76-171.43-73.09-170.32-141.28-.78-72.84 132.56-96.44 210.33-72.77 71 21.68 143.8 87.47 137.82 145.62-5.11 38.44-43.16 63.61-90.62 70.59z"/><path class="cls-3" d="M656.8 815.68c-31.05 4.47-62.52 3.84-93-3.69a325.39 325.39 0 0 1-66.64-24.64c-37.55-18.66-78.64-47.33-92.43-89-5.72-17.3-5.61-36.87 3.59-52.9 9.33-16.25 26.1-27 42.78-34.56 40.58-18.34 89.59-21.61 133.18-14.73 47.59 7.51 92.92 33.5 126 68.15 15.4 16.12 28.65 35.42 34.25 57.23 5.7 22.25-.22 44.2-15.82 61-18.36 19.75-45.87 29.19-71.88 33.14-1.63.25-1 2.73.61 2.48 42.3-6.43 93.91-32.21 91.86-82-.83-20.11-10.26-39-21.78-55.12-13.62-19-31.31-35-50.35-48.4a239.8 239.8 0 0 0-65.5-32.73c-20.19-6.41-41.62-8.9-62.73-9.3-40.92-.77-87.16 6.25-121.18 30.58-13.3 9.51-24.09 22.6-28 38.72-4.08 17-.16 35.42 7.2 50.89 18.41 38.7 59 64.83 96.48 82.43a326.87 326.87 0 0 0 64.8 22.46c29.18 6.78 59.62 6.73 89.17 2.47 1.59-.23 1.01-2.71-.61-2.48zM501.63 657.11c5.62 9.6 16.5 15.88 26 20.95 13.41 7.12 28.29 10.65 42.87 14.53 8 2.14 16 4.63 24.18 6a208.83 208.83 0 0 0 23.86 2.24c15.5.86 31.13 3.8 46.36-.66 1.58-.46 1-2.95-.61-2.48-14.48 4.24-29.09 1.49-43.81.69-7.3-.39-14.59-.83-21.85-1.76-8.71-1.12-17-3.73-25.47-6-14.12-3.81-28.58-7.06-41.78-13.54-9.93-4.88-21.78-11.38-27.54-21.22-.83-1.42-3.08-.2-2.25 1.22z"/><path class="cls-7" d="M421.47 627.8c12.5-11.69 17.9-19.14 22.56-31.69s-.51-22-7.53-32c-8.31-12.37-20.55-24.9-19.92-40.63-.56-15.08 11.59-29.42 23.05-38 22.92-17.15 56.73-17.2 82-4.85 20.91 10.1 38.78 44.16 34.82 67.86-2.84 13.09-13.76 19.83-22.85 27.12-12.64 9.22-47 35-32.61 57.07"/><path class="cls-3" d="M422.34 628.73c8.8-8.3 16.36-16.95 21.26-28.1 4.62-10.53 4.2-20-1.35-30-5.84-10.55-14.38-19.34-20.06-30-7.19-13.47-4.74-27.85 3.91-39.94 16.22-22.67 45.08-30.59 71.65-26.33 12.06 1.93 24.29 6.3 33.53 14.47 9.71 8.59 16.57 20.52 20.8 32.66 4.86 13.93 5.87 29.15-4.59 40.72-7.34 8.12-17.25 13.9-25.68 20.83-13.74 11.29-33.72 31.17-22 50.24.86 1.4 3.11.19 2.25-1.22-12.23-19.89 12.63-40.43 26.64-51.26 8.22-6.35 17.2-12.11 23.62-20.41 6.93-9 6.68-20.46 4.56-31-4.3-21.52-18.44-42.84-38.85-51.74-21.21-9.24-46.74-9.51-67.83.07a66.39 66.39 0 0 0-31.3 30c-6.54 13.19-3.48 27.22 3.93 39.23s20.15 23.28 21.64 38c.78 7.71-3.19 15.66-6.9 22.16-4.34 7.61-10.66 13.88-17 19.85a1.28 1.28 0 0 0 1.75 1.86z"/><path class="cls-10" d="M448.89 482.68c-5.53 6-14.27 12.5-16 21.08-2.57 11.37 5 21.91 10.59 31.14 4.73 9.72 9.06 20.84-3.37 27.06-9.72 4.73-17.57-2.11-26-6.86-9.86-5.16-22.83-7.44-33.6-12.11-8.17-3.15-19.75-5-27.31-10.27-9-5.65-14.56-20.18-3.52-26.8 7.42-4.65 18.8-2.08 26.68-.53 11.78 1.17 22.46 3.54 32.79-3.29 13.45-9.71 18.73-22.56 37.49-19.34"/><path class="cls-3" d="M448 481.75c-8.27 8.68-17.89 16.09-16.79 29.28 1 12.18 10.77 21.48 14.57 32.71 3.14 9.26-1.73 17.69-11.91 18.53-7.5.62-14.36-5.86-20.65-9-5.93-3-12.45-4.76-18.77-6.7-7.11-2.19-13.95-5.1-21.08-7.22-11.69-3.48-33.09-10.1-27.9-26.86 2.35-7.57 12.29-8.21 18.71-7.76 6.07.42 12.08 1.94 18.14 2.63 11.56 1.31 21.61.71 30.94-6.85 8.63-7 15.29-16.49 27.37-16.95a31.94 31.94 0 0 1 5.94.5c1.62.24 1.66-2.31 0-2.56-10.29-1.55-18.1 1.78-25.68 8.56-3.86 3.45-7.49 7.11-11.58 10.29-6.07 4.72-13.71 5.43-21.1 5-11.23-.64-22.84-5-34.07-2.64a14.49 14.49 0 0 0-10.65 20.17c4.83 11.49 16.45 15.21 27.53 18.46 6.51 1.91 12.73 4.5 19.17 6.59 7.81 2.53 15.77 4.57 23.14 8.27 9.69 4.86 20.15 13.67 30.7 4.8 8.8-7.4 5-19.38-.24-27.91-4.73-7.7-10-15.54-10.21-24.89-.21-10.67 9.51-17.62 16.14-24.58 1.13-1.19-.61-3.06-1.75-1.86zM506.17 499.58c-8.58 1.53-22.69 21.74-7.74 26.17 11.21 3.32 20.06-26.59 5.87-26.72"/><path class="cls-7" d="M793.54 177.73c12.61-3.15 22.7-8.2 35.32-.63 10.72 6.31 19.55 15.77 31.53 21.44 6.31 3.78 23.33 13.87 30.9 8.83 8.83-5 0-22.07-3.78-28.38-5-8.2-14.5-16.4-10.72-27.12 3.78-12.61 21.44-16.4 32.79-20.81 5.68-1.89 29-10.09 24-20.18-4.41-8.2-28.38-6.31-35.95-7.57-8.09-.9-26.44 2-31.74-4.14-5.56-6.5 0-20.24-.1-27.73-.15-7.76-1.18-23.36-12.94-19.21-10.76 3.77-19.58 15.14-25.85 23.97-6.31 8.2-11.35 17-22.7 17-10.09 0-20.81-2.52-30.27-3.78-6.31-.63-23.33-5.68-25.86 3.15s15.77 19.55 21.44 24c6.47 5.54 21.74 11.43 20.95 21.77-.64 8.33-18.3 18.9-24.52 24.17-4.06 3.44-16.35 11.05-13.27 17.7 3 6.46 14.48 2.37 19.68 1.62a190.52 190.52 0 0 0 21.09-4.1z"/><path class="cls-3" d="M793.81 178.73c5.26-1.35 10.42-3.05 15.76-4.05 7.18-1.35 13.7.28 19.89 4 9.74 5.86 17.87 14 27.87 19.48 8.17 4.49 31.36 20.31 37.94 6.19 2.89-6.2-1.09-14.59-3.77-20.15-3.93-8.17-11.21-14.68-14-23.35-3.49-10.92 6.69-18.56 15.25-22.46 6.87-3.12 14.21-5.19 21.27-7.83 6.81-2.55 28.44-11.54 19.11-21.9-4.16-4.62-12.68-4.92-18.38-5.38-6.69-.54-13.54-1-20.24-1.19-8.18-.23-17.51 1.54-25.27-1.74-9-3.82-3.47-19.19-2.63-26.21.71-6-.1-13.28-2.75-18.69-3.1-6.33-9.5-5.3-14.87-2.71-8.7 4.26-15.23 12.52-20.89 20.13-5.93 8-11.67 18.31-22.61 19.29-6.36.57-13.15-.82-19.39-1.83-5-.81-10.09-1.51-15.12-2.36-6-1-13.89-3.19-19.67-.35-14.89 7.32 9.28 23.83 15 27.86 6.19 4.36 13.18 8.32 18.73 13.46 3.09 2.86 5.39 6.88 4 11.14-1.31 4.08-5.49 7.4-8.62 10.07-5.49 4.69-11.5 8.86-17.24 13.25-4.72 3.61-11.52 8-12 14.57-.5 6.78 8.23 7.24 12.78 6.53 10-1.54 20.06-3.27 29.82-5.76a1 1 0 0 0-.55-2c-6 1.52-12 2.69-18.08 3.64-4.47.7-8.93 1.87-13.43 2.31-5.14.5-10.52-2.21-7.42-8 2.11-3.94 6.47-6.87 9.93-9.51 5.89-4.49 12-8.83 17.66-13.57 4.91-4.09 10.48-9.24 9.46-16.19s-9.35-11.74-14.75-15.21a217.33 217.33 0 0 1-18.16-13.08c-4.85-3.88-16.06-15.47-4.16-18.33 7.31-1.76 16.44 1.13 23.75 2.27 10.31 1.6 23 5.54 33.2 1.94 7.68-2.7 12.76-10.93 17.27-17.22 6.4-8.92 14-18.55 24.57-22.57 9.59-3.64 11.17 8.86 11.54 15.37.48 8.53-3.13 16.79-2 25.31.9 7.11 6.71 9.26 13 10 7.66.94 15.42-.4 23.07.55 7.5.93 15.09.44 22.59 1.6 3.44.53 7.21 1.37 10 3.6 3.42 2.75 1.72 6.77-.77 9.39-4.81 5.06-12.39 7.85-18.81 10.16-13.24 4.77-31.54 8.33-36.25 23.57-2.78 9 4.51 17.16 9.31 23.85 4.66 6.5 9.08 15 9.33 23.09.63 20.6-40.06-5.73-46.11-10.14-8.12-5.92-15.83-13.44-25.59-16.52s-19.83 1.25-29.09 3.63a1 1 0 0 0 .52 2.05zM826.71 119.67c2.76.08 5 1.09 6.05 3.75a1 1 0 0 0 2 0 5.2 5.2 0 0 1 4.92-4 1 1 0 0 0 .28-2 13.31 13.31 0 0 1-6.31-4.25 1 1 0 0 0-1.25-.16c-2.09 1.56-6.25 3-6.68 6-.19 1.31 1.81 1.87 2 .55.32-2.2 4.1-3.53 5.73-4.74l-1.25-.16a15.26 15.26 0 0 0 7.23 4.78l.28-2a7.34 7.34 0 0 0-6.92 5.55h2c-1.46-3.54-4.27-5.16-8-5.27-1.34 0-1.33 2 0 2.07zM847 149.57c4.51.42 5.68-6.61 1.32-7.64-4.82-1.14-6.64 6.79-1.6 7.6 1.31.21 1.87-1.79.55-2a1.62 1.62 0 0 1-1.53-2.07 1.82 1.82 0 0 1 2.26-1.46c.86.2 1.15 1.29 1 2.06a1.65 1.65 0 0 1-2 1.47c-1.31-.15-1.3 1.92 0 2.04zM857.45 165.61a3.13 3.13 0 0 0 2.3-3 3.86 3.86 0 0 0-1.7-2.84 2.82 2.82 0 0 0-3.78.62 4.12 4.12 0 0 0-1 3.77c.58 1.84 2.63 1.91 4.19 1.45a1 1 0 0 0-.55-2l-.49.13-.27.05h-.74c-.06 0-.24-.27 0 0-.05-.07-.19-.38-.07-.07a1.63 1.63 0 0 1-.07-.24 2.38 2.38 0 0 1 0-.27v-.14a3.42 3.42 0 0 1 .17-.56v-.09a3.68 3.68 0 0 1 .19-.32l.06-.09.19-.22.21-.19c-.23.19.06 0 .13-.07.25-.15-.11 0 .06 0l.25-.07h.25-.07c.16 0-.16-.09.09 0l.13.08a2.39 2.39 0 0 1 .52.57 1 1 0 0 1-.55 1.54c-1.26.35-.72 2.35.55 1.96zM866.76 183.7c1.45 0 2.92-.49 3.29-2.06a6 6 0 0 0-.65-3.78 2.47 2.47 0 0 0-3.73-1 5.2 5.2 0 0 0-2.1 3.76 2.86 2.86 0 0 0 2.88 3.06h.31a1 1 0 0 0 0-2.07h-.41c.22 0-.18 0-.25-.06-.29-.08.08.06-.17-.07s.09.11-.12-.08-.18-.39-.06-.09a1.82 1.82 0 0 1-.08-.31v-.12a2.76 2.76 0 0 1 0-.28v.06-.21l.1-.36.05-.14a4.62 4.62 0 0 1 .37-.66l.09-.12.24-.27.2-.19h-.05l.16-.11c.07 0 .4-.19.08-.06a1.56 1.56 0 0 1 .28-.08h.06c-.43 0 .22.12-.14 0h.1c.05 0 .29.33.13.11a2.65 2.65 0 0 1 .18.29l.08.17c.14.28-.07-.19.05.13a5.82 5.82 0 0 1 .32 1.26c0 .35.09.81-.13 1a2.28 2.28 0 0 1-1.14.21 1 1 0 0 0 .06 2.07zM811.2 141.39a3.53 3.53 0 0 0 3.52-1.87 5.54 5.54 0 0 0 .32-3.78 2.8 2.8 0 0 0-3.6-2.14c-2.71.75-5.75 4.93-2.68 7.06a5.29 5.29 0 0 0 2.44.73 1 1 0 0 0 1-1 1.06 1.06 0 0 0-1-1 5.08 5.08 0 0 1-1-.23l-.2-.16-.21-.13c-.21-.2.05.12-.1-.12s0 .15-.07-.18v-.12a2 2 0 0 1 0-.2 2.76 2.76 0 0 1 .09-.35l.07-.17a4.53 4.53 0 0 1 .47-.75l.16-.17.36-.36.32-.27.26-.17.35-.2.14-.07.35-.1h.5c.22.06-.22-.11 0 0l.11.06c.19.12-.18-.16 0 0l.14.15.08.14c.13.24-.07-.2 0 .07a3.66 3.66 0 0 1 .14.58 4.61 4.61 0 0 1 0 1.26 1.6 1.6 0 0 1-1.91 1.47c-1.38-.16-1.37 1.91-.05 2.02zM798 147a3.91 3.91 0 0 0-2.62 2.82 2.32 2.32 0 0 0 2.19 2.88 3.35 3.35 0 0 0 3.5-2.34 2.51 2.51 0 0 0-2-3.36 1.06 1.06 0 0 0-1.27.72 1 1 0 0 0 .72 1.27c.31 0 .47.08.58.28a1.23 1.23 0 0 1-.07.53 1.25 1.25 0 0 1-1.35.83l-.27-.07c-.21-.1 0 .1-.08-.07v-.08l.05-.29a1.84 1.84 0 0 1 1.12-1.12c1.27-.4.73-2.4-.55-2zM781.75 161.68c.71-.66 1.85.47 1.52 1.13-.64 1.29-2.2.15-1.64-1.06s-1.23-2.26-1.79-1a3.29 3.29 0 0 0 1 4.24 3 3 0 0 0 4.18-1 3 3 0 0 0-.7-3.74 2.9 2.9 0 0 0-4 0c-1 .91.49 2.37 1.46 1.46zM812.32 106.36a4.36 4.36 0 0 0-5.12 2.64 3.91 3.91 0 0 0 2.29 5.05 4.13 4.13 0 0 0 5.18-2.12 4.23 4.23 0 0 0-2.1-5.52c-1.18-.63-2.22 1.15-1 1.79a2.24 2.24 0 0 1 1.39 2.55 2 2 0 0 1-2.36 1.44c-2.8-.5-1.34-4.39 1.22-3.89 1.3.26 1.86-1.74.55-2zM791.18 102.09c-3.81-.29-4.21 5.73-.41 6a3.08 3.08 0 0 0 3.14-2.81c.21-1.88-1.31-3-3-3.22-1.32-.16-1.31 1.92 0 2.07a1 1 0 0 1 0 1.89c-.62 0-.8-.47-.8-1a.87.87 0 0 1 1.06-.93c1.33.1 1.32-2 0-2.07zM772.56 96.45a2.27 2.27 0 0 0-2.14 3.23 4.08 4.08 0 0 0 4 2.82 2.73 2.73 0 0 0 2.39-3.78 4.08 4.08 0 0 0-4.48-2.52c-1.31.24-.75 2.24.55 2s3.1 2.07 1.38 2.24a2 2 0 0 1-1.72-1.16 1.38 1.38 0 0 1-.21-.77c0 .07.11-.1 0 0h.28c1.33 0 1.34-2.12 0-2.07zM840.81 95.36c-2.58-.53-4.12 1.7-4.22 4a4.18 4.18 0 0 0 1.09 3c.93 1 2.38 1 3.63.82 5.33-.72 2.89-9.92-1.9-8.14-1.24.46-.7 2.46.55 2 2.09-.78 3.39 3.32 1.25 4-3.53 1.19-2.88-4.16-1-3.76 1.3.27 1.86-1.73.55-2zM844.09 80.68l.1.29-.3.73-.32.17h.4a2 2 0 0 1 .48.11 1.43 1.43 0 0 1 .74.55c.42.64-.45 1.19-1 1.31-.84.19-.55-1.68-.23-2.19.71-1.14-1.08-2.17-1.79-1a4 4 0 0 0-.08 4.18c1 1.57 3.09 1.29 4.33.15a2.84 2.84 0 0 0-.53-4.53 3.92 3.92 0 0 0-2.54-.59 1.27 1.27 0 0 0-1.2.88 1.6 1.6 0 0 0 .47 1.45c.84 1 2.3-.44 1.46-1.46zM846.46 67.74a5.56 5.56 0 0 0 1.73 0c.44 0 .91 0 1 .53a1.55 1.55 0 0 1-1.59 1.34c-.79-.18-.76-1.92 0-2.28 1.2-.58.15-2.36-1-1.79-2.54 1.21-1.91 6 1 6.14a3.66 3.66 0 0 0 3.68-3.22 2.79 2.79 0 0 0-1.42-2.46c-.91-.58-1.89 0-2.85-.22-1.3-.25-1.86 1.75-.55 2zM859.71 123.9c3-.12 5.73-3.32 4.33-6.18a3.45 3.45 0 0 0-4.88-1.6 6 6 0 0 0-3.05 4.43c-.26 2.22 1.63 3.33 3.61 3.36a1 1 0 0 0 0-2.07 3.6 3.6 0 0 1-.91-.11.81.81 0 0 1-.49-.28 1 1 0 0 1-.16-.73 4.15 4.15 0 0 1 1.65-2.57 2.11 2.11 0 0 1 1.21-.46 1.18 1.18 0 0 1 .38.09 1.39 1.39 0 0 1 .54.46 1.67 1.67 0 0 1 0 2.19 3.24 3.24 0 0 1-2.27 1.4c-1.29.06-1.29 2.17.04 2.07zM880.58 115.69c1.19-.35 2.36 1.42 1 2a2.41 2.41 0 0 1-2.71-.42c-.15-.2-.25-.4-.18-.55.21-.48.86-.63 1.31-.74a1 1 0 0 0-.55-2c-1.94.49-3.48 2.05-2.51 4.1.87 1.85 3.47 2.22 5.19 1.6a3 3 0 0 0 1.81-4.1 3.33 3.33 0 0 0-3.92-1.89 1 1 0 0 0 .55 2zM900.16 116.22c-.86.94-3.47-.19-2.5-1.38.79-1 3.36.28 2.5 1.38s.65 2.52 1.46 1.46a3 3 0 0 0-.74-4.5 3.63 3.63 0 0 0-4.69.19c-3 3.13 2.79 7.21 5.43 4.31.9-.98-.56-2.45-1.46-1.46z"/><path class="cls-7" d="M820.81 1138.69c4.16-9.75 5.84-18.79 17-23.26 9.37-3.86 19.87-4.95 29.45-9.94 5.56-2.24 20.5-8.34 20.95-15.74 1.07-8.22-14.35-10.86-20.31-11.51-7.81-.76-17.79 1.36-22.9-6.38-6.34-8.67-.1-22 2.61-31.56 1.56-4.62 7.72-23.82-1.32-25.51-7.5-1.17-18.07 15.34-22.61 19.64-4.57 4.82-11.69 18.19-18.31 18.59-7 .42-13.13-10-18.07-13.58-5.12-3.72-15.76-10.73-18.85-1-2.82 8.83.22 20.15 2.85 28.6 2.22 8.13 5.48 15.76-.11 23.14-5 6.56-11.88 12.28-17.36 17.81-3.51 3.79-15.17 12.37-10.68 18.36s20.47-.63 26.13-2.14c6.78-1.47 18.13-8.51 24.46-2.9 5.1 4.51 3.28 21.19 3.64 27.83.24 4.33-.86 16.06 5 17.34 5.67 1.23 8.66-8.25 10.74-12a155.33 155.33 0 0 0 7.69-15.79z"/><path class="cls-3" d="M821.59 1139c1.71-4.08 3.15-8.28 5.13-12.24 2.66-5.33 6.92-8.77 12.39-11 8.6-3.44 17.88-4.73 26.38-8.52 6.94-3.1 28.64-10.39 22.7-21.61-2.61-4.93-10-6.47-15-7.47-7.24-1.47-15.06.06-22.05-2.41-8.82-3.11-8.77-13.48-7.09-21 1.35-6 3.63-11.79 5.38-17.68 1.69-5.68 6.49-24.16-4.83-23.2-5 .43-9.44 5.82-12.54 9.3-3.64 4.08-7.32 8.3-10.74 12.57-4.17 5.2-7.62 12.14-13.57 15.56-6.92 4-14.18-7.19-18.33-11.19a29 29 0 0 0-13.5-7.41c-5.64-1.1-8.12 3.57-9.08 8.33-1.56 7.75.62 16.08 2.78 23.5 2.26 7.78 6.16 16.6 1.41 24.19-2.76 4.41-7 8.14-10.74 11.7-3 2.87-6 5.82-9 8.66-3.6 3.39-8.91 7.46-9.91 12.61-2.57 13.28 20.06 5.69 25.49 4 5.88-1.88 11.89-4.47 18-5.54 3.38-.6 7.12-.12 9.22 2.87s2.11 7.21 2.31 10.56c.35 5.87.1 11.84.13 17.72 0 4.85-.45 11.44 3.56 15 4.16 3.66 8.76-1.79 10.54-5.09 3.9-7.23 7.74-14.65 10.93-22.22a.84.84 0 0 0-1.57-.62c-1.95 4.63-4.16 9.12-6.53 13.54-1.74 3.26-3.18 6.72-5.11 9.87-2.21 3.59-6.61 5.75-8.85.89-1.52-3.31-1.28-7.58-1.3-11.14 0-6 .15-12.12-.13-18.15-.24-5.2-.85-11.36-5.87-14.11s-12.23.3-17.14 2.1a177.16 177.16 0 0 1-17.44 5.37c-4.91 1.24-18 2.83-14-6.31 2.46-5.61 8.83-10.13 13.16-14.32 6.12-5.91 14.91-12.22 17.6-20.62 2-6.32-.83-13.67-2.69-19.7-2.65-8.55-5.17-18.22-2.57-27.08 2.36-8 11.26-2.9 15.67.07 5.78 3.89 9.37 10.29 15.44 13.79 5.07 2.91 9.32.2 12.93-3.52 4.38-4.52 7.33-10.22 11.71-14.72s7.71-9.59 12.16-13.89c2-2 4.44-4 7.25-4.72 3.47-.87 5.25 2.22 5.72 5.13.92 5.61-1 11.91-2.65 17.22-3.41 11-10.11 24.6-2.52 35.16 4.47 6.22 13.37 5.51 20.08 5.69 6.52.17 14.21 1.47 19.6 5.3 13.7 9.73-23.44 23.22-29.28 25-7.84 2.36-16.52 3.67-23.33 8.5s-8.95 13.5-12 20.69a.84.84 0 0 0 1.69.59zM799.4 1088.56c1.41-1.75 3.15-2.68 5.42-2.09a.85.85 0 0 0 1-1.3 4.24 4.24 0 0 1-.2-5.19.85.85 0 0 0-1.19-1.18 10.85 10.85 0 0 1-5.87 2 .83.83 0 0 0-.72.74c0 2.13-1.11 5.55.6 7.28.76.77 2.1-.25 1.34-1-1.27-1.29-.28-4.41-.26-6.06l-.72.74a12.44 12.44 0 0 0 6.66-2.34l-1.19-1.18a6 6 0 0 0 .2 7.23l1-1.3c-3-.8-5.46.24-7.39 2.64-.68.85.66 1.86 1.35 1zM828.83 1090.07c2.49-2.72-1.5-6.94-4.31-4.62-3.11 2.57 1.14 7.66 4.15 4.78.78-.75-.24-2.09-1-1.34a1.32 1.32 0 0 1-2.1 0 1.49 1.49 0 0 1 .12-2.17 1.45 1.45 0 0 1 1.85.34 1.35 1.35 0 0 1 0 2c-.79.8.56 1.81 1.29 1.01zM844.39 1091.19a2.55 2.55 0 0 0-.82-3 3.15 3.15 0 0 0-2.68-.29 2.3 2.3 0 0 0-1.46 2.76 3.36 3.36 0 0 0 2 2.51c1.48.53 2.54-.76 3-2a.84.84 0 0 0-1.57-.62c0 .13-.1.26-.16.39l-.1.2a2.68 2.68 0 0 1-.18.26l-.12.13s-.27.16-.05 0c-.06 0-.28.09 0 0h-.08l-.19-.07c-.14-.06.17.12 0 0l-.17-.13-.08-.08a2.78 2.78 0 0 1-.28-.38v-.08a3 3 0 0 1-.12-.28s-.09-.31 0-.08v-.23a2.27 2.27 0 0 1 0-.23v-.16999999999999998a1.36 1.36 0 0 1 .08-.2l.13-.11c.11-.08-.14.06.08 0 0 0 .3-.09.12 0a2 2 0 0 1 .62-.05.77.77 0 0 1 .73 1.11c-.61 1.04.91 1.68 1.3.64zM860.72 1094c.7-1 1.12-2.14.28-3.15a4.88 4.88 0 0 0-2.77-1.44 2 2 0 0 0-2.49 1.93 4.24 4.24 0 0 0 1.41 3.22 2.33 2.33 0 0 0 3.41-.36l.16-.2a.84.84 0 0 0-1.35-1l-.21.25-.16.13c-.2.15.08 0-.13.08h-.11s-.34-.07-.09 0a1.49 1.49 0 0 1-.24-.1l-.08-.06-.17-.15-.12-.13-.18-.24-.07-.1a3.77 3.77 0 0 1-.25-.57v-.12c-.06-.2 0 .18 0 0s0-.19-.05-.29v-.39.05s.07-.35 0-.08a1.27 1.27 0 0 1 .09-.22c-.23.26.19-.08-.09.07h.75a4.74 4.74 0 0 1 1 .41c.25.14.57.34.61.59s-.27.63-.43.84c-.7.93.64 1.95 1.28 1.03zM805.88 1109.33a2.88 2.88 0 0 0 .51-3.21 4.52 4.52 0 0 0-2.3-2.06 2.28 2.28 0 0 0-3.16 1.28c-.85 2.13.37 6.16 3.27 5.21a4.31 4.31 0 0 0 1.67-1.22.84.84 0 0 0-.16-1.18.86.86 0 0 0-1.18.16 4.14 4.14 0 0 1-.64.53l-.2.09-.19.07h-.13s.1.06-.15 0 .12.09-.08 0l-.13-.1a2.24 2.24 0 0 1-.18-.23c-.14-.2 0 .09-.08-.13a3.7 3.7 0 0 1-.26-.67c.06.2 0-.14 0-.19s0-.27-.06-.41v-1.0300000000000002c0-.21-.05.17 0 0a2.55 2.55 0 0 1 .1-.28l.08-.15c-.11.22 0 .06 0 0s.25-.26 0-.08l.12-.1c.15-.11-.18.09 0 0h.1c.17-.07-.19 0 0 0h.30000000000000004c.22 0-.17-.05.06 0a3 3 0 0 1 .45.19 3.76 3.76 0 0 1 .82.62 1.31 1.31 0 0 1 0 2c-.65.68.7 1.69 1.42.89zM803 1120.69a3.19 3.19 0 0 0 .54 3.09 1.89 1.89 0 0 0 2.95 0 2.73 2.73 0 0 0 .2-3.43 2 2 0 0 0-3.15-.38.86.86 0 0 0-.16 1.18.85.85 0 0 0 1.18.16c.18-.18.28-.27.47-.24a1 1 0 0 1 .31.31 1 1 0 0 1-.12 1.28l-.18.15c-.17.09.08 0-.08 0s-.05 0-.16-.17a1.5 1.5 0 0 1-.19-1.29c.36-1-1.2-1.65-1.57-.62zM804.58 1138.45c-.08-.78 1.21-1 1.48-.43.53 1-1 1.5-1.5.55s-2.07-.31-1.56.65a2.69 2.69 0 0 0 3.23 1.46 2.46 2.46 0 0 0 1.42-3.2 2.41 2.41 0 0 0-2.77-1.38 2.36 2.36 0 0 0-2 2.6c.11 1.08 1.78.85 1.67-.23zM783.67 1091.36a3.55 3.55 0 0 0-.77 4.65 3.19 3.19 0 0 0 4.41 1 3.36 3.36 0 0 0 1.17-4.41 3.45 3.45 0 0 0-4.62-1.35c-1 .45-.34 2 .65 1.56a1.82 1.82 0 0 1 2.34.35 1.64 1.64 0 0 1-.22 2.25c-1.7 1.57-3.51-1.29-1.93-2.71.81-.72-.22-2.07-1-1.34zM770.49 1103c-2.06 2.33 1.66 5.56 3.72 3.23a2.51 2.51 0 0 0-.28-3.42 2.47 2.47 0 0 0-3.57.37c-.75.78.6 1.79 1.35 1a.77.77 0 0 1 1.24.91c-.28.42-.7.29-1 0a.71.71 0 0 1-.08-1.14c.72-.82-.63-1.83-1.35-1zM757.66 1112.32a1.85 1.85 0 0 0 1 3 3.33 3.33 0 0 0 3.78-1.18 2.23 2.23 0 0 0-1.28-3.41 3.33 3.33 0 0 0-3.84 1.67c-.49 1 1.08 1.59 1.57.62s2.87-1 2.14.2a1.61 1.61 0 0 1-1.6.54 1.13 1.13 0 0 1-.6-.24l.12-.19c.63-.89-.72-1.91-1.35-1zM790.54 1067.43c-1.61 1.41-.92 3.52.55 4.73a3.41 3.41 0 0 0 2.48.76 3.26 3.26 0 0 0 2.32-2c2.15-3.82-5-6.76-6.22-2.77-.31 1 1.25 1.67 1.57.62.52-1.74 3.83-.57 3.24 1.18-1 2.88-4.12-.18-2.91-1.23.82-.71-.21-2.06-1-1.34zM782.61 1058.07l.23.08.33.56-.05.29a2.51 2.51 0 0 1 .2-.26 1.62 1.62 0 0 1 .31-.26 1.16 1.16 0 0 1 .72-.21c.62 0 .55.88.37 1.28-.29.64-1.37-.47-1.54-.92-.39-1-1.94-.37-1.56.65a3.26 3.26 0 0 0 2.67 2.11 2.29 2.29 0 0 0 2.23-2.74 2.32 2.32 0 0 0-3.21-1.88 3.2 3.2 0 0 0-1.63 1.36 1 1 0 0 0 0 1.21 1.31 1.31 0 0 0 1.18.41c1.09 0 .85-1.71-.23-1.67zM775.37 1050.16a4.53 4.53 0 0 0 .86-1.12c.19-.31.42-.61.81-.36a1.27 1.27 0 0 1 .09 1.69c-.51.43-1.62-.45-1.49-1.11.22-1.07-1.46-1.26-1.68-.2-.46 2.25 2.94 4.18 4.5 2.35a3 3 0 0 0-.28-4 2.28 2.28 0 0 0-2.3-.36c-.83.31-1 1.21-1.54 1.74-.8.73.22 2.07 1 1.34zM818.39 1069.19c1.37-2 .66-5.36-1.89-5.86a2.81 2.81 0 0 0-3.45 2.38 4.92 4.92 0 0 0 1.37 4.16c1.31 1.26 3 .58 4-.69.67-.86-.68-1.88-1.35-1a2.93 2.93 0 0 1-.52.54.66.66 0 0 1-.42.18.86.86 0 0 1-.55-.26 3.38 3.38 0 0 1-.85-2.34 1.72 1.72 0 0 1 .3-1 1 1 0 0 1 .25-.21 1.13 1.13 0 0 1 .56-.12 1.36 1.36 0 0 1 1.45 1 2.64 2.64 0 0 1-.21 2.17c-.65.93.69 1.95 1.31 1.05zM823.32 1051.59c.36-.94 2.08-.83 1.79.32-.18.69-.8 1.55-1.6 1.55-.2 0-.38 0-.45-.15-.21-.38 0-.87.16-1.22a.84.84 0 0 0-1.57-.62c-.63 1.5-.38 3.27 1.43 3.65 1.63.34 3.15-1.16 3.59-2.58a2.41 2.41 0 0 0-1.77-3.19 2.71 2.71 0 0 0-3.16 1.62.84.84 0 0 0 1.57.62zM833.3 1039.12c.19 1-1.83 2.16-2.13.94-.24-1 1.83-2 2.13-.94s2 .82 1.67-.23a2.44 2.44 0 0 0-3.29-1.74 3 3 0 0 0-2.19 3.14c.55 3.51 6.05 1.74 5.47-1.4-.18-1.07-1.86-.84-1.66.23z"/><path class="cls-9" d="M64.88 731.64c7.54 2.43 14.38 3.07 18.47 11 3.52 6.71 5 14.45 9.41 21.24 2 4 7.6 14.68 13.14 14.51 6.19.23 7.1-11.42 7.18-15.9 0-5.86-2.23-13.15 3.18-17.48 6-5.31 16.37-1.58 23.66-.21 3.54.85 18.25 4.12 18.89-2.73.36-5.66-12.65-12.39-16.16-15.48-3.9-3.07-14.33-7.45-15.08-12.36-.79-5.15 6.54-10.45 8.87-14.37s6.91-12.46-.51-14.1c-6.76-1.49-15 1.54-21.08 4.07-5.9 2.21-11.35 5.15-17.22 1.5-5.22-3.25-10-8-14.44-11.7-3.06-2.36-10.24-10.44-14.39-6.69s1.86 15.19 3.38 19.3c1.56 4.95 7.57 12.91 3.83 18-3 4.1-15.54 3.89-20.46 4.61-3.21.47-12 .45-12.56 4.89s6.73 5.88 9.66 7.17a116 116 0 0 0 12.23 4.73z"/><path class="cls-3" d="M64.7 732.24c3.15 1 6.37 1.78 9.46 3a16.77 16.77 0 0 1 9 8.47c3.15 6.17 4.74 13 8.15 19 2.78 5 9.69 20.6 17.63 15.41 3.49-2.28 4.13-7.9 4.54-11.64.6-5.49-1.07-11.2.29-16.58 1.71-6.77 9.43-7.45 15.11-6.71 4.56.59 9 1.89 13.52 2.8 4.34.87 18.42 3.18 16.93-5.18-.67-3.73-5-6.63-7.78-8.7-3.29-2.43-6.68-4.88-10.09-7.13-4.16-2.75-9.55-4.84-12.51-9-3.44-4.88 4.38-11 7.08-14.4a21.63 21.63 0 0 0 4.59-10.58c.43-4.27-3.21-5.8-6.82-6.19-5.88-.63-11.93 1.56-17.3 3.67-5.63 2.22-11.93 5.72-17.9 2.7-3.47-1.75-6.54-4.66-9.44-7.19-2.34-2-4.73-4-7.06-6.09-2.77-2.45-6.16-6.12-10.06-6.51-10.06-1-2.87 15.31-1.2 19.24 1.8 4.25 4.14 8.55 5.35 13 .68 2.47.58 5.29-1.5 7.06s-5.22 2.06-7.7 2.44c-4.35.66-8.8.88-13.18 1.31-3.6.35-8.54.45-10.89 3.67s1.93 6.39 4.51 7.49c5.65 2.41 11.43 4.76 17.28 6.62a.63.63 0 0 0 .36-1.21c-3.58-1.13-7.07-2.47-10.52-3.93-2.55-1.08-5.23-1.89-7.71-3.08-2.82-1.4-4.73-4.53-1.27-6.52 2.36-1.36 5.56-1.47 8.2-1.73 4.49-.43 9-.72 13.5-1.34 3.85-.54 8.4-1.41 10.1-5.33s-1.06-9.08-2.74-12.61a132.38 132.38 0 0 1-5.18-12.61c-1.26-3.57-3.33-13.17 3.75-10.82 4.35 1.44 8.14 5.88 11.55 8.82 4.82 4.15 10.11 10.26 16.55 11.69 4.84 1.07 10.12-1.55 14.47-3.35 6.18-2.56 13.2-5.09 20-3.76 6.13 1.2 2.92 8.18 1 11.66-2.5 4.57-7 7.68-9.2 12.43-1.82 4 .49 6.95 3.51 9.38 3.66 3 8.1 4.75 11.75 7.71s7.66 5.08 11.17 8.1a12.77 12.77 0 0 1 4 5.07c.88 2.52-1.29 4.06-3.42 4.61-4.11 1.07-8.93.07-13-.8-8.38-1.79-19-5.84-26.34.53-4.33 3.75-3.19 10.33-2.86 15.33s-.12 10.67-2.6 14.95c-6.3 10.86-18.88-15.85-20.59-20.08-2.29-5.68-3.86-12-7.92-16.78s-10.66-5.77-16.21-7.55a.63.63 0 0 0-.36 1.24zM100.72 712.29a3.71 3.71 0 0 1 1.92 3.89.64.64 0 0 0 1 .64 3.17 3.17 0 0 1 3.85-.5.63.63 0 0 0 .8-1 8.11 8.11 0 0 1-1.9-4.23.62.62 0 0 0-.6-.49c-1.58.13-4.21-.45-5.38.94-.52.61.33 1.55.86.93.87-1 3.26-.51 4.49-.61l-.6-.49a9.3 9.3 0 0 0 2.2 4.8l.8-1a4.47 4.47 0 0 0-5.37.65l1 .64a5 5 0 0 0-2.47-5.32c-.68-.45-1.34.62-.67 1.07zM101.6 734.28c2.2 1.66 5.06-1.59 3.14-3.53-2.13-2.14-5.62 1.38-3.27 3.42.61.53 1.54-.32.93-.86a1 1 0 0 1-.12-1.56 1.11 1.11 0 0 1 1.63-.06 1.08 1.08 0 0 1-.13 1.4 1 1 0 0 1-1.51.12c-.65-.49-1.27.59-.67 1.07zM101.84 745.94a1.9 1.9 0 0 0 2.16-.81 2.35 2.35 0 0 0 0-2 1.72 1.72 0 0 0-2.16-.9 2.51 2.51 0 0 0-1.73 1.63c-.29 1.14.74 1.84 1.7 2.1a.63.63 0 0 0 .36-1.21l-.3-.09-.16-.06-.2-.12-.1-.08v-.06a1 1 0 0 1 0-.15c0-.11-.07.14 0 0l.09-.14.06-.07a2.08 2.08 0 0 1 .27-.24h.06l.2-.11s.22-.09.06 0h.5800000000000001l.09.09c.07.07-.05-.1 0 .05s.09.22 0 .08a1.45 1.45 0 0 1 .08.46.58.58 0 0 1-.78.62c-.71-.38-1.12.82-.28 1.01zM100.83 758.29a1.84 1.84 0 0 0 2.36 0 3.65 3.65 0 0 0 .88-2.16 1.5 1.5 0 0 0-1.61-1.72 3.17 3.17 0 0 0-2.3 1.27 1.74 1.74 0 0 0 .5 2.51l.16.11a.63.63 0 0 0 .67-1.07l-.2-.14-.11-.11-.07-.09v-.15000000000000002a1.11 1.11 0 0 1 .06-.19v-.06l.1-.14.09-.1.17-.15.07-.06a2.81 2.81 0 0 1 .4-.22h.08l.21-.06h.48c-.21-.15.07.13-.06-.06 0 0 .1.23 0 .06v.1a1.6 1.6 0 0 1 0 .21v.19a3.54 3.54 0 0 1-.24.76c-.09.19-.22.45-.4.49s-.48-.16-.66-.26a.63.63 0 0 0-.58 1.04zM85.71 718.53a2.15 2.15 0 0 0 2.42.16 3.38 3.38 0 0 0 1.38-1.85 1.71 1.71 0 0 0-1.17-2.27c-1.64-.49-4.56.7-3.66 2.79a3.22 3.22 0 0 0 1 1.16.63.63 0 0 0 .87-.2.64.64 0 0 0-.2-.87 3.1 3.1 0 0 1-.44-.44l-.08-.14-.06-.14v-.27l.07-.1.16-.15.09-.07a2.77 2.77 0 0 1 .48-.24c-.14.06.1 0 .14 0l.3-.07h.78l.21.06h.12s.21.17.06 0l.08.08v.07c.06.12 0-.14 0 0a1 1 0 0 1 0 .12v.1a2.22 2.22 0 0 1-.11.34 2.81 2.81 0 0 1-.4.65 1 1 0 0 1-1.46.14c-.57-.39-1.23.61-.58 1.14zM77.06 717.15a2.38 2.38 0 0 0-2.26.62 1.42 1.42 0 0 0 .2 2.23 2 2 0 0 0 2.56-.08 1.53 1.53 0 0 0 .07-2.37.64.64 0 0 0-.89 0 .63.63 0 0 0 0 .89c.14.13.22.19.21.33a.75.75 0 0 1-.21.25.76.76 0 0 1-1 0l-.12-.12v-.06l.12-.13a1.12 1.12 0 0 1 .94-.23c.79.2 1.15-1 .36-1.21zM63.95 719.54c.58-.11.81.84.42 1.08-.74.46-1.19-.63-.51-1.08s.09-1.56-.59-1.12a2 2 0 0 0-.86 2.51 1.84 1.84 0 0 0 2.48.84 1.8 1.8 0 0 0 .84-2.16 1.76 1.76 0 0 0-2.07-1.3c-.8.16-.51 1.39.29 1.23zM97.56 700.77a2.65 2.65 0 0 0-3.51-.26 2.38 2.38 0 0 0-.44 3.35 2.51 2.51 0 0 0 3.36.57 2.58 2.58 0 0 0 .69-3.53c-.4-.71-1.52-.12-1.12.59a1.36 1.36 0 0 1-.1 1.77 1.23 1.23 0 0 1-1.69 0c-1.29-1.16.72-2.7 1.88-1.62.59.55 1.52-.3.93-.86zM88 691.76c-1.88-1.37-4 1.61-2.15 3a1.87 1.87 0 0 0 2.53-.44 1.84 1.84 0 0 0-.52-2.63c-.63-.51-1.29.57-.67 1.07a.58.58 0 0 1-.6 1c-.33-.18-.26-.5-.1-.76a.53.53 0 0 1 .85-.14c.66.48 1.32-.59.67-1.07zM80.18 682.85a1.38 1.38 0 0 0-2.15 1 2.49 2.49 0 0 0 1.14 2.73 1.66 1.66 0 0 0 2.45-1.19 2.49 2.49 0 0 0-1.51-2.74c-.76-.3-1.11.91-.36 1.21s.94 2.07 0 1.6a1.2 1.2 0 0 1-.51-1.15.84.84 0 0 1 .14-.46s.1 0 .15.07c.7.4 1.37-.66.67-1.07zM115.84 704.25c-1.16-1.1-2.68-.45-3.48.74a2.55 2.55 0 0 0-.4 1.9 2.44 2.44 0 0 0 1.61 1.59c3 1.34 4.69-4.2 1.64-4.82-.79-.16-1.16 1-.36 1.21 1.33.27.68 2.81-.66 2.49-2.21-.52-.15-3.08.72-2.25.59.56 1.52-.3.93-.86zM122.26 697.71v.18l-.39.28h-.22l.21.13a1.21 1.21 0 0 1 .21.21.87.87 0 0 1 .21.52c0 .47-.62.47-.93.36-.5-.17.26-1 .58-1.21.73-.36.14-1.47-.59-1.12a2.44 2.44 0 0 0-1.39 2.13 1.71 1.71 0 0 0 2.19 1.47 1.73 1.73 0 0 0 1.18-2.51 2.39 2.39 0 0 0-1.12-1.12.77.77 0 0 0-.9.07 1 1 0 0 0-.23.9c.1.81 1.33.51 1.23-.29zM127.65 691.78a3.39 3.39 0 0 0 .89.57c.24.12.49.27.32.58a1 1 0 0 1-1.25.18c-.35-.35.22-1.24.72-1.18.81.09.84-1.17 0-1.26-1.71-.19-2.91 2.48-1.44 3.51a2.23 2.23 0 0 0 2.94-.48 1.7 1.7 0 0 0 .17-1.7c-.29-.59-1-.63-1.4-1-.59-.55-1.52.3-.93.86zM116.43 725.09c1.57.89 4 .12 4.23-1.81a2.1 2.1 0 0 0-2-2.4 3.67 3.67 0 0 0-3 1.31c-.85 1.06-.23 2.25.78 2.9a.63.63 0 0 0 .67-1.07 2.19 2.19 0 0 1-.44-.35.49.49 0 0 1-.16-.3.64.64 0 0 1 .15-.43 2.53 2.53 0 0 1 1.68-.79 1.28 1.28 0 0 1 .77.15.72.72 0 0 1 .17.17.85.85 0 0 1 .13.41 1 1 0 0 1-.68 1.15 2 2 0 0 1-1.63 0c-.71-.41-1.38.66-.67 1.06zM129.86 727.56c.73.2.76 1.49-.12 1.35-.53-.08-1.21-.49-1.27-1.09 0-.15 0-.29.08-.34.26-.18.65 0 .92 0a.63.63 0 0 0 .36-1.21c-1.16-.37-2.46-.06-2.62 1.31a2.6 2.6 0 0 0 2.17 2.5 1.8 1.8 0 0 0 2.26-1.54 2 2 0 0 0-1.42-2.24.63.63 0 0 0-.36 1.21zM139.82 734.13c-.75.21-1.73-1.22-.85-1.52.72-.24 1.65 1.22.85 1.52s-.48 1.51.29 1.23a1.82 1.82 0 0 0 1.07-2.56 2.21 2.21 0 0 0-2.49-1.41c-2.57.65-.88 4.62 1.42 4 .78-.25.49-1.48-.29-1.26z"/><path class="cls-9" d="M1093 875.4c7.54 2.43 14.38 3.07 18.47 11 3.52 6.71 5 14.45 9.41 21.24 2 4 7.6 14.68 13.14 14.51 6.19.23 7.1-11.42 7.18-15.9 0-5.86-2.23-13.15 3.18-17.48 6-5.31 16.37-1.58 23.66-.21 3.54.85 18.25 4.12 18.89-2.73.35-5.66-12.65-12.39-16.16-15.48-3.9-3.07-14.33-7.45-15.08-12.36-.79-5.15 6.54-10.45 8.87-14.37s6.91-12.46-.51-14.1c-6.76-1.49-15 1.54-21.08 4.07-5.9 2.21-11.35 5.15-17.22 1.5-5.22-3.25-10-8-14.44-11.7-3.06-2.36-10.24-10.44-14.39-6.69s1.86 15.19 3.38 19.3c1.56 4.95 7.57 12.91 3.83 18-3 4.1-15.54 3.89-20.46 4.61-3.21.47-12 .45-12.56 4.89s6.73 5.88 9.66 7.17a116.06 116.06 0 0 0 12.23 4.73z"/><path class="cls-3" d="M1092.85 876c3.15 1 6.37 1.78 9.46 3a16.77 16.77 0 0 1 9 8.47c3.15 6.17 4.74 13 8.14 19 2.78 5 9.69 20.6 17.63 15.41 3.49-2.28 4.13-7.9 4.54-11.64.6-5.49-1.07-11.2.29-16.58 1.71-6.77 9.43-7.45 15.11-6.71 4.56.59 9 1.89 13.52 2.8 4.34.87 18.42 3.18 16.93-5.18-.67-3.73-5-6.63-7.78-8.7-3.29-2.43-6.68-4.88-10.09-7.13-4.16-2.75-9.55-4.84-12.51-9-3.44-4.88 4.38-11 7.08-14.4a21.64 21.64 0 0 0 4.59-10.55c.43-4.27-3.21-5.8-6.82-6.19-5.88-.63-11.93 1.56-17.3 3.67-5.63 2.22-11.93 5.72-17.9 2.7-3.47-1.75-6.54-4.66-9.44-7.19-2.34-2-4.73-4-7.06-6.09-2.77-2.45-6.16-6.12-10.06-6.51-10.06-1-2.87 15.31-1.2 19.24 1.8 4.25 4.14 8.55 5.35 13 .68 2.47.57 5.29-1.5 7.06s-5.22 2.06-7.7 2.44c-4.35.66-8.8.88-13.18 1.31-3.6.35-8.54.45-10.89 3.67s1.93 6.39 4.51 7.49c5.65 2.41 11.43 4.76 17.28 6.62a.63.63 0 0 0 .36-1.21c-3.58-1.13-7.07-2.47-10.52-3.93-2.54-1.08-5.22-1.91-7.69-3.13-2.82-1.4-4.73-4.53-1.27-6.52 2.36-1.36 5.56-1.47 8.2-1.73 4.49-.43 9-.72 13.5-1.34 3.85-.54 8.4-1.41 10.1-5.33s-1.06-9.08-2.74-12.61a132.43 132.43 0 0 1-5.18-12.61c-1.26-3.57-3.33-13.17 3.75-10.82 4.35 1.44 8.14 5.88 11.55 8.82 4.82 4.15 10.11 10.26 16.55 11.69 4.84 1.07 10.12-1.55 14.47-3.35 6.18-2.56 13.2-5.09 20-3.76 6.13 1.2 2.92 8.18 1 11.66-2.5 4.57-7 7.68-9.2 12.43-1.82 4 .49 6.95 3.51 9.38 3.66 3 8.1 4.75 11.75 7.71s7.66 5.08 11.17 8.1a12.77 12.77 0 0 1 4 5.07c.88 2.52-1.29 4.06-3.42 4.61-4.11 1.07-8.93.07-13-.8-8.38-1.79-19-5.84-26.34.53-4.33 3.75-3.19 10.33-2.86 15.33s-.12 10.67-2.6 14.95c-6.3 10.86-18.88-15.85-20.58-20.08-2.29-5.68-3.86-12-7.92-16.78s-10.66-5.73-16.21-7.48a.63.63 0 0 0-.38 1.19zM1128.87 856a3.71 3.71 0 0 1 1.92 3.89.64.64 0 0 0 1 .64 3.17 3.17 0 0 1 3.85-.5.63.63 0 0 0 .8-1 8.11 8.11 0 0 1-1.9-4.23.62.62 0 0 0-.6-.49c-1.58.13-4.21-.45-5.38.94-.52.61.33 1.55.86.93.87-1 3.26-.51 4.49-.61l-.6-.49a9.3 9.3 0 0 0 2.2 4.8l.8-1a4.47 4.47 0 0 0-5.37.65l1 .64a5 5 0 0 0-2.47-5.32c-.68-.45-1.34.62-.67 1.07zM1129.75 878c2.2 1.66 5.06-1.59 3.14-3.53-2.13-2.14-5.62 1.37-3.27 3.42.61.53 1.54-.32.93-.86a1 1 0 0 1-.12-1.56 1.11 1.11 0 0 1 1.63-.06 1.08 1.08 0 0 1-.13 1.4 1 1 0 0 1-1.51.12c-.65-.45-1.31.63-.67 1.07zM1130 889.7a1.9 1.9 0 0 0 2.16-.81 2.35 2.35 0 0 0 0-2 1.72 1.72 0 0 0-2.16-.9 2.51 2.51 0 0 0-1.73 1.63c-.29 1.14.74 1.84 1.7 2.1a.63.63 0 0 0 .36-1.21l-.3-.09-.16-.06-.2-.12-.1-.08v-.06a1 1 0 0 1 0-.15c0-.11-.07.14 0 0l.09-.14.06-.07a2.08 2.08 0 0 1 .27-.23h.06l.2-.11s.22-.09.06 0h.5800000000000001l.09.09c.07.07-.05-.1 0 .05s.09.22 0 .08a1.46 1.46 0 0 1 .08.46.58.58 0 0 1-.78.62c-.72-.4-1.09.81-.28 1zM1129 902a1.84 1.84 0 0 0 2.36 0 3.65 3.65 0 0 0 .88-2.16 1.5 1.5 0 0 0-1.61-1.72 3.17 3.17 0 0 0-2.3 1.27 1.74 1.74 0 0 0 .5 2.51l.16.11a.63.63 0 0 0 .67-1.07l-.2-.14-.11-.11-.07-.09v-.15000000000000002a1.13 1.13 0 0 1 .06-.19v-.06l.1-.14.09-.1.17-.15.07-.06a2.82 2.82 0 0 1 .4-.22h.08l.21-.06h.48c-.21-.15.07.13-.06-.06 0 0 .1.23 0 .06v.1a1.61 1.61 0 0 1 0 .21v.19a3.54 3.54 0 0 1-.24.76c-.09.19-.22.45-.4.49s-.48-.16-.66-.26a.63.63 0 0 0-.58 1.04zM1113.86 862.29a2.15 2.15 0 0 0 2.42.16 3.38 3.38 0 0 0 1.38-1.85 1.71 1.71 0 0 0-1.17-2.27c-1.64-.49-4.56.7-3.66 2.79a3.22 3.22 0 0 0 1 1.16.63.63 0 0 0 .87-.2.64.64 0 0 0-.2-.87 3.1 3.1 0 0 1-.44-.44l-.08-.14-.06-.14v-.27l.07-.1.16-.15.09-.07a2.76 2.76 0 0 1 .48-.24c-.14.06.1 0 .14 0l.3-.07h.78l.21.06h.12s.21.17.06 0l.08.08v.07c.06.12 0-.14 0 0a1 1 0 0 1 0 .12v.1a2.22 2.22 0 0 1-.11.34 2.81 2.81 0 0 1-.4.65 1 1 0 0 1-1.46.14c-.57-.42-1.23.65-.58 1.14zM1105.21 860.91a2.38 2.38 0 0 0-2.26.62 1.42 1.42 0 0 0 .21 2.19 2 2 0 0 0 2.56-.08 1.53 1.53 0 0 0 .07-2.37.64.64 0 0 0-.89 0 .63.63 0 0 0 0 .89c.14.13.22.19.21.33a.75.75 0 0 1-.21.25.76.76 0 0 1-1 0l-.12-.12v-.06l.12-.13a1.12 1.12 0 0 1 .94-.23c.79.2 1.15-1 .36-1.21zM1092.1 863.3c.58-.11.81.84.42 1.08-.74.46-1.19-.63-.51-1.08s.09-1.56-.59-1.12a2 2 0 0 0-.86 2.51 1.84 1.84 0 0 0 2.48.84 1.8 1.8 0 0 0 .84-2.16 1.76 1.76 0 0 0-2.07-1.3c-.8.16-.51 1.39.29 1.23zM1125.71 844.53a2.65 2.65 0 0 0-3.51-.26 2.38 2.38 0 0 0-.44 3.35 2.51 2.51 0 0 0 3.36.57 2.58 2.58 0 0 0 .69-3.53c-.4-.71-1.52-.12-1.12.59a1.36 1.36 0 0 1-.1 1.77 1.23 1.23 0 0 1-1.69 0c-1.29-1.16.72-2.7 1.88-1.62.59.55 1.52-.3.93-.86zM1116.15 835.51c-1.88-1.37-4 1.61-2.15 3a1.87 1.87 0 0 0 2.53-.44 1.84 1.84 0 0 0-.52-2.63c-.63-.51-1.29.57-.67 1.07a.58.58 0 0 1-.6 1c-.33-.18-.26-.5-.1-.76a.53.53 0 0 1 .85-.14c.66.48 1.32-.59.67-1.07zM1108.33 826.61a1.38 1.38 0 0 0-2.15 1 2.49 2.49 0 0 0 1.14 2.73 1.66 1.66 0 0 0 2.45-1.18 2.49 2.49 0 0 0-1.51-2.74c-.76-.3-1.11.91-.36 1.21s.94 2.07 0 1.6a1.2 1.2 0 0 1-.51-1.15.84.84 0 0 1 .14-.46s.1 0 .15.07c.7.4 1.37-.66.67-1.07zM1144 848c-1.16-1.1-2.68-.45-3.48.74a2.55 2.55 0 0 0-.4 1.9 2.44 2.44 0 0 0 1.61 1.59c3 1.34 4.69-4.2 1.64-4.82-.79-.16-1.16 1-.36 1.21 1.33.27.68 2.81-.66 2.49-2.21-.52-.15-3.08.72-2.25.59.56 1.52-.3.93-.86zM1150.41 841.46v.18l-.39.28h-.22l.21.13a1.21 1.21 0 0 1 .21.21.87.87 0 0 1 .21.52c0 .47-.62.47-.93.36-.5-.17.26-1 .58-1.21.73-.36.14-1.47-.59-1.12a2.44 2.44 0 0 0-1.39 2.13 1.71 1.71 0 0 0 2.19 1.47 1.73 1.73 0 0 0 1.18-2.51 2.39 2.39 0 0 0-1.12-1.12.77.77 0 0 0-.9.07 1 1 0 0 0-.23.9c.1.81 1.33.51 1.23-.29zM1155.8 835.54a3.39 3.39 0 0 0 .89.57c.24.12.49.27.32.58a1 1 0 0 1-1.25.18c-.35-.35.22-1.24.72-1.18.81.09.84-1.17 0-1.26-1.71-.19-2.91 2.48-1.44 3.51a2.23 2.23 0 0 0 2.94-.48 1.7 1.7 0 0 0 .11-1.74c-.29-.59-1-.63-1.4-1-.59-.55-1.52.3-.93.86zM1144.58 868.85c1.57.89 4 .12 4.23-1.81a2.1 2.1 0 0 0-2-2.4 3.67 3.67 0 0 0-3 1.31c-.85 1.06-.23 2.25.78 2.9a.63.63 0 0 0 .67-1.07 2.2 2.2 0 0 1-.44-.35.49.49 0 0 1-.16-.3.64.64 0 0 1 .15-.43 2.53 2.53 0 0 1 1.68-.79 1.28 1.28 0 0 1 .77.15.72.72 0 0 1 .17.17.85.85 0 0 1 .13.41 1 1 0 0 1-.68 1.15 2 2 0 0 1-1.63 0c-.71-.41-1.38.66-.67 1.06zM1158 871.32c.73.2.76 1.49-.12 1.35-.53-.08-1.21-.49-1.27-1.09 0-.15 0-.29.08-.34.26-.18.65 0 .92 0a.63.63 0 0 0 .36-1.21c-1.16-.37-2.46-.06-2.62 1.31a2.6 2.6 0 0 0 2.17 2.5 1.8 1.8 0 0 0 2.26-1.54 2 2 0 0 0-1.42-2.24.63.63 0 0 0-.36 1.21zM1168 877.89c-.75.21-1.73-1.22-.85-1.52.72-.24 1.65 1.22.85 1.52s-.48 1.51.29 1.23a1.82 1.82 0 0 0 1.07-2.56 2.21 2.21 0 0 0-2.49-1.41c-2.57.65-.88 4.62 1.42 4 .71-.25.47-1.48-.29-1.26z"/><path class="cls-12" d="M124.94 1120.85c-11.56 1.93-23.76 2.57-34 6.42 0-9-1.28-15.41 7.06-20.55a159.66 159.66 0 0 1 28.9-11.56c5.14-1.28 15.41-5.78 20.55-4.5 4.5 1.28 9.63 7.71 10.28 12.2 1.28 5.78-1.93 7.06-6.42 9a255.19 255.19 0 0 1-31.47 9.63"/><path class="cls-3" d="M124.6 1119.62c-11.4 1.83-23.08 2.53-34 6.42l1.62 1.23c0-4.17-.4-8.41.64-12.49 1.49-5.84 8.05-8.22 12.95-10.47 9.59-4.41 19.67-7.3 29.68-10.51 4.16-1.33 9.29-3.25 13.42-1.1s10.78 11 6.53 15.54c-1.86 2-5.7 2.84-8.1 3.72-3 1.1-6.06 2.11-9.11 3.1-6.17 2-12.43 3.69-18.73 5.2-1.6.38-.92 2.85.68 2.47a270.9 270.9 0 0 0 26-7.65c3.64-1.27 11-2.82 12.53-7.09 3.25-9-6.85-19.57-15.63-18.65-5.7.6-11.06 3.13-16.54 4.6a151.2 151.2 0 0 0-20.52 7.49c-5.56 2.41-11.53 4.79-14.69 10.27-2.6 4.51-1.73 10.64-1.7 15.58a1.29 1.29 0 0 0 1.62 1.23c11-3.9 22.63-4.59 34-6.42 1.62-.26.93-2.72-.68-2.47z"/><path class="cls-12" d="M74.21 1103.72c-9.63-5.14-25-7.71-22.48-20.55 3.21-14.77 11.56-34 21.83-45.6 7.71-9 18.62-11.56 30.18-14.77 14.77-3.85 37.89-5.78 49.45 7.06 13.48 14.77 2.57 43.66-1.28 59.72-3.1 12.91-8.89 31.84-23.59 35.65-16.98 4.4-39.92-14.42-54.11-21.51z"/><path class="cls-3" d="M74.85 1102.62c-8.1-4.17-23.79-7.08-21.89-19.11 2-12.92 8.48-26.11 15.46-37 3.72-5.81 8.13-11 14-14.68s13.27-5.48 20.06-7.35c11.51-3.17 23.94-4.61 35.67-1.77 29.57 7.16 19.2 41.45 13.62 62.18-2.77 10.3-5 20.67-11.11 29.64-7.86 11.58-20.34 11.41-32.21 6.74s-22.23-12.82-33.63-18.65c-1.46-.75-2.76 1.46-1.29 2.21 10.24 5.24 19.58 12 30 17 8.27 4 18.83 7.57 27.81 3.71 18.44-7.93 21.58-34.25 26-51.34 5-19.42 7.8-43.8-14.6-52.77-10-4-21.62-3.21-32-1.48-11.32 1.9-24 5.23-33.32 12.18-6.61 4.94-11.33 12.75-15.26 19.85a121.56 121.56 0 0 0-10.66 26.72c-1.76 6.45-1.95 12 3.36 16.68s12.63 6.32 18.71 9.45c1.43.75 2.75-1.46 1.28-2.21zM77 1050.42c13.62 18.61 30.6 34.64 42.38 54.59a1.28 1.28 0 0 0 2.21-1.29c-11.79-20-28.76-36-42.38-54.59-1-1.32-3.18 0-2.21 1.29zM105.41 1034.63c17.25 19 23.28 45 26.6 69.74.22 1.61 2.77 1.63 2.56 0-3.41-25.44-9.6-52-27.35-71.54-1.11-1.22-2.91.59-1.81 1.81zM135.22 1030.51c2.56 19.2 5.07 38.42 5.78 57.8.06 1.64 2.62 1.65 2.56 0-.71-19.38-3.22-38.6-5.78-57.8-.21-1.61-2.77-1.63-2.56 0zM63 1078.94c6.64 5.18 15.3 7.74 22.54 12.11a154.29 154.29 0 0 1 24.34 18.71c1.21 1.11 3-.69 1.81-1.81a176.09 176.09 0 0 0-21.77-17.15 125 125 0 0 0-12.22-7.11c-4.35-2.22-9-3.52-12.89-6.56-1.28-1-3.11.8-1.81 1.81z"/><path class="cls-12" d="M1039.63 252.49c-8.05 1.34-16.56 1.79-23.71 4.47 0-6.26-.89-10.74 4.92-14.32a111.24 111.24 0 0 1 20.16-8.04c3.58-.89 10.74-4 14.32-3.13 3.13.89 6.71 5.37 7.16 8.5.89 4-1.34 4.92-4.47 6.26a177.8 177.8 0 0 1-21.93 6.71"/><path class="cls-3" d="M1039.39 251.64c-7.94 1.28-16.08 1.76-23.72 4.47l1.13.86c0-2.9-.28-5.86.44-8.7 1-4.07 5.61-5.73 9-7.3 6.68-3.07 13.7-5.09 20.68-7.32 2.89-.93 6.47-2.26 9.35-.77s7.51 7.66 4.55 10.83c-1.3 1.39-4 2-5.64 2.59-2.1.76-4.22 1.47-6.35 2.16-4.3 1.39-8.66 2.57-13.05 3.62-1.12.27-.64 2 .47 1.72a188.78 188.78 0 0 0 18.13-5.33c2.54-.88 7.65-2 8.73-4.94 2.26-6.24-4.77-13.63-10.89-13-4 .41-7.7 2.18-11.53 3.21a105.34 105.34 0 0 0-14.29 5.22c-3.88 1.68-8 3.34-10.23 7.16-1.81 3.14-1.21 7.41-1.18 10.86a.9.9 0 0 0 1.13.86c7.63-2.71 15.77-3.2 23.72-4.47 1.13-.18.65-1.9-.47-1.72z"/><path class="cls-12" d="M1004.28 240.56c-6.71-3.58-17.45-5.37-15.66-14.32 2.24-10.29 8.05-23.71 15.21-31.77 5.37-6.26 13-8.05 21-10.29 10.29-2.68 26.4-4 34.45 4.92 9.4 10.29 1.79 30.42-.89 41.61-2.16 9-6.2 22.19-16.44 24.84-11.8 3.06-27.79-10.05-37.67-14.99z"/><path class="cls-3" d="M1004.73 239.79c-5.64-2.91-16.58-4.93-15.25-13.31 1.42-9 5.91-18.19 10.77-25.79a31.64 31.64 0 0 1 9.78-10.23c4.21-2.61 9.24-3.82 14-5.12 8-2.21 16.68-3.21 24.85-1.23 20.6 5 13.38 28.88 9.49 43.32-1.93 7.17-3.49 14.4-7.74 20.65-5.48 8.07-14.17 8-22.45 4.7s-15.49-8.93-23.43-13c-1-.52-1.92 1-.9 1.54 7.14 3.65 13.64 8.39 20.88 11.87 5.76 2.77 13.12 5.27 19.38 2.58 12.85-5.53 15-23.87 18.09-35.77 3.47-13.53 5.44-30.52-10.17-36.77-6.94-2.78-15.06-2.24-22.26-1-7.89 1.32-16.73 3.64-23.22 8.49-4.61 3.44-7.89 8.88-10.63 13.83a84.7 84.7 0 0 0-7.44 18.6c-1.23 4.49-1.36 8.34 2.34 11.62s8.8 4.4 13 6.58c1.03.5 1.93-1.04.91-1.56zM1006.19 203.42c9.49 13 21.32 24.14 29.53 38a.89.89 0 0 0 1.54-.9c-8.21-13.9-20-25.07-29.53-38-.67-.92-2.22 0-1.54.9zM1026 192.41c12 13.21 16.22 31.36 18.53 48.59.15 1.12 1.93 1.14 1.78 0-2.38-17.73-6.69-36.26-19.05-49.85-.77-.85-2 .41-1.26 1.26zM1046.79 189.55c1.78 13.38 3.53 26.77 4 40.27 0 1.14 1.82 1.15 1.78 0-.5-13.5-2.24-26.89-4-40.27-.15-1.12-1.93-1.14-1.78 0zM996.49 223.29c4.63 3.61 10.66 5.39 15.7 8.44a107.49 107.49 0 0 1 17 13c.84.78 2.11-.48 1.26-1.26a122.69 122.69 0 0 0-15.17-12 87.07 87.07 0 0 0-8.52-5c-3-1.55-6.25-2.45-9-4.57-.89-.7-2.16.55-1.26 1.26z"/><path class="cls-12" d="M677.76 906.29c-6.26-5.24-12.14-11.4-18.84-15.08 4.75-4.08 7.57-7.67 14.07-5.59a111.24 111.24 0 0 1 19.23 10c3 2.13 10.05 5.53 11.7 8.82 1.36 3 .3 8.59-1.79 11-2.47 3.3-4.61 2.19-7.67.68a177.79 177.79 0 0 1-19.37-12.27"/><path class="cls-3" d="M678.26 905.55c-6.14-5.2-11.81-11.06-18.84-15.08l.08 1.41c2.19-1.91 4.26-4 6.89-5.33 3.76-1.87 8 .53 11.41 2.09 6.68 3.07 12.78 7.09 19 10.92 2.59 1.59 5.93 3.44 6.67 6.6s-.92 10.69-5.26 10.5c-1.9-.08-4.09-1.72-5.64-2.59-1.95-1.1-3.87-2.25-5.77-3.41-3.86-2.35-7.59-4.9-11.25-7.54-.93-.67-1.93.8-1 1.48a188.75 188.75 0 0 0 15.86 10.29c2.32 1.35 6.47 4.53 9.44 3.41 6.21-2.35 7.24-12.5 2.77-16.73-2.9-2.74-6.67-4.43-9.94-6.66a105.35 105.35 0 0 0-13.27-7.45c-3.8-1.85-7.77-3.92-12.1-3.11-3.57.67-6.41 3.91-9 6.17a.9.9 0 0 0 .08 1.41c7 4 12.7 9.88 18.84 15.08.88.74 1.86-.74 1-1.48z"/><path class="cls-12" d="M663.8 871.69c-1.66-7.42-7.29-16.74.66-21.21 9.27-5 23.24-9.33 34-9.15 8.25 0 14.56 4.6 21.51 9.25 8.74 6.06 20.25 17.41 18.71 29.35-1.69 13.83-21.92 21.17-32.16 26.42-8.23 4.22-20.87 9.75-29.55 3.71-10.02-6.98-10.48-27.65-13.17-38.37z"/><path class="cls-3" d="M664.67 871.53c-1.47-6.18-7.05-15.79.17-20.24 7.76-4.78 17.65-7.36 26.58-8.62a31.64 31.64 0 0 1 14.13.76c4.73 1.5 8.92 4.53 13 7.27 6.9 4.65 13.3 10.57 17.12 18.06 9.63 18.88-13.2 29-26.7 35.42-6.7 3.21-13.2 6.73-20.71 7.58-9.69 1.1-15.26-5.57-18.18-14s-3.31-17.57-5.4-26.24c-.27-1.11-2-.8-1.75.32 1.88 7.79 2.52 15.82 4.59 23.57 1.65 6.18 4.55 13.39 10.66 16.39 12.56 6.15 27.9-4.14 38.92-9.57 12.53-6.18 26.7-15.75 21.28-31.67-2.41-7.07-8.11-12.89-13.72-17.56-6.14-5.12-13.66-10.32-21.56-12.09-5.61-1.25-11.88-.2-17.42.94a84.7 84.7 0 0 0-19 6.47c-4.21 2-7.21 4.4-7.29 9.34s2.39 9.54 3.49 14.18c.31 1.16 2.06.81 1.79-.31zM693.22 849c-3.66 15.64-4.43 31.9-9.63 47.18a.89.89 0 0 0 1.68.58c5.2-15.29 6-31.53 9.63-47.18.26-1.11-1.42-1.7-1.68-.58zM714.49 856.83c-2.2 17.72-13.23 32.74-24.8 45.71-.75.84.4 2.21 1.16 1.35 11.9-13.35 23.16-28.69 25.42-46.93.14-1.14-1.64-1.27-1.78-.14zM730.19 870.73c-9 10.07-18 20.12-27.93 29.28-.84.78.32 2.13 1.16 1.35 9.92-9.17 18.94-19.22 27.93-29.28.75-.84-.4-2.21-1.16-1.35zM671.83 854.53c.28 5.86 2.85 11.6 3.82 17.41a107.5 107.5 0 0 1 1.15 21.36c0 1.15 1.74 1.29 1.78.14a122.69 122.69 0 0 0-.81-19.29 87 87 0 0 0-1.79-9.69c-.8-3.31-2.21-6.34-2.38-9.79-.05-1.13-1.83-1.28-1.78-.14z"/><path class="cls-9" d="M614.21 400.32c-4.66-7-8.67-14.76-14.21-20.33 5.87-2.65 9.69-5.37 15.5-1.43a114.36 114.36 0 0 1 16.05 15.44c2.35 3 8.31 8.36 9 12.1.48 3.31-2.2 8.56-4.94 10.3-3.4 2.54-5.18.82-7.76-1.55a182.75 182.75 0 0 1-15.55-17.71"/><path class="cls-3" d="M614.91 399.74c-4.55-6.9-8.44-14.33-14.21-20.33l-.33 1.42c2.71-1.25 5.37-2.74 8.34-3.26 4.25-.75 7.74 2.84 10.65 5.37 5.7 5 10.55 10.69 15.6 16.29 2.09 2.32 4.85 5.11 4.67 8.44s-4 10.27-8.23 8.83c-1.85-.63-3.53-2.88-4.81-4.19-1.6-1.65-3.16-3.33-4.7-5-3.12-3.44-6.07-7-8.91-10.7-.72-.93-2.13.24-1.41 1.17a194.06 194.06 0 0 0 12.65 14.74c1.9 2 5.07 6.34 8.32 6.09 6.8-.51 10.76-10.23 7.58-15.69-2.07-3.55-5.29-6.3-7.87-9.45a108.29 108.29 0 0 0-10.93-11.19c-3.21-2.92-6.52-6.12-11-6.57-3.71-.37-7.46 2-10.67 3.48a.92.92 0 0 0-.33 1.42c5.77 6 9.66 13.43 14.21 20.33.65 1 2.05-.19 1.41-1.17z"/><path class="cls-9" d="M610.47 362.16c.52-7.8-2.34-18.62 6.8-20.72 10.59-2.25 25.62-2.47 36.2.84 8.14 2.39 13 8.76 18.53 15.36 6.86 8.51 14.92 23 9.94 34.37-5.68 13.15-27.75 14.53-39.37 16.73-9.34 1.78-23.41 3.56-30.22-4.91-7.87-9.83-2.35-30.32-1.88-41.67z"/><path class="cls-3" d="M611.38 362.25c.34-6.52-2.38-17.62 6-19.91 9-2.47 19.54-2.14 28.71-.8a32.52 32.52 0 0 1 13.72 4.85c4.23 2.85 7.48 7.05 10.7 10.93 5.46 6.58 10.05 14.28 11.65 22.77 4 21.41-21.41 24.73-36.59 27.19-7.54 1.22-15 2.81-22.62 1.47-9.87-1.73-13.44-9.92-13.88-19.05s1.83-18.28 2.28-27.44c.06-1.18-1.76-1.37-1.82-.19-.41 8.23-2.1 16.33-2.31 24.58-.16 6.57.6 14.52 5.76 19.25 10.6 9.71 28.71 4 41.16 1.84 14.15-2.46 30.9-7.79 30.16-25.06-.33-7.67-4.26-15.06-8.44-21.3-4.57-6.83-10.48-14.14-17.76-18.17-5.17-2.86-11.66-3.65-17.45-4.12a87.06 87.06 0 0 0-20.57.89c-4.73.75-8.39 2.25-9.9 7.1s-.41 10.11-.66 15c-.03 1.16 1.79 1.35 1.86.17zM646.08 348.27c-8.14 14.37-13.61 30.17-23.17 43.74a.92.92 0 0 0 1.49 1.06c9.56-13.57 15-29.37 23.17-43.74.58-1-.91-2.09-1.49-1.06zM664.76 362.2c-7.3 16.84-22.54 28.45-37.71 37.89-1 .61-.25 2.29.75 1.67 15.61-9.71 31.15-21.58 38.67-38.91.47-1.09-1.24-1.73-1.71-.65zM676.22 380.45c-11.78 7.32-23.6 14.61-36 20.78-1.06.52-.31 2.19.75 1.67 12.44-6.17 24.25-13.46 36-20.78 1-.61.25-2.29-.75-1.67zM623.36 347.56c-1.43 5.86-.55 12.27-1.28 18.28a110.5 110.5 0 0 1-5.06 21.4c-.37 1.12 1.34 1.77 1.71.65a126.11 126.11 0 0 0 4.79-19.26 89.5 89.5 0 0 0 1-10.07c.17-3.49-.35-6.9.49-10.34.28-1.13-1.43-1.79-1.71-.65z"/><path class="cls-9" d="M290.8 1035.54c-4.66-7-8.67-14.76-14.21-20.33 5.87-2.65 9.69-5.37 15.5-1.43a114.35 114.35 0 0 1 16.05 15.47c2.35 3 8.31 8.36 9 12.1.48 3.31-2.2 8.56-4.94 10.3-3.4 2.54-5.18.82-7.76-1.55a182.77 182.77 0 0 1-15.55-17.71"/><path class="cls-3" d="M291.51 1035c-4.55-6.9-8.44-14.33-14.21-20.33l-.3 1.33c2.71-1.25 5.37-2.74 8.34-3.26 4.25-.75 7.74 2.84 10.65 5.37 5.7 5 10.55 10.69 15.6 16.29 2.09 2.32 4.85 5.11 4.67 8.44s-4 10.27-8.23 8.83c-1.85-.63-3.53-2.88-4.81-4.19-1.6-1.65-3.16-3.33-4.7-5-3.12-3.44-6.07-7-8.91-10.7-.72-.93-2.13.24-1.41 1.17a194 194 0 0 0 12.65 14.74c1.9 2 5.07 6.34 8.32 6.09 6.8-.51 10.76-10.23 7.58-15.69-2.07-3.55-5.29-6.3-7.87-9.45a108.28 108.28 0 0 0-10.93-11.19c-3.21-2.92-6.52-6.12-11-6.57-3.71-.37-7.46 2-10.67 3.48a.92.92 0 0 0-.33 1.42c5.77 6 9.66 13.43 14.21 20.33.65 1 2.05-.19 1.41-1.17z"/><path class="cls-9" d="M287.06 997.37c.52-7.8-2.34-18.62 6.8-20.72 10.59-2.25 25.62-2.47 36.2.84 8.14 2.39 13 8.76 18.53 15.36 6.86 8.51 14.92 23 9.94 34.37-5.68 13.15-27.75 14.53-39.37 16.73-9.34 1.78-23.41 3.56-30.22-4.91-7.87-9.8-2.34-30.32-1.88-41.67z"/><path class="cls-3" d="M288 997.47c.34-6.52-2.38-17.62 6-19.91 9-2.47 19.54-2.14 28.71-.8a32.52 32.52 0 0 1 13.72 4.85c4.23 2.85 7.48 7.05 10.7 10.93 5.46 6.58 10.05 14.28 11.65 22.77 4 21.41-21.41 24.73-36.59 27.19-7.54 1.22-15 2.81-22.62 1.47-9.87-1.73-13.44-9.92-13.88-19.05s1.83-18.29 2.28-27.44c.06-1.18-1.76-1.37-1.82-.19-.41 8.23-2.1 16.33-2.31 24.58-.16 6.57.6 14.52 5.76 19.25 10.6 9.71 28.71 4 41.16 1.84 14.15-2.46 30.9-7.79 30.16-25.06-.33-7.67-4.26-15.06-8.44-21.3-4.57-6.83-10.48-14.14-17.76-18.17-5.17-2.86-11.66-3.65-17.45-4.12a87.07 87.07 0 0 0-20.57.89c-4.73.75-8.39 2.25-9.9 7.1s-.41 10.11-.66 15c-.05 1.15 1.77 1.35 1.86.17zM322.67 983.48c-8.14 14.37-13.61 30.17-23.17 43.74a.92.92 0 0 0 1.49 1.06c9.56-13.57 15-29.37 23.17-43.74.58-1-.91-2.09-1.49-1.06zM341.36 997.42c-7.3 16.84-22.54 28.45-37.71 37.89-1 .61-.25 2.29.75 1.67 15.61-9.71 31.15-21.58 38.67-38.91.47-1.09-1.24-1.73-1.71-.65zM352.82 1015.67c-11.78 7.32-23.6 14.61-36 20.78-1.06.52-.31 2.19.75 1.67 12.44-6.17 24.25-13.46 36-20.78 1-.61.25-2.29-.75-1.67zM300 982.78c-1.43 5.86-.55 12.27-1.28 18.28a110.5 110.5 0 0 1-5.06 21.4c-.37 1.12 1.34 1.77 1.71.65a126.12 126.12 0 0 0 4.79-19.26 89.52 89.52 0 0 0 1-10.07c.17-3.49-.35-6.9.49-10.34.28-1.13-1.43-1.79-1.71-.65z"/><path class="cls-9" d="M1108 1115.8c-4.66-7-8.67-14.76-14.21-20.33 5.87-2.65 9.69-5.37 15.5-1.43a114.35 114.35 0 0 1 16.05 15.47c2.35 3 8.31 8.36 9 12.1.48 3.31-2.2 8.56-4.94 10.3-3.4 2.54-5.18.82-7.76-1.55a182.75 182.75 0 0 1-15.55-17.71"/><path class="cls-3" d="M1108.66 1115.22c-4.55-6.9-8.44-14.33-14.21-20.33l-.33 1.42c2.71-1.24 5.37-2.74 8.34-3.26 4.25-.75 7.74 2.84 10.65 5.37 5.7 5 10.55 10.69 15.6 16.29 2.09 2.32 4.85 5.11 4.67 8.44s-4 10.27-8.23 8.83c-1.85-.63-3.53-2.88-4.81-4.19-1.6-1.65-3.16-3.33-4.7-5-3.12-3.44-6.07-7-8.91-10.7-.72-.93-2.13.24-1.41 1.17a194 194 0 0 0 12.68 14.74c1.9 2 5.07 6.34 8.32 6.09 6.8-.51 10.76-10.23 7.58-15.69-2.07-3.55-5.29-6.3-7.87-9.45a108.27 108.27 0 0 0-10.93-11.19c-3.21-2.92-6.52-6.12-11-6.57-3.71-.37-7.46 2-10.67 3.48a.92.92 0 0 0-.33 1.42c5.77 6 9.66 13.43 14.21 20.33.65 1 2.05-.19 1.41-1.17z"/><path class="cls-9" d="M1104.21 1077.64c.52-7.8-2.34-18.62 6.8-20.72 10.59-2.25 25.62-2.47 36.2.84 8.14 2.39 13 8.76 18.53 15.36 6.86 8.51 14.92 23 9.94 34.37-5.68 13.15-27.75 14.53-39.37 16.74-9.34 1.78-23.41 3.56-30.22-4.91-7.87-9.81-2.33-30.32-1.88-41.68z"/><path class="cls-3" d="M1105.12 1077.73c.34-6.52-2.38-17.62 6-19.91 9-2.47 19.54-2.14 28.71-.8a32.52 32.52 0 0 1 13.72 4.85c4.23 2.85 7.48 7.05 10.7 10.93 5.46 6.58 10.05 14.28 11.65 22.77 4 21.41-21.41 24.73-36.59 27.19-7.54 1.22-15 2.81-22.62 1.47-9.87-1.73-13.44-9.92-13.88-19.05s1.83-18.28 2.28-27.44c.06-1.18-1.76-1.37-1.82-.19-.41 8.23-2.1 16.33-2.31 24.58-.16 6.57.6 14.52 5.76 19.25 10.6 9.71 28.71 4 41.16 1.84 14.15-2.46 30.9-7.79 30.16-25.06-.33-7.67-4.26-15.06-8.44-21.3-4.57-6.83-10.48-14.14-17.76-18.17-5.17-2.86-11.66-3.65-17.45-4.12a87.06 87.06 0 0 0-20.57.89c-4.73.75-8.39 2.25-9.9 7.1s-.41 10.11-.66 15c-.02 1.16 1.8 1.35 1.86.17zM1139.82 1063.75c-8.14 14.37-13.61 30.17-23.17 43.74a.92.92 0 0 0 1.49 1.06c9.56-13.57 15-29.37 23.17-43.74.58-1-.91-2.09-1.49-1.06zM1158.51 1077.68c-7.3 16.84-22.54 28.45-37.71 37.89-1 .61-.25 2.29.75 1.67 15.61-9.71 31.15-21.58 38.67-38.91.47-1.09-1.24-1.73-1.71-.65zM1170 1095.93c-11.78 7.32-23.6 14.61-36 20.78-1.06.52-.31 2.19.75 1.67 12.44-6.17 24.25-13.46 36-20.78 1-.61.25-2.29-.75-1.67zM1117.11 1063c-1.42 5.86-.55 12.27-1.28 18.28a110.5 110.5 0 0 1-5.06 21.4c-.37 1.12 1.34 1.77 1.71.65a126.12 126.12 0 0 0 4.79-19.26 89.47 89.47 0 0 0 1-10.07c.17-3.49-.35-6.9.49-10.34.28-1.13-1.43-1.79-1.71-.65z"/><path class="cls-9" d="M567.6 1148.88c-10.36-2.59-8.64-23.31-14.68-29.36-6-6.91-17.27-4.32-24.18-3.45-8.64 0-19 4.32-26.77 2.59-6-1.73-8.64-5.18-6-11.23 1.73-5.18 7.77-4.32 10.36-9.5-6.91-6-17.27-.86-23.31-6-12.09-11.23 8.64-8.64 11.23-11.23 6-5.18-9.5-13.82.86-18.13 8.64-3.45 13 7.77 16.41 13.82 3.45 6.91 6.91 12.09 15.54 13.82s19 .86 14.68-9.5c-1.73-7.77-6-15.54-9.5-22.45-3.45-5.18-6.91-15.54-12.09-19-9.5-5.18-29.36 10.36-33.68-6.91-6 9.5-31.95 20.72-19.86 2.59 4.32-6 5.18-7.77 4.32-15.54-1.73-5.18-4.32-8.64 4.32-9.5 6.91 0 13 6.91 19 9.5 6 3.45 11.23 1.73 18.13 1.73 14.68-.86 20.72 3.45 27.63 15.54 6 12.09 14.68 6.91 15.54-5.18.86-13 0-15.54-10.36-21.59-4.32-1.73-12.09-6.91-8.64-12.09 4.32-6.91 14.68 2.59 19 4.32 6 2.59 4.32 2.59 6.91-4.32 1.73-5.18 3.45-15.54 11.23-13 12.09 4.32-.86 23.31-1.73 30.22-1.73 5.18-4.32 22.45-2.59 27.63 2.59 5.18 5.18 5.18 8.64.86 6-5.18 1.73-13 2.59-19 0-4.32 0-11.23 6-9.5 6.91 1.73 1.73 10.36 4.32 13.82s7.77 0 12.09 1.73c6.91 1.73 6 8.64 1.73 14.68-6.91 12.09-23.31 13.82-25.91 29.36-1.73 8.64 1.73 32.81 16.41 27.63 11.23-4.32-22.45-22.45-3.45-25 5.18-1.73 10.36 6 14.68 5.18 6-1.73 7.77-13 16.41-7.77 6.91 3.45 6 16.41 3.45 21.59-4.32 6.91-12.09 9.5-15.54 16.41-6.91 13 10.36 32.81-10.36 40.59-8.64 3.45-26.77.86-34.54-4.32"/><path class="cls-3" d="M567.93 1147.65c-8-2.49-8.52-15.43-10.55-22.19-2.18-7.27-7.4-11.05-14.91-11.79-4.56-.45-9.23.53-13.74 1.12-5.53.73-11 1.47-16.49 2.42-6 1-18 1.19-15.6-8.09 1.36-5.24 8-6.06 10.74-10.54a1.31 1.31 0 0 0-.46-1.75c-4.18-3.21-8.94-3.43-14-3.56-3.78-.1-7.15-.47-10-3.22-1.89-1.84-3.67-4.24-.48-5.48 4.33-1.68 11.95 0 14.14-5.11 1-2.34-.35-4.93-1.43-7a28.31 28.31 0 0 1-2.34-4.83c-1.5-4.83 6.54-4.74 8.93-3.32 4.2 2.49 6.35 8.58 8.62 12.65 2.41 4.32 4.55 8.19 8.57 11.23 5.56 4.21 17.7 6.22 23.34 1.21 2.6-2.31 1.67-6.35.65-9.11a178.57 178.57 0 0 0-8.1-19.75c-2.56-5-5.22-10.12-8-15.07-2-3.64-4.56-7.3-8.77-8.38-8.13-2.08-16.34 3.81-24.53 1.93-3.44-.79-5-4-5.89-7.09a1.29 1.29 0 0 0-2.34-.31c-3.74 5.52-12.3 11.49-19.18 11.62-4.25.08 2.41-9 3.17-10.1 2.67-3.9 3.34-7.59 3-12.26a22.2 22.2 0 0 0-1.54-5.68c-1.63-4.79 5.27-4.28 8.13-3.43 6.05 1.81 10.54 7.23 16.44 9.52 11 4.26 23.34-2.35 34 4.31 4.74 3 7.8 8.38 10.39 13.16 1.6 2.94 4.9 6.44 8.61 5.92 9.15-1.29 9.07-15.29 8.62-22-.56-8.46-7.66-11.8-14.25-15.5-3.16-1.77-9.42-8.19-2.79-10.53 2.54-.89 6 1.34 8.07 2.5 3.58 2 6.85 4.26 10.76 5.63 1.92.67 2.9-.8 3.48-2.37 1.62-4.43 2.5-9.21 4.66-13.42 1.73-3.37 4.78-4 8-2.19 2.46 1.37 2.69 4.39 2.56 6.87-.27 5-2.78 9.94-4.62 14.47-3.15 7.76-4.45 16.23-5.14 24.54-.25 3-1 7.83.55 10.61 1.38 2.48 4.16 6.29 7.49 4 9.5-6.49 5.79-16.06 6.18-25.82a11.17 11.17 0 0 1 .89-4.18c1.73-3.86 6.08.47 6.31 2.5a45.12 45.12 0 0 1-.25 5.87c-.07 3 1.76 5.9 5 6 3 .08 5.83-.74 8.81.11 5.4 1.53 4.41 6.48 2.5 10.35-2.65 5.37-7.1 9.23-11.86 12.66-7.48 5.39-14.11 10.49-15.82 20.09-1.78 10 3.08 35.11 18.4 28.43 11.69-5.1-12.66-18.13-8.35-23.31 3.47-4.18 10.07-.21 13.37 1.9 2.94 1.88 6 2.51 8.82.11 3.15-2.67 5.66-8.37 10.52-7.25 7.08 1.63 7.22 10.93 6.28 16.54-1.83 10.84-15.68 13.83-18.32 24.72-2.09 8.63 2.66 17.35 1.29 26-2.74 17.36-33 11.93-43 5.7-1.4-.88-2.68 1.34-1.29 2.21 12.21 7.64 43.73 11.75 46.88-8.19 1.38-8.72-3.32-17.33-1.21-26 1.43-5.89 7.21-9.48 11.51-13.17a18.41 18.41 0 0 0 6.76-11.66c1.3-7.69-.69-16.85-9.27-18.83-3-.68-5.52 1.26-7.43 3.26-1.33 1.39-2.47 2.94-3.85 4.29-3.23 3.16-6.73-.13-9.6-2-3.71-2.36-13.06-3.26-14.38 2.61-1 4.39 4.78 9.38 7.27 12.25 1.58 1.82 4.07 4.21 4.39 6.74.21 1.67-2.32 2-3.43 2.28-2.81.63-5.37-.61-7.32-2.51-5.56-5.42-6.79-16.82-5.49-24.09 2-11.27 12.5-15.62 20.31-22.44 5.18-4.52 12.76-14.76 6.79-21.24-3-3.24-8.3-2.38-12.11-2.11-6.22.45-2.11-9.49-4.22-12.58a7.07 7.07 0 0 0-7.68-2.83c-3.14.77-3.61 5.18-3.81 7.74-.39 5 .62 9.84.62 14.83 0 4-7.52 12.77-9.58 5.33-.67-2.42-.36-5.27-.23-7.73a80.52 80.52 0 0 1 5.54-26.1c2.6-6.4 7.15-15.52 2.15-21.85-5.4-6.83-12.32-.83-14.58 4.86-.44 1.1-3.33 11.59-3.85 11.48-4.37-.91-8.35-4.48-12.23-6.5-2.48-1.29-6.42-2.82-9.13-1.2s-4.65 5-3.2 8.14c4 8.67 17.1 8.43 19.32 18.41 1.2 5.4.48 12.92-2 17.76-5 9.81-12-4.76-14.78-8.71-5.41-7.6-12.92-10.48-22-10.53-6.92 0-14 1.84-20.51-1.45-5.27-2.68-9.73-6.69-15.25-8.89a11.21 11.21 0 0 0-10.63 1.28c-2.12 1.66-.72 5.14 0 7.07 2.07 5.66.65 10.55-2.61 15.3-1.88 2.74-4.12 5.81-4.22 9.28-.15 5.2 7.17 3.23 9.81 2.23 5.91-2.23 12-6.3 15.6-11.58l-2.34-.31c2.31 8.05 8.17 10 16 9 4.36-.6 8.58-1.93 13-2.21 7-.45 9.81 5.9 12.56 11.27s5.61 10.53 8.26 15.88c2.05 4.14 9.92 18.32 4.41 21.9-4.4 2.86-12.73.8-17-1.16-5.52-2.53-8.09-8.41-10.8-13.44-3.21-6-8.56-16.5-17.14-12.42-7.79 3.7-2.24 9.39-.28 15s-11.62 4.51-14.57 6.81c-5.58 4.35 3.84 11 7.65 12.06 6.36 1.69 12.75-.59 18.43 3.76l-.46-1.75c-2.64 4.34-8.24 4.68-10.36 9.5-1.55 3.53-1.63 7 .9 10 3.15 3.75 9.31 3.77 13.67 3.4 6.79-.57 13.67-2.06 20.42-3 5.84-.77 11.65-1.81 17.41 0 5.93 1.84 7.51 7.84 8.83 13.13 1.78 7.09 3.06 17.28 11.2 19.81 1.58.49 2.25-2 .68-2.47z"/><path class="cls-9" d="M145.25 201.26c-10.36-2.59-8.64-23.31-14.68-29.36-6-6.91-17.27-4.32-24.18-3.45-8.64 0-19 4.32-26.77 2.59-6-1.73-8.64-5.18-6-11.23 1.73-5.18 7.77-4.32 10.36-9.5-6.91-6-17.27-.86-23.31-6-12.13-11.31 8.59-8.67 11.18-11.31 6-5.18-9.5-13.82.86-18.13 8.64-3.45 13 7.77 16.41 13.82 3.45 6.91 6.91 12.09 15.54 13.82s19 .86 14.68-9.5c-1.73-7.77-6-15.54-9.5-22.45-3.45-5.18-6.91-15.54-12.09-19-9.49-5.14-29.35 10.44-33.67-6.87-6 9.5-31.95 20.72-19.86 2.59 4.32-6 5.18-7.77 4.32-15.54-1.73-5.18-4.32-8.64 4.32-9.5 6.91 0 13 6.91 19 9.5 6 3.45 11.23 1.73 18.13 1.73 14.68-.86 20.72 3.45 27.63 15.54 6 12.09 14.68 6.91 15.54-5.18.86-13 0-15.54-10.36-21.59-4.32-1.73-12.09-6.91-8.64-12.09 4.32-6.91 14.68 2.59 19 4.32 6 2.59 4.32 2.59 6.91-4.32 1.73-5.18 3.45-15.54 11.23-13 12.09 4.32-.86 23.31-1.73 30.22-1.73 5.18-4.32 22.45-2.59 27.63 2.59 5.18 5.18 5.18 8.64.86 6-5.18 1.73-13 2.59-19 0-4.32 0-11.23 6-9.5 6.91 1.73 1.73 10.36 4.32 13.82s7.77 0 12.09 1.73c6.91 1.73 6 8.64 1.73 14.68-6.91 12.09-23.31 13.82-25.91 29.36-1.73 8.64 1.73 32.81 16.41 27.63 11.23-4.32-22.45-22.45-3.45-25 5.18-1.73 10.36 6 14.68 5.18 6-1.73 7.77-13 16.41-7.77 6.91 3.45 6 16.41 3.45 21.59-4.32 6.91-12.09 9.5-15.54 16.41-6.91 13 10.36 32.81-10.36 40.58-8.64 3.45-26.77.86-34.54-4.32"/><path class="cls-3" d="M145.59 200c-8-2.49-8.52-15.43-10.55-22.19-2.18-7.27-7.4-11.05-14.91-11.79-4.56-.45-9.23.53-13.74 1.12-5.53.73-11 1.47-16.49 2.42-6 1-18 1.19-15.6-8.09 1.36-5.24 8-6.06 10.74-10.54a1.31 1.31 0 0 0-.46-1.75c-4.18-3.21-8.94-3.43-14-3.56-3.78-.1-7.15-.47-10-3.22-1.89-1.84-3.67-4.24-.48-5.48 4.33-1.68 11.95 0 14.14-5.11 1-2.34-.35-4.93-1.43-7a28.3 28.3 0 0 1-2.35-4.81c-1.5-4.83 6.54-4.74 8.93-3.32 4.2 2.49 6.35 8.58 8.62 12.65 2.41 4.32 4.55 8.19 8.57 11.23 5.56 4.21 17.7 6.22 23.34 1.21 2.6-2.31 1.67-6.35.65-9.11a178.56 178.56 0 0 0-8.1-19.75c-2.56-5-5.22-10.12-8-15.07-2-3.64-4.56-7.3-8.77-8.38-8.13-2.08-16.34 3.81-24.53 1.93-3.44-.79-5-4-5.89-7.09a1.29 1.29 0 0 0-2.28-.3c-3.74 5.52-12.3 11.49-19.18 11.62-4.25.08 2.41-9 3.17-10.1 2.67-3.9 3.34-7.59 3-12.26a22.21 22.21 0 0 0-1.54-5.68c-1.63-4.79 5.27-4.28 8.13-3.43 6.04 1.85 10.52 7.29 16.42 9.58 11 4.27 23.35-2.35 34 4.27 4.74 3 7.8 8.38 10.39 13.16 1.6 2.94 4.9 6.44 8.61 5.92 9.15-1.29 9.07-15.29 8.62-22-.56-8.46-7.66-11.8-14.25-15.5-3.16-1.77-9.42-8.19-2.79-10.53 2.54-.89 6 1.34 8.07 2.5 3.58 2 6.85 4.26 10.76 5.63 1.92.67 2.9-.8 3.48-2.37 1.62-4.43 2.5-9.21 4.66-13.42 1.73-3.37 4.78-4 8-2.19 2.46 1.37 2.69 4.39 2.56 6.87-.27 5-2.78 9.94-4.62 14.47-3.15 7.76-4.45 16.23-5.14 24.54-.25 3-1 7.83.55 10.61 1.38 2.48 4.16 6.29 7.49 4 9.5-6.49 5.79-16.06 6.18-25.82a11.17 11.17 0 0 1 .89-4.18c1.73-3.86 6.08.47 6.31 2.5a45.12 45.12 0 0 1-.25 5.87c-.07 3 1.76 5.9 5 6 3 .08 5.83-.74 8.81.11 5.4 1.53 4.41 6.48 2.5 10.35-2.65 5.37-7.1 9.23-11.86 12.66-7.48 5.39-14.11 10.49-15.82 20.09-1.78 10 3.08 35.11 18.4 28.43 11.69-5.1-12.66-18.13-8.35-23.31 3.47-4.18 10.07-.21 13.37 1.9 2.94 1.88 6 2.51 8.82.11 3.15-2.67 5.66-8.37 10.52-7.25 7.08 1.63 7.22 10.93 6.28 16.54-1.83 10.84-15.68 13.83-18.32 24.72-2.09 8.63 2.66 17.35 1.29 26-2.74 17.36-33 11.93-43 5.7-1.4-.88-2.68 1.34-1.29 2.21 12.21 7.64 43.73 11.75 46.88-8.19 1.38-8.72-3.32-17.33-1.21-26 1.43-5.89 7.21-9.48 11.51-13.17a18.41 18.41 0 0 0 6.76-11.66c1.3-7.69-.69-16.85-9.27-18.83-3-.68-5.52 1.26-7.43 3.26-1.33 1.39-2.47 2.94-3.85 4.29-3.23 3.16-6.73-.13-9.6-2-3.71-2.36-13.06-3.26-14.38 2.61-1 4.39 4.78 9.38 7.27 12.25 1.58 1.82 4.07 4.21 4.39 6.74.21 1.67-2.32 2-3.43 2.28-2.81.63-5.37-.61-7.32-2.51-5.56-5.42-6.79-16.81-5.49-24.09 2-11.27 12.5-15.62 20.31-22.44 5.18-4.52 12.76-14.76 6.79-21.24-3-3.24-8.3-2.38-12.11-2.11-6.22.45-2.11-9.49-4.22-12.58a7.07 7.07 0 0 0-7.68-2.83c-3.14.77-3.61 5.18-3.81 7.74-.39 5 .62 9.84.62 14.83 0 4-7.52 12.77-9.58 5.33-.67-2.42-.36-5.27-.23-7.73a80.52 80.52 0 0 1 5.54-26.1c2.6-6.4 7.15-15.52 2.15-21.85-5.4-6.83-12.32-.83-14.58 4.86-.44 1.1-3.33 11.59-3.85 11.48-4.37-.91-8.35-4.48-12.23-6.5-2.48-1.29-6.42-2.82-9.13-1.2s-4.65 5-3.2 8.14c4 8.67 17.1 8.43 19.32 18.41 1.2 5.4.48 12.92-2 17.76-5 9.81-12-4.76-14.78-8.71-5.41-7.6-12.92-10.48-22-10.53-6.92 0-14 1.83-20.51-1.45-5.27-2.68-9.73-6.69-15.25-8.89a11.21 11.21 0 0 0-10.66 1.31c-2.12 1.66-.72 5.14 0 7.07 2.07 5.66.65 10.55-2.61 15.3-1.88 2.74-4.12 5.81-4.22 9.28-.15 5.2 7.17 3.23 9.81 2.23 5.91-2.23 12-6.3 15.6-11.58l-2.34-.3c2.31 8.05 8.17 10 16 9 4.36-.6 8.58-1.93 13-2.21 7-.45 9.81 5.9 12.56 11.27s5.61 10.53 8.26 15.88c2.05 4.14 9.92 18.32 4.41 21.9-4.4 2.86-12.73.8-17-1.16-5.52-2.53-8.09-8.41-10.8-13.44-3.21-6-8.56-16.5-17.14-12.42-7.79 3.7-2.24 9.39-.28 15s-11.62 4.51-14.57 6.81c-5.58 4.35 3.84 11 7.65 12.06 6.36 1.69 12.75-.59 18.43 3.76l-.46-1.75c-2.64 4.34-8.24 4.68-10.36 9.5-1.55 3.53-1.63 7 .9 10 3.15 3.75 9.31 3.77 13.67 3.4 6.79-.57 13.67-2.06 20.42-3 5.84-.77 11.65-1.81 17.41 0 5.93 1.84 7.51 7.84 8.83 13.13 1.78 7.09 3.06 17.28 11.2 19.81 1.58.49 2.25-2 .68-2.47z"/><path class="cls-9" d="M1097.82 485.33c-10.36-2.59-8.64-23.31-14.68-29.36-6-6.91-17.27-4.32-24.18-3.45-8.64 0-19 4.32-26.77 2.59-6-1.73-8.64-5.18-6-11.23 1.73-5.18 7.77-4.32 10.36-9.5-6.91-6-17.27-.86-23.31-6-12.09-11.23 8.64-8.64 11.23-11.23 6-5.18-9.5-13.82.86-18.13 8.64-3.45 13 7.77 16.41 13.82 3.45 6.91 6.91 12.09 15.54 13.82s19 .86 14.68-9.5c-1.73-7.77-6-15.54-9.5-22.45-3.45-5.18-6.91-15.54-12.09-19-9.5-5.18-29.36 10.36-33.68-6.91-6 9.5-31.95 20.72-19.86 2.59 4.32-6 5.18-7.77 4.32-15.54-1.73-5.18-4.32-8.64 4.32-9.5 6.91 0 13 6.91 19 9.5 6 3.45 11.23 1.73 18.13 1.73 14.68-.86 20.72 3.45 27.63 15.54 6 12.09 14.68 6.91 15.54-5.18.86-13 0-15.54-10.36-21.59-4.32-1.73-12.09-6.91-8.64-12.09 4.32-6.91 14.68 2.59 19 4.32 6 2.59 4.32 2.59 6.91-4.32 1.73-5.18 3.45-15.54 11.23-13 12.09 4.32-.86 23.31-1.73 30.22-1.73 5.18-4.32 22.45-2.59 27.63 2.59 5.18 5.18 5.18 8.64.86 6-5.18 1.73-13 2.59-19 0-4.32 0-11.23 6-9.5 6.91 1.73 1.73 10.36 4.32 13.82s7.77 0 12.09 1.73c6.91 1.73 6 8.64 1.73 14.68-6.91 12.09-23.31 13.82-25.91 29.36-1.73 8.64 1.73 32.81 16.41 27.63 11.23-4.32-22.45-22.45-3.45-25 5.18-1.73 10.36 6 14.68 5.18 6-1.73 7.77-13 16.41-7.77 6.91 3.45 6 16.41 3.45 21.59-4.32 6.91-12.09 9.5-15.54 16.41-6.91 13 10.36 32.81-10.36 40.58-8.64 3.45-26.77.86-34.54-4.32"/><path class="cls-3" d="M1098.16 484.09c-8-2.49-8.52-15.43-10.55-22.19-2.18-7.27-7.4-11.05-14.91-11.79-4.56-.45-9.23.53-13.74 1.12-5.53.73-11 1.47-16.49 2.42-6 1-18 1.19-15.6-8.09 1.36-5.24 8-6.06 10.74-10.54a1.31 1.31 0 0 0-.46-1.75c-4.18-3.21-8.94-3.43-14-3.56-3.78-.1-7.15-.47-10-3.22-1.89-1.84-3.67-4.24-.48-5.48 4.33-1.68 11.95 0 14.14-5.11 1-2.34-.35-4.93-1.43-7a28.3 28.3 0 0 1-2.34-4.83c-1.5-4.83 6.54-4.74 8.93-3.32 4.2 2.49 6.35 8.58 8.62 12.65 2.41 4.32 4.55 8.19 8.57 11.23 5.56 4.21 17.7 6.22 23.34 1.21 2.6-2.31 1.67-6.35.65-9.11a178.56 178.56 0 0 0-8.15-19.73c-2.56-5-5.22-10.12-8-15.07-2-3.64-4.56-7.3-8.77-8.38-8.13-2.08-16.34 3.81-24.53 1.93-3.44-.79-5-4-5.89-7.09a1.29 1.29 0 0 0-2.34-.31c-3.74 5.52-12.3 11.49-19.18 11.62-4.25.08 2.41-9 3.17-10.1 2.67-3.9 3.34-7.59 3-12.26a22.21 22.21 0 0 0-1.54-5.68c-1.63-4.79 5.27-4.28 8.13-3.43 6.05 1.81 10.54 7.23 16.44 9.52 11 4.26 23.34-2.35 34 4.31 4.74 3 7.8 8.38 10.4 13.16 1.6 2.94 4.9 6.44 8.61 5.92 9.15-1.29 9.07-15.29 8.62-22-.56-8.46-7.66-11.8-14.25-15.5-3.16-1.77-9.42-8.19-2.79-10.53 2.54-.89 6 1.34 8.07 2.5 3.58 2 6.85 4.26 10.76 5.63 1.92.67 2.9-.8 3.48-2.37 1.62-4.43 2.5-9.21 4.66-13.42 1.73-3.37 4.78-4 8-2.19 2.46 1.37 2.69 4.39 2.56 6.87-.27 5-2.78 9.94-4.62 14.47-3.15 7.76-4.45 16.23-5.14 24.54-.25 3-1 7.83.55 10.61 1.38 2.48 4.16 6.29 7.49 4 9.5-6.49 5.79-16.06 6.18-25.82a11.17 11.17 0 0 1 .89-4.18c1.73-3.86 6.08.47 6.31 2.5a45.12 45.12 0 0 1-.25 5.87c-.07 3 1.76 5.9 5 6 3 .08 5.83-.74 8.81.11 5.4 1.53 4.41 6.48 2.5 10.35-2.65 5.37-7.1 9.23-11.86 12.66-7.48 5.39-14.11 10.49-15.82 20.09-1.78 10 3.08 35.11 18.4 28.43 11.69-5.1-12.66-18.13-8.35-23.31 3.47-4.18 10.07-.21 13.37 1.9 2.94 1.88 6 2.51 8.82.11 3.15-2.67 5.66-8.37 10.52-7.25 7.08 1.63 7.22 10.93 6.28 16.54-1.83 10.84-15.68 13.83-18.32 24.72-2.09 8.63 2.66 17.35 1.29 26-2.74 17.36-33 11.93-43 5.7-1.4-.88-2.68 1.34-1.29 2.21 12.21 7.64 43.73 11.75 46.88-8.19 1.38-8.72-3.32-17.33-1.21-26 1.43-5.89 7.21-9.48 11.51-13.17a18.41 18.41 0 0 0 6.76-11.66c1.3-7.69-.69-16.85-9.27-18.83-3-.68-5.52 1.26-7.43 3.26-1.33 1.39-2.47 2.94-3.85 4.29-3.23 3.16-6.73-.13-9.6-2-3.71-2.36-13.06-3.26-14.38 2.61-1 4.39 4.78 9.38 7.27 12.25 1.58 1.82 4.07 4.21 4.39 6.74.21 1.67-2.32 2-3.43 2.28-2.81.63-5.37-.61-7.32-2.51-5.56-5.42-6.79-16.81-5.49-24.09 2-11.27 12.5-15.62 20.31-22.44 5.18-4.52 12.76-14.76 6.79-21.24-3-3.24-8.3-2.38-12.11-2.11-6.22.45-2.11-9.49-4.22-12.58a7.07 7.07 0 0 0-7.68-2.83c-3.14.77-3.61 5.18-3.81 7.74-.39 5 .62 9.84.62 14.83 0 4-7.52 12.77-9.58 5.33-.67-2.42-.36-5.27-.23-7.73a80.52 80.52 0 0 1 5.54-26.1c2.6-6.4 7.15-15.52 2.15-21.85-5.4-6.83-12.32-.83-14.58 4.86-.44 1.1-3.33 11.59-3.85 11.48-4.37-.91-8.35-4.48-12.23-6.5-2.48-1.29-6.42-2.82-9.13-1.2s-4.65 5-3.2 8.14c4 8.67 17.1 8.43 19.32 18.41 1.2 5.4.48 12.92-2 17.76-5 9.81-12-4.76-14.78-8.71-5.41-7.6-12.92-10.48-22-10.53-6.92 0-14 1.83-20.51-1.45-5.27-2.68-9.73-6.69-15.25-8.89a11.21 11.21 0 0 0-10.63 1.28c-2.12 1.66-.72 5.14 0 7.07 2.07 5.66.65 10.55-2.61 15.3-1.88 2.74-4.12 5.81-4.22 9.28-.15 5.2 7.17 3.23 9.81 2.23 5.91-2.23 12-6.3 15.6-11.58l-2.34-.31c2.31 8.05 8.17 10 16 9 4.36-.6 8.58-1.93 13-2.21 7-.45 9.81 5.9 12.56 11.27s5.61 10.53 8.26 15.88c2 4.14 9.92 18.32 4.41 21.9-4.4 2.86-12.73.8-17-1.16-5.52-2.53-8.09-8.41-10.8-13.44-3.21-6-8.56-16.5-17.14-12.42-7.79 3.7-2.24 9.39-.27 15s-11.62 4.51-14.57 6.81c-5.58 4.35 3.84 11 7.65 12.06 6.36 1.69 12.75-.59 18.43 3.76l-.46-1.75c-2.64 4.34-8.24 4.68-10.36 9.5-1.55 3.53-1.63 7 .9 10 3.15 3.75 9.31 3.77 13.67 3.4 6.79-.57 13.67-2.06 20.42-3 5.84-.77 11.65-1.81 17.41 0 5.93 1.84 7.51 7.84 8.83 13.13 1.78 7.09 3.06 17.28 11.2 19.81 1.58.49 2.25-2 .68-2.47z"/><path class="cls-13" d="M1086.57 588.26c0-3.37 8.42-11.78 12.9-14.59-1.12-7.29-9-12.34-9-20.2 6.17 1.12 12.34 2.81 18 6.17 4.49-7.29 11.78-12.34 18.51-18 1.12 7.29 1.68 14 .56 21.32 5.61 1.12 12.34 3.37 16.83 7.29-5 3.37-11.22 6.73-18 7.29.56 7.29-2.24 14-3.37 21.32-4.49-3.37-9-11.22-11.22-16.83-7.26 3.97-17.36 4.54-25.21 6.23z"/><path class="cls-3" d="M1087.62 588.26c.14-2.55 3-5.23 4.65-7a41 41 0 0 1 7.74-6.72 1.09 1.09 0 0 0 .48-1.19c-1.31-7.38-8.75-12.24-8.94-19.92l-1.33 1c6.2 1.15 12.23 2.86 17.7 6.07a1.06 1.06 0 0 0 1.44-.38c4.61-7.31 11.81-12.31 18.35-17.74l-1.76-.46a70.36 70.36 0 0 1 .56 20.76 1.07 1.07 0 0 0 .73 1.29c5.81 1.2 11.77 3.13 16.37 7l.21-1.65c-5.29 3.5-11 6.52-17.42 7.15a1.06 1.06 0 0 0-1.05 1.05c.44 7.21-2.19 14-3.33 21l1.76-.46c-5.11-4-8.55-10.46-11-16.37a1.07 1.07 0 0 0-1.54-.63c-7.69 4-16.66 4.32-25 6.07-1.33.28-.76 2.3.56 2 8.55-1.79 17.62-2.17 25.5-6.28l-1.54-.63c2.54 6.23 6.08 13.08 11.49 17.29.55.43 1.61.41 1.76-.46 1.17-7.21 3.85-14.2 3.4-21.6l-1.05 1.05c6.8-.67 12.85-3.72 18.48-7.44a1.06 1.06 0 0 0 .21-1.65c-4.89-4.14-11.1-6.29-17.29-7.56l.73 1.29c1.07-7.34.54-14.58-.56-21.88-.13-.86-1.22-.91-1.76-.46-6.7 5.56-14 10.68-18.68 18.17l1.44-.38a55.49 55.49 0 0 0-18.2-6.28 1.06 1.06 0 0 0-1.33 1c.2 8 7.66 12.88 9 20.48l.48-1.19a45.12 45.12 0 0 0-8.53 7.45c-2 2.11-4.72 5-4.89 8-.02 1.56 2.08 1.55 2.16.21z"/><path class="cls-13" d="M367.92 97.75c0-3.37 8.42-11.78 12.9-14.59-1.12-7.29-9-12.34-9-20.2 6.17 1.12 12.34 2.81 18 6.17 4.49-7.29 11.78-12.34 18.51-18 1.12 7.29 1.68 14 .56 21.32 5.61 1.12 12.34 3.37 16.83 7.29-5 3.37-11.22 6.73-18 7.29.56 7.29-2.24 14-3.37 21.32-4.49-3.37-9-11.22-11.22-16.83-7.26 3.98-17.36 4.54-25.21 6.23z"/><path class="cls-3" d="M369 97.75c.14-2.55 3-5.23 4.65-7a41 41 0 0 1 7.74-6.72 1.09 1.09 0 0 0 .48-1.19c-1.31-7.38-8.75-12.24-8.94-19.92l-1.33 1c6.2 1.15 12.23 2.86 17.7 6.07a1.06 1.06 0 0 0 1.44-.38c4.61-7.31 11.81-12.31 18.35-17.74l-1.76-.46a70.36 70.36 0 0 1 .56 20.76 1.07 1.07 0 0 0 .73 1.29c5.81 1.2 11.77 3.13 16.37 7l.21-1.65c-5.29 3.5-11 6.52-17.42 7.15a1.06 1.06 0 0 0-1.05 1.05c.44 7.21-2.19 14-3.33 21l1.76-.46c-5.11-4-8.55-10.46-11-16.37a1.07 1.07 0 0 0-1.54-.63c-7.69 4-16.66 4.32-25 6.07-1.33.28-.76 2.3.56 2 8.55-1.79 17.62-2.17 25.5-6.28l-1.54-.63c2.54 6.23 6.08 13.08 11.49 17.29.55.43 1.61.41 1.76-.46 1.17-7.21 3.85-14.2 3.4-21.6l-1.05 1.05c6.8-.67 12.85-3.72 18.48-7.44a1.06 1.06 0 0 0 .21-1.65c-4.89-4.14-11.1-6.29-17.29-7.56l.73 1.29c1.07-7.34.54-14.58-.56-21.88-.13-.86-1.22-.91-1.76-.46-6.7 5.56-14 10.68-18.68 18.17l1.44-.38a55.49 55.49 0 0 0-18.2-6.28 1.06 1.06 0 0 0-1.33 1c.2 8 7.66 12.88 9 20.48l.48-1.19a45.12 45.12 0 0 0-8.53 7.45c-2 2.11-4.72 5-4.89 8-.05 1.56 2.05 1.55 2.16.21z"/><path class="cls-13" d="M480.13 891.95c0-3.37 8.42-11.78 12.9-14.59-1.12-7.29-9-12.34-9-20.2 6.17 1.12 12.34 2.81 18 6.17 4.49-7.29 11.78-12.34 18.51-18 1.12 7.29 1.68 14 .56 21.32 5.61 1.12 12.34 3.37 16.83 7.29-5 3.37-11.22 6.73-18 7.29.56 7.29-2.24 14-3.37 21.32-4.49-3.37-9-11.22-11.22-16.83-7.25 3.98-17.34 4.54-25.21 6.23z"/><path class="cls-3" d="M481.18 891.95c.14-2.55 3-5.23 4.65-7a41 41 0 0 1 7.74-6.72 1.09 1.09 0 0 0 .48-1.19c-1.31-7.38-8.75-12.24-8.94-19.92l-1.33 1c6.2 1.15 12.23 2.86 17.7 6.07a1.06 1.06 0 0 0 1.44-.38c4.61-7.31 11.81-12.31 18.35-17.74l-1.76-.46a70.36 70.36 0 0 1 .56 20.76 1.07 1.07 0 0 0 .73 1.29c5.81 1.2 11.77 3.13 16.37 7l.21-1.65c-5.29 3.5-11 6.52-17.42 7.15a1.06 1.06 0 0 0-1.05 1.05c.44 7.21-2.19 14-3.33 21l1.76-.46c-5.11-4-8.55-10.46-11-16.37a1.07 1.07 0 0 0-1.54-.63c-7.69 4-16.66 4.32-25 6.07-1.33.28-.76 2.3.56 2 8.55-1.79 17.62-2.17 25.5-6.28l-1.54-.63c2.54 6.23 6.08 13.08 11.49 17.29.54.43 1.61.41 1.76-.46 1.17-7.21 3.85-14.2 3.4-21.6l-.97 1.2c6.8-.67 12.85-3.72 18.48-7.44a1.06 1.06 0 0 0 .21-1.65c-4.89-4.14-11.1-6.29-17.29-7.56l.73 1.29c1.07-7.34.54-14.58-.56-21.88-.13-.86-1.22-.91-1.76-.46-6.7 5.56-14 10.68-18.68 18.17l1.44-.38a55.49 55.49 0 0 0-18.2-6.28 1.06 1.06 0 0 0-1.33 1c.2 8 7.66 12.88 9 20.48l.48-1.19a45.12 45.12 0 0 0-8.52 7.46c-2 2.11-4.72 5-4.89 8-.11 1.4 2 1.39 2.07.05z"/><path class="cls-13" d="M278.86 1132c0-3.37 8.42-11.78 12.9-14.59-1.12-7.29-9-12.34-9-20.2 6.17 1.12 12.34 2.81 18 6.17 4.49-7.29 11.78-12.34 18.51-18 1.12 7.29 1.68 14 .56 21.32 5.61 1.12 12.34 3.37 16.83 7.29-5 3.37-11.22 6.73-18 7.29.56 7.29-2.24 14-3.37 21.32-4.49-3.37-9-11.22-11.22-16.83-7.26 4.01-17.36 4.57-25.21 6.23z"/><path class="cls-3" d="M279.91 1132c.14-2.55 3-5.23 4.65-7a41 41 0 0 1 7.74-6.72 1.09 1.09 0 0 0 .48-1.19c-1.31-7.38-8.75-12.24-8.94-19.92l-1.33 1c6.2 1.15 12.23 2.86 17.7 6.07a1.06 1.06 0 0 0 1.44-.38c4.61-7.31 11.81-12.31 18.35-17.74l-1.76-.46a70.36 70.36 0 0 1 .56 20.76 1.07 1.07 0 0 0 .73 1.29c5.81 1.2 11.77 3.13 16.37 7l.21-1.65c-5.29 3.5-11 6.52-17.42 7.15a1.06 1.06 0 0 0-1.05 1.05c.44 7.21-2.19 14-3.33 21l1.76-.46c-5.11-4-8.55-10.46-11-16.37a1.07 1.07 0 0 0-1.54-.63c-7.69 4-16.66 4.32-25 6.07-1.33.28-.76 2.3.56 2 8.55-1.79 17.62-2.17 25.5-6.28l-1.54-.63c2.54 6.23 6.08 13.08 11.49 17.29.54.43 1.61.41 1.76-.46 1.17-7.21 3.85-14.2 3.4-21.6l-1.05 1.05c6.8-.67 12.85-3.72 18.48-7.44a1.06 1.06 0 0 0 .21-1.65c-4.89-4.14-11.1-6.29-17.29-7.56l.73 1.29c1.07-7.34.54-14.58-.56-21.88-.13-.86-1.22-.91-1.76-.46-6.7 5.56-14 10.68-18.68 18.17l1.44-.38a55.49 55.49 0 0 0-18.2-6.28 1.06 1.06 0 0 0-1.33 1c.2 8 7.66 12.88 9 20.48l.48-1.19a45.13 45.13 0 0 0-8.53 7.45c-2 2.11-4.72 5-4.89 8-.02 1.59 2.08 1.58 2.16.21z"/><path class="cls-13" d="M55.3 296.45c20.83-4.73 25.56-35 25.56-54 8.52 18 7.57 43.55 34.08 46.39-21.78 12.31-23.67 26.51-23.67 50.18-3.79-17-19.88-44.5-37.87-41.66z"/><path class="cls-3" d="M55.78 298.16c22.84-6 26.74-35.85 26.87-55.68l-3.31.9c4.57 10 6.37 21 11.29 30.92s13.66 14.94 24.32 16.35l-.9-3.31c-8.43 4.92-16.33 11.25-20.22 20.48-4.16 9.86-4.3 20.69-4.32 31.23l3.49-.47c-4.09-17.12-18.22-45.33-39.58-43-2.25.25-2.27 3.8 0 3.55 19.58-2.13 32.42 24.77 36.15 40.4.47 2 3.48 1.51 3.49-.47 0-9.25.15-18.58 3.07-27.44 3.19-9.7 11.2-16.23 19.72-21.2 1.67-1 .74-3.09-.9-3.31-23.95-3.17-24.43-27.72-32.55-45.52-.76-1.68-3.3-.76-3.31.9-.12 18.09-3.21 46.71-24.26 52.25-2.21.58-1.27 4 .94 3.42z"/><path class="cls-13" d="M120.71 333c10.66-2.5 13-18 12.9-27.75 4.43 9.19 4 22.29 17.64 23.65-11.11 6.39-12 13.67-11.94 25.8-2-8.72-10.35-22.73-19.56-21.21z"/><path class="cls-3" d="M121.19 334.75c12.11-3.71 14.14-18.55 14.2-29.46l-3.31.9c4.64 10.34 5.3 22.46 18.7 24.46l-.42-3.24c-10.72 6.54-12.85 15.36-12.82 27.34l3.49-.47c-2.47-9.46-9.72-23.37-21.27-22.51-2.27.17-2.29 3.72 0 3.55 9.8-.73 15.78 12 17.85 19.9a1.78 1.78 0 0 0 3.49-.47c0-10.61 1.47-18.41 11.06-24.27 1.19-.72 1.19-3-.42-3.24-12.07-1.81-12.45-13.63-16.58-22.83-.75-1.68-3.3-.76-3.31.9 0 9.09-1.27 22.87-11.6 26-2.18.67-1.25 4.1.94 3.42z"/><path class="cls-13" d="M853 682c20.83-4.73 25.56-35 25.56-54 8.52 18 7.57 43.55 34.08 46.39-21.72 12.36-23.64 26.61-23.64 50.23-3.79-17-19.88-44.5-37.87-41.66z"/><path class="cls-3" d="M853.52 683.73c22.84-6 26.74-35.85 26.87-55.68l-3.31.9c4.57 10 6.37 21 11.29 30.92s13.63 14.94 24.33 16.35l-.9-3.31c-8.43 4.92-16.33 11.25-20.22 20.48-4.16 9.86-4.3 20.69-4.32 31.23l3.49-.47c-4.09-17.12-18.22-45.33-39.58-43-2.25.25-2.27 3.8 0 3.55 19.6-2.17 32.43 24.73 36.16 40.36.47 2 3.48 1.51 3.49-.47 0-9.25.15-18.58 3.07-27.44 3.19-9.7 11.2-16.23 19.72-21.2 1.67-1 .74-3.09-.9-3.31-23.92-3.17-24.44-27.71-32.55-45.51-.76-1.68-3.3-.76-3.31.9-.12 18.09-3.21 46.71-24.26 52.25-2.21.58-1.27 4 .94 3.42z"/><path class="cls-13" d="M918.46 718.61c10.66-2.5 13-18 12.9-27.75 4.43 9.19 4 22.29 17.64 23.65-11.11 6.39-12 13.67-11.94 25.8-2-8.72-10.35-22.73-19.56-21.21z"/><path class="cls-3" d="M918.93 720.32c12.11-3.71 14.14-18.55 14.2-29.46l-3.31.9c4.64 10.34 5.3 22.46 18.7 24.46l-.42-3.22c-10.72 6.54-12.85 15.36-12.82 27.34l3.49-.47c-2.47-9.46-9.72-23.37-21.27-22.51-2.27.17-2.29 3.72 0 3.55 9.8-.73 15.78 12 17.85 19.9a1.78 1.78 0 0 0 3.49-.47c0-10.61 1.47-18.41 11.06-24.27 1.19-.72 1.19-3-.42-3.24-12.08-1.83-12.48-13.67-16.59-22.83-.75-1.68-3.3-.76-3.31.9 0 9.09-1.27 22.87-11.6 26-2.18.67-1.25 4.1.94 3.42z"/><path class="cls-13" d="M949.13 1034.89c20.83-4.73 25.56-35 25.56-54 8.52 18 7.57 43.55 34.08 46.39-21.78 12.31-23.67 26.51-23.67 50.18-3.79-17-19.88-44.5-37.87-41.66z"/><path class="cls-3" d="M949.6 1036.6c22.84-6 26.74-35.85 26.87-55.68l-3.31.9c4.57 10 6.37 21 11.29 30.92s13.66 14.94 24.32 16.35l-.9-3.31c-8.43 4.92-16.33 11.25-20.22 20.48-4.16 9.86-4.3 20.69-4.32 31.23l3.49-.47c-4.09-17.12-18.22-45.33-39.58-43-2.25.25-2.27 3.8 0 3.55 19.6-2.17 32.43 24.73 36.16 40.35.47 2 3.48 1.51 3.49-.47 0-9.25.15-18.58 3.07-27.44 3.19-9.7 11.2-16.23 19.72-21.2 1.67-1 .74-3.09-.9-3.31-23.92-3.17-24.44-27.71-32.55-45.51-.76-1.68-3.3-.76-3.31.9-.12 18.09-3.21 46.71-24.26 52.25-2.21.58-1.27 4 .94 3.42z"/><path class="cls-13" d="M1014.54 1071.47c10.66-2.5 13-18 12.9-27.75 4.43 9.19 4 22.29 17.64 23.65-11.11 6.39-12 13.67-11.94 25.8-2-8.72-10.35-22.73-19.56-21.21z"/><path class="cls-3" d="M1015 1073.18c12.11-3.71 14.14-18.55 14.2-29.46l-3.31.9c4.64 10.34 5.3 22.46 18.7 24.46l-.42-3.24c-10.72 6.54-12.85 15.36-12.82 27.34l3.49-.47c-2.47-9.46-9.72-23.37-21.27-22.51-2.27.17-2.29 3.72 0 3.55 9.8-.73 15.78 12 17.85 19.9a1.78 1.78 0 0 0 3.49-.47c0-10.61 1.47-18.41 11.06-24.27 1.19-.72 1.19-3-.42-3.24-12.07-1.81-12.45-13.63-16.58-22.83-.75-1.68-3.3-.76-3.31.9 0 9.09-1.27 22.87-11.6 26-2.18.67-1.25 4.1.94 3.42z"/><path class="cls-13" d="M1039.52 77.66c20.83-4.73 25.56-35 25.56-54 8.52 18 7.57 43.55 34.08 46.39-21.78 12.31-23.67 26.51-23.67 50.18-3.79-17-19.88-44.5-37.87-41.66z"/><path class="cls-3" d="M1040 79.37c22.84-6 26.74-35.85 26.87-55.68l-3.31.9c4.57 10 6.37 21 11.29 30.92s13.66 14.94 24.32 16.35l-.9-3.31c-8.43 4.92-16.33 11.25-20.27 20.45-4.16 9.86-4.3 20.69-4.32 31.23l3.49-.47c-4.09-17.12-18.22-45.33-39.58-43-2.25.25-2.27 3.8 0 3.55 19.6-2.17 32.43 24.73 36.16 40.35.47 2 3.48 1.51 3.49-.47 0-9.25.15-18.58 3.07-27.44 3.19-9.7 11.2-16.23 19.72-21.2 1.67-1 .74-3.09-.9-3.31-23.92-3.17-24.44-27.71-32.55-45.51-.76-1.68-3.3-.76-3.31.9-.12 18.09-3.21 46.71-24.26 52.25-2.21.58-1.27 4 .94 3.42z"/><path class="cls-13" d="M1104.93 114.24c10.66-2.5 13-18 12.9-27.75 4.43 9.19 4 22.29 17.64 23.65-11.11 6.39-12 13.67-11.94 25.8-2-8.72-10.35-22.73-19.56-21.21z"/><path class="cls-3" d="M1105.4 116c12.11-3.71 14.14-18.55 14.2-29.46l-3.31.9c4.64 10.34 5.3 22.46 18.7 24.46l-.42-3.24c-10.72 6.54-12.85 15.36-12.82 27.34l3.49-.47c-2.47-9.46-9.72-23.37-21.27-22.51-2.27.17-2.29 3.72 0 3.55 9.8-.73 15.78 12 17.85 19.9a1.78 1.78 0 0 0 3.49-.47c0-10.61 1.47-18.41 11.06-24.27 1.19-.72 1.19-3-.42-3.24-12.07-1.81-12.45-13.63-16.58-22.83-.75-1.68-3.3-.76-3.31.9 0 9.09-1.27 22.87-11.6 26-2.18.67-1.25 4.1.94 3.42z"/><path class="cls-13" d="M254.52 745.81c17.25-3.92 21.17-29 21.17-44.69 7.06 14.9 6.27 36.06 28.22 38.42-18 10.19-19.6 22-19.6 41.55-3.14-14.11-16.46-36.85-31.36-34.5z"/><path class="cls-3" d="M254.91 747.22c18.92-5 22.14-29.69 22.25-46.11l-2.74.74c3.78 8.3 5.27 17.42 9.35 25.6s11.31 12.37 20.14 13.54l-.74-2.74c-7 4.07-13.52 9.32-16.75 17-3.44 8.16-3.56 17.13-3.58 25.86l2.89-.39c-3.38-14.18-15.09-37.53-32.78-35.58-1.86.21-1.88 3.15 0 2.94 16.23-1.8 26.85 20.48 29.94 33.42a1.48 1.48 0 0 0 2.89-.39c0-7.66.13-15.38 2.54-22.72 2.64-8 9.28-13.44 16.33-17.56 1.38-.81.61-2.56-.74-2.74-19.81-2.62-20.24-22.95-27-37.69-.63-1.39-2.73-.63-2.74.74-.1 15-2.65 38.68-20.09 43.27a1.47 1.47 0 0 0 .78 2.84z"/><path class="cls-13" d="M308.68 776.1c8.82-2.07 10.74-14.94 10.68-23 3.67 7.61 3.35 18.46 14.61 19.58-9.2 5.29-10 11.32-9.89 21.37-1.66-7.22-8.57-18.82-16.2-17.56z"/><path class="cls-3" d="M309.07 777.52c10-3.07 11.71-15.36 11.76-24.4l-2.74.74c3.84 8.56 4.39 18.6 15.48 20.26l-.35-2.69c-8.88 5.42-10.64 12.72-10.62 22.64l2.89-.39c-2-7.83-8.05-19.35-17.62-18.64-1.88.14-1.89 3.08 0 2.94 8.12-.6 13.07 9.94 14.78 16.48a1.48 1.48 0 0 0 2.89-.39c0-8.78 1.21-15.25 9.16-20.1 1-.6 1-2.49-.35-2.69-10-1.5-10.31-11.29-13.73-18.91-.63-1.39-2.73-.63-2.74.74 0 7.53-1.05 18.94-9.6 21.56-1.81.55-1 3.39.78 2.83z"/></svg>