<svg xmlns="http://www.w3.org/2000/svg" viewBox="0 0 288 288"><defs><style>.cls-1{fill:none;}.cls-2{isolation:isolate;}.cls-3{fill:#fff;}.cls-4{clip-path:url(#clip-path);}.cls-10,.cls-11,.cls-12,.cls-13,.cls-14,.cls-15,.cls-16,.cls-17,.cls-18,.cls-19,.cls-20,.cls-21,.cls-22,.cls-23,.cls-24,.cls-25,.cls-26,.cls-27,.cls-28,.cls-29,.cls-30,.cls-31,.cls-32,.cls-33,.cls-34,.cls-35,.cls-36,.cls-37,.cls-38,.cls-39,.cls-40,.cls-41,.cls-5,.cls-6,.cls-7,.cls-8,.cls-9{opacity:0.9;mix-blend-mode:multiply;}.cls-5{fill:url(#linear-gradient);}.cls-6{fill:url(#linear-gradient-2);}.cls-7{fill:url(#linear-gradient-3);}.cls-8{fill:url(#linear-gradient-4);}.cls-9{fill:url(#linear-gradient-5);}.cls-10{fill:url(#linear-gradient-6);}.cls-11{fill:url(#linear-gradient-7);}.cls-12{fill:url(#linear-gradient-8);}.cls-13{fill:url(#linear-gradient-9);}.cls-14{fill:url(#linear-gradient-10);}.cls-15{fill:url(#linear-gradient-11);}.cls-16{fill:url(#linear-gradient-12);}.cls-17{fill:url(#linear-gradient-13);}.cls-18{fill:url(#linear-gradient-14);}.cls-19{fill:url(#linear-gradient-15);}.cls-20{fill:url(#linear-gradient-16);}.cls-21{fill:url(#linear-gradient-17);}.cls-22{fill:url(#linear-gradient-18);}.cls-23{fill:url(#linear-gradient-19);}.cls-24{fill:url(#linear-gradient-20);}.cls-25{fill:url(#linear-gradient-21);}.cls-26{fill:url(#linear-gradient-22);}.cls-27{fill:url(#linear-gradient-23);}.cls-28{fill:url(#linear-gradient-24);}.cls-29{fill:url(#linear-gradient-25);}.cls-30{fill:url(#linear-gradient-26);}.cls-31{fill:url(#linear-gradient-27);}.cls-32{fill:url(#linear-gradient-28);}.cls-33{fill:url(#linear-gradient-29);}.cls-34{fill:url(#linear-gradient-30);}.cls-35{fill:url(#linear-gradient-31);}.cls-36{fill:url(#linear-gradient-32);}.cls-37{fill:url(#linear-gradient-33);}.cls-38{fill:url(#linear-gradient-34);}.cls-39{fill:url(#linear-gradient-35);}.cls-40{fill:url(#linear-gradient-36);}.cls-41{fill:url(#linear-gradient-37);}.cls-42{mix-blend-mode:color-dodge;}</style><clipPath id="clip-path"><path class="cls-1" d="M0 0h288v288h-288z"/></clipPath><linearGradient id="linear-gradient" x1="16.67" y1="-657.3" x2="57.74" y2="-598.11" gradientTransform="translate(0 784.87) scale(1 1.01)" gradientUnits="userSpaceOnUse"><stop offset="0" stop-color="#c880a2"/><stop offset="1" stop-color="#ff6cb0"/></linearGradient><linearGradient id="linear-gradient-2" x1="-89.14" y1="-673" x2="3.59" y2="-608.79" gradientTransform="translate(0 784.87) scale(1 1.01)" gradientUnits="userSpaceOnUse"><stop offset="0" stop-color="#ca9dd3"/><stop offset="1" stop-color="#ff5bb3"/></linearGradient><linearGradient id="linear-gradient-3" x1="-16.1" y1="-596.19" x2="73.45" y2="-627.45" gradientTransform="translate(0 784.87) scale(1 1.01)" gradientUnits="userSpaceOnUse"><stop offset="0" stop-color="#ff5cb3"/><stop offset="1" stop-color="#ff69ad"/></linearGradient><linearGradient id="linear-gradient-4" x1="20.21" y1="-665.21" x2="-60.9" y2="-575.99" gradientTransform="translate(0 784.87) scale(1 1.01)" gradientUnits="userSpaceOnUse"><stop offset="0" stop-color="#ca7fa1"/><stop offset="1" stop-color="#cc9ad3"/></linearGradient><linearGradient id="linear-gradient-5" x1="173.7" y1="-693.86" x2="180.8" y2="-589.5" gradientTransform="translate(0 784.87) scale(1 1.01)" gradientUnits="userSpaceOnUse"><stop offset="0" stop-color="#ef81ad"/><stop offset="1" stop-color="#ff4fbb"/></linearGradient><linearGradient id="linear-gradient-6" x1="56.05" y1="-684.63" x2="102.02" y2="-618.39" gradientTransform="translate(0 784.87) scale(1 1.01)" gradientUnits="userSpaceOnUse"><stop offset="0" stop-color="#d57f9d"/><stop offset="1" stop-color="#ff67ac"/></linearGradient><linearGradient id="linear-gradient-7" x1="82.97" y1="-632.02" x2="225.2" y2="-600.24" gradientTransform="translate(0 784.87) scale(1 1.01)" gradientUnits="userSpaceOnUse"><stop offset="0" stop-color="#ff67a8"/><stop offset="1" stop-color="#ff56b8"/></linearGradient><linearGradient id="linear-gradient-8" x1="213.77" y1="-690.83" x2="30.82" y2="-637.44" gradientTransform="translate(0 784.87) scale(1 1.01)" gradientUnits="userSpaceOnUse"><stop offset="0" stop-color="#ff9397"/><stop offset="1" stop-color="#e07b9a"/></linearGradient><linearGradient id="linear-gradient-9" x1="79.99" y1="-589.86" x2="76.82" y2="-684.47" gradientTransform="translate(0 784.87) scale(1 1.01)" gradientUnits="userSpaceOnUse"><stop offset="0" stop-color="#ff46bb"/><stop offset="1" stop-color="#7e469d"/></linearGradient><linearGradient id="linear-gradient-10" x1="161.56" y1="-693.04" x2="168.65" y2="-588.68" gradientTransform="translate(0 784.87) scale(1 1.01)" gradientUnits="userSpaceOnUse"><stop offset="0" stop-color="#fc8ba6"/><stop offset="1" stop-color="#ff52b9"/></linearGradient><linearGradient id="linear-gradient-11" x1="212.91" y1="-579.51" x2="76.81" y2="-690.8" gradientTransform="translate(0 784.87) scale(1 1.01)" gradientUnits="userSpaceOnUse"><stop offset="0" stop-color="#ff64ad"/><stop offset="1" stop-color="#8e60a3"/></linearGradient><linearGradient id="linear-gradient-12" x1="60.74" y1="-575.85" x2="199.68" y2="-709.42" gradientTransform="translate(0 784.87) scale(1 1.01)" gradientUnits="userSpaceOnUse"><stop offset="0" stop-color="#ff55bd"/><stop offset="1" stop-color="#ff9097"/></linearGradient><linearGradient id="linear-gradient-13" x1="39.77" y1="-588.51" x2="36.59" y2="-683.12" gradientTransform="translate(0 784.87) scale(1 1.01)" gradientUnits="userSpaceOnUse"><stop offset="0" stop-color="#ff3cc2"/><stop offset="1" stop-color="#9f4595"/></linearGradient><linearGradient id="linear-gradient-14" x1="-.36" y1="-661.3" x2="16.69" y2="-582" gradientTransform="translate(0 784.87) scale(1 1.01)" gradientUnits="userSpaceOnUse"><stop offset="0" stop-color="#7e4192"/><stop offset="1" stop-color="#ff3dc1"/></linearGradient><linearGradient id="linear-gradient-15" x1="74.94" y1="-662.61" x2="31.92" y2="-612" gradientTransform="translate(0 784.87) scale(1 1.01)" gradientUnits="userSpaceOnUse"><stop offset="0" stop-color="#ffb381"/><stop offset="1" stop-color="#ff72aa"/></linearGradient><linearGradient id="linear-gradient-16" x1="15.07" y1="-654.38" x2="-18.23" y2="-657.55" gradientTransform="translate(0 784.87) scale(1 1.01)" gradientUnits="userSpaceOnUse"><stop offset="0" stop-color="#a375af"/><stop offset="1" stop-color="#7766b6"/></linearGradient><linearGradient id="linear-gradient-17" x1="-3.69" y1="-672.14" x2="35.67" y2="-607.52" gradientTransform="translate(0 784.87) scale(1 1.01)" gradientUnits="userSpaceOnUse"><stop offset="0" stop-color="#7765b6"/><stop offset="1" stop-color="#ff72a8"/></linearGradient><linearGradient id="linear-gradient-18" x1="89.01" y1="-639.31" x2="15.82" y2="-659.77" gradientTransform="translate(0 784.87) scale(1 1.01)" gradientUnits="userSpaceOnUse"><stop offset="0" stop-color="#ffb584"/><stop offset="1" stop-color="#ba7ba6"/></linearGradient><linearGradient id="linear-gradient-19" x1="173.66" y1="-653.09" x2="140.27" y2="-566.26" gradientTransform="translate(0 784.87) scale(1 1.01)" gradientUnits="userSpaceOnUse"><stop offset="0" stop-color="#ffb69a"/><stop offset="1" stop-color="#ff60a6"/></linearGradient><linearGradient id="linear-gradient-20" x1="104.64" y1="-637.38" x2="61.62" y2="-586.76" gradientTransform="translate(0 784.87) scale(1 1.01)" gradientUnits="userSpaceOnUse"><stop offset="0" stop-color="#ffb384"/><stop offset="1" stop-color="#ff72aa"/></linearGradient><linearGradient id="linear-gradient-21" x1="50.04" y1="-630.08" x2="113.69" y2="-591.1" gradientTransform="translate(0 784.87) scale(1 1.01)" gradientUnits="userSpaceOnUse"><stop offset="0" stop-color="#ff6fa8"/><stop offset="1" stop-color="#ff67a3"/></linearGradient><linearGradient id="linear-gradient-22" x1="211.94" y1="-619.29" x2="89.91" y2="-636.95" gradientTransform="translate(0 784.87) scale(1 1.01)" gradientUnits="userSpaceOnUse"><stop offset="0" stop-color="#ffb19c"/><stop offset="1" stop-color="#ffa889"/></linearGradient><linearGradient id="linear-gradient-23" x1="214.88" y1="-647.99" x2="177.88" y2="-551.79" gradientTransform="translate(0 784.87) scale(1 1.01)" gradientUnits="userSpaceOnUse"><stop offset="0" stop-color="#ffaf9d"/><stop offset="1" stop-color="#ff67a3"/></linearGradient><linearGradient id="linear-gradient-24" x1="99.63" y1="-579.22" x2="425.08" y2="-608.48" gradientTransform="translate(0 784.87) scale(1 1.01)" gradientUnits="userSpaceOnUse"><stop offset="0" stop-color="#ff6fa7"/><stop offset="1" stop-color="#ff439d"/></linearGradient><linearGradient id="linear-gradient-25" x1="363.78" y1="-703.33" x2="231.83" y2="-612.32" gradientTransform="translate(0 784.87) scale(1 1.01)" gradientUnits="userSpaceOnUse"><stop offset="0" stop-color="#8a59a6"/><stop offset="1" stop-color="#ffa69d"/></linearGradient><linearGradient id="linear-gradient-26" x1="218.71" y1="-588.17" x2="247.93" y2="-723.4" gradientTransform="translate(0 784.87) scale(1 1.01)" gradientUnits="userSpaceOnUse"><stop offset="0" stop-color="#ff47b4"/><stop offset="1" stop-color="#d846ad"/></linearGradient><linearGradient id="linear-gradient-27" x1="391.41" y1="-541.39" x2="218.74" y2="-740.93" gradientTransform="translate(0 784.87) scale(1 1.01)" gradientUnits="userSpaceOnUse"><stop offset="0" stop-color="#ff3b93"/><stop offset="1" stop-color="#e05e9d"/></linearGradient><linearGradient id="linear-gradient-28" x1="175.9" y1="-584.01" x2="347.88" y2="-722.83" gradientTransform="translate(0 784.87) scale(1 1.01)" gradientUnits="userSpaceOnUse"><stop offset="0" stop-color="#ff66ad"/><stop offset="1" stop-color="#9961a7"/></linearGradient><linearGradient id="linear-gradient-29" x1="286.77" y1="-723.56" x2="293.41" y2="-613.27" gradientTransform="translate(0 784.87) scale(1 1.01)" gradientUnits="userSpaceOnUse"><stop offset="0" stop-color="#9a5baf"/><stop offset="1" stop-color="#ff5a89"/></linearGradient><linearGradient id="linear-gradient-30" x1="208.62" y1="-590.35" x2="237.84" y2="-725.58" gradientTransform="translate(0 784.87) scale(1 1.01)" gradientUnits="userSpaceOnUse"><stop offset="0" stop-color="#ff42b4"/><stop offset="1" stop-color="#d841b0"/></linearGradient><linearGradient id="linear-gradient-31" x1="218.71" y1="-740.94" x2="343.45" y2="-597.18" gradientTransform="translate(0 784.87) scale(1 1.01)" gradientUnits="userSpaceOnUse"><stop offset="0" stop-color="#da50a6"/><stop offset="1" stop-color="#f65b92"/></linearGradient><linearGradient id="linear-gradient-32" x1="332.86" y1="-750.17" x2="177.44" y2="-586.36" gradientTransform="translate(0 784.87) scale(1 1.01)" gradientUnits="userSpaceOnUse"><stop offset="0" stop-color="#a35ab1"/><stop offset="1" stop-color="#ff64af"/></linearGradient><linearGradient id="linear-gradient-33" x1="202.76" y1="-607.36" x2="194.68" y2="-734.93" gradientTransform="translate(0 784.87) scale(1 1.01)" gradientUnits="userSpaceOnUse"><stop offset="0" stop-color="#ff3ab5"/><stop offset="1" stop-color="#dd5b8f"/></linearGradient><linearGradient id="linear-gradient-34" x1="277.2" y1="-722.98" x2="283.84" y2="-612.69" gradientTransform="translate(0 784.87) scale(1 1.01)" gradientUnits="userSpaceOnUse"><stop offset="0" stop-color="#9d5baf"/><stop offset="1" stop-color="#ff5b8d"/></linearGradient><linearGradient id="linear-gradient-35" x1="345.87" y1="-591.18" x2="151.78" y2="-746.59" gradientTransform="translate(0 784.87) scale(1 1.01)" gradientUnits="userSpaceOnUse"><stop offset="0" stop-color="#f35693"/><stop offset="1" stop-color="#dc5e90"/></linearGradient><linearGradient id="linear-gradient-36" x1="170.58" y1="-589.09" x2="330.03" y2="-753.43" gradientTransform="translate(0 784.87) scale(1 1.01)" gradientUnits="userSpaceOnUse"><stop offset="0" stop-color="#ff65ad"/><stop offset="1" stop-color="#a359b1"/></linearGradient><linearGradient id="linear-gradient-37" x1="-78.66" y1="-662.71" x2="157.85" y2="-621.27" gradientTransform="translate(0 784.87) scale(1 1.01)" gradientUnits="userSpaceOnUse"><stop offset="0" stop-color="#cf76c3"/><stop offset="1" stop-color="#ff71a7"/></linearGradient></defs><title>9</title><g id="Layer_1" class="cls-2"><path class="cls-3" d="M0 0h288v288h-288z"/><g class="cls-4"><path class="cls-5" d="M23.61 118.19l55.02 49.85-67.15-7.63 12.13-42.22z"/><path class="cls-6" d="M-24.95 157.88v11.06l3.67.69 32.76-9.22-36.43-2.53z"/><path class="cls-7" d="M-21.28 169.63l99.91-1.59-67.15-7.63-32.76 9.22z"/><path class="cls-8" d="M-24.95 129.43v28.45l36.43 2.53 12.13-42.22-48.56 11.24z"/><path class="cls-9" d="M212.12 83.59l11.33 104.8-89-48.84 77.67-55.96z"/><path class="cls-10" d="M23.61 118.19l55.02 49.85 55.82-28.49-110.84-21.36z"/><path class="cls-11" d="M78.63 168.04l144.82 20.35-89-48.84-55.82 28.49z"/><path class="cls-12" d="M212.12 83.59l-188.51 34.6 110.84 21.36 77.67-55.96z"/><path class="cls-13" d="M48.3 192.01l23.19-96.15 38.48 42.4-61.67 53.75z"/><path class="cls-14" d="M212.12 83.59l11.33 104.8-113.48-50.13 102.15-54.67z"/><path class="cls-15" d="M223.45 188.39l-151.96-92.53 38.48 42.4 113.48 50.13z"/><path class="cls-16" d="M48.3 192.01l163.82-108.42-102.15 54.67-61.67 53.75z"/><path class="cls-17" d="M48.3 192.01l23.19-96.15-69.12 22.56 45.93 73.59z"/><path class="cls-18" d="M-24.95 158.69l73.25 33.32-45.93-73.59-27.32 7.82v32.45z"/><path class="cls-19" d="M91.58 131.92l-55.02 40.7-4.86-37.65 59.88-3.05z"/><path class="cls-20" d="M16.33 118.69l-33.98-2.03 49.35 18.31-15.37-16.28z"/><path class="cls-21" d="M-17.65 116.66l54.21 55.96-4.86-37.65-49.35-18.31z"/><path class="cls-22" d="M91.58 131.92l-75.25-13.23 15.37 16.28 59.88-3.05z"/><path class="cls-23" d="M214.55 143.11l-115.17 55.77 27.79-31.35 87.38-24.42z"/><path class="cls-24" d="M91.58 131.92l-55.02 40.7 90.61-5.09-35.59-35.61z"/><path class="cls-25" d="M36.56 172.62l62.82 26.26 27.79-31.35-90.61 5.09z"/><path class="cls-26" d="M214.55 143.11l-122.97-11.19 35.59 35.61 87.38-24.42z"/><path class="cls-27" d="M214.55 143.11l-115.17 55.77 193.99-36.07-78.82-19.7z"/><path class="cls-28" d="M305.05 166.69l-11.68-3.88-193.99 36.07 205.67 5.48v-37.67z"/><path class="cls-29" d="M305.05 103.87l-90.5 39.24 78.82 19.7 11.68-13.88v-45.06z"/><path class="cls-30" d="M162.79 180.47l45.57-132.6 82.66 80.63-128.23 51.97z"/><path class="cls-31" d="M305.05 118.13l-96.69-70.26 82.66 80.63 14.03 8.09v-18.46z"/><path class="cls-32" d="M305.05 108.27l-142.26 72.2 128.23-51.97 14.03-9.62v-10.61z"/><path class="cls-33" d="M305.05 88.59l-31.36 22.25 31.36 17.48v-39.73z"/><path class="cls-34" d="M162.79 180.47l45.57-132.6 65.33 62.97-110.9 69.63z"/><path class="cls-35" d="M305.05 117.94l-96.69-70.07 65.33 62.97 31.36 17.48v-10.38z"/><path class="cls-36" d="M305.05 86.19l-142.26 94.28 110.9-69.63 31.36-22.25v-2.4z"/><path class="cls-37" d="M154.88 176.38l-15.23-127.99 114.48 63.4-99.25 64.59z"/><path class="cls-38" d="M305.05 82.1l-50.92 29.69 50.92 23.04v-52.73z"/><path class="cls-39" d="M305.05 131.66l-165.4-83.27 114.48 63.4 50.92 23.04v-3.17z"/><path class="cls-40" d="M305.05 82.1l-50.92 29.69-99.25 64.59 150.17-92.57v-1.71z"/><path class="cls-41" d="M-24.95 162.23l179.83 14.15-114.4-72.93-65.43 28.03v30.75z"/><path class="cls-3" d="M-25 114.29v-82.29h64.06l16.51 9.5h-.05zm.1-82.2v82l80.31-72.58-16.41-9.42zM305.1 64.37h-.1l-249.81-22.84 38.4-9.53h211.51zm-249.31-22.89l249.21 22.78v-32.17h-211.4zM-25 223.61v-109.45l80.48-72.71 249.62 22.82v28.58zm.1-109.41v109.26l329.9-130.68v-28.42l-249.49-22.8zM55.49 41.56l-16.64-9.56h55.15l-.4.1zm-16.26-9.47l16.27 9.36 37.69-9.36zM305.1 83.47h-.07l-114.76-51.47h114.83zm-114.36-51.38l114.26 51.22v-51.22zM-25 126.77v-94.77h112.1l-.1.09zm.1-94.68v94.47l111.73-94.47zM-25 126.77v-29.93l65.92-64.84h46.18l-.1.09zm.1-29.89v29.68l111.73-94.47h-45.83zM305.1 91.37h-.07l-140.61-59.37h26.11l114.57 51.36zm-140.19-59.28l140.09 59.13v-7.8l-114.51-51.33zM240 272.09h-14.73l-136.39-240.09h208l8.2 2.36v124.53zm-14.66-.1h14.6l65.06-113.13v-124.43l-8.12-2.34h-207.83zM243.84 272.09h-4l65.23-113.4v43.48zm-3.84-.09h3.75l61.25-69.86v-43.08zM225.38 272.09h-250.38v-240.09h114zm-250.28-.09h250.11l-136.27-239.91h-113.84zM305.1 123.47h-.07l-191.89-64.54v-.05l17.86-26.88h174.1zm-191.8-64.59l191.7 64.45v-91.24h-173.9zM-25 250v-218h74l64.3 26.88v.05zm.1-217.9v217.58l138-190.75-64.17-26.84zM113.24 59l-64.54-27h82.47l-.05.08zm-64-26.88l64 26.76 17.76-26.79zM305.1 272.09h-330.1v-22.27l138.19-191 191.91 64.54zm-330-.1h329.9v-148.55l-191.76-64.44-138.14 190.85zM99.64 106.65v-.1l-.2-74.55h100.56l-.12.09zm-.1-74.56l.2 74.36 100-74.36zM99.51 106.75l.14-.22 46.27-74.53h54.08l-.12.09zm46.49-74.66l-46.13 74.26 99.86-74.26z"/></g></g></svg>