<svg xmlns="http://www.w3.org/2000/svg" xmlns:xlink="http://www.w3.org/1999/xlink" viewBox="0 0 480 480"><defs><style>.a{fill:#fff;}.b{fill:none;}.c{fill:url(#a);}.d{fill:url(#b);}.e{fill:url(#c);}.f{fill:url(#d);}.g{fill:#006c6e;}</style><linearGradient id="a" x1="67.95" y1="276.75" x2="337.17" y2="276.75" gradientUnits="userSpaceOnUse"><stop offset="0" stop-color="#008bbf"/><stop offset="1" stop-color="#fcbc86"/></linearGradient><linearGradient id="b" x1="130.63" y1="193.9" x2="414.98" y2="193.9" gradientUnits="userSpaceOnUse"><stop offset="0" stop-color="#fff9ae"/><stop offset="1" stop-color="#006c6e"/></linearGradient><linearGradient id="c" x1="62.27" y1="193.9" x2="342.84" y2="193.9" gradientUnits="userSpaceOnUse"><stop offset="0" stop-color="#006c6e"/><stop offset="1" stop-color="#fff9ae"/></linearGradient><linearGradient id="d" x1="85.69" y1="68.62" x2="200.25" y2="68.62" xlink:href="#c"/></defs><title>default</title><path class="a" d="M0 0h480v480h-480z"/><path class="b" d="M299.25 191.88c-.85-31.07-18.85-62.11-61.43-63-42.58.92-60.58 32-61.43 63-.86 32.51 16.86 65.56 61.43 66.5 44.56-.94 62.29-33.99 61.43-66.5zm17.75 66.54h52.82v-129.61h-53.37c13.65 17.93 20.31 40.58 20.7 63.36.4 23.69-6.09 47.5-20.15 66.25zm-157.81-129.61h-53.35v129.61h52.82c-14.09-18.75-20.58-42.56-20.18-66.25.4-22.78 7.05-45.43 20.71-63.36z"/><path class="c" d="M317 258.42h-158.34c16.09 21.41 42.11 36.2 79.15 36.7 37.05-.5 63.07-15.29 79.19-36.7z"/><path class="d" d="M239.75 92.64h-1.93c36.79.5 62.57 15 78.63 36.12h53.34v129.66h-131.93c-44.57-.94-62.29-34-61.43-66.5.85-31.07 18.85-62.11 61.43-63h-78.63c-13.65 17.93-20.31 40.58-20.7 63.36-.4 23.69 6.09 47.5 20.18 66.25 16.09 21.41 42.11 36.2 79.15 36.7h169.83v-202.59z"/><path class="e" d="M316.45 128.81c-16.06-21.09-41.84-35.62-78.63-36.12h-169.87v202.48h169.87c-37-.5-63.07-15.29-79.15-36.7h-52.83v-129.66h131.93c42.58.92 60.58 32 61.43 63 .86 32.51-16.86 65.56-61.43 66.5h79.23c14.09-18.75 20.58-42.56 20.18-66.25-.42-22.67-7.08-45.32-20.73-63.25z"/><path class="f" d="M85.69 60h46.47v17.25h-46.47z"/><path class="b" d="M369.67 371.86a19.89 19.89 0 0 0-1.18-6.82 18.33 18.33 0 0 0-3.42-5.79 16.11 16.11 0 0 0-5.21-4 14.68 14.68 0 0 0-6.39-1.41 13.57 13.57 0 0 0-5.77 1.3 17.22 17.22 0 0 0-5.19 3.78 18.39 18.39 0 0 0-5 12.89 18.18 18.18 0 0 0 1.32 7 18.8 18.8 0 0 0 3.77 5.76 17.29 17.29 0 0 0 5.27 3.85 13.46 13.46 0 0 0 5.65 1.28 14.77 14.77 0 0 0 6.64-1.39 22.15 22.15 0 0 0 5.91-4.57l3.65-3.81zm-228.74 8.77a18.69 18.69 0 0 0 1-15.57 18.33 18.33 0 0 0-3.57-5.79 17.07 17.07 0 0 0-5.44-4 16 16 0 0 0-13.27 0 16.78 16.78 0 0 0-5.41 4 18.91 18.91 0 0 0-3.58 5.81 18.55 18.55 0 0 0 .95 15.55 17.34 17.34 0 0 0 6.13 6.65 16.1 16.1 0 0 0 17.11 0 17.41 17.41 0 0 0 6.08-6.65zm169.71-21.38a16.13 16.13 0 0 0-5.21-4 14.68 14.68 0 0 0-6.39-1.41 13.57 13.57 0 0 0-5.77 1.3 17.22 17.22 0 0 0-5.19 3.78 18.39 18.39 0 0 0-5 12.89 18.18 18.18 0 0 0 1.32 7 18.8 18.8 0 0 0 3.77 5.76 17.29 17.29 0 0 0 5.27 3.85 13.46 13.46 0 0 0 5.65 1.28 14.77 14.77 0 0 0 6.64-1.39 22.15 22.15 0 0 0 5.91-4.57l3.65-3.81v-8.12a19.88 19.88 0 0 0-1.18-6.82 18.31 18.31 0 0 0-3.47-5.74zm82.95 5.9a19 19 0 0 0-1.32 7 17.83 17.83 0 0 0 .54 4.39l27.77-18.71a16.32 16.32 0 0 0-10.82-3.94 16.9 16.9 0 0 0-12.49 5.39 18.61 18.61 0 0 0-3.68 5.87z"/><path class="g" d="M85.61 384.49l-26.28-56.15a9.72 9.72 0 0 0-3.48-4.5 9.17 9.17 0 0 0-4.85-1.19 7.11 7.11 0 0 0-6.06 2.68 9 9 0 0 0-1.73 5.49v66.86h9.46v-61.12l26 56c2.28 5.24 6 6.34 8.72 6.34 4.79 0 7.65-2.84 7.65-7.6v-68.65h-9.43zm59.3-31.55a26.12 26.12 0 0 0-8.36-5.85 26.15 26.15 0 0 0-20.61 0 26.12 26.12 0 0 0-8.36 5.85 26.92 26.92 0 0 0-5.54 8.62 27.39 27.39 0 0 0-2 10.27 27 27 0 0 0 3.45 13.35 26.46 26.46 0 0 0 9.51 9.82 25.94 25.94 0 0 0 26.58 0 26.47 26.47 0 0 0 9.43-9.79 27 27 0 0 0 3.45-13.35 27 27 0 0 0-7.51-18.89zm-18.68 36.81a15.37 15.37 0 0 1-8.52-2.46 17.34 17.34 0 0 1-6.13-6.65 18.55 18.55 0 0 1-.95-15.55 18.91 18.91 0 0 1 3.58-5.81 16.78 16.78 0 0 1 5.41-4 16 16 0 0 1 13.27 0 17.07 17.07 0 0 1 5.44 4 18.33 18.33 0 0 1 3.57 5.79 18.69 18.69 0 0 1-1 15.57 17.41 17.41 0 0 1-6.11 6.66 15.42 15.42 0 0 1-8.56 2.45zm60.55-65.95h9.46v73.88h-9.46zm74.09 23.42a19.43 19.43 0 0 0-9.24-2.25 18.12 18.12 0 0 0-10.34 2.79 14.59 14.59 0 0 0-3.55 3.4c-3-4.07-7.7-6.19-13.88-6.19a19.38 19.38 0 0 0-9.27 2.25 16.62 16.62 0 0 0-6.77 6.78 21.07 21.07 0 0 0-2.41 10.28v33.4h9.08v-33.37a11.65 11.65 0 0 1 1.35-5.81 8.57 8.57 0 0 1 3.43-3.45 9.47 9.47 0 0 1 4.59-1.19 9.26 9.26 0 0 1 4.58 1.17 8.72 8.72 0 0 1 3.39 3.47 11.66 11.66 0 0 1 1.35 5.81v33.37h9.08v-33.37c0-3.44.9-6 2.76-7.76a9.16 9.16 0 0 1 6.61-2.69 9.43 9.43 0 0 1 4.6 1.18 8.62 8.62 0 0 1 3.42 3.46 11.66 11.66 0 0 1 1.35 5.81v33.37h9.08v-33.4a21.06 21.06 0 0 0-2.42-10.28 16.58 16.58 0 0 0-6.79-6.78zm51 1.27a25.17 25.17 0 0 0-25.68 0 25.26 25.26 0 0 0-9.11 9.68 29.52 29.52 0 0 0 0 27.26 25.24 25.24 0 0 0 9.11 9.68 24.3 24.3 0 0 0 12.81 3.53 20.47 20.47 0 0 0 9.12-1.87 39 39 0 0 0 7-4.6v5.54h9.08v-25.88a28.27 28.27 0 0 0-3.2-13.66 25.26 25.26 0 0 0-9.13-9.68zm3.36 31.51l-3.65 3.81a22.15 22.15 0 0 1-5.91 4.57 14.77 14.77 0 0 1-6.64 1.39 13.46 13.46 0 0 1-5.65-1.28 17.29 17.29 0 0 1-5.27-3.85 18.8 18.8 0 0 1-3.77-5.76 18.18 18.18 0 0 1-1.32-7 18.39 18.39 0 0 1 5-12.89 17.22 17.22 0 0 1 5.19-3.78 13.57 13.57 0 0 1 5.77-1.3 14.68 14.68 0 0 1 6.39 1.41 16.13 16.13 0 0 1 5.21 4 18.31 18.31 0 0 1 3.42 5.79 19.88 19.88 0 0 1 1.18 6.82zm51.07-31.51a25.17 25.17 0 0 0-25.68 0 25.26 25.26 0 0 0-9.11 9.68 29.52 29.52 0 0 0 0 27.26 25.24 25.24 0 0 0 9.11 9.68 24.3 24.3 0 0 0 12.84 3.52 20.47 20.47 0 0 0 9.12-1.87 39 39 0 0 0 7-4.6c0 4.73-.73 8.55-2.1 11.36a11.74 11.74 0 0 1-5.54 5.75 22.62 22.62 0 0 1-9.76 1.86 29.55 29.55 0 0 1-10.69-2.13l-2.65-1-2.84 8.61 2.42.89a41.5 41.5 0 0 0 14.3 2.5 28.91 28.91 0 0 0 13.28-3 22.33 22.33 0 0 0 9.38-9 27.09 27.09 0 0 0 3.34-13.56v-22.6a28.27 28.27 0 0 0-3.34-13.65 25.26 25.26 0 0 0-9.08-9.7zm-.29 35.3a22.15 22.15 0 0 1-5.91 4.57 14.77 14.77 0 0 1-6.64 1.39 13.46 13.46 0 0 1-5.65-1.28 17.29 17.29 0 0 1-5.27-3.85 18.8 18.8 0 0 1-3.77-5.76 18.18 18.18 0 0 1-1.32-7 18.39 18.39 0 0 1 5-12.89 17.22 17.22 0 0 1 5.19-3.78 13.57 13.57 0 0 1 5.77-1.3 14.68 14.68 0 0 1 6.39 1.41 16.11 16.11 0 0 1 5.21 4 18.33 18.33 0 0 1 3.42 5.79 19.89 19.89 0 0 1 1.18 6.82v8.09zm61.46-13.68v2.64a16 16 0 0 1-1.41 6.39 18 18 0 0 1-3.83 5.48 18.23 18.23 0 0 1-5.67 3.76 17.21 17.21 0 0 1-6.77 1.36 17.39 17.39 0 0 1-6.88-1.36 16.88 16.88 0 0 1-5.53-3.81l36.62-24.79-1.35-2.19a26.37 26.37 0 0 0-5.82-6.61 27.7 27.7 0 0 0-27.83-3.88 25.89 25.89 0 0 0-8.49 5.86 26.71 26.71 0 0 0-5.52 8.65 27.75 27.75 0 0 0-2 10.31 26.68 26.68 0 0 0 3.56 13.52 25.65 25.65 0 0 0 9.88 9.7 28.58 28.58 0 0 0 14.09 3.49 25.25 25.25 0 0 0 13.07-3.55 26.55 26.55 0 0 0 9.45-9.5 26.13 26.13 0 0 0 3.66-12.74l.06-2.74zm-17.71-16.25a16.44 16.44 0 0 1 10.82 3.94l-27.77 18.71a17.83 17.83 0 0 1-.54-4.39 19 19 0 0 1 1.32-7 18.61 18.61 0 0 1 3.68-5.9 16.9 16.9 0 0 1 12.49-5.39z"/></svg>